%TF.GenerationSoftware,KiCad,Pcbnew,7.0.5*%
%TF.CreationDate,2023-08-21T15:12:46-04:00*%
%TF.ProjectId,StickRight,53746963-6b52-4696-9768-742e6b696361,rev?*%
%TF.SameCoordinates,Original*%
%TF.FileFunction,Legend,Top*%
%TF.FilePolarity,Positive*%
%FSLAX46Y46*%
G04 Gerber Fmt 4.6, Leading zero omitted, Abs format (unit mm)*
G04 Created by KiCad (PCBNEW 7.0.5) date 2023-08-21 15:12:46*
%MOMM*%
%LPD*%
G01*
G04 APERTURE LIST*
%ADD10C,0.150000*%
%ADD11C,0.120000*%
%ADD12C,0.100000*%
G04 APERTURE END LIST*
D10*
%TO.C,J1*%
X148999819Y-101343333D02*
X149714104Y-101343333D01*
X149714104Y-101343333D02*
X149856961Y-101390952D01*
X149856961Y-101390952D02*
X149952200Y-101486190D01*
X149952200Y-101486190D02*
X149999819Y-101629047D01*
X149999819Y-101629047D02*
X149999819Y-101724285D01*
X149999819Y-100343333D02*
X149999819Y-100914761D01*
X149999819Y-100629047D02*
X148999819Y-100629047D01*
X148999819Y-100629047D02*
X149142676Y-100724285D01*
X149142676Y-100724285D02*
X149237914Y-100819523D01*
X149237914Y-100819523D02*
X149285533Y-100914761D01*
D11*
X139275000Y-97667929D02*
X139275000Y-98065000D01*
X139275000Y-106725000D02*
X139275000Y-100725000D01*
X135785000Y-100725000D02*
X148605000Y-100725000D01*
X148605000Y-100725000D02*
X148605000Y-98065000D01*
X143465000Y-98065000D02*
X143465000Y-100725000D01*
X141815000Y-97667929D02*
X141815000Y-98065000D01*
X138385000Y-98065000D02*
X138385000Y-100725000D01*
X142575000Y-97667929D02*
X142575000Y-98065000D01*
X148545000Y-95355000D02*
X148545000Y-96625000D01*
X144355000Y-106725000D02*
X144355000Y-100725000D01*
X146005000Y-98065000D02*
X146005000Y-100725000D01*
X140925000Y-98065000D02*
X140925000Y-100725000D01*
X146895000Y-97735000D02*
X146895000Y-98065000D01*
X148605000Y-98065000D02*
X135785000Y-98065000D01*
X136735000Y-97667929D02*
X136735000Y-98065000D01*
X142575000Y-106725000D02*
X141815000Y-106725000D01*
X145115000Y-100725000D02*
X145115000Y-106725000D01*
X137495000Y-97667929D02*
X137495000Y-98065000D01*
X142575000Y-100725000D02*
X142575000Y-106725000D01*
X141815000Y-106725000D02*
X141815000Y-100725000D01*
X135785000Y-98065000D02*
X135785000Y-100725000D01*
X147235000Y-100725000D02*
X147235000Y-106725000D01*
X146895000Y-106725000D02*
X146895000Y-100725000D01*
X147595000Y-100725000D02*
X147595000Y-106725000D01*
X145115000Y-97667929D02*
X145115000Y-98065000D01*
X147475000Y-100725000D02*
X147475000Y-106725000D01*
X145115000Y-106725000D02*
X144355000Y-106725000D01*
X147355000Y-100725000D02*
X147355000Y-106725000D01*
X147655000Y-97735000D02*
X147655000Y-98065000D01*
X146995000Y-100725000D02*
X146995000Y-106725000D01*
X144355000Y-97667929D02*
X144355000Y-98065000D01*
X147115000Y-100725000D02*
X147115000Y-106725000D01*
X140035000Y-100725000D02*
X140035000Y-106725000D01*
X140035000Y-106725000D02*
X139275000Y-106725000D01*
X147655000Y-106725000D02*
X146895000Y-106725000D01*
X147655000Y-100725000D02*
X147655000Y-106725000D01*
X137495000Y-100725000D02*
X137495000Y-106725000D01*
X147275000Y-95355000D02*
X148545000Y-95355000D01*
X136735000Y-106725000D02*
X136735000Y-100725000D01*
X140035000Y-97667929D02*
X140035000Y-98065000D01*
X137495000Y-106725000D02*
X136735000Y-106725000D01*
D12*
%TO.C,U1*%
X144330000Y-90732000D02*
X131015000Y-90732000D01*
X141015000Y-72533000D02*
X131180000Y-72533000D01*
X131180000Y-72533000D02*
X131180000Y-85633000D01*
%TD*%
M02*
