%TF.GenerationSoftware,KiCad,Pcbnew,7.0.5*%
%TF.CreationDate,2023-08-21T15:12:46-04:00*%
%TF.ProjectId,StickRight,53746963-6b52-4696-9768-742e6b696361,rev?*%
%TF.SameCoordinates,Original*%
%TF.FileFunction,Legend,Bot*%
%TF.FilePolarity,Positive*%
%FSLAX46Y46*%
G04 Gerber Fmt 4.6, Leading zero omitted, Abs format (unit mm)*
G04 Created by KiCad (PCBNEW 7.0.5) date 2023-08-21 15:12:46*
%MOMM*%
%LPD*%
G01*
G04 APERTURE LIST*
%ADD10C,0.150000*%
G04 APERTURE END LIST*
D10*
%TO.C,U1*%
X139529404Y-81487819D02*
X139529404Y-82297342D01*
X139529404Y-82297342D02*
X139481785Y-82392580D01*
X139481785Y-82392580D02*
X139434166Y-82440200D01*
X139434166Y-82440200D02*
X139338928Y-82487819D01*
X139338928Y-82487819D02*
X139148452Y-82487819D01*
X139148452Y-82487819D02*
X139053214Y-82440200D01*
X139053214Y-82440200D02*
X139005595Y-82392580D01*
X139005595Y-82392580D02*
X138957976Y-82297342D01*
X138957976Y-82297342D02*
X138957976Y-81487819D01*
X137957976Y-82487819D02*
X138529404Y-82487819D01*
X138243690Y-82487819D02*
X138243690Y-81487819D01*
X138243690Y-81487819D02*
X138338928Y-81630676D01*
X138338928Y-81630676D02*
X138434166Y-81725914D01*
X138434166Y-81725914D02*
X138529404Y-81773533D01*
X141297387Y-69979009D02*
X141154530Y-70026628D01*
X141154530Y-70026628D02*
X141106911Y-70074247D01*
X141106911Y-70074247D02*
X141059292Y-70169485D01*
X141059292Y-70169485D02*
X141059292Y-70312342D01*
X141059292Y-70312342D02*
X141106911Y-70407580D01*
X141106911Y-70407580D02*
X141154530Y-70455200D01*
X141154530Y-70455200D02*
X141249768Y-70502819D01*
X141249768Y-70502819D02*
X141630720Y-70502819D01*
X141630720Y-70502819D02*
X141630720Y-69502819D01*
X141630720Y-69502819D02*
X141297387Y-69502819D01*
X141297387Y-69502819D02*
X141202149Y-69550438D01*
X141202149Y-69550438D02*
X141154530Y-69598057D01*
X141154530Y-69598057D02*
X141106911Y-69693295D01*
X141106911Y-69693295D02*
X141106911Y-69788533D01*
X141106911Y-69788533D02*
X141154530Y-69883771D01*
X141154530Y-69883771D02*
X141202149Y-69931390D01*
X141202149Y-69931390D02*
X141297387Y-69979009D01*
X141297387Y-69979009D02*
X141630720Y-69979009D01*
X140487863Y-70502819D02*
X140583101Y-70455200D01*
X140583101Y-70455200D02*
X140630720Y-70407580D01*
X140630720Y-70407580D02*
X140678339Y-70312342D01*
X140678339Y-70312342D02*
X140678339Y-70026628D01*
X140678339Y-70026628D02*
X140630720Y-69931390D01*
X140630720Y-69931390D02*
X140583101Y-69883771D01*
X140583101Y-69883771D02*
X140487863Y-69836152D01*
X140487863Y-69836152D02*
X140345006Y-69836152D01*
X140345006Y-69836152D02*
X140249768Y-69883771D01*
X140249768Y-69883771D02*
X140202149Y-69931390D01*
X140202149Y-69931390D02*
X140154530Y-70026628D01*
X140154530Y-70026628D02*
X140154530Y-70312342D01*
X140154530Y-70312342D02*
X140202149Y-70407580D01*
X140202149Y-70407580D02*
X140249768Y-70455200D01*
X140249768Y-70455200D02*
X140345006Y-70502819D01*
X140345006Y-70502819D02*
X140487863Y-70502819D01*
X139868815Y-69836152D02*
X139487863Y-69836152D01*
X139725958Y-69502819D02*
X139725958Y-70359961D01*
X139725958Y-70359961D02*
X139678339Y-70455200D01*
X139678339Y-70455200D02*
X139583101Y-70502819D01*
X139583101Y-70502819D02*
X139487863Y-70502819D01*
X139297386Y-69836152D02*
X138916434Y-69836152D01*
X139154529Y-69502819D02*
X139154529Y-70359961D01*
X139154529Y-70359961D02*
X139106910Y-70455200D01*
X139106910Y-70455200D02*
X139011672Y-70502819D01*
X139011672Y-70502819D02*
X138916434Y-70502819D01*
X138440243Y-70502819D02*
X138535481Y-70455200D01*
X138535481Y-70455200D02*
X138583100Y-70407580D01*
X138583100Y-70407580D02*
X138630719Y-70312342D01*
X138630719Y-70312342D02*
X138630719Y-70026628D01*
X138630719Y-70026628D02*
X138583100Y-69931390D01*
X138583100Y-69931390D02*
X138535481Y-69883771D01*
X138535481Y-69883771D02*
X138440243Y-69836152D01*
X138440243Y-69836152D02*
X138297386Y-69836152D01*
X138297386Y-69836152D02*
X138202148Y-69883771D01*
X138202148Y-69883771D02*
X138154529Y-69931390D01*
X138154529Y-69931390D02*
X138106910Y-70026628D01*
X138106910Y-70026628D02*
X138106910Y-70312342D01*
X138106910Y-70312342D02*
X138154529Y-70407580D01*
X138154529Y-70407580D02*
X138202148Y-70455200D01*
X138202148Y-70455200D02*
X138297386Y-70502819D01*
X138297386Y-70502819D02*
X138440243Y-70502819D01*
X137678338Y-70502819D02*
X137678338Y-69836152D01*
X137678338Y-69931390D02*
X137630719Y-69883771D01*
X137630719Y-69883771D02*
X137535481Y-69836152D01*
X137535481Y-69836152D02*
X137392624Y-69836152D01*
X137392624Y-69836152D02*
X137297386Y-69883771D01*
X137297386Y-69883771D02*
X137249767Y-69979009D01*
X137249767Y-69979009D02*
X137249767Y-70502819D01*
X137249767Y-69979009D02*
X137202148Y-69883771D01*
X137202148Y-69883771D02*
X137106910Y-69836152D01*
X137106910Y-69836152D02*
X136964053Y-69836152D01*
X136964053Y-69836152D02*
X136868814Y-69883771D01*
X136868814Y-69883771D02*
X136821195Y-69979009D01*
X136821195Y-69979009D02*
X136821195Y-70502819D01*
X135630719Y-70455200D02*
X135487862Y-70502819D01*
X135487862Y-70502819D02*
X135249767Y-70502819D01*
X135249767Y-70502819D02*
X135154529Y-70455200D01*
X135154529Y-70455200D02*
X135106910Y-70407580D01*
X135106910Y-70407580D02*
X135059291Y-70312342D01*
X135059291Y-70312342D02*
X135059291Y-70217104D01*
X135059291Y-70217104D02*
X135106910Y-70121866D01*
X135106910Y-70121866D02*
X135154529Y-70074247D01*
X135154529Y-70074247D02*
X135249767Y-70026628D01*
X135249767Y-70026628D02*
X135440243Y-69979009D01*
X135440243Y-69979009D02*
X135535481Y-69931390D01*
X135535481Y-69931390D02*
X135583100Y-69883771D01*
X135583100Y-69883771D02*
X135630719Y-69788533D01*
X135630719Y-69788533D02*
X135630719Y-69693295D01*
X135630719Y-69693295D02*
X135583100Y-69598057D01*
X135583100Y-69598057D02*
X135535481Y-69550438D01*
X135535481Y-69550438D02*
X135440243Y-69502819D01*
X135440243Y-69502819D02*
X135202148Y-69502819D01*
X135202148Y-69502819D02*
X135059291Y-69550438D01*
X134630719Y-70502819D02*
X134630719Y-69836152D01*
X134630719Y-69502819D02*
X134678338Y-69550438D01*
X134678338Y-69550438D02*
X134630719Y-69598057D01*
X134630719Y-69598057D02*
X134583100Y-69550438D01*
X134583100Y-69550438D02*
X134630719Y-69502819D01*
X134630719Y-69502819D02*
X134630719Y-69598057D01*
X133725958Y-70502819D02*
X133725958Y-69502819D01*
X133725958Y-70455200D02*
X133821196Y-70502819D01*
X133821196Y-70502819D02*
X134011672Y-70502819D01*
X134011672Y-70502819D02*
X134106910Y-70455200D01*
X134106910Y-70455200D02*
X134154529Y-70407580D01*
X134154529Y-70407580D02*
X134202148Y-70312342D01*
X134202148Y-70312342D02*
X134202148Y-70026628D01*
X134202148Y-70026628D02*
X134154529Y-69931390D01*
X134154529Y-69931390D02*
X134106910Y-69883771D01*
X134106910Y-69883771D02*
X134011672Y-69836152D01*
X134011672Y-69836152D02*
X133821196Y-69836152D01*
X133821196Y-69836152D02*
X133725958Y-69883771D01*
X132868815Y-70455200D02*
X132964053Y-70502819D01*
X132964053Y-70502819D02*
X133154529Y-70502819D01*
X133154529Y-70502819D02*
X133249767Y-70455200D01*
X133249767Y-70455200D02*
X133297386Y-70359961D01*
X133297386Y-70359961D02*
X133297386Y-69979009D01*
X133297386Y-69979009D02*
X133249767Y-69883771D01*
X133249767Y-69883771D02*
X133154529Y-69836152D01*
X133154529Y-69836152D02*
X132964053Y-69836152D01*
X132964053Y-69836152D02*
X132868815Y-69883771D01*
X132868815Y-69883771D02*
X132821196Y-69979009D01*
X132821196Y-69979009D02*
X132821196Y-70074247D01*
X132821196Y-70074247D02*
X133297386Y-70169485D01*
%TD*%
M02*
