%TF.GenerationSoftware,KiCad,Pcbnew,7.0.5*%
%TF.CreationDate,2023-08-21T15:12:46-04:00*%
%TF.ProjectId,StickRight,53746963-6b52-4696-9768-742e6b696361,rev?*%
%TF.SameCoordinates,Original*%
%TF.FileFunction,Copper,L2,Bot*%
%TF.FilePolarity,Positive*%
%FSLAX46Y46*%
G04 Gerber Fmt 4.6, Leading zero omitted, Abs format (unit mm)*
G04 Created by KiCad (PCBNEW 7.0.5) date 2023-08-21 15:12:46*
%MOMM*%
%LPD*%
G01*
G04 APERTURE LIST*
%TA.AperFunction,ComponentPad*%
%ADD10R,1.700000X1.700000*%
%TD*%
%TA.AperFunction,ComponentPad*%
%ADD11O,1.700000X1.700000*%
%TD*%
%TA.AperFunction,ComponentPad*%
%ADD12C,1.950000*%
%TD*%
%TA.AperFunction,ComponentPad*%
%ADD13C,1.650000*%
%TD*%
%TA.AperFunction,ComponentPad*%
%ADD14C,2.500000*%
%TD*%
%TA.AperFunction,ComponentPad*%
%ADD15C,2.000000*%
%TD*%
%TA.AperFunction,ComponentPad*%
%ADD16C,2.250000*%
%TD*%
%TA.AperFunction,ComponentPad*%
%ADD17C,2.400000*%
%TD*%
%TA.AperFunction,ComponentPad*%
%ADD18C,2.475000*%
%TD*%
%TA.AperFunction,ViaPad*%
%ADD19C,0.600000*%
%TD*%
%TA.AperFunction,Conductor*%
%ADD20C,0.500000*%
%TD*%
G04 APERTURE END LIST*
D10*
%TO.P,J1,1,Pin_1*%
%TO.N,Net-(J1-Pin_1)*%
X147275000Y-96625000D03*
D11*
%TO.P,J1,2,Pin_2*%
%TO.N,Net-(J1-Pin_2)*%
X144735000Y-96625000D03*
%TO.P,J1,3,Pin_3*%
%TO.N,Net-(J1-Pin_3)*%
X142195000Y-96625000D03*
%TO.P,J1,4,Pin_4*%
%TO.N,GND*%
X139655000Y-96625000D03*
%TO.P,J1,5,Pin_5*%
%TO.N,Net-(J1-Pin_5)*%
X137115000Y-96625000D03*
%TD*%
D12*
%TO.P,U1,A1,A1*%
%TO.N,GND*%
X132765000Y-83680000D03*
X132765000Y-77180000D03*
D13*
%TO.P,U1,A11,A11*%
%TO.N,Net-(J1-Pin_1)*%
X136015000Y-89160000D03*
%TO.P,U1,A12,A12*%
%TO.N,Net-(J1-Pin_3)*%
X138515000Y-89160000D03*
%TO.P,U1,A13,A13*%
%TO.N,GND*%
X141015000Y-89160000D03*
D12*
%TO.P,U1,B1,B1*%
%TO.N,Net-(J1-Pin_5)*%
X128265000Y-83680000D03*
X128265000Y-77180000D03*
D14*
%TO.P,U1,B2*%
%TO.N,N/C*%
X152967500Y-91933000D03*
D15*
X125067500Y-74333000D03*
D16*
%TO.P,U1,B3*%
X151567500Y-86733000D03*
D13*
%TO.P,U1,B11,B11*%
%TO.N,Net-(J1-Pin_1)*%
X147245000Y-82930000D03*
%TO.P,U1,B12,B12*%
%TO.N,Net-(J1-Pin_2)*%
X147245000Y-80430000D03*
%TO.P,U1,B13,B13*%
%TO.N,GND*%
X147245000Y-77930000D03*
D17*
%TO.P,U1,MH1,MH1*%
X143515000Y-86755000D03*
X143515000Y-74105000D03*
X133515000Y-86755000D03*
X133515000Y-74105000D03*
D18*
%TO.P,U1,MH2,MH2*%
X138515000Y-84730000D03*
X138515000Y-76130000D03*
%TD*%
D19*
%TO.N,GND*%
X150000000Y-92500000D03*
X125000000Y-77500000D03*
X125000000Y-82500000D03*
X127500000Y-87500000D03*
X132500000Y-92500000D03*
X137500000Y-100000000D03*
X147500000Y-100000000D03*
X152500000Y-80000000D03*
X150000000Y-75000000D03*
X127500000Y-72500000D03*
X132500000Y-70000000D03*
X137500000Y-70000000D03*
X142500000Y-70000000D03*
X147500000Y-70000000D03*
%TD*%
D20*
%TO.N,Net-(J1-Pin_1)*%
X137040000Y-81750000D02*
X146065000Y-81750000D01*
X146065000Y-81750000D02*
X147245000Y-82930000D01*
X136015000Y-82775000D02*
X137040000Y-81750000D01*
X136015000Y-89160000D02*
X136015000Y-82775000D01*
X147275000Y-82960000D02*
X147245000Y-82930000D01*
X147275000Y-96625000D02*
X147275000Y-82960000D01*
X147245000Y-96435000D02*
X147135000Y-96545000D01*
%TD*%
%TA.AperFunction,Conductor*%
%TO.N,GND*%
G36*
X139905000Y-97955633D02*
G01*
X140118483Y-97898433D01*
X140118492Y-97898429D01*
X140332578Y-97798600D01*
X140526082Y-97663105D01*
X140693105Y-97496082D01*
X140823119Y-97310405D01*
X140877696Y-97266781D01*
X140947195Y-97259588D01*
X141009549Y-97291110D01*
X141026269Y-97310405D01*
X141156505Y-97496401D01*
X141323599Y-97663495D01*
X141420384Y-97731265D01*
X141517165Y-97799032D01*
X141517167Y-97799033D01*
X141517170Y-97799035D01*
X141731337Y-97898903D01*
X141959592Y-97960063D01*
X142136034Y-97975500D01*
X142194999Y-97980659D01*
X142195000Y-97980659D01*
X142195001Y-97980659D01*
X142253966Y-97975500D01*
X142430408Y-97960063D01*
X142658663Y-97898903D01*
X142872830Y-97799035D01*
X143066401Y-97663495D01*
X143233495Y-97496401D01*
X143363424Y-97310842D01*
X143418002Y-97267217D01*
X143487500Y-97260023D01*
X143549855Y-97291546D01*
X143566575Y-97310842D01*
X143696281Y-97496082D01*
X143696505Y-97496401D01*
X143863599Y-97663495D01*
X143960384Y-97731265D01*
X144057165Y-97799032D01*
X144057167Y-97799033D01*
X144057170Y-97799035D01*
X144271337Y-97898903D01*
X144499592Y-97960063D01*
X144676034Y-97975500D01*
X144734999Y-97980659D01*
X144735000Y-97980659D01*
X144735001Y-97980659D01*
X144793966Y-97975500D01*
X144970408Y-97960063D01*
X145198663Y-97898903D01*
X145412830Y-97799035D01*
X145606401Y-97663495D01*
X145728329Y-97541566D01*
X145789648Y-97508084D01*
X145859340Y-97513068D01*
X145915274Y-97554939D01*
X145932189Y-97585917D01*
X145981202Y-97717328D01*
X145981206Y-97717335D01*
X146067452Y-97832544D01*
X146067455Y-97832547D01*
X146182664Y-97918793D01*
X146182671Y-97918797D01*
X146317517Y-97969091D01*
X146317516Y-97969091D01*
X146320251Y-97969385D01*
X146377127Y-97975500D01*
X148172872Y-97975499D01*
X148229746Y-97969385D01*
X148298506Y-97981792D01*
X148349642Y-98029403D01*
X148367000Y-98092675D01*
X148367000Y-99774323D01*
X148347315Y-99841362D01*
X148330681Y-99862004D01*
X147596505Y-100596181D01*
X147535182Y-100629666D01*
X147508824Y-100632500D01*
X136726176Y-100632500D01*
X136659137Y-100612815D01*
X136638495Y-100596181D01*
X135903349Y-99861035D01*
X135869864Y-99799712D01*
X135867031Y-99773819D01*
X135860724Y-98092675D01*
X135858793Y-97578091D01*
X135878226Y-97510980D01*
X135930858Y-97465028D01*
X135999978Y-97454825D01*
X136063643Y-97483611D01*
X136072586Y-97492663D01*
X136072677Y-97492573D01*
X136076505Y-97496400D01*
X136076505Y-97496401D01*
X136243599Y-97663495D01*
X136340384Y-97731265D01*
X136437165Y-97799032D01*
X136437167Y-97799033D01*
X136437170Y-97799035D01*
X136651337Y-97898903D01*
X136879592Y-97960063D01*
X137056034Y-97975500D01*
X137114999Y-97980659D01*
X137115000Y-97980659D01*
X137115001Y-97980659D01*
X137173966Y-97975500D01*
X137350408Y-97960063D01*
X137578663Y-97898903D01*
X137792830Y-97799035D01*
X137986401Y-97663495D01*
X138153495Y-97496401D01*
X138283730Y-97310405D01*
X138338307Y-97266781D01*
X138407805Y-97259587D01*
X138470160Y-97291110D01*
X138486879Y-97310405D01*
X138616890Y-97496078D01*
X138783917Y-97663105D01*
X138977421Y-97798600D01*
X139191507Y-97898429D01*
X139191516Y-97898433D01*
X139405000Y-97955634D01*
X139405000Y-97060501D01*
X139512685Y-97109680D01*
X139619237Y-97125000D01*
X139690763Y-97125000D01*
X139797315Y-97109680D01*
X139905000Y-97060501D01*
X139905000Y-97955633D01*
G37*
%TD.AperFunction*%
%TA.AperFunction,Conductor*%
G36*
X145389675Y-67644468D02*
G01*
X145452993Y-67661908D01*
X145961450Y-67964482D01*
X145964006Y-67966090D01*
X146588347Y-68380787D01*
X146590818Y-68382518D01*
X147193859Y-68827594D01*
X147196283Y-68829478D01*
X147420468Y-69012747D01*
X147776546Y-69303839D01*
X147778864Y-69305831D01*
X148334945Y-69808330D01*
X148337171Y-69810444D01*
X148867699Y-70339842D01*
X148869807Y-70342052D01*
X148991113Y-70475719D01*
X149373493Y-70897062D01*
X149375499Y-70899385D01*
X149851094Y-71478631D01*
X149852983Y-71481051D01*
X150299338Y-72083134D01*
X150301090Y-72085625D01*
X150717098Y-72709049D01*
X150718738Y-72711644D01*
X151103384Y-73354891D01*
X151104893Y-73357564D01*
X151457229Y-74019045D01*
X151458605Y-74021789D01*
X151777790Y-74699929D01*
X151779023Y-74702727D01*
X152064262Y-75395840D01*
X152065343Y-75398664D01*
X152315919Y-76105008D01*
X152316874Y-76107925D01*
X152532197Y-76825827D01*
X152533005Y-76828789D01*
X152621278Y-77186577D01*
X152706266Y-77531055D01*
X152712530Y-77556442D01*
X152713188Y-77559427D01*
X152854241Y-78283553D01*
X152856483Y-78295064D01*
X152856995Y-78298091D01*
X152963715Y-79039955D01*
X152964077Y-79043003D01*
X153033951Y-79789207D01*
X153034161Y-79792270D01*
X153064054Y-80473413D01*
X153062825Y-80488019D01*
X153063773Y-80488087D01*
X153063140Y-80496928D01*
X153067224Y-80554013D01*
X153067370Y-80557252D01*
X153068348Y-80608443D01*
X153068415Y-80608673D01*
X153072959Y-80634194D01*
X153073409Y-80640483D01*
X153073409Y-80640485D01*
X153091068Y-80687830D01*
X153092546Y-80692308D01*
X153104883Y-80735062D01*
X153108881Y-80741691D01*
X153118881Y-80762400D01*
X153123702Y-80775327D01*
X153123703Y-80775328D01*
X153123704Y-80775331D01*
X153149967Y-80810414D01*
X153153427Y-80815551D01*
X153172943Y-80847910D01*
X153172945Y-80847913D01*
X153217042Y-80890356D01*
X154930682Y-82603996D01*
X154964166Y-82665317D01*
X154967000Y-82691675D01*
X154967000Y-91876209D01*
X154949348Y-91936322D01*
X154964255Y-91963844D01*
X154967000Y-91989790D01*
X154967000Y-93374323D01*
X154947315Y-93441362D01*
X154930681Y-93462004D01*
X154196505Y-94196181D01*
X154135182Y-94229666D01*
X154108824Y-94232500D01*
X149834643Y-94232500D01*
X149808285Y-94229666D01*
X149803574Y-94228641D01*
X149803570Y-94228641D01*
X149765052Y-94231396D01*
X149751828Y-94232342D01*
X149747406Y-94232500D01*
X149731699Y-94232500D01*
X149716156Y-94234734D01*
X149711760Y-94235207D01*
X149660017Y-94238909D01*
X149660013Y-94238910D01*
X149655486Y-94240598D01*
X149629827Y-94247146D01*
X149625050Y-94247833D01*
X149625043Y-94247835D01*
X149577853Y-94269385D01*
X149573764Y-94271078D01*
X149525175Y-94289200D01*
X149525164Y-94289206D01*
X149521299Y-94292100D01*
X149498520Y-94305615D01*
X149494136Y-94307617D01*
X149494126Y-94307623D01*
X149470176Y-94328375D01*
X149454928Y-94341587D01*
X149451496Y-94344354D01*
X149438902Y-94353781D01*
X149427791Y-94364892D01*
X149424555Y-94367905D01*
X149385361Y-94401867D01*
X149385354Y-94401876D01*
X149382743Y-94405938D01*
X149366116Y-94426568D01*
X148561068Y-95231616D01*
X148540438Y-95248243D01*
X148536376Y-95250854D01*
X148536367Y-95250861D01*
X148502403Y-95290057D01*
X148499387Y-95293296D01*
X148492253Y-95300430D01*
X148430930Y-95333915D01*
X148361239Y-95328931D01*
X148232482Y-95280908D01*
X148232483Y-95280908D01*
X148172883Y-95274501D01*
X148172881Y-95274500D01*
X148172873Y-95274500D01*
X148172865Y-95274500D01*
X148149500Y-95274500D01*
X148082461Y-95254815D01*
X148036706Y-95202011D01*
X148025500Y-95150500D01*
X148025500Y-91933004D01*
X151212092Y-91933004D01*
X151231696Y-92194620D01*
X151231697Y-92194625D01*
X151290076Y-92450402D01*
X151290078Y-92450411D01*
X151290080Y-92450416D01*
X151385932Y-92694643D01*
X151517114Y-92921857D01*
X151649236Y-93087533D01*
X151680698Y-93126985D01*
X151862253Y-93295441D01*
X151873021Y-93305433D01*
X152089796Y-93453228D01*
X152089801Y-93453230D01*
X152089802Y-93453231D01*
X152089803Y-93453232D01*
X152215343Y-93513688D01*
X152326173Y-93567061D01*
X152326174Y-93567061D01*
X152326177Y-93567063D01*
X152576885Y-93644396D01*
X152836318Y-93683500D01*
X153098682Y-93683500D01*
X153358115Y-93644396D01*
X153608823Y-93567063D01*
X153795611Y-93477110D01*
X153845196Y-93453232D01*
X153845196Y-93453231D01*
X153845204Y-93453228D01*
X154061979Y-93305433D01*
X154254305Y-93126981D01*
X154417886Y-92921857D01*
X154549068Y-92694643D01*
X154644920Y-92450416D01*
X154703302Y-92194630D01*
X154706452Y-92152594D01*
X154719347Y-91980524D01*
X154737556Y-91932203D01*
X154724023Y-91911144D01*
X154719347Y-91885475D01*
X154703303Y-91671379D01*
X154703302Y-91671374D01*
X154703302Y-91671370D01*
X154644920Y-91415584D01*
X154549068Y-91171357D01*
X154417886Y-90944143D01*
X154254305Y-90739019D01*
X154254304Y-90739018D01*
X154254301Y-90739014D01*
X154061979Y-90560567D01*
X153959302Y-90490563D01*
X153845204Y-90412772D01*
X153845200Y-90412770D01*
X153845197Y-90412768D01*
X153845196Y-90412767D01*
X153608825Y-90298938D01*
X153608827Y-90298938D01*
X153358123Y-90221606D01*
X153358119Y-90221605D01*
X153358115Y-90221604D01*
X153233323Y-90202794D01*
X153098687Y-90182500D01*
X153098682Y-90182500D01*
X152836318Y-90182500D01*
X152836312Y-90182500D01*
X152674747Y-90206853D01*
X152576885Y-90221604D01*
X152576881Y-90221605D01*
X152576882Y-90221605D01*
X152576876Y-90221606D01*
X152326173Y-90298938D01*
X152089803Y-90412767D01*
X152089802Y-90412768D01*
X151873020Y-90560567D01*
X151680698Y-90739014D01*
X151517114Y-90944143D01*
X151385932Y-91171356D01*
X151290082Y-91415578D01*
X151290076Y-91415597D01*
X151231697Y-91671374D01*
X151231696Y-91671379D01*
X151212092Y-91932995D01*
X151212092Y-91933004D01*
X148025500Y-91933004D01*
X148025500Y-86733000D01*
X149936974Y-86733000D01*
X149957047Y-86988064D01*
X149957047Y-86988067D01*
X149957048Y-86988070D01*
X149985974Y-87108553D01*
X150016779Y-87236864D01*
X150114688Y-87473239D01*
X150114690Y-87473242D01*
X150248375Y-87691396D01*
X150248378Y-87691401D01*
X150313794Y-87767993D01*
X150414544Y-87885956D01*
X150535683Y-87989418D01*
X150609098Y-88052121D01*
X150609100Y-88052122D01*
X150609101Y-88052123D01*
X150638042Y-88069858D01*
X150827257Y-88185809D01*
X150827260Y-88185811D01*
X151063635Y-88283720D01*
X151063640Y-88283722D01*
X151312430Y-88343452D01*
X151567500Y-88363526D01*
X151822570Y-88343452D01*
X152071360Y-88283722D01*
X152189551Y-88234765D01*
X152307739Y-88185811D01*
X152307740Y-88185810D01*
X152307743Y-88185809D01*
X152525899Y-88052123D01*
X152720456Y-87885956D01*
X152886623Y-87691399D01*
X153020309Y-87473243D01*
X153057100Y-87384423D01*
X153118220Y-87236864D01*
X153118222Y-87236860D01*
X153177952Y-86988070D01*
X153198026Y-86733000D01*
X153177952Y-86477930D01*
X153118222Y-86229140D01*
X153075325Y-86125577D01*
X153020311Y-85992760D01*
X153020309Y-85992757D01*
X153006439Y-85970123D01*
X152886623Y-85774601D01*
X152886622Y-85774600D01*
X152886621Y-85774598D01*
X152826819Y-85704579D01*
X152720456Y-85580044D01*
X152607025Y-85483165D01*
X152525901Y-85413878D01*
X152525896Y-85413875D01*
X152307742Y-85280190D01*
X152307739Y-85280188D01*
X152071364Y-85182279D01*
X152071360Y-85182278D01*
X151822570Y-85122548D01*
X151822567Y-85122547D01*
X151822564Y-85122547D01*
X151600596Y-85105078D01*
X151567500Y-85102474D01*
X151567499Y-85102474D01*
X151312435Y-85122547D01*
X151312431Y-85122547D01*
X151312430Y-85122548D01*
X151188034Y-85152412D01*
X151063635Y-85182279D01*
X150827260Y-85280188D01*
X150827257Y-85280190D01*
X150609103Y-85413875D01*
X150609098Y-85413878D01*
X150414544Y-85580044D01*
X150248378Y-85774598D01*
X150248375Y-85774603D01*
X150114690Y-85992757D01*
X150114688Y-85992760D01*
X150016779Y-86229135D01*
X149957047Y-86477935D01*
X149936974Y-86733000D01*
X148025500Y-86733000D01*
X148025500Y-84066173D01*
X148045185Y-83999134D01*
X148078371Y-83964603D01*
X148100269Y-83949270D01*
X148264270Y-83785269D01*
X148397301Y-83595282D01*
X148495320Y-83385079D01*
X148555349Y-83161050D01*
X148575563Y-82930000D01*
X148555349Y-82698950D01*
X148495320Y-82474921D01*
X148397301Y-82264719D01*
X148397299Y-82264716D01*
X148397298Y-82264714D01*
X148264273Y-82074735D01*
X148264268Y-82074729D01*
X148100269Y-81910730D01*
X148100268Y-81910729D01*
X147915814Y-81781572D01*
X147872192Y-81726998D01*
X147864999Y-81657499D01*
X147896521Y-81595145D01*
X147915809Y-81578430D01*
X148100269Y-81449270D01*
X148264270Y-81285269D01*
X148397301Y-81095282D01*
X148495320Y-80885079D01*
X148555349Y-80661050D01*
X148575563Y-80430000D01*
X148555349Y-80198950D01*
X148495320Y-79974921D01*
X148397301Y-79764719D01*
X148397299Y-79764716D01*
X148397298Y-79764714D01*
X148264273Y-79574735D01*
X148264268Y-79574729D01*
X148100269Y-79410730D01*
X147915379Y-79281268D01*
X147871757Y-79226693D01*
X147864564Y-79157194D01*
X147896086Y-79094840D01*
X147915381Y-79078120D01*
X147988423Y-79026975D01*
X147416568Y-78455121D01*
X147533458Y-78404349D01*
X147650739Y-78308934D01*
X147737928Y-78185415D01*
X147768354Y-78099802D01*
X148341975Y-78673423D01*
X148396867Y-78595030D01*
X148494847Y-78384909D01*
X148494851Y-78384900D01*
X148554852Y-78160968D01*
X148554854Y-78160958D01*
X148575061Y-77930000D01*
X148575061Y-77929999D01*
X148554854Y-77699041D01*
X148554852Y-77699031D01*
X148494851Y-77475099D01*
X148494847Y-77475090D01*
X148396868Y-77264972D01*
X148341974Y-77186576D01*
X147770929Y-77757622D01*
X147768116Y-77744085D01*
X147698558Y-77609844D01*
X147595362Y-77499348D01*
X147466181Y-77420791D01*
X147414997Y-77406450D01*
X147988423Y-76833024D01*
X147988422Y-76833023D01*
X147910031Y-76778133D01*
X147910029Y-76778132D01*
X147699909Y-76680152D01*
X147699900Y-76680148D01*
X147475968Y-76620147D01*
X147475958Y-76620145D01*
X147245001Y-76599939D01*
X147244999Y-76599939D01*
X147014041Y-76620145D01*
X147014031Y-76620147D01*
X146790099Y-76680148D01*
X146790090Y-76680152D01*
X146579971Y-76778132D01*
X146579969Y-76778133D01*
X146501577Y-76833024D01*
X146501576Y-76833024D01*
X147073431Y-77404878D01*
X146956542Y-77455651D01*
X146839261Y-77551066D01*
X146752072Y-77674585D01*
X146721645Y-77760196D01*
X146148025Y-77186576D01*
X146148024Y-77186577D01*
X146093133Y-77264969D01*
X146093132Y-77264971D01*
X145995152Y-77475090D01*
X145995148Y-77475099D01*
X145935147Y-77699031D01*
X145935145Y-77699041D01*
X145914939Y-77929999D01*
X145914939Y-77930000D01*
X145935145Y-78160958D01*
X145935147Y-78160968D01*
X145995148Y-78384900D01*
X145995152Y-78384909D01*
X146093132Y-78595029D01*
X146093133Y-78595031D01*
X146148023Y-78673422D01*
X146148023Y-78673423D01*
X146719070Y-78102376D01*
X146721884Y-78115915D01*
X146791442Y-78250156D01*
X146894638Y-78360652D01*
X147023819Y-78439209D01*
X147075002Y-78453549D01*
X146501575Y-79026975D01*
X146501575Y-79026976D01*
X146574618Y-79078120D01*
X146618243Y-79132696D01*
X146625437Y-79202194D01*
X146593915Y-79264549D01*
X146574619Y-79281270D01*
X146389731Y-79410730D01*
X146389729Y-79410731D01*
X146225731Y-79574729D01*
X146225726Y-79574735D01*
X146092701Y-79764714D01*
X146092699Y-79764718D01*
X145994681Y-79974917D01*
X145934651Y-80198948D01*
X145934650Y-80198955D01*
X145914437Y-80429998D01*
X145914437Y-80430001D01*
X145934650Y-80661044D01*
X145934651Y-80661051D01*
X145954482Y-80735061D01*
X145974673Y-80810414D01*
X145983514Y-80843406D01*
X145981851Y-80913256D01*
X145942689Y-80971119D01*
X145878460Y-80998623D01*
X145863739Y-80999500D01*
X137103705Y-80999500D01*
X137085735Y-80998191D01*
X137061972Y-80994710D01*
X137016533Y-80998686D01*
X137009931Y-80999264D01*
X137004530Y-80999500D01*
X136996283Y-80999500D01*
X136964606Y-81003202D01*
X136962832Y-81003384D01*
X136932390Y-81006047D01*
X136887198Y-81010001D01*
X136880132Y-81011460D01*
X136880120Y-81011404D01*
X136872763Y-81013035D01*
X136872777Y-81013092D01*
X136865740Y-81014760D01*
X136794385Y-81040729D01*
X136792685Y-81041320D01*
X136720668Y-81065185D01*
X136714126Y-81068236D01*
X136714101Y-81068183D01*
X136707308Y-81071471D01*
X136707334Y-81071523D01*
X136700880Y-81074764D01*
X136637468Y-81116470D01*
X136635948Y-81117439D01*
X136571348Y-81157285D01*
X136565683Y-81161765D01*
X136565647Y-81161719D01*
X136559798Y-81166484D01*
X136559835Y-81166528D01*
X136554309Y-81171164D01*
X136502213Y-81226381D01*
X136500957Y-81227674D01*
X135529358Y-82199272D01*
X135515729Y-82211051D01*
X135496468Y-82225390D01*
X135462898Y-82265397D01*
X135459253Y-82269376D01*
X135453407Y-82275223D01*
X135433618Y-82300251D01*
X135432481Y-82301647D01*
X135383694Y-82359790D01*
X135379729Y-82365819D01*
X135379682Y-82365788D01*
X135375630Y-82372147D01*
X135375679Y-82372177D01*
X135371889Y-82378321D01*
X135339812Y-82447110D01*
X135339027Y-82448731D01*
X135304957Y-82516572D01*
X135302488Y-82523357D01*
X135302432Y-82523336D01*
X135299960Y-82530450D01*
X135300015Y-82530469D01*
X135297743Y-82537325D01*
X135282391Y-82611670D01*
X135282001Y-82613428D01*
X135264499Y-82687279D01*
X135263661Y-82694454D01*
X135263601Y-82694447D01*
X135262835Y-82701945D01*
X135262895Y-82701951D01*
X135262265Y-82709140D01*
X135264474Y-82785030D01*
X135264500Y-82786833D01*
X135264500Y-85922448D01*
X135244815Y-85989487D01*
X135192011Y-86035242D01*
X135122853Y-86045186D01*
X135059297Y-86016161D01*
X135033113Y-85984448D01*
X134923544Y-85794671D01*
X134881546Y-85742006D01*
X134231661Y-86391890D01*
X134144423Y-86253052D01*
X134016948Y-86125577D01*
X133878108Y-86038338D01*
X134528185Y-85388261D01*
X134367377Y-85278624D01*
X134367376Y-85278623D01*
X134137823Y-85168078D01*
X134137825Y-85168078D01*
X133894347Y-85092975D01*
X133894342Y-85092974D01*
X133719385Y-85066603D01*
X133656029Y-85037146D01*
X133618655Y-84978113D01*
X133614105Y-84936305D01*
X133617240Y-84885792D01*
X133012534Y-84281086D01*
X133080629Y-84254126D01*
X133213492Y-84157595D01*
X133318175Y-84031055D01*
X133366631Y-83928080D01*
X133970372Y-84531820D01*
X134066669Y-84384429D01*
X134164861Y-84160573D01*
X134224869Y-83923605D01*
X134245055Y-83680005D01*
X134245055Y-83679994D01*
X134224869Y-83436394D01*
X134164861Y-83199426D01*
X134066671Y-82975575D01*
X133970372Y-82828178D01*
X133367546Y-83431003D01*
X133357812Y-83401044D01*
X133269814Y-83262381D01*
X133150097Y-83149960D01*
X133015487Y-83075957D01*
X133617240Y-82474206D01*
X133617240Y-82474204D01*
X133574514Y-82440949D01*
X133574514Y-82440948D01*
X133359531Y-82324605D01*
X133359523Y-82324602D01*
X133128335Y-82245234D01*
X132887221Y-82205000D01*
X132642779Y-82205000D01*
X132401664Y-82245234D01*
X132170476Y-82324602D01*
X132170468Y-82324605D01*
X131955484Y-82440949D01*
X131955478Y-82440953D01*
X131912758Y-82474203D01*
X131912758Y-82474205D01*
X132517466Y-83078913D01*
X132449371Y-83105874D01*
X132316508Y-83202405D01*
X132211825Y-83328945D01*
X132163368Y-83431921D01*
X131559625Y-82828178D01*
X131463329Y-82975572D01*
X131365138Y-83199426D01*
X131305130Y-83436394D01*
X131284944Y-83679994D01*
X131284944Y-83680005D01*
X131305130Y-83923605D01*
X131365138Y-84160573D01*
X131463328Y-84384424D01*
X131559626Y-84531820D01*
X132162452Y-83928992D01*
X132172188Y-83958956D01*
X132260186Y-84097619D01*
X132379903Y-84210040D01*
X132514510Y-84284041D01*
X131912757Y-84885793D01*
X131912758Y-84885794D01*
X131955485Y-84919050D01*
X131955485Y-84919051D01*
X132170468Y-85035394D01*
X132170476Y-85035397D01*
X132401665Y-85114765D01*
X132499824Y-85131145D01*
X132562709Y-85161595D01*
X132599149Y-85221210D01*
X132597574Y-85291062D01*
X132558485Y-85348973D01*
X132549267Y-85355907D01*
X132501813Y-85388260D01*
X132501813Y-85388261D01*
X133151891Y-86038338D01*
X133013052Y-86125577D01*
X132885577Y-86253052D01*
X132798338Y-86391891D01*
X132148453Y-85742006D01*
X132106455Y-85794670D01*
X131979058Y-86015328D01*
X131885973Y-86252505D01*
X131885968Y-86252522D01*
X131829273Y-86500920D01*
X131810233Y-86754995D01*
X131810233Y-86755004D01*
X131829273Y-87009079D01*
X131885968Y-87257477D01*
X131885973Y-87257494D01*
X131979058Y-87494671D01*
X131979057Y-87494671D01*
X132106457Y-87715332D01*
X132148452Y-87767993D01*
X132148453Y-87767993D01*
X132798338Y-87118108D01*
X132885577Y-87256948D01*
X133013052Y-87384423D01*
X133151890Y-87471661D01*
X132501813Y-88121737D01*
X132662623Y-88231375D01*
X132662624Y-88231376D01*
X132892176Y-88341921D01*
X132892174Y-88341921D01*
X133135652Y-88417024D01*
X133135658Y-88417026D01*
X133387595Y-88454999D01*
X133387604Y-88455000D01*
X133642396Y-88455000D01*
X133642404Y-88454999D01*
X133894341Y-88417026D01*
X133894347Y-88417024D01*
X134137824Y-88341921D01*
X134367381Y-88231373D01*
X134528185Y-88121737D01*
X133878108Y-87471661D01*
X134016948Y-87384423D01*
X134144423Y-87256948D01*
X134231661Y-87118109D01*
X134881545Y-87767993D01*
X134923545Y-87715327D01*
X135033113Y-87525551D01*
X135083680Y-87477335D01*
X135152287Y-87464112D01*
X135217152Y-87490080D01*
X135257680Y-87546994D01*
X135264500Y-87587551D01*
X135264500Y-88002819D01*
X135244815Y-88069858D01*
X135211624Y-88104393D01*
X135159738Y-88140724D01*
X135159727Y-88140733D01*
X134995731Y-88304729D01*
X134995726Y-88304735D01*
X134862701Y-88494714D01*
X134862699Y-88494718D01*
X134764681Y-88704917D01*
X134704651Y-88928948D01*
X134704650Y-88928955D01*
X134684437Y-89159998D01*
X134684437Y-89160001D01*
X134704650Y-89391044D01*
X134704651Y-89391051D01*
X134764678Y-89615074D01*
X134764679Y-89615076D01*
X134764680Y-89615079D01*
X134862699Y-89825282D01*
X134995730Y-90015269D01*
X135159731Y-90179270D01*
X135349718Y-90312301D01*
X135559921Y-90410320D01*
X135783950Y-90470349D01*
X135948985Y-90484787D01*
X136014998Y-90490563D01*
X136015000Y-90490563D01*
X136015002Y-90490563D01*
X136072762Y-90485509D01*
X136246050Y-90470349D01*
X136470079Y-90410320D01*
X136680282Y-90312301D01*
X136870269Y-90179270D01*
X137034270Y-90015269D01*
X137163427Y-89830814D01*
X137218002Y-89787192D01*
X137287501Y-89779999D01*
X137349855Y-89811521D01*
X137366569Y-89830809D01*
X137495730Y-90015269D01*
X137659731Y-90179270D01*
X137849718Y-90312301D01*
X138059921Y-90410320D01*
X138283950Y-90470349D01*
X138448985Y-90484787D01*
X138514998Y-90490563D01*
X138515000Y-90490563D01*
X138515002Y-90490563D01*
X138572762Y-90485509D01*
X138746050Y-90470349D01*
X138970079Y-90410320D01*
X139180282Y-90312301D01*
X139370269Y-90179270D01*
X139534270Y-90015269D01*
X139663731Y-89830379D01*
X139718307Y-89786757D01*
X139787806Y-89779564D01*
X139850160Y-89811086D01*
X139866880Y-89830382D01*
X139918023Y-89903422D01*
X139918024Y-89903423D01*
X140489070Y-89332376D01*
X140491884Y-89345915D01*
X140561442Y-89480156D01*
X140664638Y-89590652D01*
X140793819Y-89669209D01*
X140845002Y-89683549D01*
X140271575Y-90256975D01*
X140349973Y-90311868D01*
X140560090Y-90409847D01*
X140560099Y-90409851D01*
X140784031Y-90469852D01*
X140784041Y-90469854D01*
X141014999Y-90490061D01*
X141015001Y-90490061D01*
X141245958Y-90469854D01*
X141245968Y-90469852D01*
X141469900Y-90409851D01*
X141469909Y-90409847D01*
X141680030Y-90311867D01*
X141758423Y-90256975D01*
X141186568Y-89685121D01*
X141303458Y-89634349D01*
X141420739Y-89538934D01*
X141507928Y-89415415D01*
X141538354Y-89329802D01*
X142111975Y-89903423D01*
X142166867Y-89825030D01*
X142264847Y-89614909D01*
X142264851Y-89614900D01*
X142324852Y-89390968D01*
X142324854Y-89390958D01*
X142345061Y-89160000D01*
X142345061Y-89159999D01*
X142324854Y-88929041D01*
X142324852Y-88929031D01*
X142264851Y-88705099D01*
X142264847Y-88705090D01*
X142166868Y-88494972D01*
X142111974Y-88416576D01*
X141540929Y-88987622D01*
X141538116Y-88974085D01*
X141468558Y-88839844D01*
X141365362Y-88729348D01*
X141236181Y-88650791D01*
X141184997Y-88636450D01*
X141758423Y-88063024D01*
X141758422Y-88063023D01*
X141680031Y-88008133D01*
X141680029Y-88008132D01*
X141469909Y-87910152D01*
X141469900Y-87910148D01*
X141245968Y-87850147D01*
X141245958Y-87850145D01*
X141015001Y-87829939D01*
X141014999Y-87829939D01*
X140784041Y-87850145D01*
X140784031Y-87850147D01*
X140560099Y-87910148D01*
X140560090Y-87910152D01*
X140349971Y-88008132D01*
X140349969Y-88008133D01*
X140271577Y-88063024D01*
X140271576Y-88063024D01*
X140843431Y-88634878D01*
X140726542Y-88685651D01*
X140609261Y-88781066D01*
X140522072Y-88904585D01*
X140491645Y-88990197D01*
X139918024Y-88416576D01*
X139918023Y-88416577D01*
X139866880Y-88489618D01*
X139812303Y-88533243D01*
X139742805Y-88540437D01*
X139680450Y-88508914D01*
X139663730Y-88489619D01*
X139639489Y-88454999D01*
X139534270Y-88304731D01*
X139370269Y-88140730D01*
X139180282Y-88007699D01*
X138970079Y-87909680D01*
X138970076Y-87909679D01*
X138970074Y-87909678D01*
X138746051Y-87849651D01*
X138746044Y-87849650D01*
X138515002Y-87829437D01*
X138514998Y-87829437D01*
X138283955Y-87849650D01*
X138283948Y-87849651D01*
X138059917Y-87909681D01*
X137849718Y-88007699D01*
X137849714Y-88007701D01*
X137659735Y-88140726D01*
X137659729Y-88140731D01*
X137495731Y-88304729D01*
X137495726Y-88304735D01*
X137366575Y-88489183D01*
X137311998Y-88532808D01*
X137242500Y-88540002D01*
X137180145Y-88508479D01*
X137163425Y-88489183D01*
X137034273Y-88304735D01*
X137034268Y-88304729D01*
X136870272Y-88140733D01*
X136870270Y-88140731D01*
X136870269Y-88140730D01*
X136870264Y-88140726D01*
X136870261Y-88140724D01*
X136818376Y-88104393D01*
X136774751Y-88049816D01*
X136765500Y-88002819D01*
X136765500Y-86755004D01*
X141810233Y-86755004D01*
X141829273Y-87009079D01*
X141885968Y-87257477D01*
X141885973Y-87257494D01*
X141979058Y-87494671D01*
X141979057Y-87494671D01*
X142106457Y-87715332D01*
X142148452Y-87767993D01*
X142148453Y-87767993D01*
X142798338Y-87118108D01*
X142885577Y-87256948D01*
X143013052Y-87384423D01*
X143151890Y-87471661D01*
X142501813Y-88121737D01*
X142662623Y-88231375D01*
X142662624Y-88231376D01*
X142892176Y-88341921D01*
X142892174Y-88341921D01*
X143135652Y-88417024D01*
X143135658Y-88417026D01*
X143387595Y-88454999D01*
X143387604Y-88455000D01*
X143642396Y-88455000D01*
X143642404Y-88454999D01*
X143894341Y-88417026D01*
X143894347Y-88417024D01*
X144137824Y-88341921D01*
X144367381Y-88231373D01*
X144528185Y-88121737D01*
X143878108Y-87471661D01*
X144016948Y-87384423D01*
X144144423Y-87256948D01*
X144231661Y-87118108D01*
X144881545Y-87767993D01*
X144923545Y-87715327D01*
X145050941Y-87494671D01*
X145144026Y-87257494D01*
X145144031Y-87257477D01*
X145200726Y-87009079D01*
X145219767Y-86755004D01*
X145219767Y-86754995D01*
X145200726Y-86500920D01*
X145144031Y-86252522D01*
X145144026Y-86252505D01*
X145050941Y-86015328D01*
X145050942Y-86015328D01*
X144923544Y-85794671D01*
X144881546Y-85742006D01*
X144231661Y-86391890D01*
X144144423Y-86253052D01*
X144016948Y-86125577D01*
X143878108Y-86038338D01*
X144528185Y-85388261D01*
X144367377Y-85278624D01*
X144367376Y-85278623D01*
X144137823Y-85168078D01*
X144137825Y-85168078D01*
X143894347Y-85092975D01*
X143894341Y-85092973D01*
X143642404Y-85055000D01*
X143387595Y-85055000D01*
X143135658Y-85092973D01*
X143135652Y-85092975D01*
X142892175Y-85168078D01*
X142662624Y-85278623D01*
X142662616Y-85278628D01*
X142501813Y-85388261D01*
X143151891Y-86038338D01*
X143013052Y-86125577D01*
X142885577Y-86253052D01*
X142798338Y-86391891D01*
X142148453Y-85742006D01*
X142106455Y-85794670D01*
X141979058Y-86015328D01*
X141885973Y-86252505D01*
X141885968Y-86252522D01*
X141829273Y-86500920D01*
X141810233Y-86754995D01*
X141810233Y-86755004D01*
X136765500Y-86755004D01*
X136765500Y-85637551D01*
X136785185Y-85570512D01*
X136837989Y-85524757D01*
X136907147Y-85514813D01*
X136970703Y-85543838D01*
X136996887Y-85575551D01*
X137075387Y-85711516D01*
X137121768Y-85769677D01*
X137121769Y-85769677D01*
X137782258Y-85109187D01*
X137828130Y-85195710D01*
X137944302Y-85332478D01*
X138087160Y-85441076D01*
X138135234Y-85463317D01*
X137474826Y-86123724D01*
X137643813Y-86238937D01*
X137643822Y-86238942D01*
X137878437Y-86351926D01*
X137878435Y-86351926D01*
X138127277Y-86428684D01*
X138127283Y-86428685D01*
X138384786Y-86467499D01*
X138384793Y-86467500D01*
X138645207Y-86467500D01*
X138645213Y-86467499D01*
X138902716Y-86428685D01*
X138902722Y-86428684D01*
X139151563Y-86351926D01*
X139386177Y-86238942D01*
X139386179Y-86238941D01*
X139555172Y-86123724D01*
X138895393Y-85463946D01*
X139017213Y-85390650D01*
X139147492Y-85267243D01*
X139248196Y-85118716D01*
X139250780Y-85112228D01*
X139908229Y-85769677D01*
X139954615Y-85711511D01*
X140084822Y-85485987D01*
X140179960Y-85243578D01*
X140179966Y-85243559D01*
X140237911Y-84989682D01*
X140237912Y-84989677D01*
X140257372Y-84730004D01*
X140257372Y-84729995D01*
X140237912Y-84470322D01*
X140237911Y-84470317D01*
X140179966Y-84216440D01*
X140179960Y-84216421D01*
X140084822Y-83974012D01*
X139954612Y-83748483D01*
X139908230Y-83690321D01*
X139247740Y-84350811D01*
X139201870Y-84264290D01*
X139085698Y-84127522D01*
X138942840Y-84018924D01*
X138894765Y-83996682D01*
X139555172Y-83336274D01*
X139386186Y-83221062D01*
X139386177Y-83221057D01*
X139151562Y-83108073D01*
X139151564Y-83108073D01*
X138902722Y-83031315D01*
X138902716Y-83031314D01*
X138645213Y-82992500D01*
X138384786Y-82992500D01*
X138127283Y-83031314D01*
X138127277Y-83031315D01*
X137878436Y-83108073D01*
X137643819Y-83221059D01*
X137643806Y-83221066D01*
X137474826Y-83336273D01*
X138134606Y-83996053D01*
X138012787Y-84069350D01*
X137882508Y-84192757D01*
X137781804Y-84341284D01*
X137779218Y-84347771D01*
X137121769Y-83690322D01*
X137075387Y-83748484D01*
X136996887Y-83884449D01*
X136946319Y-83932664D01*
X136877712Y-83945886D01*
X136812848Y-83919918D01*
X136772320Y-83863004D01*
X136765500Y-83822448D01*
X136765500Y-83137230D01*
X136785185Y-83070191D01*
X136801819Y-83049549D01*
X137314549Y-82536819D01*
X137375872Y-82503334D01*
X137402230Y-82500500D01*
X145702770Y-82500500D01*
X145769809Y-82520185D01*
X145790451Y-82536819D01*
X145895207Y-82641575D01*
X145928692Y-82702898D01*
X145931054Y-82740063D01*
X145914437Y-82929997D01*
X145914437Y-82930001D01*
X145934650Y-83161044D01*
X145934651Y-83161051D01*
X145994678Y-83385074D01*
X145994679Y-83385076D01*
X145994680Y-83385079D01*
X146092699Y-83595282D01*
X146225730Y-83785269D01*
X146389731Y-83949270D01*
X146471623Y-84006611D01*
X146515248Y-84061187D01*
X146524500Y-84108186D01*
X146524500Y-95150500D01*
X146504815Y-95217539D01*
X146452011Y-95263294D01*
X146400505Y-95274500D01*
X146377132Y-95274500D01*
X146377123Y-95274501D01*
X146317516Y-95280908D01*
X146182671Y-95331202D01*
X146182664Y-95331206D01*
X146067455Y-95417452D01*
X146067452Y-95417455D01*
X145981206Y-95532664D01*
X145981203Y-95532669D01*
X145932189Y-95664083D01*
X145890317Y-95720016D01*
X145824853Y-95744433D01*
X145756580Y-95729581D01*
X145728326Y-95708430D01*
X145606402Y-95586506D01*
X145606395Y-95586501D01*
X145412834Y-95450967D01*
X145412830Y-95450965D01*
X145374077Y-95432894D01*
X145198663Y-95351097D01*
X145198659Y-95351096D01*
X145198655Y-95351094D01*
X144970413Y-95289938D01*
X144970403Y-95289936D01*
X144735001Y-95269341D01*
X144734999Y-95269341D01*
X144499596Y-95289936D01*
X144499586Y-95289938D01*
X144271344Y-95351094D01*
X144271335Y-95351098D01*
X144057171Y-95450964D01*
X144057169Y-95450965D01*
X143863597Y-95586505D01*
X143696505Y-95753597D01*
X143566575Y-95939158D01*
X143511998Y-95982783D01*
X143442500Y-95989977D01*
X143380145Y-95958454D01*
X143363425Y-95939158D01*
X143233494Y-95753597D01*
X143066402Y-95586506D01*
X143066395Y-95586501D01*
X142872834Y-95450967D01*
X142872830Y-95450965D01*
X142834077Y-95432894D01*
X142658663Y-95351097D01*
X142658659Y-95351096D01*
X142658655Y-95351094D01*
X142430413Y-95289938D01*
X142430403Y-95289936D01*
X142195001Y-95269341D01*
X142194999Y-95269341D01*
X141959596Y-95289936D01*
X141959586Y-95289938D01*
X141731344Y-95351094D01*
X141731335Y-95351098D01*
X141517171Y-95450964D01*
X141517169Y-95450965D01*
X141323597Y-95586505D01*
X141156508Y-95753594D01*
X141026269Y-95939595D01*
X140971692Y-95983219D01*
X140902193Y-95990412D01*
X140839839Y-95958890D01*
X140823119Y-95939594D01*
X140693113Y-95753926D01*
X140693108Y-95753920D01*
X140526082Y-95586894D01*
X140332578Y-95451399D01*
X140118492Y-95351570D01*
X140118486Y-95351567D01*
X139905000Y-95294364D01*
X139905000Y-96189498D01*
X139797315Y-96140320D01*
X139690763Y-96125000D01*
X139619237Y-96125000D01*
X139512685Y-96140320D01*
X139405000Y-96189498D01*
X139405000Y-95294364D01*
X139404999Y-95294364D01*
X139191513Y-95351567D01*
X139191507Y-95351570D01*
X138977422Y-95451399D01*
X138977420Y-95451400D01*
X138783926Y-95586886D01*
X138783920Y-95586891D01*
X138616891Y-95753920D01*
X138616890Y-95753922D01*
X138486880Y-95939595D01*
X138432303Y-95983219D01*
X138362804Y-95990412D01*
X138300450Y-95958890D01*
X138283730Y-95939594D01*
X138153494Y-95753597D01*
X137986402Y-95586506D01*
X137986395Y-95586501D01*
X137792834Y-95450967D01*
X137792830Y-95450965D01*
X137754077Y-95432894D01*
X137578663Y-95351097D01*
X137578659Y-95351096D01*
X137578655Y-95351094D01*
X137350413Y-95289938D01*
X137350403Y-95289936D01*
X137115001Y-95269341D01*
X137114999Y-95269341D01*
X136879596Y-95289936D01*
X136879586Y-95289938D01*
X136651344Y-95351094D01*
X136651335Y-95351098D01*
X136437171Y-95450964D01*
X136437169Y-95450965D01*
X136243597Y-95586505D01*
X136076508Y-95753594D01*
X136015047Y-95841370D01*
X135960470Y-95884995D01*
X135890971Y-95892187D01*
X135828617Y-95860665D01*
X135793216Y-95800484D01*
X135772574Y-95718390D01*
X135685816Y-95500746D01*
X135685812Y-95500738D01*
X135570970Y-95296535D01*
X135570961Y-95296521D01*
X135430048Y-95109337D01*
X135348417Y-95026536D01*
X135265561Y-94942491D01*
X135080400Y-94798924D01*
X135080396Y-94798921D01*
X134877850Y-94681181D01*
X134877840Y-94681176D01*
X134661457Y-94591327D01*
X134661454Y-94591326D01*
X134615578Y-94579111D01*
X134608328Y-94576694D01*
X134608167Y-94576629D01*
X134608164Y-94576627D01*
X134606162Y-94576110D01*
X134546306Y-94560662D01*
X134543461Y-94559904D01*
X133823030Y-94354472D01*
X133820045Y-94353538D01*
X133111495Y-94112241D01*
X133108560Y-94111158D01*
X132673392Y-93938011D01*
X132413050Y-93834424D01*
X132410197Y-93833204D01*
X132244725Y-93757488D01*
X131729527Y-93521746D01*
X131726772Y-93520400D01*
X131062675Y-93175012D01*
X131059939Y-93173500D01*
X130414124Y-92795072D01*
X130411466Y-92793423D01*
X129888465Y-92450402D01*
X129785552Y-92382904D01*
X129782993Y-92381131D01*
X129178572Y-91939565D01*
X129176119Y-91937676D01*
X128847751Y-91671379D01*
X128594733Y-91466189D01*
X128592361Y-91464164D01*
X128035496Y-90963960D01*
X128033241Y-90961829D01*
X127502316Y-90434184D01*
X127500154Y-90431924D01*
X127482731Y-90412768D01*
X126996506Y-89878168D01*
X126994474Y-89875816D01*
X126965684Y-89840762D01*
X126519398Y-89297371D01*
X126517491Y-89294926D01*
X126501229Y-89272953D01*
X126072169Y-88693230D01*
X126070417Y-88690733D01*
X125656002Y-88067340D01*
X125654366Y-88064738D01*
X125271923Y-87421250D01*
X125270397Y-87418527D01*
X125174481Y-87236864D01*
X124920915Y-86756612D01*
X124919524Y-86753810D01*
X124603852Y-86075082D01*
X124602629Y-86072269D01*
X124321573Y-85378449D01*
X124320499Y-85375592D01*
X124109818Y-84769286D01*
X124074803Y-84668517D01*
X124073851Y-84665537D01*
X123864795Y-83949268D01*
X123864126Y-83946977D01*
X123863328Y-83943960D01*
X123858505Y-83923683D01*
X123800542Y-83680005D01*
X126784443Y-83680005D01*
X126804634Y-83923683D01*
X126804636Y-83923695D01*
X126864663Y-84160734D01*
X126962888Y-84384666D01*
X127096632Y-84589378D01*
X127262242Y-84769277D01*
X127262252Y-84769286D01*
X127455208Y-84919470D01*
X127455212Y-84919473D01*
X127584937Y-84989677D01*
X127670267Y-85035855D01*
X127670270Y-85035856D01*
X127901541Y-85115251D01*
X127901543Y-85115251D01*
X127901545Y-85115252D01*
X128142737Y-85155500D01*
X128142738Y-85155500D01*
X128387262Y-85155500D01*
X128387263Y-85155500D01*
X128628455Y-85115252D01*
X128859733Y-85035855D01*
X129074788Y-84919473D01*
X129267754Y-84769281D01*
X129433368Y-84589377D01*
X129567111Y-84384667D01*
X129665336Y-84160736D01*
X129725364Y-83923692D01*
X129725677Y-83919918D01*
X129745557Y-83680005D01*
X129745557Y-83679994D01*
X129725365Y-83436316D01*
X129725363Y-83436304D01*
X129700032Y-83336274D01*
X129665336Y-83199264D01*
X129567111Y-82975333D01*
X129535090Y-82926321D01*
X129433367Y-82770621D01*
X129267757Y-82590722D01*
X129267747Y-82590713D01*
X129074791Y-82440529D01*
X129074787Y-82440526D01*
X128859734Y-82324145D01*
X128859729Y-82324143D01*
X128628458Y-82244748D01*
X128447561Y-82214562D01*
X128387263Y-82204500D01*
X128142737Y-82204500D01*
X128135792Y-82205659D01*
X127901541Y-82244748D01*
X127670270Y-82324143D01*
X127670265Y-82324145D01*
X127455212Y-82440526D01*
X127455208Y-82440529D01*
X127262252Y-82590713D01*
X127262242Y-82590722D01*
X127096632Y-82770621D01*
X126962888Y-82975333D01*
X126864663Y-83199265D01*
X126804636Y-83436304D01*
X126804634Y-83436316D01*
X126784443Y-83679994D01*
X126784443Y-83680005D01*
X123800542Y-83680005D01*
X123690112Y-83215753D01*
X123689475Y-83212740D01*
X123553195Y-82476681D01*
X123552707Y-82473609D01*
X123549172Y-82447110D01*
X123453728Y-81731675D01*
X123453395Y-81728575D01*
X123407106Y-81166528D01*
X123391955Y-80982561D01*
X123391778Y-80979451D01*
X123388783Y-80885074D01*
X123370057Y-80294906D01*
X123371609Y-80277949D01*
X123371226Y-80277922D01*
X123371859Y-80269073D01*
X123371858Y-80269073D01*
X123368024Y-80215472D01*
X123367871Y-80211513D01*
X123367563Y-80163859D01*
X123366444Y-80159789D01*
X123362323Y-80135762D01*
X123361591Y-80125517D01*
X123345166Y-80081479D01*
X123343485Y-80076279D01*
X123332629Y-80036790D01*
X123326706Y-80026683D01*
X123317507Y-80007322D01*
X123311296Y-79990670D01*
X123311296Y-79990669D01*
X123287158Y-79958424D01*
X123283298Y-79952613D01*
X123265998Y-79923094D01*
X123265997Y-79923092D01*
X123220187Y-79877873D01*
X123204319Y-79862004D01*
X123170834Y-79800682D01*
X123168000Y-79774324D01*
X123168000Y-77180005D01*
X126784443Y-77180005D01*
X126804634Y-77423683D01*
X126804636Y-77423695D01*
X126864663Y-77660734D01*
X126962888Y-77884666D01*
X127096632Y-78089378D01*
X127262242Y-78269277D01*
X127262252Y-78269286D01*
X127454670Y-78419051D01*
X127455212Y-78419473D01*
X127670267Y-78535855D01*
X127670270Y-78535856D01*
X127901541Y-78615251D01*
X127901543Y-78615251D01*
X127901545Y-78615252D01*
X128142737Y-78655500D01*
X128142738Y-78655500D01*
X128387262Y-78655500D01*
X128387263Y-78655500D01*
X128628455Y-78615252D01*
X128859733Y-78535855D01*
X129074788Y-78419473D01*
X129267754Y-78269281D01*
X129433368Y-78089377D01*
X129567111Y-77884667D01*
X129665336Y-77660736D01*
X129725364Y-77423692D01*
X129725371Y-77423605D01*
X129745557Y-77180005D01*
X131284944Y-77180005D01*
X131305130Y-77423605D01*
X131365138Y-77660573D01*
X131463328Y-77884424D01*
X131559626Y-78031820D01*
X132162452Y-77428992D01*
X132172188Y-77458956D01*
X132260186Y-77597619D01*
X132379903Y-77710040D01*
X132514510Y-77784041D01*
X131912757Y-78385793D01*
X131912758Y-78385794D01*
X131955485Y-78419050D01*
X131955485Y-78419051D01*
X132170468Y-78535394D01*
X132170476Y-78535397D01*
X132401664Y-78614765D01*
X132642779Y-78655000D01*
X132887221Y-78655000D01*
X133128335Y-78614765D01*
X133359523Y-78535397D01*
X133359531Y-78535394D01*
X133574515Y-78419050D01*
X133574516Y-78419048D01*
X133617240Y-78385794D01*
X133617241Y-78385793D01*
X133012534Y-77781086D01*
X133080629Y-77754126D01*
X133213492Y-77657595D01*
X133318175Y-77531055D01*
X133366631Y-77428080D01*
X133970372Y-78031820D01*
X134066669Y-77884429D01*
X134164861Y-77660573D01*
X134224869Y-77423605D01*
X134245055Y-77180005D01*
X134245055Y-77179994D01*
X134224869Y-76936394D01*
X134164861Y-76699426D01*
X134066671Y-76475575D01*
X133970372Y-76328178D01*
X133367546Y-76931003D01*
X133357812Y-76901044D01*
X133269814Y-76762381D01*
X133150097Y-76649960D01*
X133015487Y-76575957D01*
X133461441Y-76130004D01*
X136772628Y-76130004D01*
X136792087Y-76389677D01*
X136792088Y-76389682D01*
X136850033Y-76643559D01*
X136850039Y-76643578D01*
X136945177Y-76885987D01*
X137075387Y-77111516D01*
X137121768Y-77169677D01*
X137782258Y-76509187D01*
X137828130Y-76595710D01*
X137944302Y-76732478D01*
X138087160Y-76841076D01*
X138135234Y-76863317D01*
X137474826Y-77523724D01*
X137643813Y-77638937D01*
X137643822Y-77638942D01*
X137878437Y-77751926D01*
X137878435Y-77751926D01*
X138127277Y-77828684D01*
X138127283Y-77828685D01*
X138384786Y-77867499D01*
X138384793Y-77867500D01*
X138645207Y-77867500D01*
X138645213Y-77867499D01*
X138902716Y-77828685D01*
X138902722Y-77828684D01*
X139151563Y-77751926D01*
X139386177Y-77638942D01*
X139386179Y-77638941D01*
X139555172Y-77523724D01*
X138895393Y-76863946D01*
X139017213Y-76790650D01*
X139147492Y-76667243D01*
X139248196Y-76518716D01*
X139250781Y-76512227D01*
X139908229Y-77169677D01*
X139954615Y-77111511D01*
X140084822Y-76885987D01*
X140179960Y-76643578D01*
X140179966Y-76643559D01*
X140237911Y-76389682D01*
X140237912Y-76389677D01*
X140257372Y-76130004D01*
X140257372Y-76129995D01*
X140237912Y-75870322D01*
X140237911Y-75870317D01*
X140179966Y-75616440D01*
X140179960Y-75616421D01*
X140084822Y-75374012D01*
X139954612Y-75148483D01*
X139908230Y-75090321D01*
X139247740Y-75750811D01*
X139201870Y-75664290D01*
X139085698Y-75527522D01*
X138942840Y-75418924D01*
X138894765Y-75396682D01*
X139555172Y-74736274D01*
X139386186Y-74621062D01*
X139386177Y-74621057D01*
X139151562Y-74508073D01*
X139151564Y-74508073D01*
X138902722Y-74431315D01*
X138902716Y-74431314D01*
X138645213Y-74392500D01*
X138384786Y-74392500D01*
X138127283Y-74431314D01*
X138127277Y-74431315D01*
X137878436Y-74508073D01*
X137643819Y-74621059D01*
X137643806Y-74621066D01*
X137474826Y-74736273D01*
X138134606Y-75396053D01*
X138012787Y-75469350D01*
X137882508Y-75592757D01*
X137781804Y-75741284D01*
X137779219Y-75747771D01*
X137121769Y-75090322D01*
X137075385Y-75148486D01*
X136945177Y-75374012D01*
X136850039Y-75616421D01*
X136850033Y-75616440D01*
X136792088Y-75870317D01*
X136792087Y-75870322D01*
X136772628Y-76129995D01*
X136772628Y-76130004D01*
X133461441Y-76130004D01*
X133617240Y-75974206D01*
X133614104Y-75923695D01*
X133629597Y-75855565D01*
X133679464Y-75806626D01*
X133719385Y-75793396D01*
X133894341Y-75767026D01*
X133894347Y-75767024D01*
X134137824Y-75691921D01*
X134367381Y-75581373D01*
X134528185Y-75471737D01*
X133878108Y-74821661D01*
X134016948Y-74734423D01*
X134144423Y-74606948D01*
X134231661Y-74468109D01*
X134881545Y-75117993D01*
X134923545Y-75065327D01*
X135050941Y-74844671D01*
X135144026Y-74607494D01*
X135144031Y-74607477D01*
X135200726Y-74359079D01*
X135219767Y-74105004D01*
X141810233Y-74105004D01*
X141829273Y-74359079D01*
X141885968Y-74607477D01*
X141885973Y-74607494D01*
X141979058Y-74844671D01*
X141979057Y-74844671D01*
X142106457Y-75065332D01*
X142148452Y-75117993D01*
X142148453Y-75117993D01*
X142798338Y-74468108D01*
X142885577Y-74606948D01*
X143013052Y-74734423D01*
X143151890Y-74821661D01*
X142501813Y-75471737D01*
X142662623Y-75581375D01*
X142662624Y-75581376D01*
X142892176Y-75691921D01*
X142892174Y-75691921D01*
X143135652Y-75767024D01*
X143135658Y-75767026D01*
X143387595Y-75804999D01*
X143387604Y-75805000D01*
X143642396Y-75805000D01*
X143642404Y-75804999D01*
X143894341Y-75767026D01*
X143894347Y-75767024D01*
X144137824Y-75691921D01*
X144367381Y-75581373D01*
X144528185Y-75471737D01*
X143878108Y-74821661D01*
X144016948Y-74734423D01*
X144144423Y-74606948D01*
X144231661Y-74468108D01*
X144881545Y-75117993D01*
X144923545Y-75065327D01*
X145050941Y-74844671D01*
X145144026Y-74607494D01*
X145144031Y-74607477D01*
X145200726Y-74359079D01*
X145219767Y-74105004D01*
X145219767Y-74104995D01*
X145200726Y-73850920D01*
X145144031Y-73602522D01*
X145144026Y-73602505D01*
X145050941Y-73365328D01*
X145050942Y-73365328D01*
X144923544Y-73144671D01*
X144881546Y-73092006D01*
X144231661Y-73741890D01*
X144144423Y-73603052D01*
X144016948Y-73475577D01*
X143878108Y-73388338D01*
X144528185Y-72738261D01*
X144367377Y-72628624D01*
X144367376Y-72628623D01*
X144137823Y-72518078D01*
X144137825Y-72518078D01*
X143894347Y-72442975D01*
X143894341Y-72442973D01*
X143642404Y-72405000D01*
X143387595Y-72405000D01*
X143135658Y-72442973D01*
X143135652Y-72442975D01*
X142892175Y-72518078D01*
X142662624Y-72628623D01*
X142662616Y-72628628D01*
X142501813Y-72738261D01*
X143151891Y-73388338D01*
X143013052Y-73475577D01*
X142885577Y-73603052D01*
X142798338Y-73741891D01*
X142148453Y-73092006D01*
X142106455Y-73144670D01*
X141979058Y-73365328D01*
X141885973Y-73602505D01*
X141885968Y-73602522D01*
X141829273Y-73850920D01*
X141810233Y-74104995D01*
X141810233Y-74105004D01*
X135219767Y-74105004D01*
X135219767Y-74104995D01*
X135200726Y-73850920D01*
X135144031Y-73602522D01*
X135144026Y-73602505D01*
X135050941Y-73365328D01*
X135050942Y-73365328D01*
X134923544Y-73144671D01*
X134881546Y-73092006D01*
X134231661Y-73741890D01*
X134144423Y-73603052D01*
X134016948Y-73475577D01*
X133878108Y-73388338D01*
X134528185Y-72738261D01*
X134367377Y-72628624D01*
X134367376Y-72628623D01*
X134137823Y-72518078D01*
X134137825Y-72518078D01*
X133894347Y-72442975D01*
X133894341Y-72442973D01*
X133642404Y-72405000D01*
X133387595Y-72405000D01*
X133135658Y-72442973D01*
X133135652Y-72442975D01*
X132892175Y-72518078D01*
X132662624Y-72628623D01*
X132662616Y-72628628D01*
X132501813Y-72738261D01*
X133151891Y-73388338D01*
X133013052Y-73475577D01*
X132885577Y-73603052D01*
X132798338Y-73741891D01*
X132148453Y-73092006D01*
X132106455Y-73144670D01*
X131979058Y-73365328D01*
X131885973Y-73602505D01*
X131885968Y-73602522D01*
X131829273Y-73850920D01*
X131810233Y-74104995D01*
X131810233Y-74105004D01*
X131829273Y-74359079D01*
X131885968Y-74607477D01*
X131885973Y-74607494D01*
X131979058Y-74844671D01*
X131979057Y-74844671D01*
X132106457Y-75065332D01*
X132148452Y-75117993D01*
X132148453Y-75117993D01*
X132798338Y-74468108D01*
X132885577Y-74606948D01*
X133013052Y-74734423D01*
X133151890Y-74821661D01*
X132501813Y-75471737D01*
X132549268Y-75504091D01*
X132593569Y-75558120D01*
X132601629Y-75627523D01*
X132570886Y-75690266D01*
X132511102Y-75726428D01*
X132499826Y-75728854D01*
X132401664Y-75745234D01*
X132170476Y-75824602D01*
X132170468Y-75824605D01*
X131955484Y-75940949D01*
X131955478Y-75940953D01*
X131912758Y-75974203D01*
X131912758Y-75974205D01*
X132517466Y-76578913D01*
X132449371Y-76605874D01*
X132316508Y-76702405D01*
X132211825Y-76828945D01*
X132163368Y-76931921D01*
X131559625Y-76328178D01*
X131463329Y-76475572D01*
X131365138Y-76699426D01*
X131305130Y-76936394D01*
X131284944Y-77179994D01*
X131284944Y-77180005D01*
X129745557Y-77180005D01*
X129745557Y-77179994D01*
X129725365Y-76936316D01*
X129725363Y-76936304D01*
X129699209Y-76833024D01*
X129665336Y-76699264D01*
X129567111Y-76475333D01*
X129511153Y-76389682D01*
X129433367Y-76270621D01*
X129267757Y-76090722D01*
X129267747Y-76090713D01*
X129074791Y-75940529D01*
X129074787Y-75940526D01*
X128859734Y-75824145D01*
X128859729Y-75824143D01*
X128628458Y-75744748D01*
X128431171Y-75711827D01*
X128387263Y-75704500D01*
X128142737Y-75704500D01*
X128098829Y-75711827D01*
X127901541Y-75744748D01*
X127670270Y-75824143D01*
X127670265Y-75824145D01*
X127455212Y-75940526D01*
X127455208Y-75940529D01*
X127262252Y-76090713D01*
X127262242Y-76090722D01*
X127096632Y-76270621D01*
X126962888Y-76475333D01*
X126864663Y-76699265D01*
X126804636Y-76936304D01*
X126804634Y-76936316D01*
X126784443Y-77179994D01*
X126784443Y-77180005D01*
X123168000Y-77180005D01*
X123168000Y-74333005D01*
X123561857Y-74333005D01*
X123582390Y-74580812D01*
X123582392Y-74580824D01*
X123643436Y-74821881D01*
X123743326Y-75049606D01*
X123879333Y-75257782D01*
X123879336Y-75257785D01*
X124047756Y-75440738D01*
X124243991Y-75593474D01*
X124462690Y-75711828D01*
X124697886Y-75792571D01*
X124943165Y-75833500D01*
X125191835Y-75833500D01*
X125437114Y-75792571D01*
X125672310Y-75711828D01*
X125891009Y-75593474D01*
X126087244Y-75440738D01*
X126255664Y-75257785D01*
X126391673Y-75049607D01*
X126491563Y-74821881D01*
X126552608Y-74580821D01*
X126558636Y-74508073D01*
X126573143Y-74333005D01*
X126573143Y-74332994D01*
X126552609Y-74085187D01*
X126552607Y-74085175D01*
X126491563Y-73844118D01*
X126391673Y-73616393D01*
X126255666Y-73408217D01*
X126206576Y-73354891D01*
X126087244Y-73225262D01*
X125891009Y-73072526D01*
X125891007Y-73072525D01*
X125891006Y-73072524D01*
X125672311Y-72954172D01*
X125672302Y-72954169D01*
X125437116Y-72873429D01*
X125191835Y-72832500D01*
X124943165Y-72832500D01*
X124697883Y-72873429D01*
X124462697Y-72954169D01*
X124462688Y-72954172D01*
X124243993Y-73072524D01*
X124047757Y-73225261D01*
X123879333Y-73408217D01*
X123743326Y-73616393D01*
X123643436Y-73844118D01*
X123582392Y-74085175D01*
X123582390Y-74085187D01*
X123561857Y-74332994D01*
X123561857Y-74333005D01*
X123168000Y-74333005D01*
X123168000Y-73081071D01*
X123187685Y-73014032D01*
X123201800Y-72995984D01*
X123846710Y-72312321D01*
X123907030Y-72277062D01*
X123936910Y-72273408D01*
X125634117Y-72273408D01*
X125640287Y-72273716D01*
X125677950Y-72277480D01*
X125677951Y-72277479D01*
X125677953Y-72277480D01*
X125738182Y-72267624D01*
X125804612Y-72258073D01*
X125869079Y-72228631D01*
X125928122Y-72201981D01*
X125928125Y-72201978D01*
X125929568Y-72201327D01*
X125933635Y-72199149D01*
X125935528Y-72198285D01*
X125983945Y-72156330D01*
X125985207Y-72155267D01*
X126030112Y-72118523D01*
X126030113Y-72118520D01*
X126030117Y-72118518D01*
X126035681Y-72112595D01*
X126036232Y-72113112D01*
X126040267Y-72108687D01*
X126044293Y-72104039D01*
X126044298Y-72104036D01*
X126072767Y-72059735D01*
X126075391Y-72055969D01*
X126481965Y-71516797D01*
X126483697Y-71514605D01*
X126920891Y-70986936D01*
X126922704Y-70984848D01*
X127383609Y-70477739D01*
X127385507Y-70475745D01*
X127869154Y-69990265D01*
X127871108Y-69988390D01*
X128376514Y-69525527D01*
X128378555Y-69523743D01*
X128904573Y-69084550D01*
X128906739Y-69082824D01*
X129452297Y-68668186D01*
X129454553Y-68666552D01*
X130018505Y-68277342D01*
X130020833Y-68275812D01*
X130602043Y-67912812D01*
X130604432Y-67911395D01*
X131069829Y-67649552D01*
X131130720Y-67633623D01*
X145389675Y-67644468D01*
G37*
%TD.AperFunction*%
%TD*%
M02*
