%TF.GenerationSoftware,KiCad,Pcbnew,7.0.5*%
%TF.CreationDate,2023-08-28T18:40:14-04:00*%
%TF.ProjectId,StickLeft,53746963-6b4c-4656-9674-2e6b69636164,rev?*%
%TF.SameCoordinates,Original*%
%TF.FileFunction,Legend,Bot*%
%TF.FilePolarity,Positive*%
%FSLAX46Y46*%
G04 Gerber Fmt 4.6, Leading zero omitted, Abs format (unit mm)*
G04 Created by KiCad (PCBNEW 7.0.5) date 2023-08-28 18:40:14*
%MOMM*%
%LPD*%
G01*
G04 APERTURE LIST*
%ADD10C,0.254000*%
%ADD11C,0.300000*%
%ADD12C,0.150000*%
G04 APERTURE END LIST*
D10*
X139304318Y-105532380D02*
X140332413Y-105532380D01*
X140332413Y-105532380D02*
X140453365Y-105592857D01*
X140453365Y-105592857D02*
X140513842Y-105653333D01*
X140513842Y-105653333D02*
X140574318Y-105774285D01*
X140574318Y-105774285D02*
X140574318Y-106016190D01*
X140574318Y-106016190D02*
X140513842Y-106137142D01*
X140513842Y-106137142D02*
X140453365Y-106197619D01*
X140453365Y-106197619D02*
X140332413Y-106258095D01*
X140332413Y-106258095D02*
X139304318Y-106258095D01*
X140574318Y-107528095D02*
X140574318Y-106802380D01*
X140574318Y-107165237D02*
X139304318Y-107165237D01*
X139304318Y-107165237D02*
X139485746Y-107044285D01*
X139485746Y-107044285D02*
X139606699Y-106923333D01*
X139606699Y-106923333D02*
X139667175Y-106802380D01*
D11*
X148731203Y-103300828D02*
X149445489Y-103300828D01*
X149445489Y-103300828D02*
X149445489Y-101800828D01*
X147659774Y-103229400D02*
X147802631Y-103300828D01*
X147802631Y-103300828D02*
X148088346Y-103300828D01*
X148088346Y-103300828D02*
X148231203Y-103229400D01*
X148231203Y-103229400D02*
X148302631Y-103086542D01*
X148302631Y-103086542D02*
X148302631Y-102515114D01*
X148302631Y-102515114D02*
X148231203Y-102372257D01*
X148231203Y-102372257D02*
X148088346Y-102300828D01*
X148088346Y-102300828D02*
X147802631Y-102300828D01*
X147802631Y-102300828D02*
X147659774Y-102372257D01*
X147659774Y-102372257D02*
X147588346Y-102515114D01*
X147588346Y-102515114D02*
X147588346Y-102657971D01*
X147588346Y-102657971D02*
X148302631Y-102800828D01*
X146302632Y-102300828D02*
X146302632Y-103515114D01*
X146302632Y-103515114D02*
X146374060Y-103657971D01*
X146374060Y-103657971D02*
X146445489Y-103729400D01*
X146445489Y-103729400D02*
X146588346Y-103800828D01*
X146588346Y-103800828D02*
X146802632Y-103800828D01*
X146802632Y-103800828D02*
X146945489Y-103729400D01*
X146302632Y-103229400D02*
X146445489Y-103300828D01*
X146445489Y-103300828D02*
X146731203Y-103300828D01*
X146731203Y-103300828D02*
X146874060Y-103229400D01*
X146874060Y-103229400D02*
X146945489Y-103157971D01*
X146945489Y-103157971D02*
X147016917Y-103015114D01*
X147016917Y-103015114D02*
X147016917Y-102586542D01*
X147016917Y-102586542D02*
X146945489Y-102443685D01*
X146945489Y-102443685D02*
X146874060Y-102372257D01*
X146874060Y-102372257D02*
X146731203Y-102300828D01*
X146731203Y-102300828D02*
X146445489Y-102300828D01*
X146445489Y-102300828D02*
X146302632Y-102372257D01*
X145374060Y-103300828D02*
X145516917Y-103229400D01*
X145516917Y-103229400D02*
X145588346Y-103157971D01*
X145588346Y-103157971D02*
X145659774Y-103015114D01*
X145659774Y-103015114D02*
X145659774Y-102586542D01*
X145659774Y-102586542D02*
X145588346Y-102443685D01*
X145588346Y-102443685D02*
X145516917Y-102372257D01*
X145516917Y-102372257D02*
X145374060Y-102300828D01*
X145374060Y-102300828D02*
X145159774Y-102300828D01*
X145159774Y-102300828D02*
X145016917Y-102372257D01*
X145016917Y-102372257D02*
X144945489Y-102443685D01*
X144945489Y-102443685D02*
X144874060Y-102586542D01*
X144874060Y-102586542D02*
X144874060Y-103015114D01*
X144874060Y-103015114D02*
X144945489Y-103157971D01*
X144945489Y-103157971D02*
X145016917Y-103229400D01*
X145016917Y-103229400D02*
X145159774Y-103300828D01*
X145159774Y-103300828D02*
X145374060Y-103300828D01*
X144588346Y-103443685D02*
X143445488Y-103443685D01*
X142231203Y-103300828D02*
X142731203Y-102586542D01*
X143088346Y-103300828D02*
X143088346Y-101800828D01*
X143088346Y-101800828D02*
X142516917Y-101800828D01*
X142516917Y-101800828D02*
X142374060Y-101872257D01*
X142374060Y-101872257D02*
X142302631Y-101943685D01*
X142302631Y-101943685D02*
X142231203Y-102086542D01*
X142231203Y-102086542D02*
X142231203Y-102300828D01*
X142231203Y-102300828D02*
X142302631Y-102443685D01*
X142302631Y-102443685D02*
X142374060Y-102515114D01*
X142374060Y-102515114D02*
X142516917Y-102586542D01*
X142516917Y-102586542D02*
X143088346Y-102586542D01*
X141374060Y-103300828D02*
X141516917Y-103229400D01*
X141516917Y-103229400D02*
X141588346Y-103157971D01*
X141588346Y-103157971D02*
X141659774Y-103015114D01*
X141659774Y-103015114D02*
X141659774Y-102586542D01*
X141659774Y-102586542D02*
X141588346Y-102443685D01*
X141588346Y-102443685D02*
X141516917Y-102372257D01*
X141516917Y-102372257D02*
X141374060Y-102300828D01*
X141374060Y-102300828D02*
X141159774Y-102300828D01*
X141159774Y-102300828D02*
X141016917Y-102372257D01*
X141016917Y-102372257D02*
X140945489Y-102443685D01*
X140945489Y-102443685D02*
X140874060Y-102586542D01*
X140874060Y-102586542D02*
X140874060Y-103015114D01*
X140874060Y-103015114D02*
X140945489Y-103157971D01*
X140945489Y-103157971D02*
X141016917Y-103229400D01*
X141016917Y-103229400D02*
X141159774Y-103300828D01*
X141159774Y-103300828D02*
X141374060Y-103300828D01*
X139588346Y-103229400D02*
X139731203Y-103300828D01*
X139731203Y-103300828D02*
X140016917Y-103300828D01*
X140016917Y-103300828D02*
X140159774Y-103229400D01*
X140159774Y-103229400D02*
X140231203Y-103157971D01*
X140231203Y-103157971D02*
X140302631Y-103015114D01*
X140302631Y-103015114D02*
X140302631Y-102586542D01*
X140302631Y-102586542D02*
X140231203Y-102443685D01*
X140231203Y-102443685D02*
X140159774Y-102372257D01*
X140159774Y-102372257D02*
X140016917Y-102300828D01*
X140016917Y-102300828D02*
X139731203Y-102300828D01*
X139731203Y-102300828D02*
X139588346Y-102372257D01*
X138945489Y-103300828D02*
X138945489Y-101800828D01*
X138802632Y-102729400D02*
X138374060Y-103300828D01*
X138374060Y-102300828D02*
X138945489Y-102872257D01*
X137159774Y-103229400D02*
X137302631Y-103300828D01*
X137302631Y-103300828D02*
X137588346Y-103300828D01*
X137588346Y-103300828D02*
X137731203Y-103229400D01*
X137731203Y-103229400D02*
X137802631Y-103086542D01*
X137802631Y-103086542D02*
X137802631Y-102515114D01*
X137802631Y-102515114D02*
X137731203Y-102372257D01*
X137731203Y-102372257D02*
X137588346Y-102300828D01*
X137588346Y-102300828D02*
X137302631Y-102300828D01*
X137302631Y-102300828D02*
X137159774Y-102372257D01*
X137159774Y-102372257D02*
X137088346Y-102515114D01*
X137088346Y-102515114D02*
X137088346Y-102657971D01*
X137088346Y-102657971D02*
X137802631Y-102800828D01*
X136659774Y-102300828D02*
X136088346Y-102300828D01*
X136445489Y-101800828D02*
X136445489Y-103086542D01*
X136445489Y-103086542D02*
X136374060Y-103229400D01*
X136374060Y-103229400D02*
X136231203Y-103300828D01*
X136231203Y-103300828D02*
X136088346Y-103300828D01*
D12*
%TO.C,U1*%
X147689887Y-92588009D02*
X147547030Y-92635628D01*
X147547030Y-92635628D02*
X147499411Y-92683247D01*
X147499411Y-92683247D02*
X147451792Y-92778485D01*
X147451792Y-92778485D02*
X147451792Y-92921342D01*
X147451792Y-92921342D02*
X147499411Y-93016580D01*
X147499411Y-93016580D02*
X147547030Y-93064200D01*
X147547030Y-93064200D02*
X147642268Y-93111819D01*
X147642268Y-93111819D02*
X148023220Y-93111819D01*
X148023220Y-93111819D02*
X148023220Y-92111819D01*
X148023220Y-92111819D02*
X147689887Y-92111819D01*
X147689887Y-92111819D02*
X147594649Y-92159438D01*
X147594649Y-92159438D02*
X147547030Y-92207057D01*
X147547030Y-92207057D02*
X147499411Y-92302295D01*
X147499411Y-92302295D02*
X147499411Y-92397533D01*
X147499411Y-92397533D02*
X147547030Y-92492771D01*
X147547030Y-92492771D02*
X147594649Y-92540390D01*
X147594649Y-92540390D02*
X147689887Y-92588009D01*
X147689887Y-92588009D02*
X148023220Y-92588009D01*
X146880363Y-93111819D02*
X146975601Y-93064200D01*
X146975601Y-93064200D02*
X147023220Y-93016580D01*
X147023220Y-93016580D02*
X147070839Y-92921342D01*
X147070839Y-92921342D02*
X147070839Y-92635628D01*
X147070839Y-92635628D02*
X147023220Y-92540390D01*
X147023220Y-92540390D02*
X146975601Y-92492771D01*
X146975601Y-92492771D02*
X146880363Y-92445152D01*
X146880363Y-92445152D02*
X146737506Y-92445152D01*
X146737506Y-92445152D02*
X146642268Y-92492771D01*
X146642268Y-92492771D02*
X146594649Y-92540390D01*
X146594649Y-92540390D02*
X146547030Y-92635628D01*
X146547030Y-92635628D02*
X146547030Y-92921342D01*
X146547030Y-92921342D02*
X146594649Y-93016580D01*
X146594649Y-93016580D02*
X146642268Y-93064200D01*
X146642268Y-93064200D02*
X146737506Y-93111819D01*
X146737506Y-93111819D02*
X146880363Y-93111819D01*
X146261315Y-92445152D02*
X145880363Y-92445152D01*
X146118458Y-92111819D02*
X146118458Y-92968961D01*
X146118458Y-92968961D02*
X146070839Y-93064200D01*
X146070839Y-93064200D02*
X145975601Y-93111819D01*
X145975601Y-93111819D02*
X145880363Y-93111819D01*
X145689886Y-92445152D02*
X145308934Y-92445152D01*
X145547029Y-92111819D02*
X145547029Y-92968961D01*
X145547029Y-92968961D02*
X145499410Y-93064200D01*
X145499410Y-93064200D02*
X145404172Y-93111819D01*
X145404172Y-93111819D02*
X145308934Y-93111819D01*
X144832743Y-93111819D02*
X144927981Y-93064200D01*
X144927981Y-93064200D02*
X144975600Y-93016580D01*
X144975600Y-93016580D02*
X145023219Y-92921342D01*
X145023219Y-92921342D02*
X145023219Y-92635628D01*
X145023219Y-92635628D02*
X144975600Y-92540390D01*
X144975600Y-92540390D02*
X144927981Y-92492771D01*
X144927981Y-92492771D02*
X144832743Y-92445152D01*
X144832743Y-92445152D02*
X144689886Y-92445152D01*
X144689886Y-92445152D02*
X144594648Y-92492771D01*
X144594648Y-92492771D02*
X144547029Y-92540390D01*
X144547029Y-92540390D02*
X144499410Y-92635628D01*
X144499410Y-92635628D02*
X144499410Y-92921342D01*
X144499410Y-92921342D02*
X144547029Y-93016580D01*
X144547029Y-93016580D02*
X144594648Y-93064200D01*
X144594648Y-93064200D02*
X144689886Y-93111819D01*
X144689886Y-93111819D02*
X144832743Y-93111819D01*
X144070838Y-93111819D02*
X144070838Y-92445152D01*
X144070838Y-92540390D02*
X144023219Y-92492771D01*
X144023219Y-92492771D02*
X143927981Y-92445152D01*
X143927981Y-92445152D02*
X143785124Y-92445152D01*
X143785124Y-92445152D02*
X143689886Y-92492771D01*
X143689886Y-92492771D02*
X143642267Y-92588009D01*
X143642267Y-92588009D02*
X143642267Y-93111819D01*
X143642267Y-92588009D02*
X143594648Y-92492771D01*
X143594648Y-92492771D02*
X143499410Y-92445152D01*
X143499410Y-92445152D02*
X143356553Y-92445152D01*
X143356553Y-92445152D02*
X143261314Y-92492771D01*
X143261314Y-92492771D02*
X143213695Y-92588009D01*
X143213695Y-92588009D02*
X143213695Y-93111819D01*
X142023219Y-93064200D02*
X141880362Y-93111819D01*
X141880362Y-93111819D02*
X141642267Y-93111819D01*
X141642267Y-93111819D02*
X141547029Y-93064200D01*
X141547029Y-93064200D02*
X141499410Y-93016580D01*
X141499410Y-93016580D02*
X141451791Y-92921342D01*
X141451791Y-92921342D02*
X141451791Y-92826104D01*
X141451791Y-92826104D02*
X141499410Y-92730866D01*
X141499410Y-92730866D02*
X141547029Y-92683247D01*
X141547029Y-92683247D02*
X141642267Y-92635628D01*
X141642267Y-92635628D02*
X141832743Y-92588009D01*
X141832743Y-92588009D02*
X141927981Y-92540390D01*
X141927981Y-92540390D02*
X141975600Y-92492771D01*
X141975600Y-92492771D02*
X142023219Y-92397533D01*
X142023219Y-92397533D02*
X142023219Y-92302295D01*
X142023219Y-92302295D02*
X141975600Y-92207057D01*
X141975600Y-92207057D02*
X141927981Y-92159438D01*
X141927981Y-92159438D02*
X141832743Y-92111819D01*
X141832743Y-92111819D02*
X141594648Y-92111819D01*
X141594648Y-92111819D02*
X141451791Y-92159438D01*
X141023219Y-93111819D02*
X141023219Y-92445152D01*
X141023219Y-92111819D02*
X141070838Y-92159438D01*
X141070838Y-92159438D02*
X141023219Y-92207057D01*
X141023219Y-92207057D02*
X140975600Y-92159438D01*
X140975600Y-92159438D02*
X141023219Y-92111819D01*
X141023219Y-92111819D02*
X141023219Y-92207057D01*
X140118458Y-93111819D02*
X140118458Y-92111819D01*
X140118458Y-93064200D02*
X140213696Y-93111819D01*
X140213696Y-93111819D02*
X140404172Y-93111819D01*
X140404172Y-93111819D02*
X140499410Y-93064200D01*
X140499410Y-93064200D02*
X140547029Y-93016580D01*
X140547029Y-93016580D02*
X140594648Y-92921342D01*
X140594648Y-92921342D02*
X140594648Y-92635628D01*
X140594648Y-92635628D02*
X140547029Y-92540390D01*
X140547029Y-92540390D02*
X140499410Y-92492771D01*
X140499410Y-92492771D02*
X140404172Y-92445152D01*
X140404172Y-92445152D02*
X140213696Y-92445152D01*
X140213696Y-92445152D02*
X140118458Y-92492771D01*
X139261315Y-93064200D02*
X139356553Y-93111819D01*
X139356553Y-93111819D02*
X139547029Y-93111819D01*
X139547029Y-93111819D02*
X139642267Y-93064200D01*
X139642267Y-93064200D02*
X139689886Y-92968961D01*
X139689886Y-92968961D02*
X139689886Y-92588009D01*
X139689886Y-92588009D02*
X139642267Y-92492771D01*
X139642267Y-92492771D02*
X139547029Y-92445152D01*
X139547029Y-92445152D02*
X139356553Y-92445152D01*
X139356553Y-92445152D02*
X139261315Y-92492771D01*
X139261315Y-92492771D02*
X139213696Y-92588009D01*
X139213696Y-92588009D02*
X139213696Y-92683247D01*
X139213696Y-92683247D02*
X139689886Y-92778485D01*
%TD*%
M02*
