%TF.GenerationSoftware,KiCad,Pcbnew,7.0.5*%
%TF.CreationDate,2023-08-21T15:09:17-04:00*%
%TF.ProjectId,StickLeft,53746963-6b4c-4656-9674-2e6b69636164,rev?*%
%TF.SameCoordinates,Original*%
%TF.FileFunction,Legend,Bot*%
%TF.FilePolarity,Positive*%
%FSLAX46Y46*%
G04 Gerber Fmt 4.6, Leading zero omitted, Abs format (unit mm)*
G04 Created by KiCad (PCBNEW 7.0.5) date 2023-08-21 15:09:17*
%MOMM*%
%LPD*%
G01*
G04 APERTURE LIST*
%ADD10C,0.150000*%
G04 APERTURE END LIST*
D10*
%TO.C,U1*%
X147689887Y-92588009D02*
X147547030Y-92635628D01*
X147547030Y-92635628D02*
X147499411Y-92683247D01*
X147499411Y-92683247D02*
X147451792Y-92778485D01*
X147451792Y-92778485D02*
X147451792Y-92921342D01*
X147451792Y-92921342D02*
X147499411Y-93016580D01*
X147499411Y-93016580D02*
X147547030Y-93064200D01*
X147547030Y-93064200D02*
X147642268Y-93111819D01*
X147642268Y-93111819D02*
X148023220Y-93111819D01*
X148023220Y-93111819D02*
X148023220Y-92111819D01*
X148023220Y-92111819D02*
X147689887Y-92111819D01*
X147689887Y-92111819D02*
X147594649Y-92159438D01*
X147594649Y-92159438D02*
X147547030Y-92207057D01*
X147547030Y-92207057D02*
X147499411Y-92302295D01*
X147499411Y-92302295D02*
X147499411Y-92397533D01*
X147499411Y-92397533D02*
X147547030Y-92492771D01*
X147547030Y-92492771D02*
X147594649Y-92540390D01*
X147594649Y-92540390D02*
X147689887Y-92588009D01*
X147689887Y-92588009D02*
X148023220Y-92588009D01*
X146880363Y-93111819D02*
X146975601Y-93064200D01*
X146975601Y-93064200D02*
X147023220Y-93016580D01*
X147023220Y-93016580D02*
X147070839Y-92921342D01*
X147070839Y-92921342D02*
X147070839Y-92635628D01*
X147070839Y-92635628D02*
X147023220Y-92540390D01*
X147023220Y-92540390D02*
X146975601Y-92492771D01*
X146975601Y-92492771D02*
X146880363Y-92445152D01*
X146880363Y-92445152D02*
X146737506Y-92445152D01*
X146737506Y-92445152D02*
X146642268Y-92492771D01*
X146642268Y-92492771D02*
X146594649Y-92540390D01*
X146594649Y-92540390D02*
X146547030Y-92635628D01*
X146547030Y-92635628D02*
X146547030Y-92921342D01*
X146547030Y-92921342D02*
X146594649Y-93016580D01*
X146594649Y-93016580D02*
X146642268Y-93064200D01*
X146642268Y-93064200D02*
X146737506Y-93111819D01*
X146737506Y-93111819D02*
X146880363Y-93111819D01*
X146261315Y-92445152D02*
X145880363Y-92445152D01*
X146118458Y-92111819D02*
X146118458Y-92968961D01*
X146118458Y-92968961D02*
X146070839Y-93064200D01*
X146070839Y-93064200D02*
X145975601Y-93111819D01*
X145975601Y-93111819D02*
X145880363Y-93111819D01*
X145689886Y-92445152D02*
X145308934Y-92445152D01*
X145547029Y-92111819D02*
X145547029Y-92968961D01*
X145547029Y-92968961D02*
X145499410Y-93064200D01*
X145499410Y-93064200D02*
X145404172Y-93111819D01*
X145404172Y-93111819D02*
X145308934Y-93111819D01*
X144832743Y-93111819D02*
X144927981Y-93064200D01*
X144927981Y-93064200D02*
X144975600Y-93016580D01*
X144975600Y-93016580D02*
X145023219Y-92921342D01*
X145023219Y-92921342D02*
X145023219Y-92635628D01*
X145023219Y-92635628D02*
X144975600Y-92540390D01*
X144975600Y-92540390D02*
X144927981Y-92492771D01*
X144927981Y-92492771D02*
X144832743Y-92445152D01*
X144832743Y-92445152D02*
X144689886Y-92445152D01*
X144689886Y-92445152D02*
X144594648Y-92492771D01*
X144594648Y-92492771D02*
X144547029Y-92540390D01*
X144547029Y-92540390D02*
X144499410Y-92635628D01*
X144499410Y-92635628D02*
X144499410Y-92921342D01*
X144499410Y-92921342D02*
X144547029Y-93016580D01*
X144547029Y-93016580D02*
X144594648Y-93064200D01*
X144594648Y-93064200D02*
X144689886Y-93111819D01*
X144689886Y-93111819D02*
X144832743Y-93111819D01*
X144070838Y-93111819D02*
X144070838Y-92445152D01*
X144070838Y-92540390D02*
X144023219Y-92492771D01*
X144023219Y-92492771D02*
X143927981Y-92445152D01*
X143927981Y-92445152D02*
X143785124Y-92445152D01*
X143785124Y-92445152D02*
X143689886Y-92492771D01*
X143689886Y-92492771D02*
X143642267Y-92588009D01*
X143642267Y-92588009D02*
X143642267Y-93111819D01*
X143642267Y-92588009D02*
X143594648Y-92492771D01*
X143594648Y-92492771D02*
X143499410Y-92445152D01*
X143499410Y-92445152D02*
X143356553Y-92445152D01*
X143356553Y-92445152D02*
X143261314Y-92492771D01*
X143261314Y-92492771D02*
X143213695Y-92588009D01*
X143213695Y-92588009D02*
X143213695Y-93111819D01*
X142023219Y-93064200D02*
X141880362Y-93111819D01*
X141880362Y-93111819D02*
X141642267Y-93111819D01*
X141642267Y-93111819D02*
X141547029Y-93064200D01*
X141547029Y-93064200D02*
X141499410Y-93016580D01*
X141499410Y-93016580D02*
X141451791Y-92921342D01*
X141451791Y-92921342D02*
X141451791Y-92826104D01*
X141451791Y-92826104D02*
X141499410Y-92730866D01*
X141499410Y-92730866D02*
X141547029Y-92683247D01*
X141547029Y-92683247D02*
X141642267Y-92635628D01*
X141642267Y-92635628D02*
X141832743Y-92588009D01*
X141832743Y-92588009D02*
X141927981Y-92540390D01*
X141927981Y-92540390D02*
X141975600Y-92492771D01*
X141975600Y-92492771D02*
X142023219Y-92397533D01*
X142023219Y-92397533D02*
X142023219Y-92302295D01*
X142023219Y-92302295D02*
X141975600Y-92207057D01*
X141975600Y-92207057D02*
X141927981Y-92159438D01*
X141927981Y-92159438D02*
X141832743Y-92111819D01*
X141832743Y-92111819D02*
X141594648Y-92111819D01*
X141594648Y-92111819D02*
X141451791Y-92159438D01*
X141023219Y-93111819D02*
X141023219Y-92445152D01*
X141023219Y-92111819D02*
X141070838Y-92159438D01*
X141070838Y-92159438D02*
X141023219Y-92207057D01*
X141023219Y-92207057D02*
X140975600Y-92159438D01*
X140975600Y-92159438D02*
X141023219Y-92111819D01*
X141023219Y-92111819D02*
X141023219Y-92207057D01*
X140118458Y-93111819D02*
X140118458Y-92111819D01*
X140118458Y-93064200D02*
X140213696Y-93111819D01*
X140213696Y-93111819D02*
X140404172Y-93111819D01*
X140404172Y-93111819D02*
X140499410Y-93064200D01*
X140499410Y-93064200D02*
X140547029Y-93016580D01*
X140547029Y-93016580D02*
X140594648Y-92921342D01*
X140594648Y-92921342D02*
X140594648Y-92635628D01*
X140594648Y-92635628D02*
X140547029Y-92540390D01*
X140547029Y-92540390D02*
X140499410Y-92492771D01*
X140499410Y-92492771D02*
X140404172Y-92445152D01*
X140404172Y-92445152D02*
X140213696Y-92445152D01*
X140213696Y-92445152D02*
X140118458Y-92492771D01*
X139261315Y-93064200D02*
X139356553Y-93111819D01*
X139356553Y-93111819D02*
X139547029Y-93111819D01*
X139547029Y-93111819D02*
X139642267Y-93064200D01*
X139642267Y-93064200D02*
X139689886Y-92968961D01*
X139689886Y-92968961D02*
X139689886Y-92588009D01*
X139689886Y-92588009D02*
X139642267Y-92492771D01*
X139642267Y-92492771D02*
X139547029Y-92445152D01*
X139547029Y-92445152D02*
X139356553Y-92445152D01*
X139356553Y-92445152D02*
X139261315Y-92492771D01*
X139261315Y-92492771D02*
X139213696Y-92588009D01*
X139213696Y-92588009D02*
X139213696Y-92683247D01*
X139213696Y-92683247D02*
X139689886Y-92778485D01*
%TD*%
M02*
