%TF.GenerationSoftware,KiCad,Pcbnew,7.0.5*%
%TF.CreationDate,2023-08-28T18:40:13-04:00*%
%TF.ProjectId,StickLeft,53746963-6b4c-4656-9674-2e6b69636164,rev?*%
%TF.SameCoordinates,Original*%
%TF.FileFunction,Copper,L1,Top*%
%TF.FilePolarity,Positive*%
%FSLAX46Y46*%
G04 Gerber Fmt 4.6, Leading zero omitted, Abs format (unit mm)*
G04 Created by KiCad (PCBNEW 7.0.5) date 2023-08-28 18:40:13*
%MOMM*%
%LPD*%
G01*
G04 APERTURE LIST*
%TA.AperFunction,ComponentPad*%
%ADD10R,1.700000X1.700000*%
%TD*%
%TA.AperFunction,ComponentPad*%
%ADD11O,1.700000X1.700000*%
%TD*%
%TA.AperFunction,ComponentPad*%
%ADD12C,1.950000*%
%TD*%
%TA.AperFunction,ComponentPad*%
%ADD13C,1.650000*%
%TD*%
%TA.AperFunction,ComponentPad*%
%ADD14C,2.000000*%
%TD*%
%TA.AperFunction,ComponentPad*%
%ADD15C,2.500000*%
%TD*%
%TA.AperFunction,ComponentPad*%
%ADD16C,2.250000*%
%TD*%
%TA.AperFunction,ComponentPad*%
%ADD17C,2.400000*%
%TD*%
%TA.AperFunction,ComponentPad*%
%ADD18C,2.475000*%
%TD*%
%TA.AperFunction,ViaPad*%
%ADD19C,0.600000*%
%TD*%
%TA.AperFunction,Conductor*%
%ADD20C,0.500000*%
%TD*%
G04 APERTURE END LIST*
D10*
%TO.P,J1,1,Pin_1*%
%TO.N,Net-(J1-Pin_1)*%
X143830000Y-119430000D03*
D11*
%TO.P,J1,2,Pin_2*%
%TO.N,Net-(J1-Pin_2)*%
X141290000Y-119430000D03*
%TO.P,J1,3,Pin_3*%
%TO.N,Net-(J1-Pin_3)*%
X138750000Y-119430000D03*
%TO.P,J1,4,Pin_4*%
%TO.N,GND*%
X136210000Y-119430000D03*
%TO.P,J1,5,Pin_5*%
%TO.N,Net-(J1-Pin_5)*%
X133670000Y-119430000D03*
%TD*%
D12*
%TO.P,U1,A1,A1*%
%TO.N,GND*%
X137370000Y-105940000D03*
X137370000Y-99440000D03*
D13*
%TO.P,U1,A11,A11*%
X140620000Y-111420000D03*
%TO.P,U1,A12,A12*%
%TO.N,Net-(J1-Pin_3)*%
X143120000Y-111420000D03*
%TO.P,U1,A13,A13*%
%TO.N,Net-(J1-Pin_1)*%
X145620000Y-111420000D03*
D12*
%TO.P,U1,B1,B1*%
%TO.N,Net-(J1-Pin_5)*%
X132870000Y-105940000D03*
X132870000Y-99440000D03*
D14*
%TO.P,U1,B2*%
%TO.N,N/C*%
X156260000Y-96242000D03*
D15*
X129960000Y-114242000D03*
D16*
%TO.P,U1,B3*%
X129860000Y-109042000D03*
D13*
%TO.P,U1,B11,B11*%
%TO.N,Net-(J1-Pin_1)*%
X151850000Y-105190000D03*
%TO.P,U1,B12,B12*%
%TO.N,Net-(J1-Pin_2)*%
X151850000Y-102690000D03*
%TO.P,U1,B13,B13*%
%TO.N,GND*%
X151850000Y-100190000D03*
D17*
%TO.P,U1,MH1,MH1*%
X148120000Y-109015000D03*
X148120000Y-96365000D03*
X138120000Y-109015000D03*
X138120000Y-96365000D03*
D18*
%TO.P,U1,MH2,MH2*%
X143120000Y-106990000D03*
X143120000Y-98390000D03*
%TD*%
D19*
%TO.N,GND*%
X155000000Y-110000000D03*
X142500000Y-92500000D03*
X147500000Y-92500000D03*
X132500000Y-95000000D03*
X157500000Y-100000000D03*
X142500000Y-122500000D03*
X130000000Y-100000000D03*
X137500000Y-92500000D03*
X132500000Y-117500000D03*
X157500000Y-105000000D03*
X152500000Y-92500000D03*
X135000000Y-122500000D03*
X150000000Y-115000000D03*
%TD*%
D20*
%TO.N,Net-(J1-Pin_5)*%
X132870000Y-105940000D02*
X133670000Y-106740000D01*
X133670000Y-106740000D02*
X133670000Y-119430000D01*
X132870000Y-99440000D02*
X132870000Y-105940000D01*
%TO.N,Net-(J1-Pin_2)*%
X153150000Y-102690000D02*
X154150000Y-103690000D01*
X141290000Y-117470000D02*
X141290000Y-119430000D01*
X151850000Y-102690000D02*
X153150000Y-102690000D01*
X154150000Y-107990000D02*
X147120000Y-115020000D01*
X154150000Y-103690000D02*
X154150000Y-107990000D01*
X147120000Y-115020000D02*
X143740000Y-115020000D01*
X143740000Y-115020000D02*
X141290000Y-117470000D01*
%TO.N,Net-(J1-Pin_3)*%
X143120000Y-113110000D02*
X138750000Y-117480000D01*
X138750000Y-117480000D02*
X138750000Y-119430000D01*
X143120000Y-111420000D02*
X143120000Y-113110000D01*
%TD*%
%TA.AperFunction,Conductor*%
%TO.N,GND*%
G36*
X136460000Y-120760633D02*
G01*
X136673483Y-120703433D01*
X136673492Y-120703429D01*
X136887578Y-120603600D01*
X137081082Y-120468105D01*
X137248105Y-120301082D01*
X137378119Y-120115405D01*
X137432696Y-120071781D01*
X137502195Y-120064588D01*
X137564549Y-120096110D01*
X137581269Y-120115405D01*
X137711505Y-120301401D01*
X137878599Y-120468495D01*
X137975384Y-120536264D01*
X138072165Y-120604032D01*
X138072167Y-120604033D01*
X138072170Y-120604035D01*
X138286337Y-120703903D01*
X138514592Y-120765063D01*
X138691034Y-120780500D01*
X138749999Y-120785659D01*
X138750000Y-120785659D01*
X138750001Y-120785659D01*
X138808966Y-120780500D01*
X138985408Y-120765063D01*
X139213663Y-120703903D01*
X139427830Y-120604035D01*
X139621401Y-120468495D01*
X139788495Y-120301401D01*
X139918424Y-120115842D01*
X139973002Y-120072217D01*
X140042500Y-120065023D01*
X140104855Y-120096546D01*
X140121575Y-120115842D01*
X140251281Y-120301082D01*
X140251505Y-120301401D01*
X140418599Y-120468495D01*
X140515384Y-120536264D01*
X140612165Y-120604032D01*
X140612167Y-120604033D01*
X140612170Y-120604035D01*
X140826337Y-120703903D01*
X141054592Y-120765063D01*
X141231034Y-120780500D01*
X141289999Y-120785659D01*
X141290000Y-120785659D01*
X141290001Y-120785659D01*
X141348966Y-120780500D01*
X141525408Y-120765063D01*
X141753663Y-120703903D01*
X141967830Y-120604035D01*
X142161401Y-120468495D01*
X142283329Y-120346566D01*
X142344648Y-120313084D01*
X142414340Y-120318068D01*
X142470274Y-120359939D01*
X142487189Y-120390917D01*
X142536202Y-120522328D01*
X142536206Y-120522335D01*
X142622452Y-120637544D01*
X142622455Y-120637547D01*
X142737664Y-120723793D01*
X142737671Y-120723797D01*
X142872517Y-120774091D01*
X142872516Y-120774091D01*
X142879444Y-120774835D01*
X142932127Y-120780500D01*
X144727872Y-120780499D01*
X144787483Y-120774091D01*
X144798106Y-120770128D01*
X144867795Y-120765142D01*
X144929119Y-120798624D01*
X144962607Y-120859946D01*
X144965441Y-120886853D01*
X144960702Y-121966721D01*
X144940723Y-122033674D01*
X144920493Y-122057584D01*
X144100870Y-122808907D01*
X144038150Y-122839697D01*
X144017080Y-122841500D01*
X133618676Y-122841500D01*
X133551637Y-122821815D01*
X133530995Y-122805181D01*
X132796818Y-122071004D01*
X132763333Y-122009681D01*
X132760499Y-121983332D01*
X132760499Y-120680018D01*
X132780184Y-120612980D01*
X132832988Y-120567225D01*
X132902146Y-120557281D01*
X132955621Y-120578443D01*
X132992170Y-120604035D01*
X133206337Y-120703903D01*
X133434592Y-120765063D01*
X133611034Y-120780500D01*
X133669999Y-120785659D01*
X133670000Y-120785659D01*
X133670001Y-120785659D01*
X133728966Y-120780500D01*
X133905408Y-120765063D01*
X134133663Y-120703903D01*
X134347830Y-120604035D01*
X134541401Y-120468495D01*
X134708495Y-120301401D01*
X134838730Y-120115405D01*
X134893307Y-120071781D01*
X134962805Y-120064587D01*
X135025160Y-120096110D01*
X135041879Y-120115405D01*
X135171890Y-120301078D01*
X135338917Y-120468105D01*
X135532421Y-120603600D01*
X135746507Y-120703429D01*
X135746516Y-120703433D01*
X135960000Y-120760634D01*
X135960000Y-119865501D01*
X136067685Y-119914680D01*
X136174237Y-119930000D01*
X136245763Y-119930000D01*
X136352315Y-119914680D01*
X136460000Y-119865501D01*
X136460000Y-120760633D01*
G37*
%TD.AperFunction*%
%TA.AperFunction,Conductor*%
G36*
X150858737Y-89858437D02*
G01*
X151326673Y-90121786D01*
X151329129Y-90123244D01*
X151913445Y-90488496D01*
X151915793Y-90490041D01*
X152482649Y-90881792D01*
X152484953Y-90883464D01*
X152948609Y-91236510D01*
X153033179Y-91300905D01*
X153035395Y-91302674D01*
X153563816Y-91744911D01*
X153565963Y-91746794D01*
X154073446Y-92212878D01*
X154075505Y-92214857D01*
X154561021Y-92703840D01*
X154562954Y-92705878D01*
X155025448Y-93216707D01*
X155027292Y-93218841D01*
X155464151Y-93748448D01*
X155468485Y-93754387D01*
X155480529Y-93773128D01*
X155481508Y-93773977D01*
X155497763Y-93791018D01*
X155507417Y-93803287D01*
X155507418Y-93803288D01*
X155507423Y-93803293D01*
X155563594Y-93845314D01*
X155567057Y-93848104D01*
X155589299Y-93867377D01*
X155595898Y-93871618D01*
X155609676Y-93879790D01*
X155612937Y-93882230D01*
X155612938Y-93882230D01*
X155612939Y-93882231D01*
X155683163Y-93910320D01*
X155685853Y-93911471D01*
X155720215Y-93927165D01*
X155720216Y-93927165D01*
X155727394Y-93929273D01*
X155727422Y-93929167D01*
X155735292Y-93931172D01*
X155735298Y-93931175D01*
X155769679Y-93935275D01*
X155809671Y-93940045D01*
X155811152Y-93940240D01*
X155818083Y-93941236D01*
X155826873Y-93942500D01*
X155826884Y-93942500D01*
X155828348Y-93942605D01*
X155833921Y-93942936D01*
X155849073Y-93944743D01*
X155866153Y-93946781D01*
X155866154Y-93946781D01*
X155866154Y-93946780D01*
X155866155Y-93946781D01*
X155887074Y-93943766D01*
X155904757Y-93942500D01*
X157599139Y-93942500D01*
X157666178Y-93962185D01*
X157686701Y-93978700D01*
X158097225Y-94388130D01*
X158323063Y-94613366D01*
X158356630Y-94674644D01*
X158359499Y-94701164D01*
X158359499Y-101878000D01*
X158339814Y-101945039D01*
X158321900Y-101966943D01*
X158258242Y-102028781D01*
X158252474Y-102033735D01*
X158252178Y-102033959D01*
X158206732Y-102078817D01*
X158182457Y-102102400D01*
X158180920Y-102104123D01*
X158178224Y-102106958D01*
X158158385Y-102126542D01*
X158158384Y-102126543D01*
X158143149Y-102152536D01*
X158138747Y-102159061D01*
X158116646Y-102187710D01*
X158108538Y-102208521D01*
X158099983Y-102226196D01*
X158091752Y-102240240D01*
X158081985Y-102275767D01*
X158079973Y-102281837D01*
X158064400Y-102321812D01*
X158063125Y-102336615D01*
X158059151Y-102358821D01*
X158056818Y-102367307D01*
X158056818Y-102367314D01*
X158056535Y-102410845D01*
X158056308Y-102415762D01*
X158052051Y-102465203D01*
X158052051Y-102465209D01*
X158052086Y-102465378D01*
X158054487Y-102493851D01*
X158033079Y-103176344D01*
X158032905Y-103179422D01*
X157972803Y-103918990D01*
X157972479Y-103922029D01*
X157939758Y-104170731D01*
X157875691Y-104657670D01*
X157875213Y-104660716D01*
X157741978Y-105390623D01*
X157741349Y-105393642D01*
X157571991Y-106116042D01*
X157571213Y-106119026D01*
X157366155Y-106832107D01*
X157365230Y-106835048D01*
X157124979Y-107537054D01*
X157123909Y-107539946D01*
X156849060Y-108229138D01*
X156847847Y-108231973D01*
X156539081Y-108906641D01*
X156537729Y-108909412D01*
X156195797Y-109567919D01*
X156194309Y-109570620D01*
X155820077Y-110211296D01*
X155818456Y-110213919D01*
X155412837Y-110835206D01*
X155411087Y-110837745D01*
X154975069Y-111438123D01*
X154973195Y-111440572D01*
X154507895Y-112018501D01*
X154505903Y-112020854D01*
X154012439Y-112574951D01*
X154010332Y-112577202D01*
X153489951Y-113106069D01*
X153487734Y-113108213D01*
X152941670Y-113610589D01*
X152939350Y-113612620D01*
X152369018Y-114087207D01*
X152366599Y-114089120D01*
X151773365Y-114534781D01*
X151770854Y-114536571D01*
X151156199Y-114952192D01*
X151153603Y-114953855D01*
X150895168Y-115110471D01*
X150519054Y-115338403D01*
X150516396Y-115339926D01*
X149863518Y-115692454D01*
X149860769Y-115693851D01*
X149191160Y-116013496D01*
X149188345Y-116014755D01*
X148503687Y-116300714D01*
X148500813Y-116301831D01*
X147802794Y-116553400D01*
X147799869Y-116554373D01*
X147090188Y-116770938D01*
X147087218Y-116771764D01*
X146365478Y-116953329D01*
X146363980Y-116953686D01*
X146300494Y-116967990D01*
X146295857Y-116969369D01*
X146244695Y-116981140D01*
X146244685Y-116981143D01*
X146015900Y-117067946D01*
X146015892Y-117067950D01*
X145801034Y-117185065D01*
X145801032Y-117185066D01*
X145604104Y-117330309D01*
X145604096Y-117330316D01*
X145428749Y-117500995D01*
X145278238Y-117693942D01*
X145278236Y-117693945D01*
X145155376Y-117905550D01*
X145155369Y-117905564D01*
X145087882Y-118069923D01*
X145044208Y-118124461D01*
X144977982Y-118146730D01*
X144929842Y-118139005D01*
X144787482Y-118085908D01*
X144787483Y-118085908D01*
X144727883Y-118079501D01*
X144727881Y-118079500D01*
X144727873Y-118079500D01*
X144727864Y-118079500D01*
X142932129Y-118079500D01*
X142932123Y-118079501D01*
X142872516Y-118085908D01*
X142737671Y-118136202D01*
X142737664Y-118136206D01*
X142622455Y-118222452D01*
X142622452Y-118222455D01*
X142536206Y-118337664D01*
X142536203Y-118337669D01*
X142487189Y-118469083D01*
X142445317Y-118525016D01*
X142379853Y-118549433D01*
X142311580Y-118534581D01*
X142283326Y-118513430D01*
X142161401Y-118391505D01*
X142093375Y-118343872D01*
X142049750Y-118289295D01*
X142040500Y-118242303D01*
X142040500Y-117832229D01*
X142060185Y-117765189D01*
X142076819Y-117744548D01*
X144014548Y-115806819D01*
X144075871Y-115773334D01*
X144102229Y-115770500D01*
X147056295Y-115770500D01*
X147074265Y-115771809D01*
X147098023Y-115775289D01*
X147150068Y-115770735D01*
X147155470Y-115770500D01*
X147163704Y-115770500D01*
X147163709Y-115770500D01*
X147195458Y-115766788D01*
X147197075Y-115766622D01*
X147272797Y-115759999D01*
X147272805Y-115759996D01*
X147279866Y-115758539D01*
X147279878Y-115758598D01*
X147287243Y-115756965D01*
X147287229Y-115756906D01*
X147294251Y-115755241D01*
X147294255Y-115755241D01*
X147365587Y-115729277D01*
X147367286Y-115728688D01*
X147439334Y-115704814D01*
X147439342Y-115704808D01*
X147445882Y-115701760D01*
X147445908Y-115701816D01*
X147452690Y-115698532D01*
X147452663Y-115698478D01*
X147459109Y-115695239D01*
X147459117Y-115695237D01*
X147522612Y-115653475D01*
X147523977Y-115652605D01*
X147588656Y-115612712D01*
X147588661Y-115612706D01*
X147594325Y-115608229D01*
X147594362Y-115608277D01*
X147600204Y-115603518D01*
X147600164Y-115603471D01*
X147605686Y-115598835D01*
X147605696Y-115598830D01*
X147657800Y-115543601D01*
X147658994Y-115542372D01*
X154635638Y-108565727D01*
X154649267Y-108553950D01*
X154668530Y-108539610D01*
X154668532Y-108539606D01*
X154668534Y-108539606D01*
X154691273Y-108512505D01*
X154702113Y-108499585D01*
X154705767Y-108495599D01*
X154711590Y-108489777D01*
X154731376Y-108464750D01*
X154732494Y-108463378D01*
X154781302Y-108405214D01*
X154781303Y-108405211D01*
X154785272Y-108399179D01*
X154785323Y-108399212D01*
X154789369Y-108392860D01*
X154789317Y-108392828D01*
X154793109Y-108386679D01*
X154793111Y-108386677D01*
X154825195Y-108317869D01*
X154825958Y-108316292D01*
X154860040Y-108248433D01*
X154860043Y-108248417D01*
X154862510Y-108241644D01*
X154862568Y-108241665D01*
X154865043Y-108234546D01*
X154864985Y-108234527D01*
X154867255Y-108227677D01*
X154867256Y-108227673D01*
X154882608Y-108153319D01*
X154882990Y-108151596D01*
X154900501Y-108077716D01*
X154901339Y-108070548D01*
X154901397Y-108070554D01*
X154902164Y-108063056D01*
X154902104Y-108063051D01*
X154902733Y-108055860D01*
X154902698Y-108054671D01*
X154900526Y-107979988D01*
X154900500Y-107978185D01*
X154900500Y-103753705D01*
X154901809Y-103735735D01*
X154902129Y-103733547D01*
X154905289Y-103711977D01*
X154905103Y-103709856D01*
X154900736Y-103659934D01*
X154900500Y-103654528D01*
X154900500Y-103646296D01*
X154900500Y-103646291D01*
X154896795Y-103614602D01*
X154896618Y-103612876D01*
X154889999Y-103537203D01*
X154889999Y-103537201D01*
X154888539Y-103530129D01*
X154888597Y-103530116D01*
X154886965Y-103522757D01*
X154886906Y-103522772D01*
X154885241Y-103515751D01*
X154885241Y-103515745D01*
X154859267Y-103444382D01*
X154858691Y-103442723D01*
X154834814Y-103370666D01*
X154834810Y-103370659D01*
X154831760Y-103364118D01*
X154831815Y-103364091D01*
X154828533Y-103357313D01*
X154828480Y-103357340D01*
X154825236Y-103350881D01*
X154783529Y-103287470D01*
X154782560Y-103285949D01*
X154742710Y-103221342D01*
X154738234Y-103215682D01*
X154738281Y-103215644D01*
X154733519Y-103209799D01*
X154733474Y-103209838D01*
X154728831Y-103204305D01*
X154673617Y-103152213D01*
X154672357Y-103150990D01*
X153725729Y-102204361D01*
X153713949Y-102190730D01*
X153704322Y-102177799D01*
X153699612Y-102171472D01*
X153690126Y-102163512D01*
X153659587Y-102137886D01*
X153655612Y-102134244D01*
X153652690Y-102131322D01*
X153649779Y-102128410D01*
X153624736Y-102108609D01*
X153623338Y-102107470D01*
X153565214Y-102058698D01*
X153559180Y-102054729D01*
X153559212Y-102054680D01*
X153552853Y-102050628D01*
X153552822Y-102050679D01*
X153546680Y-102046891D01*
X153546678Y-102046890D01*
X153546677Y-102046889D01*
X153477872Y-102014804D01*
X153476252Y-102014019D01*
X153434613Y-101993108D01*
X153408433Y-101979960D01*
X153408431Y-101979959D01*
X153408430Y-101979959D01*
X153401645Y-101977489D01*
X153401665Y-101977433D01*
X153394549Y-101974959D01*
X153394531Y-101975015D01*
X153387674Y-101972743D01*
X153313328Y-101957391D01*
X153311569Y-101957001D01*
X153237718Y-101939499D01*
X153230547Y-101938661D01*
X153230553Y-101938601D01*
X153223055Y-101937835D01*
X153223050Y-101937895D01*
X153215860Y-101937265D01*
X153139968Y-101939474D01*
X153138165Y-101939500D01*
X153007180Y-101939500D01*
X152940141Y-101919815D01*
X152905605Y-101886623D01*
X152869273Y-101834735D01*
X152869268Y-101834729D01*
X152705269Y-101670730D01*
X152705269Y-101670729D01*
X152520379Y-101541268D01*
X152476757Y-101486693D01*
X152469564Y-101417194D01*
X152501086Y-101354840D01*
X152520381Y-101338120D01*
X152593423Y-101286975D01*
X152021568Y-100715121D01*
X152138458Y-100664349D01*
X152255739Y-100568934D01*
X152342928Y-100445415D01*
X152373354Y-100359802D01*
X152946975Y-100933423D01*
X153001867Y-100855030D01*
X153099847Y-100644909D01*
X153099851Y-100644900D01*
X153159852Y-100420968D01*
X153159854Y-100420958D01*
X153180061Y-100190000D01*
X153180061Y-100189999D01*
X153159854Y-99959041D01*
X153159852Y-99959031D01*
X153099851Y-99735099D01*
X153099847Y-99735090D01*
X153001868Y-99524972D01*
X152946974Y-99446576D01*
X152375929Y-100017622D01*
X152373116Y-100004085D01*
X152303558Y-99869844D01*
X152200362Y-99759348D01*
X152071181Y-99680791D01*
X152019997Y-99666450D01*
X152593423Y-99093024D01*
X152593422Y-99093023D01*
X152515031Y-99038133D01*
X152515029Y-99038132D01*
X152304909Y-98940152D01*
X152304900Y-98940148D01*
X152080968Y-98880147D01*
X152080958Y-98880145D01*
X151850001Y-98859939D01*
X151849999Y-98859939D01*
X151619041Y-98880145D01*
X151619031Y-98880147D01*
X151395099Y-98940148D01*
X151395090Y-98940152D01*
X151184971Y-99038132D01*
X151184969Y-99038133D01*
X151106577Y-99093024D01*
X151106576Y-99093024D01*
X151678431Y-99664878D01*
X151561542Y-99715651D01*
X151444261Y-99811066D01*
X151357072Y-99934585D01*
X151326645Y-100020197D01*
X150753024Y-99446576D01*
X150753024Y-99446577D01*
X150698133Y-99524969D01*
X150698132Y-99524971D01*
X150600152Y-99735090D01*
X150600148Y-99735099D01*
X150540147Y-99959031D01*
X150540145Y-99959041D01*
X150519939Y-100189999D01*
X150519939Y-100190000D01*
X150540145Y-100420958D01*
X150540147Y-100420968D01*
X150600148Y-100644900D01*
X150600152Y-100644909D01*
X150698132Y-100855029D01*
X150698133Y-100855031D01*
X150753023Y-100933422D01*
X150753024Y-100933423D01*
X151324070Y-100362376D01*
X151326884Y-100375915D01*
X151396442Y-100510156D01*
X151499638Y-100620652D01*
X151628819Y-100699209D01*
X151680002Y-100713549D01*
X151106575Y-101286975D01*
X151106575Y-101286976D01*
X151179618Y-101338120D01*
X151223243Y-101392696D01*
X151230437Y-101462194D01*
X151198915Y-101524549D01*
X151179619Y-101541270D01*
X150994731Y-101670730D01*
X150994729Y-101670731D01*
X150830731Y-101834729D01*
X150830726Y-101834735D01*
X150697701Y-102024714D01*
X150697699Y-102024718D01*
X150599681Y-102234917D01*
X150539651Y-102458948D01*
X150539650Y-102458955D01*
X150519437Y-102689998D01*
X150519437Y-102690001D01*
X150539650Y-102921044D01*
X150539651Y-102921051D01*
X150599678Y-103145074D01*
X150599679Y-103145076D01*
X150599680Y-103145079D01*
X150697699Y-103355282D01*
X150830730Y-103545269D01*
X150994731Y-103709270D01*
X151058190Y-103753705D01*
X151179183Y-103838425D01*
X151222808Y-103893002D01*
X151230000Y-103962501D01*
X151198478Y-104024855D01*
X151179183Y-104041575D01*
X150994731Y-104170730D01*
X150994729Y-104170731D01*
X150830731Y-104334729D01*
X150830726Y-104334735D01*
X150697701Y-104524714D01*
X150697699Y-104524718D01*
X150599681Y-104734917D01*
X150539651Y-104958948D01*
X150539650Y-104958955D01*
X150519437Y-105189998D01*
X150519437Y-105190001D01*
X150539650Y-105421044D01*
X150539651Y-105421051D01*
X150599678Y-105645074D01*
X150599679Y-105645076D01*
X150599680Y-105645079D01*
X150697699Y-105855282D01*
X150830730Y-106045269D01*
X150994731Y-106209270D01*
X151184718Y-106342301D01*
X151394921Y-106440320D01*
X151618950Y-106500349D01*
X151776424Y-106514126D01*
X151849998Y-106520563D01*
X151850000Y-106520563D01*
X151850002Y-106520563D01*
X151923576Y-106514126D01*
X152081050Y-106500349D01*
X152305079Y-106440320D01*
X152515282Y-106342301D01*
X152705269Y-106209270D01*
X152869270Y-106045269D01*
X153002301Y-105855282D01*
X153100320Y-105645079D01*
X153155725Y-105438303D01*
X153192090Y-105378645D01*
X153254937Y-105348116D01*
X153324313Y-105356411D01*
X153378191Y-105400896D01*
X153399465Y-105467448D01*
X153399500Y-105470399D01*
X153399500Y-107627769D01*
X153379815Y-107694808D01*
X153363181Y-107715450D01*
X146845451Y-114233181D01*
X146784128Y-114266666D01*
X146757770Y-114269500D01*
X143803705Y-114269500D01*
X143785735Y-114268191D01*
X143761972Y-114264710D01*
X143716890Y-114268655D01*
X143709933Y-114269264D01*
X143704532Y-114269500D01*
X143696281Y-114269500D01*
X143664594Y-114273203D01*
X143662802Y-114273386D01*
X143587201Y-114280001D01*
X143580134Y-114281461D01*
X143580122Y-114281404D01*
X143572753Y-114283038D01*
X143572767Y-114283095D01*
X143565743Y-114284759D01*
X143494398Y-114310725D01*
X143492697Y-114311316D01*
X143420660Y-114335187D01*
X143414123Y-114338236D01*
X143414098Y-114338184D01*
X143407310Y-114341470D01*
X143407336Y-114341521D01*
X143400884Y-114344761D01*
X143337483Y-114386460D01*
X143335963Y-114387429D01*
X143271347Y-114427285D01*
X143265682Y-114431765D01*
X143265646Y-114431719D01*
X143259798Y-114436484D01*
X143259835Y-114436528D01*
X143254309Y-114441164D01*
X143202229Y-114496364D01*
X143200974Y-114497657D01*
X140804358Y-116894272D01*
X140790729Y-116906051D01*
X140771468Y-116920390D01*
X140737898Y-116960397D01*
X140734253Y-116964376D01*
X140728407Y-116970223D01*
X140708618Y-116995251D01*
X140707481Y-116996647D01*
X140658694Y-117054790D01*
X140654729Y-117060819D01*
X140654682Y-117060788D01*
X140650630Y-117067147D01*
X140650679Y-117067177D01*
X140646889Y-117073321D01*
X140614812Y-117142110D01*
X140614027Y-117143731D01*
X140579957Y-117211572D01*
X140577488Y-117218357D01*
X140577432Y-117218336D01*
X140574960Y-117225450D01*
X140575015Y-117225469D01*
X140572743Y-117232325D01*
X140557391Y-117306670D01*
X140557001Y-117308428D01*
X140539499Y-117382279D01*
X140538661Y-117389454D01*
X140538601Y-117389447D01*
X140537835Y-117396945D01*
X140537895Y-117396951D01*
X140537265Y-117404140D01*
X140539474Y-117480030D01*
X140539500Y-117481833D01*
X140539500Y-118242298D01*
X140519815Y-118309337D01*
X140486625Y-118343872D01*
X140418595Y-118391507D01*
X140251505Y-118558597D01*
X140121575Y-118744158D01*
X140066998Y-118787783D01*
X139997500Y-118794977D01*
X139935145Y-118763454D01*
X139918425Y-118744158D01*
X139788494Y-118558597D01*
X139621404Y-118391507D01*
X139553375Y-118343872D01*
X139509751Y-118289294D01*
X139500500Y-118242298D01*
X139500500Y-117842228D01*
X139520185Y-117775189D01*
X139536814Y-117754552D01*
X143605638Y-113685727D01*
X143619267Y-113673950D01*
X143638530Y-113659610D01*
X143638532Y-113659606D01*
X143638534Y-113659606D01*
X143656663Y-113637999D01*
X143672113Y-113619585D01*
X143675767Y-113615599D01*
X143681590Y-113609777D01*
X143701376Y-113584750D01*
X143702494Y-113583378D01*
X143751302Y-113525214D01*
X143751303Y-113525211D01*
X143755272Y-113519179D01*
X143755323Y-113519212D01*
X143759369Y-113512860D01*
X143759317Y-113512828D01*
X143763109Y-113506679D01*
X143763111Y-113506677D01*
X143795195Y-113437869D01*
X143795958Y-113436292D01*
X143830040Y-113368433D01*
X143830043Y-113368417D01*
X143832510Y-113361644D01*
X143832568Y-113361665D01*
X143835043Y-113354546D01*
X143834985Y-113354527D01*
X143837255Y-113347677D01*
X143837256Y-113347673D01*
X143852608Y-113273319D01*
X143852990Y-113271596D01*
X143870501Y-113197716D01*
X143871339Y-113190548D01*
X143871397Y-113190554D01*
X143872164Y-113183056D01*
X143872104Y-113183051D01*
X143872733Y-113175860D01*
X143870526Y-113099988D01*
X143870500Y-113098185D01*
X143870500Y-112577180D01*
X143890185Y-112510141D01*
X143923377Y-112475605D01*
X143975269Y-112439270D01*
X144139270Y-112275269D01*
X144268427Y-112090814D01*
X144323002Y-112047192D01*
X144392501Y-112039999D01*
X144454855Y-112071521D01*
X144471569Y-112090809D01*
X144600730Y-112275269D01*
X144764731Y-112439270D01*
X144954718Y-112572301D01*
X145164921Y-112670320D01*
X145388950Y-112730349D01*
X145553985Y-112744787D01*
X145619998Y-112750563D01*
X145620000Y-112750563D01*
X145620002Y-112750563D01*
X145677762Y-112745509D01*
X145851050Y-112730349D01*
X146075079Y-112670320D01*
X146285282Y-112572301D01*
X146475269Y-112439270D01*
X146639270Y-112275269D01*
X146772301Y-112085282D01*
X146870320Y-111875079D01*
X146930349Y-111651050D01*
X146948870Y-111439357D01*
X146950563Y-111420001D01*
X146950563Y-111419998D01*
X146940681Y-111307047D01*
X146930349Y-111188950D01*
X146870320Y-110964921D01*
X146772301Y-110754719D01*
X146772299Y-110754716D01*
X146772298Y-110754714D01*
X146639273Y-110564735D01*
X146639268Y-110564729D01*
X146475269Y-110400730D01*
X146418706Y-110361124D01*
X146285282Y-110267699D01*
X146075079Y-110169680D01*
X146075076Y-110169679D01*
X146075074Y-110169678D01*
X145851051Y-110109651D01*
X145851044Y-110109650D01*
X145620002Y-110089437D01*
X145619998Y-110089437D01*
X145388955Y-110109650D01*
X145388948Y-110109651D01*
X145164917Y-110169681D01*
X144954718Y-110267699D01*
X144954714Y-110267701D01*
X144764735Y-110400726D01*
X144764729Y-110400731D01*
X144600731Y-110564729D01*
X144600726Y-110564735D01*
X144471575Y-110749183D01*
X144416998Y-110792808D01*
X144347500Y-110800002D01*
X144285145Y-110768479D01*
X144268425Y-110749183D01*
X144139273Y-110564735D01*
X144139268Y-110564729D01*
X143975269Y-110400730D01*
X143918706Y-110361124D01*
X143785282Y-110267699D01*
X143575079Y-110169680D01*
X143575076Y-110169679D01*
X143575074Y-110169678D01*
X143351051Y-110109651D01*
X143351044Y-110109650D01*
X143120002Y-110089437D01*
X143119998Y-110089437D01*
X142888955Y-110109650D01*
X142888948Y-110109651D01*
X142664917Y-110169681D01*
X142454718Y-110267699D01*
X142454714Y-110267701D01*
X142264735Y-110400726D01*
X142264729Y-110400731D01*
X142100731Y-110564729D01*
X142100730Y-110564731D01*
X141971270Y-110749619D01*
X141916693Y-110793243D01*
X141847194Y-110800436D01*
X141784840Y-110768914D01*
X141768121Y-110749619D01*
X141716975Y-110676576D01*
X141716974Y-110676576D01*
X141145929Y-111247622D01*
X141143116Y-111234085D01*
X141073558Y-111099844D01*
X140970362Y-110989348D01*
X140841181Y-110910791D01*
X140789997Y-110896450D01*
X141363423Y-110323024D01*
X141363422Y-110323023D01*
X141285031Y-110268133D01*
X141285029Y-110268132D01*
X141074909Y-110170152D01*
X141074900Y-110170148D01*
X140850968Y-110110147D01*
X140850958Y-110110145D01*
X140620001Y-110089939D01*
X140619999Y-110089939D01*
X140389041Y-110110145D01*
X140389031Y-110110147D01*
X140165099Y-110170148D01*
X140165090Y-110170152D01*
X139954971Y-110268132D01*
X139954969Y-110268133D01*
X139876577Y-110323024D01*
X139876576Y-110323024D01*
X140448431Y-110894878D01*
X140331542Y-110945651D01*
X140214261Y-111041066D01*
X140127072Y-111164585D01*
X140096645Y-111250197D01*
X139523024Y-110676576D01*
X139523024Y-110676577D01*
X139468133Y-110754969D01*
X139468132Y-110754971D01*
X139370152Y-110965090D01*
X139370148Y-110965099D01*
X139310147Y-111189031D01*
X139310145Y-111189041D01*
X139289939Y-111419999D01*
X139289939Y-111420000D01*
X139310145Y-111650958D01*
X139310147Y-111650968D01*
X139370148Y-111874900D01*
X139370152Y-111874909D01*
X139468132Y-112085029D01*
X139468133Y-112085031D01*
X139523023Y-112163422D01*
X139523024Y-112163423D01*
X140094070Y-111592376D01*
X140096884Y-111605915D01*
X140166442Y-111740156D01*
X140269638Y-111850652D01*
X140398819Y-111929209D01*
X140450002Y-111943549D01*
X139876575Y-112516975D01*
X139954973Y-112571868D01*
X140165090Y-112669847D01*
X140165099Y-112669851D01*
X140389031Y-112729852D01*
X140389041Y-112729854D01*
X140619999Y-112750061D01*
X140620001Y-112750061D01*
X140850958Y-112729854D01*
X140850968Y-112729852D01*
X141074900Y-112669851D01*
X141074909Y-112669847D01*
X141285030Y-112571867D01*
X141363423Y-112516975D01*
X140791568Y-111945121D01*
X140908458Y-111894349D01*
X141025739Y-111798934D01*
X141112928Y-111675415D01*
X141143354Y-111589802D01*
X141716975Y-112163423D01*
X141768120Y-112090381D01*
X141822697Y-112046757D01*
X141892196Y-112039564D01*
X141954550Y-112071086D01*
X141971266Y-112090377D01*
X142100730Y-112275269D01*
X142264729Y-112439268D01*
X142264735Y-112439273D01*
X142316623Y-112475605D01*
X142360248Y-112530181D01*
X142369500Y-112577180D01*
X142369500Y-112747769D01*
X142349815Y-112814808D01*
X142333181Y-112835450D01*
X138264358Y-116904272D01*
X138250729Y-116916051D01*
X138231468Y-116930390D01*
X138197898Y-116970397D01*
X138194253Y-116974376D01*
X138188407Y-116980223D01*
X138168618Y-117005251D01*
X138167481Y-117006647D01*
X138118694Y-117064790D01*
X138114729Y-117070819D01*
X138114682Y-117070788D01*
X138110630Y-117077147D01*
X138110679Y-117077177D01*
X138106889Y-117083321D01*
X138079475Y-117142110D01*
X138074847Y-117152036D01*
X138074812Y-117152110D01*
X138074027Y-117153731D01*
X138039957Y-117221572D01*
X138037488Y-117228357D01*
X138037432Y-117228336D01*
X138034960Y-117235450D01*
X138035015Y-117235469D01*
X138032743Y-117242325D01*
X138017391Y-117316670D01*
X138017001Y-117318428D01*
X137999499Y-117392279D01*
X137998661Y-117399454D01*
X137998601Y-117399447D01*
X137997835Y-117406945D01*
X137997895Y-117406951D01*
X137997265Y-117414140D01*
X137999474Y-117490030D01*
X137999500Y-117491833D01*
X137999500Y-118242298D01*
X137979815Y-118309337D01*
X137946625Y-118343872D01*
X137878595Y-118391507D01*
X137711508Y-118558594D01*
X137581269Y-118744595D01*
X137526692Y-118788219D01*
X137457193Y-118795412D01*
X137394839Y-118763890D01*
X137378119Y-118744594D01*
X137248113Y-118558926D01*
X137248108Y-118558920D01*
X137081082Y-118391894D01*
X136887578Y-118256399D01*
X136673492Y-118156570D01*
X136673486Y-118156567D01*
X136460000Y-118099364D01*
X136460000Y-118994498D01*
X136352315Y-118945320D01*
X136245763Y-118930000D01*
X136174237Y-118930000D01*
X136067685Y-118945320D01*
X135960000Y-118994498D01*
X135960000Y-118099364D01*
X135959999Y-118099364D01*
X135746513Y-118156567D01*
X135746507Y-118156570D01*
X135532422Y-118256399D01*
X135532420Y-118256400D01*
X135338926Y-118391886D01*
X135338920Y-118391891D01*
X135171891Y-118558920D01*
X135171890Y-118558922D01*
X135041880Y-118744595D01*
X134987303Y-118788219D01*
X134917804Y-118795412D01*
X134855450Y-118763890D01*
X134838730Y-118744594D01*
X134708494Y-118558597D01*
X134541404Y-118391507D01*
X134473375Y-118343872D01*
X134429751Y-118289294D01*
X134420500Y-118242298D01*
X134420500Y-106803705D01*
X134421809Y-106785735D01*
X134422129Y-106783547D01*
X134425289Y-106761977D01*
X134420735Y-106709931D01*
X134420500Y-106704528D01*
X134420500Y-106696296D01*
X134420500Y-106696291D01*
X134416795Y-106664602D01*
X134416618Y-106662876D01*
X134409999Y-106587203D01*
X134409999Y-106587201D01*
X134408539Y-106580129D01*
X134408597Y-106580116D01*
X134406965Y-106572757D01*
X134406906Y-106572772D01*
X134405241Y-106565751D01*
X134405241Y-106565745D01*
X134379267Y-106494382D01*
X134378691Y-106492723D01*
X134354814Y-106420666D01*
X134354810Y-106420659D01*
X134351760Y-106414118D01*
X134351815Y-106414091D01*
X134348533Y-106407313D01*
X134348480Y-106407340D01*
X134345238Y-106400885D01*
X134324800Y-106369811D01*
X134304407Y-106302983D01*
X134308194Y-106271235D01*
X134330364Y-106183692D01*
X134344882Y-106008486D01*
X134350557Y-105940005D01*
X135889945Y-105940005D01*
X135910130Y-106183605D01*
X135970138Y-106420573D01*
X136068328Y-106644424D01*
X136164626Y-106791820D01*
X136767452Y-106188993D01*
X136777188Y-106218956D01*
X136865186Y-106357619D01*
X136984903Y-106470040D01*
X137119510Y-106544041D01*
X136517757Y-107145793D01*
X136517758Y-107145794D01*
X136560485Y-107179050D01*
X136560485Y-107179051D01*
X136775468Y-107295394D01*
X136775476Y-107295397D01*
X137006665Y-107374765D01*
X137104824Y-107391145D01*
X137167709Y-107421595D01*
X137204149Y-107481210D01*
X137202574Y-107551062D01*
X137163485Y-107608973D01*
X137154267Y-107615907D01*
X137106813Y-107648260D01*
X137106813Y-107648261D01*
X137756891Y-108298338D01*
X137618052Y-108385577D01*
X137490577Y-108513052D01*
X137403338Y-108651891D01*
X136753453Y-108002006D01*
X136711455Y-108054670D01*
X136584058Y-108275328D01*
X136490973Y-108512505D01*
X136490968Y-108512522D01*
X136434273Y-108760920D01*
X136415233Y-109014995D01*
X136415233Y-109015004D01*
X136434273Y-109269079D01*
X136490968Y-109517477D01*
X136490973Y-109517494D01*
X136584058Y-109754671D01*
X136584057Y-109754671D01*
X136711457Y-109975332D01*
X136753452Y-110027993D01*
X137403338Y-109378107D01*
X137490577Y-109516948D01*
X137618052Y-109644423D01*
X137756890Y-109731661D01*
X137106813Y-110381737D01*
X137267623Y-110491375D01*
X137267624Y-110491376D01*
X137497176Y-110601921D01*
X137497174Y-110601921D01*
X137740652Y-110677024D01*
X137740658Y-110677026D01*
X137992595Y-110714999D01*
X137992604Y-110715000D01*
X138247396Y-110715000D01*
X138247404Y-110714999D01*
X138499341Y-110677026D01*
X138499347Y-110677024D01*
X138742824Y-110601921D01*
X138972381Y-110491373D01*
X139133185Y-110381737D01*
X138483108Y-109731661D01*
X138621948Y-109644423D01*
X138749423Y-109516948D01*
X138836661Y-109378108D01*
X139486545Y-110027993D01*
X139528545Y-109975327D01*
X139655941Y-109754671D01*
X139749026Y-109517494D01*
X139749031Y-109517477D01*
X139805726Y-109269079D01*
X139824767Y-109015004D01*
X146415233Y-109015004D01*
X146434273Y-109269079D01*
X146490968Y-109517477D01*
X146490973Y-109517494D01*
X146584058Y-109754671D01*
X146584057Y-109754671D01*
X146711457Y-109975332D01*
X146753452Y-110027993D01*
X146753453Y-110027993D01*
X147403338Y-109378108D01*
X147490577Y-109516948D01*
X147618052Y-109644423D01*
X147756890Y-109731661D01*
X147106813Y-110381737D01*
X147267623Y-110491375D01*
X147267624Y-110491376D01*
X147497176Y-110601921D01*
X147497174Y-110601921D01*
X147740652Y-110677024D01*
X147740658Y-110677026D01*
X147992595Y-110714999D01*
X147992604Y-110715000D01*
X148247396Y-110715000D01*
X148247404Y-110714999D01*
X148499341Y-110677026D01*
X148499347Y-110677024D01*
X148742824Y-110601921D01*
X148972381Y-110491373D01*
X149133185Y-110381737D01*
X148483108Y-109731661D01*
X148621948Y-109644423D01*
X148749423Y-109516948D01*
X148836661Y-109378108D01*
X149486545Y-110027993D01*
X149528545Y-109975327D01*
X149655941Y-109754671D01*
X149749026Y-109517494D01*
X149749031Y-109517477D01*
X149805726Y-109269079D01*
X149824767Y-109015004D01*
X149824767Y-109014995D01*
X149805726Y-108760920D01*
X149749031Y-108512522D01*
X149749026Y-108512505D01*
X149655941Y-108275328D01*
X149655942Y-108275328D01*
X149528544Y-108054671D01*
X149486546Y-108002006D01*
X148836661Y-108651890D01*
X148749423Y-108513052D01*
X148621948Y-108385577D01*
X148483107Y-108298337D01*
X149133185Y-107648261D01*
X148972377Y-107538624D01*
X148972376Y-107538623D01*
X148742823Y-107428078D01*
X148742825Y-107428078D01*
X148499347Y-107352975D01*
X148499341Y-107352973D01*
X148247404Y-107315000D01*
X147992595Y-107315000D01*
X147740658Y-107352973D01*
X147740652Y-107352975D01*
X147497175Y-107428078D01*
X147267624Y-107538623D01*
X147267616Y-107538628D01*
X147106813Y-107648261D01*
X147756891Y-108298338D01*
X147618052Y-108385577D01*
X147490577Y-108513052D01*
X147403338Y-108651891D01*
X146753453Y-108002006D01*
X146711455Y-108054670D01*
X146584058Y-108275328D01*
X146490973Y-108512505D01*
X146490968Y-108512522D01*
X146434273Y-108760920D01*
X146415233Y-109014995D01*
X146415233Y-109015004D01*
X139824767Y-109015004D01*
X139824767Y-109014995D01*
X139805726Y-108760920D01*
X139749031Y-108512522D01*
X139749026Y-108512505D01*
X139655941Y-108275328D01*
X139655942Y-108275328D01*
X139528544Y-108054671D01*
X139486546Y-108002006D01*
X138836661Y-108651890D01*
X138749423Y-108513052D01*
X138621948Y-108385577D01*
X138483107Y-108298337D01*
X139133185Y-107648261D01*
X138972377Y-107538624D01*
X138972376Y-107538623D01*
X138742823Y-107428078D01*
X138742825Y-107428078D01*
X138499347Y-107352975D01*
X138499342Y-107352974D01*
X138324385Y-107326603D01*
X138261029Y-107297146D01*
X138223655Y-107238113D01*
X138219105Y-107196305D01*
X138222240Y-107145792D01*
X138066452Y-106990004D01*
X141377628Y-106990004D01*
X141397087Y-107249677D01*
X141397088Y-107249682D01*
X141455033Y-107503559D01*
X141455039Y-107503578D01*
X141550177Y-107745987D01*
X141680387Y-107971516D01*
X141726768Y-108029677D01*
X141726769Y-108029677D01*
X142387258Y-107369187D01*
X142433130Y-107455710D01*
X142549302Y-107592478D01*
X142692160Y-107701076D01*
X142740234Y-107723317D01*
X142079826Y-108383724D01*
X142248813Y-108498937D01*
X142248822Y-108498942D01*
X142483437Y-108611926D01*
X142483435Y-108611926D01*
X142732277Y-108688684D01*
X142732283Y-108688685D01*
X142989786Y-108727499D01*
X142989793Y-108727500D01*
X143250207Y-108727500D01*
X143250213Y-108727499D01*
X143507716Y-108688685D01*
X143507722Y-108688684D01*
X143756563Y-108611926D01*
X143991177Y-108498942D01*
X143991179Y-108498941D01*
X144160172Y-108383724D01*
X143500393Y-107723946D01*
X143622213Y-107650650D01*
X143752492Y-107527243D01*
X143853196Y-107378716D01*
X143855780Y-107372228D01*
X144513229Y-108029677D01*
X144559615Y-107971511D01*
X144689822Y-107745987D01*
X144784960Y-107503578D01*
X144784966Y-107503559D01*
X144842911Y-107249682D01*
X144842912Y-107249677D01*
X144862372Y-106990004D01*
X144862372Y-106989995D01*
X144842912Y-106730322D01*
X144842911Y-106730317D01*
X144784966Y-106476440D01*
X144784960Y-106476421D01*
X144689822Y-106234012D01*
X144559612Y-106008483D01*
X144513230Y-105950321D01*
X143852740Y-106610811D01*
X143806870Y-106524290D01*
X143690698Y-106387522D01*
X143547840Y-106278924D01*
X143499765Y-106256682D01*
X144160172Y-105596274D01*
X143991186Y-105481062D01*
X143991177Y-105481057D01*
X143756562Y-105368073D01*
X143756564Y-105368073D01*
X143507722Y-105291315D01*
X143507716Y-105291314D01*
X143250213Y-105252500D01*
X142989786Y-105252500D01*
X142732283Y-105291314D01*
X142732277Y-105291315D01*
X142483436Y-105368073D01*
X142248819Y-105481059D01*
X142248806Y-105481066D01*
X142079826Y-105596273D01*
X142739606Y-106256053D01*
X142617787Y-106329350D01*
X142487508Y-106452757D01*
X142386804Y-106601284D01*
X142384219Y-106607771D01*
X141726769Y-105950322D01*
X141680385Y-106008486D01*
X141550177Y-106234012D01*
X141455039Y-106476421D01*
X141455033Y-106476440D01*
X141397088Y-106730317D01*
X141397087Y-106730322D01*
X141377628Y-106989995D01*
X141377628Y-106990004D01*
X138066452Y-106990004D01*
X137617534Y-106541086D01*
X137685629Y-106514126D01*
X137818492Y-106417595D01*
X137923175Y-106291055D01*
X137971631Y-106188079D01*
X138575372Y-106791820D01*
X138671669Y-106644429D01*
X138769861Y-106420573D01*
X138829869Y-106183605D01*
X138850055Y-105940005D01*
X138850055Y-105939994D01*
X138829869Y-105696394D01*
X138769861Y-105459426D01*
X138671671Y-105235575D01*
X138575372Y-105088178D01*
X137972546Y-105691004D01*
X137962812Y-105661044D01*
X137874814Y-105522381D01*
X137755097Y-105409960D01*
X137620489Y-105335958D01*
X138222240Y-104734205D01*
X138222240Y-104734204D01*
X138179514Y-104700949D01*
X138179514Y-104700948D01*
X137964531Y-104584605D01*
X137964523Y-104584602D01*
X137733335Y-104505234D01*
X137492221Y-104465000D01*
X137247779Y-104465000D01*
X137006664Y-104505234D01*
X136775476Y-104584602D01*
X136775468Y-104584605D01*
X136560484Y-104700949D01*
X136560478Y-104700953D01*
X136517758Y-104734203D01*
X136517758Y-104734205D01*
X137122466Y-105338913D01*
X137054371Y-105365874D01*
X136921508Y-105462405D01*
X136816825Y-105588945D01*
X136768368Y-105691921D01*
X136164625Y-105088178D01*
X136068329Y-105235572D01*
X135970138Y-105459426D01*
X135910130Y-105696394D01*
X135889945Y-105939994D01*
X135889945Y-105940005D01*
X134350557Y-105940005D01*
X134350557Y-105939994D01*
X134330365Y-105696316D01*
X134330363Y-105696304D01*
X134305032Y-105596274D01*
X134270336Y-105459264D01*
X134172111Y-105235333D01*
X134089739Y-105109252D01*
X134038367Y-105030621D01*
X133872757Y-104850722D01*
X133872756Y-104850721D01*
X133872754Y-104850719D01*
X133765334Y-104767110D01*
X133679786Y-104700525D01*
X133676671Y-104698490D01*
X133631318Y-104645341D01*
X133620500Y-104594686D01*
X133620500Y-100785313D01*
X133640185Y-100718274D01*
X133676675Y-100681507D01*
X133679779Y-100679477D01*
X133679788Y-100679473D01*
X133872754Y-100529281D01*
X134038368Y-100349377D01*
X134172111Y-100144667D01*
X134270336Y-99920736D01*
X134330364Y-99683692D01*
X134330371Y-99683605D01*
X134350557Y-99440005D01*
X135889945Y-99440005D01*
X135910130Y-99683605D01*
X135970138Y-99920573D01*
X136068328Y-100144424D01*
X136164626Y-100291820D01*
X136767452Y-99688993D01*
X136777188Y-99718956D01*
X136865186Y-99857619D01*
X136984903Y-99970040D01*
X137119510Y-100044041D01*
X136517757Y-100645793D01*
X136517758Y-100645794D01*
X136560485Y-100679050D01*
X136560485Y-100679051D01*
X136775468Y-100795394D01*
X136775476Y-100795397D01*
X137006664Y-100874765D01*
X137247779Y-100915000D01*
X137492221Y-100915000D01*
X137733335Y-100874765D01*
X137964523Y-100795397D01*
X137964531Y-100795394D01*
X138179515Y-100679050D01*
X138179516Y-100679048D01*
X138222240Y-100645794D01*
X138222241Y-100645793D01*
X137617534Y-100041086D01*
X137685629Y-100014126D01*
X137818492Y-99917595D01*
X137923175Y-99791055D01*
X137971631Y-99688079D01*
X138575372Y-100291820D01*
X138671669Y-100144429D01*
X138769861Y-99920573D01*
X138829869Y-99683605D01*
X138850055Y-99440005D01*
X138850055Y-99439994D01*
X138829869Y-99196394D01*
X138769861Y-98959426D01*
X138671671Y-98735575D01*
X138575372Y-98588178D01*
X137972546Y-99191004D01*
X137962812Y-99161044D01*
X137874814Y-99022381D01*
X137755097Y-98909960D01*
X137620489Y-98835958D01*
X138066442Y-98390004D01*
X141377628Y-98390004D01*
X141397087Y-98649677D01*
X141397088Y-98649682D01*
X141455033Y-98903559D01*
X141455039Y-98903578D01*
X141550177Y-99145987D01*
X141680387Y-99371516D01*
X141726768Y-99429677D01*
X141726769Y-99429677D01*
X142387258Y-98769187D01*
X142433130Y-98855710D01*
X142549302Y-98992478D01*
X142692160Y-99101076D01*
X142740234Y-99123317D01*
X142079826Y-99783724D01*
X142248813Y-99898937D01*
X142248822Y-99898942D01*
X142483437Y-100011926D01*
X142483435Y-100011926D01*
X142732277Y-100088684D01*
X142732283Y-100088685D01*
X142989786Y-100127499D01*
X142989793Y-100127500D01*
X143250207Y-100127500D01*
X143250213Y-100127499D01*
X143507716Y-100088685D01*
X143507722Y-100088684D01*
X143756563Y-100011926D01*
X143991177Y-99898942D01*
X143991179Y-99898941D01*
X144160172Y-99783724D01*
X143500393Y-99123946D01*
X143622213Y-99050650D01*
X143752492Y-98927243D01*
X143853196Y-98778716D01*
X143855780Y-98772228D01*
X144513229Y-99429677D01*
X144559615Y-99371511D01*
X144689822Y-99145987D01*
X144784960Y-98903578D01*
X144784966Y-98903559D01*
X144842911Y-98649682D01*
X144842912Y-98649677D01*
X144862372Y-98390004D01*
X144862372Y-98389995D01*
X144842912Y-98130322D01*
X144842911Y-98130317D01*
X144784966Y-97876440D01*
X144784960Y-97876421D01*
X144689822Y-97634012D01*
X144559612Y-97408483D01*
X144513230Y-97350321D01*
X143852740Y-98010811D01*
X143806870Y-97924290D01*
X143690698Y-97787522D01*
X143547840Y-97678924D01*
X143499765Y-97656682D01*
X144160172Y-96996274D01*
X143991186Y-96881062D01*
X143991177Y-96881057D01*
X143756562Y-96768073D01*
X143756564Y-96768073D01*
X143507722Y-96691315D01*
X143507716Y-96691314D01*
X143250213Y-96652500D01*
X142989786Y-96652500D01*
X142732283Y-96691314D01*
X142732277Y-96691315D01*
X142483436Y-96768073D01*
X142248819Y-96881059D01*
X142248806Y-96881066D01*
X142079826Y-96996273D01*
X142739606Y-97656053D01*
X142617787Y-97729350D01*
X142487508Y-97852757D01*
X142386804Y-98001284D01*
X142384219Y-98007771D01*
X141726769Y-97350322D01*
X141680385Y-97408486D01*
X141550177Y-97634012D01*
X141455039Y-97876421D01*
X141455033Y-97876440D01*
X141397088Y-98130317D01*
X141397087Y-98130322D01*
X141377628Y-98389995D01*
X141377628Y-98390004D01*
X138066442Y-98390004D01*
X138222240Y-98234205D01*
X138219104Y-98183695D01*
X138234597Y-98115565D01*
X138284464Y-98066626D01*
X138324385Y-98053396D01*
X138499341Y-98027026D01*
X138499347Y-98027024D01*
X138742824Y-97951921D01*
X138972381Y-97841373D01*
X139133185Y-97731737D01*
X138483108Y-97081661D01*
X138621948Y-96994423D01*
X138749423Y-96866948D01*
X138836661Y-96728108D01*
X139486545Y-97377993D01*
X139528545Y-97325327D01*
X139655941Y-97104671D01*
X139749026Y-96867494D01*
X139749031Y-96867477D01*
X139805726Y-96619079D01*
X139824767Y-96365004D01*
X146415233Y-96365004D01*
X146434273Y-96619079D01*
X146490968Y-96867477D01*
X146490973Y-96867494D01*
X146584058Y-97104671D01*
X146584057Y-97104671D01*
X146711457Y-97325332D01*
X146753452Y-97377993D01*
X146753453Y-97377993D01*
X147403338Y-96728108D01*
X147490577Y-96866948D01*
X147618052Y-96994423D01*
X147756890Y-97081661D01*
X147106813Y-97731737D01*
X147267623Y-97841375D01*
X147267624Y-97841376D01*
X147497176Y-97951921D01*
X147497174Y-97951921D01*
X147740652Y-98027024D01*
X147740658Y-98027026D01*
X147992595Y-98064999D01*
X147992604Y-98065000D01*
X148247396Y-98065000D01*
X148247404Y-98064999D01*
X148499341Y-98027026D01*
X148499347Y-98027024D01*
X148742824Y-97951921D01*
X148972381Y-97841373D01*
X149133185Y-97731737D01*
X148483108Y-97081661D01*
X148621948Y-96994423D01*
X148749423Y-96866948D01*
X148836661Y-96728108D01*
X149486545Y-97377993D01*
X149528545Y-97325327D01*
X149655941Y-97104671D01*
X149749026Y-96867494D01*
X149749031Y-96867477D01*
X149805726Y-96619079D01*
X149824767Y-96365004D01*
X149824767Y-96364995D01*
X149815550Y-96242005D01*
X154754357Y-96242005D01*
X154774890Y-96489812D01*
X154774892Y-96489824D01*
X154835936Y-96730881D01*
X154935826Y-96958606D01*
X155071833Y-97166782D01*
X155071836Y-97166785D01*
X155240256Y-97349738D01*
X155436491Y-97502474D01*
X155655190Y-97620828D01*
X155890386Y-97701571D01*
X156135665Y-97742500D01*
X156384335Y-97742500D01*
X156629614Y-97701571D01*
X156864810Y-97620828D01*
X157083509Y-97502474D01*
X157279744Y-97349738D01*
X157448164Y-97166785D01*
X157584173Y-96958607D01*
X157684063Y-96730881D01*
X157745108Y-96489821D01*
X157755451Y-96364999D01*
X157765643Y-96242005D01*
X157765643Y-96241994D01*
X157745109Y-95994187D01*
X157745107Y-95994175D01*
X157684063Y-95753118D01*
X157584173Y-95525393D01*
X157448166Y-95317217D01*
X157426557Y-95293744D01*
X157279744Y-95134262D01*
X157083509Y-94981526D01*
X157083507Y-94981525D01*
X157083506Y-94981524D01*
X156864811Y-94863172D01*
X156864802Y-94863169D01*
X156629616Y-94782429D01*
X156384335Y-94741500D01*
X156135665Y-94741500D01*
X155890383Y-94782429D01*
X155655197Y-94863169D01*
X155655188Y-94863172D01*
X155436493Y-94981524D01*
X155240257Y-95134261D01*
X155071833Y-95317217D01*
X154935826Y-95525393D01*
X154835936Y-95753118D01*
X154774892Y-95994175D01*
X154774890Y-95994187D01*
X154754357Y-96241994D01*
X154754357Y-96242005D01*
X149815550Y-96242005D01*
X149805726Y-96110920D01*
X149749031Y-95862522D01*
X149749026Y-95862505D01*
X149655941Y-95625328D01*
X149655942Y-95625328D01*
X149528544Y-95404671D01*
X149486546Y-95352006D01*
X148836661Y-96001890D01*
X148749423Y-95863052D01*
X148621948Y-95735577D01*
X148483108Y-95648338D01*
X149133185Y-94998261D01*
X148972377Y-94888624D01*
X148972376Y-94888623D01*
X148742823Y-94778078D01*
X148742825Y-94778078D01*
X148499347Y-94702975D01*
X148499341Y-94702973D01*
X148247404Y-94665000D01*
X147992595Y-94665000D01*
X147740658Y-94702973D01*
X147740652Y-94702975D01*
X147497175Y-94778078D01*
X147267624Y-94888623D01*
X147267616Y-94888628D01*
X147106813Y-94998261D01*
X147756891Y-95648338D01*
X147618052Y-95735577D01*
X147490577Y-95863052D01*
X147403338Y-96001891D01*
X146753453Y-95352006D01*
X146711455Y-95404670D01*
X146584058Y-95625328D01*
X146490973Y-95862505D01*
X146490968Y-95862522D01*
X146434273Y-96110920D01*
X146415233Y-96364995D01*
X146415233Y-96365004D01*
X139824767Y-96365004D01*
X139824767Y-96364995D01*
X139805726Y-96110920D01*
X139749031Y-95862522D01*
X139749026Y-95862505D01*
X139655941Y-95625328D01*
X139655942Y-95625328D01*
X139528544Y-95404671D01*
X139486546Y-95352006D01*
X138836661Y-96001890D01*
X138749423Y-95863052D01*
X138621948Y-95735577D01*
X138483108Y-95648338D01*
X139133185Y-94998261D01*
X138972377Y-94888624D01*
X138972376Y-94888623D01*
X138742823Y-94778078D01*
X138742825Y-94778078D01*
X138499347Y-94702975D01*
X138499341Y-94702973D01*
X138247404Y-94665000D01*
X137992595Y-94665000D01*
X137740658Y-94702973D01*
X137740652Y-94702975D01*
X137497175Y-94778078D01*
X137267624Y-94888623D01*
X137267616Y-94888628D01*
X137106813Y-94998261D01*
X137756891Y-95648338D01*
X137618052Y-95735577D01*
X137490577Y-95863052D01*
X137403338Y-96001891D01*
X136753453Y-95352006D01*
X136711455Y-95404670D01*
X136584058Y-95625328D01*
X136490973Y-95862505D01*
X136490968Y-95862522D01*
X136434273Y-96110920D01*
X136415233Y-96364995D01*
X136415233Y-96365004D01*
X136434273Y-96619079D01*
X136490968Y-96867477D01*
X136490973Y-96867494D01*
X136584058Y-97104671D01*
X136584057Y-97104671D01*
X136711457Y-97325332D01*
X136753452Y-97377993D01*
X137403337Y-96728107D01*
X137490577Y-96866948D01*
X137618052Y-96994423D01*
X137756890Y-97081661D01*
X137106813Y-97731737D01*
X137154268Y-97764091D01*
X137198569Y-97818120D01*
X137206629Y-97887523D01*
X137175886Y-97950266D01*
X137116102Y-97986428D01*
X137104826Y-97988854D01*
X137006664Y-98005234D01*
X136775476Y-98084602D01*
X136775468Y-98084605D01*
X136560484Y-98200949D01*
X136560478Y-98200953D01*
X136517758Y-98234203D01*
X136517758Y-98234205D01*
X137122466Y-98838913D01*
X137054371Y-98865874D01*
X136921508Y-98962405D01*
X136816825Y-99088945D01*
X136768368Y-99191921D01*
X136164625Y-98588178D01*
X136068329Y-98735572D01*
X135970138Y-98959426D01*
X135910130Y-99196394D01*
X135889945Y-99439994D01*
X135889945Y-99440005D01*
X134350557Y-99440005D01*
X134350557Y-99439994D01*
X134330365Y-99196316D01*
X134330363Y-99196304D01*
X134304209Y-99093024D01*
X134270336Y-98959264D01*
X134172111Y-98735333D01*
X134116153Y-98649682D01*
X134038367Y-98530621D01*
X133872757Y-98350722D01*
X133872747Y-98350713D01*
X133679791Y-98200529D01*
X133679787Y-98200526D01*
X133464734Y-98084145D01*
X133464729Y-98084143D01*
X133233458Y-98004748D01*
X133052560Y-97974562D01*
X132992263Y-97964500D01*
X132747737Y-97964500D01*
X132699498Y-97972549D01*
X132506541Y-98004748D01*
X132275270Y-98084143D01*
X132275265Y-98084145D01*
X132060212Y-98200526D01*
X132060208Y-98200529D01*
X131867252Y-98350713D01*
X131867242Y-98350722D01*
X131701632Y-98530621D01*
X131567888Y-98735333D01*
X131469663Y-98959265D01*
X131409636Y-99196304D01*
X131409634Y-99196316D01*
X131389443Y-99439994D01*
X131389443Y-99440005D01*
X131409634Y-99683683D01*
X131409636Y-99683695D01*
X131469663Y-99920734D01*
X131567888Y-100144666D01*
X131701632Y-100349378D01*
X131867242Y-100529277D01*
X131867252Y-100529286D01*
X131918192Y-100568934D01*
X132060212Y-100679473D01*
X132060215Y-100679474D01*
X132063325Y-100681507D01*
X132108680Y-100734655D01*
X132119500Y-100785313D01*
X132119500Y-104594686D01*
X132099815Y-104661725D01*
X132063329Y-104698490D01*
X132060213Y-104700525D01*
X131867247Y-104850718D01*
X131867242Y-104850722D01*
X131701632Y-105030621D01*
X131567888Y-105235333D01*
X131469663Y-105459265D01*
X131409636Y-105696304D01*
X131409634Y-105696316D01*
X131389443Y-105939994D01*
X131389443Y-105940005D01*
X131409634Y-106183683D01*
X131409636Y-106183695D01*
X131469663Y-106420734D01*
X131567888Y-106644666D01*
X131701632Y-106849378D01*
X131867242Y-107029277D01*
X131867252Y-107029286D01*
X132060208Y-107179470D01*
X132060212Y-107179473D01*
X132189937Y-107249677D01*
X132275267Y-107295855D01*
X132275270Y-107295856D01*
X132506541Y-107375251D01*
X132506543Y-107375251D01*
X132506545Y-107375252D01*
X132747737Y-107415500D01*
X132795500Y-107415500D01*
X132862539Y-107435185D01*
X132908294Y-107487989D01*
X132919500Y-107539500D01*
X132919500Y-118211266D01*
X132899815Y-118278305D01*
X132847011Y-118324060D01*
X132777853Y-118334004D01*
X132714297Y-118304979D01*
X132691856Y-118275003D01*
X132690171Y-118276087D01*
X132685376Y-118268626D01*
X132651411Y-118229427D01*
X132648633Y-118225979D01*
X132639229Y-118213417D01*
X132639224Y-118213412D01*
X132639221Y-118213407D01*
X132628097Y-118202283D01*
X132625103Y-118199067D01*
X132591128Y-118159857D01*
X132591125Y-118159854D01*
X132587066Y-118157246D01*
X132566428Y-118140614D01*
X131661385Y-117235571D01*
X131644750Y-117214928D01*
X131642145Y-117210874D01*
X131642142Y-117210871D01*
X131612361Y-117185066D01*
X131602932Y-117176896D01*
X131599700Y-117173886D01*
X131588596Y-117162782D01*
X131588588Y-117162775D01*
X131576013Y-117153362D01*
X131572583Y-117150598D01*
X131533373Y-117116623D01*
X131533371Y-117116622D01*
X131533367Y-117116619D01*
X131528983Y-117114617D01*
X131506194Y-117101096D01*
X131502331Y-117098204D01*
X131502329Y-117098203D01*
X131453716Y-117080071D01*
X131449642Y-117078383D01*
X131402457Y-117056835D01*
X131402455Y-117056834D01*
X131397682Y-117056148D01*
X131372000Y-117049593D01*
X131367485Y-117047909D01*
X131315740Y-117044207D01*
X131311343Y-117043734D01*
X131295799Y-117041500D01*
X131280094Y-117041500D01*
X131275671Y-117041342D01*
X131258083Y-117040084D01*
X131223929Y-117037641D01*
X131223925Y-117037641D01*
X131219215Y-117038666D01*
X131192857Y-117041500D01*
X128218676Y-117041500D01*
X128151637Y-117021815D01*
X128130995Y-117005181D01*
X127810145Y-116684331D01*
X127396816Y-116271001D01*
X127363333Y-116209681D01*
X127360500Y-116183332D01*
X127360500Y-114242004D01*
X128204592Y-114242004D01*
X128224196Y-114503620D01*
X128224197Y-114503625D01*
X128282576Y-114759402D01*
X128282578Y-114759411D01*
X128282580Y-114759416D01*
X128378432Y-115003643D01*
X128509614Y-115230857D01*
X128596594Y-115339926D01*
X128673198Y-115435985D01*
X128848705Y-115598830D01*
X128865521Y-115614433D01*
X129082296Y-115762228D01*
X129082301Y-115762230D01*
X129082302Y-115762231D01*
X129082303Y-115762232D01*
X129174890Y-115806819D01*
X129318673Y-115876061D01*
X129318674Y-115876061D01*
X129318677Y-115876063D01*
X129569385Y-115953396D01*
X129828818Y-115992500D01*
X130091182Y-115992500D01*
X130350615Y-115953396D01*
X130601323Y-115876063D01*
X130820529Y-115770499D01*
X130837696Y-115762232D01*
X130837696Y-115762231D01*
X130837704Y-115762228D01*
X131054479Y-115614433D01*
X131246805Y-115435981D01*
X131410386Y-115230857D01*
X131541568Y-115003643D01*
X131637420Y-114759416D01*
X131695802Y-114503630D01*
X131696298Y-114497017D01*
X131715408Y-114242004D01*
X131715408Y-114241995D01*
X131695803Y-113980379D01*
X131695802Y-113980374D01*
X131695802Y-113980370D01*
X131637420Y-113724584D01*
X131541568Y-113480357D01*
X131410386Y-113253143D01*
X131246805Y-113048019D01*
X131246804Y-113048018D01*
X131246801Y-113048014D01*
X131054479Y-112869567D01*
X131054479Y-112869566D01*
X130837704Y-112721772D01*
X130837700Y-112721770D01*
X130837697Y-112721768D01*
X130837696Y-112721767D01*
X130601325Y-112607938D01*
X130601327Y-112607938D01*
X130350623Y-112530606D01*
X130350619Y-112530605D01*
X130350615Y-112530604D01*
X130214855Y-112510141D01*
X130091187Y-112491500D01*
X130091182Y-112491500D01*
X129828818Y-112491500D01*
X129828812Y-112491500D01*
X129688632Y-112512630D01*
X129569385Y-112530604D01*
X129569381Y-112530605D01*
X129569382Y-112530605D01*
X129569376Y-112530606D01*
X129318673Y-112607938D01*
X129082303Y-112721767D01*
X129082302Y-112721768D01*
X128865520Y-112869567D01*
X128673198Y-113048014D01*
X128509614Y-113253143D01*
X128378432Y-113480356D01*
X128282582Y-113724578D01*
X128282576Y-113724597D01*
X128224197Y-113980374D01*
X128224196Y-113980379D01*
X128204592Y-114241995D01*
X128204592Y-114242004D01*
X127360500Y-114242004D01*
X127360500Y-109041999D01*
X128229474Y-109041999D01*
X128249547Y-109297064D01*
X128249547Y-109297067D01*
X128249548Y-109297070D01*
X128266710Y-109368553D01*
X128309279Y-109545864D01*
X128407188Y-109782239D01*
X128407190Y-109782242D01*
X128540875Y-110000396D01*
X128540878Y-110000401D01*
X128564444Y-110027993D01*
X128707044Y-110194956D01*
X128831579Y-110301319D01*
X128901598Y-110361121D01*
X128901600Y-110361122D01*
X128901601Y-110361123D01*
X129114150Y-110491373D01*
X129119757Y-110494809D01*
X129119760Y-110494811D01*
X129288573Y-110564735D01*
X129356140Y-110592722D01*
X129604930Y-110652452D01*
X129860000Y-110672526D01*
X130115070Y-110652452D01*
X130363860Y-110592722D01*
X130482051Y-110543765D01*
X130600239Y-110494811D01*
X130600240Y-110494810D01*
X130600243Y-110494809D01*
X130818399Y-110361123D01*
X131012956Y-110194956D01*
X131179123Y-110000399D01*
X131312809Y-109782243D01*
X131330168Y-109740336D01*
X131410720Y-109545864D01*
X131410722Y-109545860D01*
X131470452Y-109297070D01*
X131490526Y-109042000D01*
X131470452Y-108786930D01*
X131410722Y-108538140D01*
X131400104Y-108512505D01*
X131312811Y-108301760D01*
X131312809Y-108301757D01*
X131179124Y-108083603D01*
X131179121Y-108083598D01*
X131090629Y-107979988D01*
X131012956Y-107889044D01*
X130881095Y-107776424D01*
X130818401Y-107722878D01*
X130818396Y-107722875D01*
X130600242Y-107589190D01*
X130600239Y-107589188D01*
X130363864Y-107491279D01*
X130363860Y-107491278D01*
X130115070Y-107431548D01*
X130115067Y-107431547D01*
X130115064Y-107431547D01*
X129860000Y-107411474D01*
X129604935Y-107431547D01*
X129604931Y-107431547D01*
X129604930Y-107431548D01*
X129480535Y-107461413D01*
X129356135Y-107491279D01*
X129119760Y-107589188D01*
X129119757Y-107589190D01*
X128901603Y-107722875D01*
X128901598Y-107722878D01*
X128707044Y-107889044D01*
X128540878Y-108083598D01*
X128540875Y-108083603D01*
X128407190Y-108301757D01*
X128407188Y-108301760D01*
X128309279Y-108538135D01*
X128249547Y-108786935D01*
X128229474Y-109041999D01*
X127360500Y-109041999D01*
X127360500Y-103709856D01*
X127380185Y-103642817D01*
X127399032Y-103620015D01*
X127895225Y-103147999D01*
X127899911Y-103144071D01*
X127900471Y-103143531D01*
X127900474Y-103143530D01*
X127946974Y-103098773D01*
X127971767Y-103075189D01*
X127971777Y-103075175D01*
X127972442Y-103074447D01*
X127975301Y-103071508D01*
X127995421Y-103052144D01*
X127995421Y-103052143D01*
X127995423Y-103052142D01*
X128011293Y-103025826D01*
X128015696Y-103019461D01*
X128038475Y-102990566D01*
X128046552Y-102970456D01*
X128055428Y-102952647D01*
X128063483Y-102939293D01*
X128073864Y-102903310D01*
X128075901Y-102897395D01*
X128080776Y-102885256D01*
X128092121Y-102857016D01*
X128093484Y-102842902D01*
X128097771Y-102820454D01*
X128100017Y-102812674D01*
X128100860Y-102768512D01*
X128101136Y-102763755D01*
X128102247Y-102752260D01*
X128105969Y-102713761D01*
X128105968Y-102713758D01*
X128105969Y-102713754D01*
X128105862Y-102711447D01*
X128103973Y-102685503D01*
X128134384Y-101994620D01*
X128134591Y-101991613D01*
X128204933Y-101243506D01*
X128205289Y-101240520D01*
X128312757Y-100496841D01*
X128313270Y-100493834D01*
X128352808Y-100291820D01*
X128457588Y-99756464D01*
X128458249Y-99753488D01*
X128462809Y-99735099D01*
X128609576Y-99143165D01*
X128639069Y-99024215D01*
X128639870Y-99021291D01*
X128856757Y-98301864D01*
X128857693Y-98299019D01*
X129110103Y-97591256D01*
X129111188Y-97588440D01*
X129398481Y-96894140D01*
X129399697Y-96891395D01*
X129721180Y-96212226D01*
X129722530Y-96209548D01*
X130077390Y-95547226D01*
X130078898Y-95544574D01*
X130092165Y-95522521D01*
X130466255Y-94900740D01*
X130467878Y-94898189D01*
X130886784Y-94274418D01*
X130888560Y-94271913D01*
X130996338Y-94127504D01*
X131337952Y-93669782D01*
X131339844Y-93667376D01*
X131818646Y-93088329D01*
X131820635Y-93086042D01*
X132327657Y-92531519D01*
X132329768Y-92529324D01*
X132863731Y-92000724D01*
X132865945Y-91998637D01*
X133425551Y-91497243D01*
X133427855Y-91495279D01*
X134011752Y-91022308D01*
X134014120Y-91020485D01*
X134620797Y-90577162D01*
X134623297Y-90575428D01*
X135251263Y-90162841D01*
X135253839Y-90161238D01*
X135766837Y-89859608D01*
X135829688Y-89842500D01*
X150797922Y-89842500D01*
X150858737Y-89858437D01*
G37*
%TD.AperFunction*%
%TD*%
M02*
