M48
; DRILL file {KiCad 7.0.5} date Mon Aug 28 18:40:10 2023
; FORMAT={-:-/ absolute / inch / decimal}
; #@! TF.CreationDate,2023-08-28T18:40:10-04:00
; #@! TF.GenerationSoftware,Kicad,Pcbnew,7.0.5
; #@! TF.FileFunction,Plated,1,2,PTH
FMAT,2
INCH
; #@! TA.AperFunction,Plated,PTH,ViaDrill
T1C0.0118
; #@! TA.AperFunction,Plated,PTH,ComponentDrill
T2C0.0394
; #@! TA.AperFunction,Plated,PTH,ComponentDrill
T3C0.0433
; #@! TA.AperFunction,Plated,PTH,ComponentDrill
T4C0.0512
; #@! TA.AperFunction,Plated,PTH,ComponentDrill
T5C0.0591
; #@! TA.AperFunction,Plated,PTH,ComponentDrill
T6C0.0630
; #@! TA.AperFunction,Plated,PTH,ComponentDrill
T7C0.0650
; #@! TA.AperFunction,Plated,PTH,ComponentDrill
T8C0.0689
; #@! TA.AperFunction,Plated,PTH,ComponentDrill
T9C0.0787
%
G90
G05
T1
X5.1181Y-3.937
X5.2165Y-3.7402
X5.2165Y-4.626
X5.315Y-4.8228
X5.4134Y-3.6417
X5.6102Y-3.6417
X5.6102Y-4.8228
X5.8071Y-3.6417
X5.9055Y-4.5276
X6.0039Y-3.6417
X6.1024Y-4.3307
X6.2008Y-3.937
X6.2008Y-4.1339
T2
X5.2626Y-4.702
X5.3626Y-4.702
X5.4626Y-4.702
X5.5626Y-4.702
X5.6626Y-4.702
T3
X5.5362Y-4.3866
X5.6346Y-4.3866
X5.7331Y-4.3866
X5.9783Y-3.9445
X5.9783Y-4.0429
X5.9783Y-4.1413
T4
X5.2311Y-3.915
X5.2311Y-4.1709
X5.4083Y-3.915
X5.4083Y-4.1709
T5
X6.152Y-3.7891
T6
X5.4378Y-3.7939
X5.4378Y-4.2919
X5.8315Y-3.7939
X5.8315Y-4.2919
T7
X5.6346Y-3.8736
X5.6346Y-4.2122
T8
X5.1126Y-4.293
T9
X5.1165Y-4.4977
T0
M30
