%TF.GenerationSoftware,KiCad,Pcbnew,7.0.5*%
%TF.CreationDate,2023-08-28T18:40:14-04:00*%
%TF.ProjectId,StickLeft,53746963-6b4c-4656-9674-2e6b69636164,rev?*%
%TF.SameCoordinates,Original*%
%TF.FileFunction,Legend,Top*%
%TF.FilePolarity,Positive*%
%FSLAX46Y46*%
G04 Gerber Fmt 4.6, Leading zero omitted, Abs format (unit mm)*
G04 Created by KiCad (PCBNEW 7.0.5) date 2023-08-28 18:40:14*
%MOMM*%
%LPD*%
G01*
G04 APERTURE LIST*
%ADD10C,0.150000*%
%ADD11C,0.120000*%
%ADD12C,0.100000*%
G04 APERTURE END LIST*
D10*
%TO.C,J1*%
X145554819Y-124148333D02*
X146269104Y-124148333D01*
X146269104Y-124148333D02*
X146411961Y-124195952D01*
X146411961Y-124195952D02*
X146507200Y-124291190D01*
X146507200Y-124291190D02*
X146554819Y-124434047D01*
X146554819Y-124434047D02*
X146554819Y-124529285D01*
X146554819Y-123148333D02*
X146554819Y-123719761D01*
X146554819Y-123434047D02*
X145554819Y-123434047D01*
X145554819Y-123434047D02*
X145697676Y-123529285D01*
X145697676Y-123529285D02*
X145792914Y-123624523D01*
X145792914Y-123624523D02*
X145840533Y-123719761D01*
D11*
X145100000Y-118160000D02*
X145100000Y-119430000D01*
X143830000Y-118160000D02*
X145100000Y-118160000D01*
X141670000Y-120472929D02*
X141670000Y-120870000D01*
X140910000Y-120472929D02*
X140910000Y-120870000D01*
X139130000Y-120472929D02*
X139130000Y-120870000D01*
X138370000Y-120472929D02*
X138370000Y-120870000D01*
X136590000Y-120472929D02*
X136590000Y-120870000D01*
X135830000Y-120472929D02*
X135830000Y-120870000D01*
X134050000Y-120472929D02*
X134050000Y-120870000D01*
X133290000Y-120472929D02*
X133290000Y-120870000D01*
X144210000Y-120540000D02*
X144210000Y-120870000D01*
X143450000Y-120540000D02*
X143450000Y-120870000D01*
X145160000Y-120870000D02*
X132340000Y-120870000D01*
X142560000Y-120870000D02*
X142560000Y-123530000D01*
X140020000Y-120870000D02*
X140020000Y-123530000D01*
X137480000Y-120870000D02*
X137480000Y-123530000D01*
X134940000Y-120870000D02*
X134940000Y-123530000D01*
X132340000Y-120870000D02*
X132340000Y-123530000D01*
X145160000Y-123530000D02*
X145160000Y-120870000D01*
X144210000Y-123530000D02*
X144210000Y-129530000D01*
X144150000Y-123530000D02*
X144150000Y-129530000D01*
X144030000Y-123530000D02*
X144030000Y-129530000D01*
X143910000Y-123530000D02*
X143910000Y-129530000D01*
X143790000Y-123530000D02*
X143790000Y-129530000D01*
X143670000Y-123530000D02*
X143670000Y-129530000D01*
X143550000Y-123530000D02*
X143550000Y-129530000D01*
X141670000Y-123530000D02*
X141670000Y-129530000D01*
X139130000Y-123530000D02*
X139130000Y-129530000D01*
X136590000Y-123530000D02*
X136590000Y-129530000D01*
X134050000Y-123530000D02*
X134050000Y-129530000D01*
X132340000Y-123530000D02*
X145160000Y-123530000D01*
X144210000Y-129530000D02*
X143450000Y-129530000D01*
X143450000Y-129530000D02*
X143450000Y-123530000D01*
X141670000Y-129530000D02*
X140910000Y-129530000D01*
X140910000Y-129530000D02*
X140910000Y-123530000D01*
X139130000Y-129530000D02*
X138370000Y-129530000D01*
X138370000Y-129530000D02*
X138370000Y-123530000D01*
X136590000Y-129530000D02*
X135830000Y-129530000D01*
X135830000Y-129530000D02*
X135830000Y-123530000D01*
X134050000Y-129530000D02*
X133290000Y-129530000D01*
X133290000Y-129530000D02*
X133290000Y-123530000D01*
D12*
%TO.C,U1*%
X148935000Y-112992000D02*
X135620000Y-112992000D01*
X145620000Y-94793000D02*
X135785000Y-94793000D01*
X135785000Y-94793000D02*
X135785000Y-107893000D01*
%TD*%
M02*
