%TF.GenerationSoftware,KiCad,Pcbnew,7.0.5*%
%TF.CreationDate,2023-08-25T10:09:24-04:00*%
%TF.ProjectId,Pro-Controller-X,50726f2d-436f-46e7-9472-6f6c6c65722d,rev?*%
%TF.SameCoordinates,Original*%
%TF.FileFunction,Profile,NP*%
%FSLAX46Y46*%
G04 Gerber Fmt 4.6, Leading zero omitted, Abs format (unit mm)*
G04 Created by KiCad (PCBNEW 7.0.5) date 2023-08-25 10:09:24*
%MOMM*%
%LPD*%
G01*
G04 APERTURE LIST*
%TA.AperFunction,Profile*%
%ADD10C,0.120000*%
%TD*%
G04 APERTURE END LIST*
D10*
%TO.C,U2*%
X225700000Y-83000000D02*
X225700000Y-102600000D01*
X224300000Y-104000000D02*
X113300000Y-104000000D01*
X218100000Y-81600000D02*
X224300000Y-81600000D01*
X216700000Y-76700000D02*
X216700000Y-80200000D01*
X202600000Y-75310051D02*
X215300000Y-75300000D01*
X189000000Y-51800000D02*
X188999982Y-61910350D01*
X189000000Y-51800000D02*
X188000000Y-50800000D01*
X180500000Y-50800000D02*
X188000000Y-50800000D01*
X179400000Y-52600000D02*
X179400000Y-51900000D01*
X179400000Y-51900000D02*
X180500000Y-50800000D01*
X174400000Y-49600000D02*
X174400000Y-52600000D01*
X174400000Y-49600000D02*
X173200000Y-48400000D01*
X164300000Y-48400000D02*
X173200000Y-48400000D01*
X164300000Y-42500000D02*
X164300000Y-48400000D01*
X164300000Y-42500000D02*
X163200000Y-41400000D01*
X153300000Y-41400000D02*
X163200000Y-41400000D01*
X152200000Y-48200000D02*
X152200000Y-42500000D01*
X152200000Y-42500000D02*
X153300000Y-41400000D01*
X147600000Y-48200000D02*
X152200000Y-48200000D01*
X145500000Y-41400000D02*
X145500000Y-46100000D01*
X131700000Y-60000000D02*
X128200000Y-60000000D01*
X131700000Y-57000000D02*
X127200000Y-57000000D01*
X127300000Y-60800000D02*
X128200000Y-60000000D01*
X127200000Y-57000000D02*
X126600000Y-55600000D01*
X126600000Y-55600000D02*
X127019907Y-54992865D01*
X125500000Y-52100000D02*
X124900000Y-52100000D01*
X123900000Y-41400000D02*
X145500000Y-41400000D01*
X122500000Y-49100000D02*
X124900000Y-52100000D01*
X122500000Y-49100000D02*
X122500000Y-42800000D01*
X113300000Y-104000000D02*
X99900000Y-97700000D01*
X101300000Y-75200000D02*
X112700000Y-75200000D01*
X99900000Y-97700000D02*
X99900000Y-76600000D01*
X224300000Y-104000000D02*
G75*
G03*
X225700000Y-102600000I-2J1400002D01*
G01*
X225700000Y-83000000D02*
G75*
G03*
X224300000Y-81600000I-1400000J0D01*
G01*
X216700000Y-80200000D02*
G75*
G03*
X218100000Y-81600000I1400000J0D01*
G01*
X216700000Y-76700000D02*
G75*
G03*
X215300000Y-75300000I-1399960J40D01*
G01*
X188999979Y-61910350D02*
G75*
G03*
X202600000Y-75310051I13598861J200640D01*
G01*
X174400000Y-52600000D02*
G75*
G03*
X179400000Y-52600000I2500000J0D01*
G01*
X145500000Y-46100000D02*
G75*
G03*
X147600000Y-48200000I2100000J0D01*
G01*
X131700000Y-60000000D02*
G75*
G03*
X131700000Y-57000000I0J1500000D01*
G01*
X112700006Y-75199185D02*
G75*
G03*
X127300000Y-60800000I108624J14491255D01*
G01*
X127019944Y-54992893D02*
G75*
G03*
X125500000Y-52100000I-1419944J1099693D01*
G01*
X123900000Y-41400000D02*
G75*
G03*
X122500000Y-42800000I0J-1400000D01*
G01*
X101300000Y-75200000D02*
G75*
G03*
X99900000Y-76600000I0J-1400000D01*
G01*
%TD*%
M02*
