M48
; DRILL file {KiCad 7.0.5} date Mon Aug 28 18:37:24 2023
; FORMAT={-:-/ absolute / inch / decimal}
; #@! TF.CreationDate,2023-08-28T18:37:24-04:00
; #@! TF.GenerationSoftware,Kicad,Pcbnew,7.0.5
; #@! TF.FileFunction,Plated,1,2,PTH
FMAT,2
INCH
; #@! TA.AperFunction,Plated,PTH,ViaDrill
T1C0.0118
; #@! TA.AperFunction,Plated,PTH,ComponentDrill
T2C0.0394
; #@! TA.AperFunction,Plated,PTH,ComponentDrill
T3C0.0433
; #@! TA.AperFunction,Plated,PTH,ComponentDrill
T4C0.0512
; #@! TA.AperFunction,Plated,PTH,ComponentDrill
T5C0.0591
; #@! TA.AperFunction,Plated,PTH,ComponentDrill
T6C0.0630
; #@! TA.AperFunction,Plated,PTH,ComponentDrill
T7C0.0650
; #@! TA.AperFunction,Plated,PTH,ComponentDrill
T8C0.0689
; #@! TA.AperFunction,Plated,PTH,ComponentDrill
T9C0.0787
%
G90
G05
T1
X4.9213Y-3.0512
X4.9213Y-3.248
X5.0197Y-2.8543
X5.0197Y-3.4449
X5.2165Y-2.7559
X5.2165Y-3.6417
X5.4134Y-2.7559
X5.4134Y-3.937
X5.6102Y-2.7559
X5.8071Y-2.7559
X5.8071Y-3.937
X5.9055Y-2.9528
X5.9055Y-3.6417
X6.0039Y-3.1496
T2
X5.3982Y-3.8041
X5.4982Y-3.8041
X5.5982Y-3.8041
X5.6982Y-3.8041
X5.7982Y-3.8041
T3
X5.3549Y-3.5102
X5.4533Y-3.5102
X5.5518Y-3.5102
X5.797Y-3.0681
X5.797Y-3.1665
X5.797Y-3.265
T4
X5.0498Y-3.0386
X5.0498Y-3.2945
X5.227Y-3.0386
X5.227Y-3.2945
T5
X4.9239Y-2.9265
T6
X5.2565Y-2.9175
X5.2565Y-3.4156
X5.6502Y-2.9175
X5.6502Y-3.4156
T7
X5.4533Y-2.9972
X5.4533Y-3.3358
T8
X5.9672Y-3.4147
T9
X6.0223Y-3.6194
T0
M30
