%TF.GenerationSoftware,KiCad,Pcbnew,7.0.5*%
%TF.CreationDate,2023-08-29T10:42:25-04:00*%
%TF.ProjectId,Pro-Controller-X,50726f2d-436f-46e7-9472-6f6c6c65722d,rev?*%
%TF.SameCoordinates,Original*%
%TF.FileFunction,Legend,Bot*%
%TF.FilePolarity,Positive*%
%FSLAX46Y46*%
G04 Gerber Fmt 4.6, Leading zero omitted, Abs format (unit mm)*
G04 Created by KiCad (PCBNEW 7.0.5) date 2023-08-29 10:42:25*
%MOMM*%
%LPD*%
G01*
G04 APERTURE LIST*
%ADD10C,0.300000*%
%ADD11C,0.150000*%
%ADD12C,0.120000*%
G04 APERTURE END LIST*
D10*
X188245489Y-64570828D02*
X188245489Y-63070828D01*
X188245489Y-63070828D02*
X187888346Y-63070828D01*
X187888346Y-63070828D02*
X187674060Y-63142257D01*
X187674060Y-63142257D02*
X187531203Y-63285114D01*
X187531203Y-63285114D02*
X187459774Y-63427971D01*
X187459774Y-63427971D02*
X187388346Y-63713685D01*
X187388346Y-63713685D02*
X187388346Y-63927971D01*
X187388346Y-63927971D02*
X187459774Y-64213685D01*
X187459774Y-64213685D02*
X187531203Y-64356542D01*
X187531203Y-64356542D02*
X187674060Y-64499400D01*
X187674060Y-64499400D02*
X187888346Y-64570828D01*
X187888346Y-64570828D02*
X188245489Y-64570828D01*
X186174060Y-64499400D02*
X186316917Y-64570828D01*
X186316917Y-64570828D02*
X186602632Y-64570828D01*
X186602632Y-64570828D02*
X186745489Y-64499400D01*
X186745489Y-64499400D02*
X186816917Y-64356542D01*
X186816917Y-64356542D02*
X186816917Y-63785114D01*
X186816917Y-63785114D02*
X186745489Y-63642257D01*
X186745489Y-63642257D02*
X186602632Y-63570828D01*
X186602632Y-63570828D02*
X186316917Y-63570828D01*
X186316917Y-63570828D02*
X186174060Y-63642257D01*
X186174060Y-63642257D02*
X186102632Y-63785114D01*
X186102632Y-63785114D02*
X186102632Y-63927971D01*
X186102632Y-63927971D02*
X186816917Y-64070828D01*
X185531203Y-64499400D02*
X185388346Y-64570828D01*
X185388346Y-64570828D02*
X185102632Y-64570828D01*
X185102632Y-64570828D02*
X184959775Y-64499400D01*
X184959775Y-64499400D02*
X184888346Y-64356542D01*
X184888346Y-64356542D02*
X184888346Y-64285114D01*
X184888346Y-64285114D02*
X184959775Y-64142257D01*
X184959775Y-64142257D02*
X185102632Y-64070828D01*
X185102632Y-64070828D02*
X185316918Y-64070828D01*
X185316918Y-64070828D02*
X185459775Y-63999400D01*
X185459775Y-63999400D02*
X185531203Y-63856542D01*
X185531203Y-63856542D02*
X185531203Y-63785114D01*
X185531203Y-63785114D02*
X185459775Y-63642257D01*
X185459775Y-63642257D02*
X185316918Y-63570828D01*
X185316918Y-63570828D02*
X185102632Y-63570828D01*
X185102632Y-63570828D02*
X184959775Y-63642257D01*
X184245489Y-64570828D02*
X184245489Y-63570828D01*
X184245489Y-63070828D02*
X184316917Y-63142257D01*
X184316917Y-63142257D02*
X184245489Y-63213685D01*
X184245489Y-63213685D02*
X184174060Y-63142257D01*
X184174060Y-63142257D02*
X184245489Y-63070828D01*
X184245489Y-63070828D02*
X184245489Y-63213685D01*
X182888346Y-63570828D02*
X182888346Y-64785114D01*
X182888346Y-64785114D02*
X182959774Y-64927971D01*
X182959774Y-64927971D02*
X183031203Y-64999400D01*
X183031203Y-64999400D02*
X183174060Y-65070828D01*
X183174060Y-65070828D02*
X183388346Y-65070828D01*
X183388346Y-65070828D02*
X183531203Y-64999400D01*
X182888346Y-64499400D02*
X183031203Y-64570828D01*
X183031203Y-64570828D02*
X183316917Y-64570828D01*
X183316917Y-64570828D02*
X183459774Y-64499400D01*
X183459774Y-64499400D02*
X183531203Y-64427971D01*
X183531203Y-64427971D02*
X183602631Y-64285114D01*
X183602631Y-64285114D02*
X183602631Y-63856542D01*
X183602631Y-63856542D02*
X183531203Y-63713685D01*
X183531203Y-63713685D02*
X183459774Y-63642257D01*
X183459774Y-63642257D02*
X183316917Y-63570828D01*
X183316917Y-63570828D02*
X183031203Y-63570828D01*
X183031203Y-63570828D02*
X182888346Y-63642257D01*
X182174060Y-63570828D02*
X182174060Y-64570828D01*
X182174060Y-63713685D02*
X182102631Y-63642257D01*
X182102631Y-63642257D02*
X181959774Y-63570828D01*
X181959774Y-63570828D02*
X181745488Y-63570828D01*
X181745488Y-63570828D02*
X181602631Y-63642257D01*
X181602631Y-63642257D02*
X181531203Y-63785114D01*
X181531203Y-63785114D02*
X181531203Y-64570828D01*
X180245488Y-64499400D02*
X180388345Y-64570828D01*
X180388345Y-64570828D02*
X180674060Y-64570828D01*
X180674060Y-64570828D02*
X180816917Y-64499400D01*
X180816917Y-64499400D02*
X180888345Y-64356542D01*
X180888345Y-64356542D02*
X180888345Y-63785114D01*
X180888345Y-63785114D02*
X180816917Y-63642257D01*
X180816917Y-63642257D02*
X180674060Y-63570828D01*
X180674060Y-63570828D02*
X180388345Y-63570828D01*
X180388345Y-63570828D02*
X180245488Y-63642257D01*
X180245488Y-63642257D02*
X180174060Y-63785114D01*
X180174060Y-63785114D02*
X180174060Y-63927971D01*
X180174060Y-63927971D02*
X180888345Y-64070828D01*
X178888346Y-64570828D02*
X178888346Y-63070828D01*
X178888346Y-64499400D02*
X179031203Y-64570828D01*
X179031203Y-64570828D02*
X179316917Y-64570828D01*
X179316917Y-64570828D02*
X179459774Y-64499400D01*
X179459774Y-64499400D02*
X179531203Y-64427971D01*
X179531203Y-64427971D02*
X179602631Y-64285114D01*
X179602631Y-64285114D02*
X179602631Y-63856542D01*
X179602631Y-63856542D02*
X179531203Y-63713685D01*
X179531203Y-63713685D02*
X179459774Y-63642257D01*
X179459774Y-63642257D02*
X179316917Y-63570828D01*
X179316917Y-63570828D02*
X179031203Y-63570828D01*
X179031203Y-63570828D02*
X178888346Y-63642257D01*
X177031203Y-64570828D02*
X177031203Y-63070828D01*
X177031203Y-63642257D02*
X176888346Y-63570828D01*
X176888346Y-63570828D02*
X176602631Y-63570828D01*
X176602631Y-63570828D02*
X176459774Y-63642257D01*
X176459774Y-63642257D02*
X176388346Y-63713685D01*
X176388346Y-63713685D02*
X176316917Y-63856542D01*
X176316917Y-63856542D02*
X176316917Y-64285114D01*
X176316917Y-64285114D02*
X176388346Y-64427971D01*
X176388346Y-64427971D02*
X176459774Y-64499400D01*
X176459774Y-64499400D02*
X176602631Y-64570828D01*
X176602631Y-64570828D02*
X176888346Y-64570828D01*
X176888346Y-64570828D02*
X177031203Y-64499400D01*
X175816917Y-63570828D02*
X175459774Y-64570828D01*
X175102631Y-63570828D02*
X175459774Y-64570828D01*
X175459774Y-64570828D02*
X175602631Y-64927971D01*
X175602631Y-64927971D02*
X175674060Y-64999400D01*
X175674060Y-64999400D02*
X175816917Y-65070828D01*
X174531203Y-64427971D02*
X174459774Y-64499400D01*
X174459774Y-64499400D02*
X174531203Y-64570828D01*
X174531203Y-64570828D02*
X174602631Y-64499400D01*
X174602631Y-64499400D02*
X174531203Y-64427971D01*
X174531203Y-64427971D02*
X174531203Y-64570828D01*
X174531203Y-63642257D02*
X174459774Y-63713685D01*
X174459774Y-63713685D02*
X174531203Y-63785114D01*
X174531203Y-63785114D02*
X174602631Y-63713685D01*
X174602631Y-63713685D02*
X174531203Y-63642257D01*
X174531203Y-63642257D02*
X174531203Y-63785114D01*
X171959774Y-64570828D02*
X172674060Y-64570828D01*
X172674060Y-64570828D02*
X172674060Y-63070828D01*
X170888345Y-64499400D02*
X171031202Y-64570828D01*
X171031202Y-64570828D02*
X171316917Y-64570828D01*
X171316917Y-64570828D02*
X171459774Y-64499400D01*
X171459774Y-64499400D02*
X171531202Y-64356542D01*
X171531202Y-64356542D02*
X171531202Y-63785114D01*
X171531202Y-63785114D02*
X171459774Y-63642257D01*
X171459774Y-63642257D02*
X171316917Y-63570828D01*
X171316917Y-63570828D02*
X171031202Y-63570828D01*
X171031202Y-63570828D02*
X170888345Y-63642257D01*
X170888345Y-63642257D02*
X170816917Y-63785114D01*
X170816917Y-63785114D02*
X170816917Y-63927971D01*
X170816917Y-63927971D02*
X171531202Y-64070828D01*
X169531203Y-63570828D02*
X169531203Y-64785114D01*
X169531203Y-64785114D02*
X169602631Y-64927971D01*
X169602631Y-64927971D02*
X169674060Y-64999400D01*
X169674060Y-64999400D02*
X169816917Y-65070828D01*
X169816917Y-65070828D02*
X170031203Y-65070828D01*
X170031203Y-65070828D02*
X170174060Y-64999400D01*
X169531203Y-64499400D02*
X169674060Y-64570828D01*
X169674060Y-64570828D02*
X169959774Y-64570828D01*
X169959774Y-64570828D02*
X170102631Y-64499400D01*
X170102631Y-64499400D02*
X170174060Y-64427971D01*
X170174060Y-64427971D02*
X170245488Y-64285114D01*
X170245488Y-64285114D02*
X170245488Y-63856542D01*
X170245488Y-63856542D02*
X170174060Y-63713685D01*
X170174060Y-63713685D02*
X170102631Y-63642257D01*
X170102631Y-63642257D02*
X169959774Y-63570828D01*
X169959774Y-63570828D02*
X169674060Y-63570828D01*
X169674060Y-63570828D02*
X169531203Y-63642257D01*
X168602631Y-64570828D02*
X168745488Y-64499400D01*
X168745488Y-64499400D02*
X168816917Y-64427971D01*
X168816917Y-64427971D02*
X168888345Y-64285114D01*
X168888345Y-64285114D02*
X168888345Y-63856542D01*
X168888345Y-63856542D02*
X168816917Y-63713685D01*
X168816917Y-63713685D02*
X168745488Y-63642257D01*
X168745488Y-63642257D02*
X168602631Y-63570828D01*
X168602631Y-63570828D02*
X168388345Y-63570828D01*
X168388345Y-63570828D02*
X168245488Y-63642257D01*
X168245488Y-63642257D02*
X168174060Y-63713685D01*
X168174060Y-63713685D02*
X168102631Y-63856542D01*
X168102631Y-63856542D02*
X168102631Y-64285114D01*
X168102631Y-64285114D02*
X168174060Y-64427971D01*
X168174060Y-64427971D02*
X168245488Y-64499400D01*
X168245488Y-64499400D02*
X168388345Y-64570828D01*
X168388345Y-64570828D02*
X168602631Y-64570828D01*
X167816917Y-64713685D02*
X166674059Y-64713685D01*
X165459774Y-64570828D02*
X165959774Y-63856542D01*
X166316917Y-64570828D02*
X166316917Y-63070828D01*
X166316917Y-63070828D02*
X165745488Y-63070828D01*
X165745488Y-63070828D02*
X165602631Y-63142257D01*
X165602631Y-63142257D02*
X165531202Y-63213685D01*
X165531202Y-63213685D02*
X165459774Y-63356542D01*
X165459774Y-63356542D02*
X165459774Y-63570828D01*
X165459774Y-63570828D02*
X165531202Y-63713685D01*
X165531202Y-63713685D02*
X165602631Y-63785114D01*
X165602631Y-63785114D02*
X165745488Y-63856542D01*
X165745488Y-63856542D02*
X166316917Y-63856542D01*
X164602631Y-64570828D02*
X164745488Y-64499400D01*
X164745488Y-64499400D02*
X164816917Y-64427971D01*
X164816917Y-64427971D02*
X164888345Y-64285114D01*
X164888345Y-64285114D02*
X164888345Y-63856542D01*
X164888345Y-63856542D02*
X164816917Y-63713685D01*
X164816917Y-63713685D02*
X164745488Y-63642257D01*
X164745488Y-63642257D02*
X164602631Y-63570828D01*
X164602631Y-63570828D02*
X164388345Y-63570828D01*
X164388345Y-63570828D02*
X164245488Y-63642257D01*
X164245488Y-63642257D02*
X164174060Y-63713685D01*
X164174060Y-63713685D02*
X164102631Y-63856542D01*
X164102631Y-63856542D02*
X164102631Y-64285114D01*
X164102631Y-64285114D02*
X164174060Y-64427971D01*
X164174060Y-64427971D02*
X164245488Y-64499400D01*
X164245488Y-64499400D02*
X164388345Y-64570828D01*
X164388345Y-64570828D02*
X164602631Y-64570828D01*
X162816917Y-64499400D02*
X162959774Y-64570828D01*
X162959774Y-64570828D02*
X163245488Y-64570828D01*
X163245488Y-64570828D02*
X163388345Y-64499400D01*
X163388345Y-64499400D02*
X163459774Y-64427971D01*
X163459774Y-64427971D02*
X163531202Y-64285114D01*
X163531202Y-64285114D02*
X163531202Y-63856542D01*
X163531202Y-63856542D02*
X163459774Y-63713685D01*
X163459774Y-63713685D02*
X163388345Y-63642257D01*
X163388345Y-63642257D02*
X163245488Y-63570828D01*
X163245488Y-63570828D02*
X162959774Y-63570828D01*
X162959774Y-63570828D02*
X162816917Y-63642257D01*
X162174060Y-64570828D02*
X162174060Y-63070828D01*
X162031203Y-63999400D02*
X161602631Y-64570828D01*
X161602631Y-63570828D02*
X162174060Y-64142257D01*
X160388345Y-64499400D02*
X160531202Y-64570828D01*
X160531202Y-64570828D02*
X160816917Y-64570828D01*
X160816917Y-64570828D02*
X160959774Y-64499400D01*
X160959774Y-64499400D02*
X161031202Y-64356542D01*
X161031202Y-64356542D02*
X161031202Y-63785114D01*
X161031202Y-63785114D02*
X160959774Y-63642257D01*
X160959774Y-63642257D02*
X160816917Y-63570828D01*
X160816917Y-63570828D02*
X160531202Y-63570828D01*
X160531202Y-63570828D02*
X160388345Y-63642257D01*
X160388345Y-63642257D02*
X160316917Y-63785114D01*
X160316917Y-63785114D02*
X160316917Y-63927971D01*
X160316917Y-63927971D02*
X161031202Y-64070828D01*
X159888345Y-63570828D02*
X159316917Y-63570828D01*
X159674060Y-63070828D02*
X159674060Y-64356542D01*
X159674060Y-64356542D02*
X159602631Y-64499400D01*
X159602631Y-64499400D02*
X159459774Y-64570828D01*
X159459774Y-64570828D02*
X159316917Y-64570828D01*
X187745489Y-66200114D02*
X188245489Y-66200114D01*
X188245489Y-66985828D02*
X188245489Y-65485828D01*
X188245489Y-65485828D02*
X187531203Y-65485828D01*
X186745489Y-66985828D02*
X186888346Y-66914400D01*
X186888346Y-66914400D02*
X186959775Y-66842971D01*
X186959775Y-66842971D02*
X187031203Y-66700114D01*
X187031203Y-66700114D02*
X187031203Y-66271542D01*
X187031203Y-66271542D02*
X186959775Y-66128685D01*
X186959775Y-66128685D02*
X186888346Y-66057257D01*
X186888346Y-66057257D02*
X186745489Y-65985828D01*
X186745489Y-65985828D02*
X186531203Y-65985828D01*
X186531203Y-65985828D02*
X186388346Y-66057257D01*
X186388346Y-66057257D02*
X186316918Y-66128685D01*
X186316918Y-66128685D02*
X186245489Y-66271542D01*
X186245489Y-66271542D02*
X186245489Y-66700114D01*
X186245489Y-66700114D02*
X186316918Y-66842971D01*
X186316918Y-66842971D02*
X186388346Y-66914400D01*
X186388346Y-66914400D02*
X186531203Y-66985828D01*
X186531203Y-66985828D02*
X186745489Y-66985828D01*
X185674060Y-66914400D02*
X185531203Y-66985828D01*
X185531203Y-66985828D02*
X185245489Y-66985828D01*
X185245489Y-66985828D02*
X185102632Y-66914400D01*
X185102632Y-66914400D02*
X185031203Y-66771542D01*
X185031203Y-66771542D02*
X185031203Y-66700114D01*
X185031203Y-66700114D02*
X185102632Y-66557257D01*
X185102632Y-66557257D02*
X185245489Y-66485828D01*
X185245489Y-66485828D02*
X185459775Y-66485828D01*
X185459775Y-66485828D02*
X185602632Y-66414400D01*
X185602632Y-66414400D02*
X185674060Y-66271542D01*
X185674060Y-66271542D02*
X185674060Y-66200114D01*
X185674060Y-66200114D02*
X185602632Y-66057257D01*
X185602632Y-66057257D02*
X185459775Y-65985828D01*
X185459775Y-65985828D02*
X185245489Y-65985828D01*
X185245489Y-65985828D02*
X185102632Y-66057257D01*
X184602631Y-65985828D02*
X184031203Y-65985828D01*
X184388346Y-65485828D02*
X184388346Y-66771542D01*
X184388346Y-66771542D02*
X184316917Y-66914400D01*
X184316917Y-66914400D02*
X184174060Y-66985828D01*
X184174060Y-66985828D02*
X184031203Y-66985828D01*
X182959774Y-66914400D02*
X183102631Y-66985828D01*
X183102631Y-66985828D02*
X183388346Y-66985828D01*
X183388346Y-66985828D02*
X183531203Y-66914400D01*
X183531203Y-66914400D02*
X183602631Y-66771542D01*
X183602631Y-66771542D02*
X183602631Y-66200114D01*
X183602631Y-66200114D02*
X183531203Y-66057257D01*
X183531203Y-66057257D02*
X183388346Y-65985828D01*
X183388346Y-65985828D02*
X183102631Y-65985828D01*
X183102631Y-65985828D02*
X182959774Y-66057257D01*
X182959774Y-66057257D02*
X182888346Y-66200114D01*
X182888346Y-66200114D02*
X182888346Y-66342971D01*
X182888346Y-66342971D02*
X183602631Y-66485828D01*
X182245489Y-66985828D02*
X182245489Y-65985828D01*
X182245489Y-66271542D02*
X182174060Y-66128685D01*
X182174060Y-66128685D02*
X182102632Y-66057257D01*
X182102632Y-66057257D02*
X181959774Y-65985828D01*
X181959774Y-65985828D02*
X181816917Y-65985828D01*
X180174061Y-66985828D02*
X180174061Y-65485828D01*
X180174061Y-65485828D02*
X179602632Y-65485828D01*
X179602632Y-65485828D02*
X179459775Y-65557257D01*
X179459775Y-65557257D02*
X179388346Y-65628685D01*
X179388346Y-65628685D02*
X179316918Y-65771542D01*
X179316918Y-65771542D02*
X179316918Y-65985828D01*
X179316918Y-65985828D02*
X179388346Y-66128685D01*
X179388346Y-66128685D02*
X179459775Y-66200114D01*
X179459775Y-66200114D02*
X179602632Y-66271542D01*
X179602632Y-66271542D02*
X180174061Y-66271542D01*
X178674061Y-66985828D02*
X178674061Y-65485828D01*
X178031204Y-66985828D02*
X178031204Y-66200114D01*
X178031204Y-66200114D02*
X178102632Y-66057257D01*
X178102632Y-66057257D02*
X178245489Y-65985828D01*
X178245489Y-65985828D02*
X178459775Y-65985828D01*
X178459775Y-65985828D02*
X178602632Y-66057257D01*
X178602632Y-66057257D02*
X178674061Y-66128685D01*
X177316918Y-66985828D02*
X177316918Y-65985828D01*
X177316918Y-65485828D02*
X177388346Y-65557257D01*
X177388346Y-65557257D02*
X177316918Y-65628685D01*
X177316918Y-65628685D02*
X177245489Y-65557257D01*
X177245489Y-65557257D02*
X177316918Y-65485828D01*
X177316918Y-65485828D02*
X177316918Y-65628685D01*
X176388346Y-66985828D02*
X176531203Y-66914400D01*
X176531203Y-66914400D02*
X176602632Y-66771542D01*
X176602632Y-66771542D02*
X176602632Y-65485828D01*
X175602632Y-66985828D02*
X175745489Y-66914400D01*
X175745489Y-66914400D02*
X175816918Y-66771542D01*
X175816918Y-66771542D02*
X175816918Y-65485828D01*
X175031204Y-66985828D02*
X175031204Y-65985828D01*
X175031204Y-65485828D02*
X175102632Y-65557257D01*
X175102632Y-65557257D02*
X175031204Y-65628685D01*
X175031204Y-65628685D02*
X174959775Y-65557257D01*
X174959775Y-65557257D02*
X175031204Y-65485828D01*
X175031204Y-65485828D02*
X175031204Y-65628685D01*
X174316918Y-65985828D02*
X174316918Y-67485828D01*
X174316918Y-66057257D02*
X174174061Y-65985828D01*
X174174061Y-65985828D02*
X173888346Y-65985828D01*
X173888346Y-65985828D02*
X173745489Y-66057257D01*
X173745489Y-66057257D02*
X173674061Y-66128685D01*
X173674061Y-66128685D02*
X173602632Y-66271542D01*
X173602632Y-66271542D02*
X173602632Y-66700114D01*
X173602632Y-66700114D02*
X173674061Y-66842971D01*
X173674061Y-66842971D02*
X173745489Y-66914400D01*
X173745489Y-66914400D02*
X173888346Y-66985828D01*
X173888346Y-66985828D02*
X174174061Y-66985828D01*
X174174061Y-66985828D02*
X174316918Y-66914400D01*
X173031203Y-66914400D02*
X172888346Y-66985828D01*
X172888346Y-66985828D02*
X172602632Y-66985828D01*
X172602632Y-66985828D02*
X172459775Y-66914400D01*
X172459775Y-66914400D02*
X172388346Y-66771542D01*
X172388346Y-66771542D02*
X172388346Y-66700114D01*
X172388346Y-66700114D02*
X172459775Y-66557257D01*
X172459775Y-66557257D02*
X172602632Y-66485828D01*
X172602632Y-66485828D02*
X172816918Y-66485828D01*
X172816918Y-66485828D02*
X172959775Y-66414400D01*
X172959775Y-66414400D02*
X173031203Y-66271542D01*
X173031203Y-66271542D02*
X173031203Y-66200114D01*
X173031203Y-66200114D02*
X172959775Y-66057257D01*
X172959775Y-66057257D02*
X172816918Y-65985828D01*
X172816918Y-65985828D02*
X172602632Y-65985828D01*
X172602632Y-65985828D02*
X172459775Y-66057257D01*
X187388346Y-69400828D02*
X187888346Y-68686542D01*
X188245489Y-69400828D02*
X188245489Y-67900828D01*
X188245489Y-67900828D02*
X187674060Y-67900828D01*
X187674060Y-67900828D02*
X187531203Y-67972257D01*
X187531203Y-67972257D02*
X187459774Y-68043685D01*
X187459774Y-68043685D02*
X187388346Y-68186542D01*
X187388346Y-68186542D02*
X187388346Y-68400828D01*
X187388346Y-68400828D02*
X187459774Y-68543685D01*
X187459774Y-68543685D02*
X187531203Y-68615114D01*
X187531203Y-68615114D02*
X187674060Y-68686542D01*
X187674060Y-68686542D02*
X188245489Y-68686542D01*
X186174060Y-69329400D02*
X186316917Y-69400828D01*
X186316917Y-69400828D02*
X186602632Y-69400828D01*
X186602632Y-69400828D02*
X186745489Y-69329400D01*
X186745489Y-69329400D02*
X186816917Y-69186542D01*
X186816917Y-69186542D02*
X186816917Y-68615114D01*
X186816917Y-68615114D02*
X186745489Y-68472257D01*
X186745489Y-68472257D02*
X186602632Y-68400828D01*
X186602632Y-68400828D02*
X186316917Y-68400828D01*
X186316917Y-68400828D02*
X186174060Y-68472257D01*
X186174060Y-68472257D02*
X186102632Y-68615114D01*
X186102632Y-68615114D02*
X186102632Y-68757971D01*
X186102632Y-68757971D02*
X186816917Y-68900828D01*
X185602632Y-68400828D02*
X185245489Y-69400828D01*
X185245489Y-69400828D02*
X184888346Y-68400828D01*
X182388346Y-69400828D02*
X183245489Y-69400828D01*
X182816918Y-69400828D02*
X182816918Y-67900828D01*
X182816918Y-67900828D02*
X182959775Y-68115114D01*
X182959775Y-68115114D02*
X183102632Y-68257971D01*
X183102632Y-68257971D02*
X183245489Y-68329400D01*
X181745490Y-69257971D02*
X181674061Y-69329400D01*
X181674061Y-69329400D02*
X181745490Y-69400828D01*
X181745490Y-69400828D02*
X181816918Y-69329400D01*
X181816918Y-69329400D02*
X181745490Y-69257971D01*
X181745490Y-69257971D02*
X181745490Y-69400828D01*
X180745489Y-67900828D02*
X180602632Y-67900828D01*
X180602632Y-67900828D02*
X180459775Y-67972257D01*
X180459775Y-67972257D02*
X180388347Y-68043685D01*
X180388347Y-68043685D02*
X180316918Y-68186542D01*
X180316918Y-68186542D02*
X180245489Y-68472257D01*
X180245489Y-68472257D02*
X180245489Y-68829400D01*
X180245489Y-68829400D02*
X180316918Y-69115114D01*
X180316918Y-69115114D02*
X180388347Y-69257971D01*
X180388347Y-69257971D02*
X180459775Y-69329400D01*
X180459775Y-69329400D02*
X180602632Y-69400828D01*
X180602632Y-69400828D02*
X180745489Y-69400828D01*
X180745489Y-69400828D02*
X180888347Y-69329400D01*
X180888347Y-69329400D02*
X180959775Y-69257971D01*
X180959775Y-69257971D02*
X181031204Y-69115114D01*
X181031204Y-69115114D02*
X181102632Y-68829400D01*
X181102632Y-68829400D02*
X181102632Y-68472257D01*
X181102632Y-68472257D02*
X181031204Y-68186542D01*
X181031204Y-68186542D02*
X180959775Y-68043685D01*
X180959775Y-68043685D02*
X180888347Y-67972257D01*
X180888347Y-67972257D02*
X180745489Y-67900828D01*
X179602633Y-69257971D02*
X179531204Y-69329400D01*
X179531204Y-69329400D02*
X179602633Y-69400828D01*
X179602633Y-69400828D02*
X179674061Y-69329400D01*
X179674061Y-69329400D02*
X179602633Y-69257971D01*
X179602633Y-69257971D02*
X179602633Y-69400828D01*
X178602632Y-67900828D02*
X178459775Y-67900828D01*
X178459775Y-67900828D02*
X178316918Y-67972257D01*
X178316918Y-67972257D02*
X178245490Y-68043685D01*
X178245490Y-68043685D02*
X178174061Y-68186542D01*
X178174061Y-68186542D02*
X178102632Y-68472257D01*
X178102632Y-68472257D02*
X178102632Y-68829400D01*
X178102632Y-68829400D02*
X178174061Y-69115114D01*
X178174061Y-69115114D02*
X178245490Y-69257971D01*
X178245490Y-69257971D02*
X178316918Y-69329400D01*
X178316918Y-69329400D02*
X178459775Y-69400828D01*
X178459775Y-69400828D02*
X178602632Y-69400828D01*
X178602632Y-69400828D02*
X178745490Y-69329400D01*
X178745490Y-69329400D02*
X178816918Y-69257971D01*
X178816918Y-69257971D02*
X178888347Y-69115114D01*
X178888347Y-69115114D02*
X178959775Y-68829400D01*
X178959775Y-68829400D02*
X178959775Y-68472257D01*
X178959775Y-68472257D02*
X178888347Y-68186542D01*
X178888347Y-68186542D02*
X178816918Y-68043685D01*
X178816918Y-68043685D02*
X178745490Y-67972257D01*
X178745490Y-67972257D02*
X178602632Y-67900828D01*
D11*
%TO.C,C6*%
X167266666Y-90839580D02*
X167314285Y-90887200D01*
X167314285Y-90887200D02*
X167457142Y-90934819D01*
X167457142Y-90934819D02*
X167552380Y-90934819D01*
X167552380Y-90934819D02*
X167695237Y-90887200D01*
X167695237Y-90887200D02*
X167790475Y-90791961D01*
X167790475Y-90791961D02*
X167838094Y-90696723D01*
X167838094Y-90696723D02*
X167885713Y-90506247D01*
X167885713Y-90506247D02*
X167885713Y-90363390D01*
X167885713Y-90363390D02*
X167838094Y-90172914D01*
X167838094Y-90172914D02*
X167790475Y-90077676D01*
X167790475Y-90077676D02*
X167695237Y-89982438D01*
X167695237Y-89982438D02*
X167552380Y-89934819D01*
X167552380Y-89934819D02*
X167457142Y-89934819D01*
X167457142Y-89934819D02*
X167314285Y-89982438D01*
X167314285Y-89982438D02*
X167266666Y-90030057D01*
X166409523Y-89934819D02*
X166599999Y-89934819D01*
X166599999Y-89934819D02*
X166695237Y-89982438D01*
X166695237Y-89982438D02*
X166742856Y-90030057D01*
X166742856Y-90030057D02*
X166838094Y-90172914D01*
X166838094Y-90172914D02*
X166885713Y-90363390D01*
X166885713Y-90363390D02*
X166885713Y-90744342D01*
X166885713Y-90744342D02*
X166838094Y-90839580D01*
X166838094Y-90839580D02*
X166790475Y-90887200D01*
X166790475Y-90887200D02*
X166695237Y-90934819D01*
X166695237Y-90934819D02*
X166504761Y-90934819D01*
X166504761Y-90934819D02*
X166409523Y-90887200D01*
X166409523Y-90887200D02*
X166361904Y-90839580D01*
X166361904Y-90839580D02*
X166314285Y-90744342D01*
X166314285Y-90744342D02*
X166314285Y-90506247D01*
X166314285Y-90506247D02*
X166361904Y-90411009D01*
X166361904Y-90411009D02*
X166409523Y-90363390D01*
X166409523Y-90363390D02*
X166504761Y-90315771D01*
X166504761Y-90315771D02*
X166695237Y-90315771D01*
X166695237Y-90315771D02*
X166790475Y-90363390D01*
X166790475Y-90363390D02*
X166838094Y-90411009D01*
X166838094Y-90411009D02*
X166885713Y-90506247D01*
%TO.C,C8*%
X157679580Y-83233333D02*
X157727200Y-83185714D01*
X157727200Y-83185714D02*
X157774819Y-83042857D01*
X157774819Y-83042857D02*
X157774819Y-82947619D01*
X157774819Y-82947619D02*
X157727200Y-82804762D01*
X157727200Y-82804762D02*
X157631961Y-82709524D01*
X157631961Y-82709524D02*
X157536723Y-82661905D01*
X157536723Y-82661905D02*
X157346247Y-82614286D01*
X157346247Y-82614286D02*
X157203390Y-82614286D01*
X157203390Y-82614286D02*
X157012914Y-82661905D01*
X157012914Y-82661905D02*
X156917676Y-82709524D01*
X156917676Y-82709524D02*
X156822438Y-82804762D01*
X156822438Y-82804762D02*
X156774819Y-82947619D01*
X156774819Y-82947619D02*
X156774819Y-83042857D01*
X156774819Y-83042857D02*
X156822438Y-83185714D01*
X156822438Y-83185714D02*
X156870057Y-83233333D01*
X157203390Y-83804762D02*
X157155771Y-83709524D01*
X157155771Y-83709524D02*
X157108152Y-83661905D01*
X157108152Y-83661905D02*
X157012914Y-83614286D01*
X157012914Y-83614286D02*
X156965295Y-83614286D01*
X156965295Y-83614286D02*
X156870057Y-83661905D01*
X156870057Y-83661905D02*
X156822438Y-83709524D01*
X156822438Y-83709524D02*
X156774819Y-83804762D01*
X156774819Y-83804762D02*
X156774819Y-83995238D01*
X156774819Y-83995238D02*
X156822438Y-84090476D01*
X156822438Y-84090476D02*
X156870057Y-84138095D01*
X156870057Y-84138095D02*
X156965295Y-84185714D01*
X156965295Y-84185714D02*
X157012914Y-84185714D01*
X157012914Y-84185714D02*
X157108152Y-84138095D01*
X157108152Y-84138095D02*
X157155771Y-84090476D01*
X157155771Y-84090476D02*
X157203390Y-83995238D01*
X157203390Y-83995238D02*
X157203390Y-83804762D01*
X157203390Y-83804762D02*
X157251009Y-83709524D01*
X157251009Y-83709524D02*
X157298628Y-83661905D01*
X157298628Y-83661905D02*
X157393866Y-83614286D01*
X157393866Y-83614286D02*
X157584342Y-83614286D01*
X157584342Y-83614286D02*
X157679580Y-83661905D01*
X157679580Y-83661905D02*
X157727200Y-83709524D01*
X157727200Y-83709524D02*
X157774819Y-83804762D01*
X157774819Y-83804762D02*
X157774819Y-83995238D01*
X157774819Y-83995238D02*
X157727200Y-84090476D01*
X157727200Y-84090476D02*
X157679580Y-84138095D01*
X157679580Y-84138095D02*
X157584342Y-84185714D01*
X157584342Y-84185714D02*
X157393866Y-84185714D01*
X157393866Y-84185714D02*
X157298628Y-84138095D01*
X157298628Y-84138095D02*
X157251009Y-84090476D01*
X157251009Y-84090476D02*
X157203390Y-83995238D01*
%TO.C,Q5*%
X161100057Y-68404761D02*
X161052438Y-68309523D01*
X161052438Y-68309523D02*
X160957200Y-68214285D01*
X160957200Y-68214285D02*
X160814342Y-68071428D01*
X160814342Y-68071428D02*
X160766723Y-67976190D01*
X160766723Y-67976190D02*
X160766723Y-67880952D01*
X161004819Y-67928571D02*
X160957200Y-67833333D01*
X160957200Y-67833333D02*
X160861961Y-67738095D01*
X160861961Y-67738095D02*
X160671485Y-67690476D01*
X160671485Y-67690476D02*
X160338152Y-67690476D01*
X160338152Y-67690476D02*
X160147676Y-67738095D01*
X160147676Y-67738095D02*
X160052438Y-67833333D01*
X160052438Y-67833333D02*
X160004819Y-67928571D01*
X160004819Y-67928571D02*
X160004819Y-68119047D01*
X160004819Y-68119047D02*
X160052438Y-68214285D01*
X160052438Y-68214285D02*
X160147676Y-68309523D01*
X160147676Y-68309523D02*
X160338152Y-68357142D01*
X160338152Y-68357142D02*
X160671485Y-68357142D01*
X160671485Y-68357142D02*
X160861961Y-68309523D01*
X160861961Y-68309523D02*
X160957200Y-68214285D01*
X160957200Y-68214285D02*
X161004819Y-68119047D01*
X161004819Y-68119047D02*
X161004819Y-67928571D01*
X160004819Y-69261904D02*
X160004819Y-68785714D01*
X160004819Y-68785714D02*
X160481009Y-68738095D01*
X160481009Y-68738095D02*
X160433390Y-68785714D01*
X160433390Y-68785714D02*
X160385771Y-68880952D01*
X160385771Y-68880952D02*
X160385771Y-69119047D01*
X160385771Y-69119047D02*
X160433390Y-69214285D01*
X160433390Y-69214285D02*
X160481009Y-69261904D01*
X160481009Y-69261904D02*
X160576247Y-69309523D01*
X160576247Y-69309523D02*
X160814342Y-69309523D01*
X160814342Y-69309523D02*
X160909580Y-69261904D01*
X160909580Y-69261904D02*
X160957200Y-69214285D01*
X160957200Y-69214285D02*
X161004819Y-69119047D01*
X161004819Y-69119047D02*
X161004819Y-68880952D01*
X161004819Y-68880952D02*
X160957200Y-68785714D01*
X160957200Y-68785714D02*
X160909580Y-68738095D01*
%TO.C,U6*%
X144860958Y-75290253D02*
X144288538Y-74717833D01*
X144288538Y-74717833D02*
X144254866Y-74616818D01*
X144254866Y-74616818D02*
X144254866Y-74549474D01*
X144254866Y-74549474D02*
X144288538Y-74448459D01*
X144288538Y-74448459D02*
X144423225Y-74313772D01*
X144423225Y-74313772D02*
X144524240Y-74280100D01*
X144524240Y-74280100D02*
X144591584Y-74280100D01*
X144591584Y-74280100D02*
X144692599Y-74313772D01*
X144692599Y-74313772D02*
X145265019Y-74886192D01*
X145904782Y-74246428D02*
X145770095Y-74381115D01*
X145770095Y-74381115D02*
X145669080Y-74414787D01*
X145669080Y-74414787D02*
X145601736Y-74414787D01*
X145601736Y-74414787D02*
X145433377Y-74381115D01*
X145433377Y-74381115D02*
X145265019Y-74280100D01*
X145265019Y-74280100D02*
X144995645Y-74010726D01*
X144995645Y-74010726D02*
X144961973Y-73909711D01*
X144961973Y-73909711D02*
X144961973Y-73842367D01*
X144961973Y-73842367D02*
X144995645Y-73741352D01*
X144995645Y-73741352D02*
X145130332Y-73606665D01*
X145130332Y-73606665D02*
X145231347Y-73572993D01*
X145231347Y-73572993D02*
X145298690Y-73572993D01*
X145298690Y-73572993D02*
X145399706Y-73606665D01*
X145399706Y-73606665D02*
X145568064Y-73775024D01*
X145568064Y-73775024D02*
X145601736Y-73876039D01*
X145601736Y-73876039D02*
X145601736Y-73943383D01*
X145601736Y-73943383D02*
X145568064Y-74044398D01*
X145568064Y-74044398D02*
X145433377Y-74179085D01*
X145433377Y-74179085D02*
X145332362Y-74212757D01*
X145332362Y-74212757D02*
X145265019Y-74212757D01*
X145265019Y-74212757D02*
X145164003Y-74179085D01*
%TO.C,D8*%
X160308094Y-52974819D02*
X160308094Y-51974819D01*
X160308094Y-51974819D02*
X160069999Y-51974819D01*
X160069999Y-51974819D02*
X159927142Y-52022438D01*
X159927142Y-52022438D02*
X159831904Y-52117676D01*
X159831904Y-52117676D02*
X159784285Y-52212914D01*
X159784285Y-52212914D02*
X159736666Y-52403390D01*
X159736666Y-52403390D02*
X159736666Y-52546247D01*
X159736666Y-52546247D02*
X159784285Y-52736723D01*
X159784285Y-52736723D02*
X159831904Y-52831961D01*
X159831904Y-52831961D02*
X159927142Y-52927200D01*
X159927142Y-52927200D02*
X160069999Y-52974819D01*
X160069999Y-52974819D02*
X160308094Y-52974819D01*
X159165237Y-52403390D02*
X159260475Y-52355771D01*
X159260475Y-52355771D02*
X159308094Y-52308152D01*
X159308094Y-52308152D02*
X159355713Y-52212914D01*
X159355713Y-52212914D02*
X159355713Y-52165295D01*
X159355713Y-52165295D02*
X159308094Y-52070057D01*
X159308094Y-52070057D02*
X159260475Y-52022438D01*
X159260475Y-52022438D02*
X159165237Y-51974819D01*
X159165237Y-51974819D02*
X158974761Y-51974819D01*
X158974761Y-51974819D02*
X158879523Y-52022438D01*
X158879523Y-52022438D02*
X158831904Y-52070057D01*
X158831904Y-52070057D02*
X158784285Y-52165295D01*
X158784285Y-52165295D02*
X158784285Y-52212914D01*
X158784285Y-52212914D02*
X158831904Y-52308152D01*
X158831904Y-52308152D02*
X158879523Y-52355771D01*
X158879523Y-52355771D02*
X158974761Y-52403390D01*
X158974761Y-52403390D02*
X159165237Y-52403390D01*
X159165237Y-52403390D02*
X159260475Y-52451009D01*
X159260475Y-52451009D02*
X159308094Y-52498628D01*
X159308094Y-52498628D02*
X159355713Y-52593866D01*
X159355713Y-52593866D02*
X159355713Y-52784342D01*
X159355713Y-52784342D02*
X159308094Y-52879580D01*
X159308094Y-52879580D02*
X159260475Y-52927200D01*
X159260475Y-52927200D02*
X159165237Y-52974819D01*
X159165237Y-52974819D02*
X158974761Y-52974819D01*
X158974761Y-52974819D02*
X158879523Y-52927200D01*
X158879523Y-52927200D02*
X158831904Y-52879580D01*
X158831904Y-52879580D02*
X158784285Y-52784342D01*
X158784285Y-52784342D02*
X158784285Y-52593866D01*
X158784285Y-52593866D02*
X158831904Y-52498628D01*
X158831904Y-52498628D02*
X158879523Y-52451009D01*
X158879523Y-52451009D02*
X158974761Y-52403390D01*
%TO.C,R21*%
X162642857Y-57454819D02*
X162976190Y-56978628D01*
X163214285Y-57454819D02*
X163214285Y-56454819D01*
X163214285Y-56454819D02*
X162833333Y-56454819D01*
X162833333Y-56454819D02*
X162738095Y-56502438D01*
X162738095Y-56502438D02*
X162690476Y-56550057D01*
X162690476Y-56550057D02*
X162642857Y-56645295D01*
X162642857Y-56645295D02*
X162642857Y-56788152D01*
X162642857Y-56788152D02*
X162690476Y-56883390D01*
X162690476Y-56883390D02*
X162738095Y-56931009D01*
X162738095Y-56931009D02*
X162833333Y-56978628D01*
X162833333Y-56978628D02*
X163214285Y-56978628D01*
X162261904Y-56550057D02*
X162214285Y-56502438D01*
X162214285Y-56502438D02*
X162119047Y-56454819D01*
X162119047Y-56454819D02*
X161880952Y-56454819D01*
X161880952Y-56454819D02*
X161785714Y-56502438D01*
X161785714Y-56502438D02*
X161738095Y-56550057D01*
X161738095Y-56550057D02*
X161690476Y-56645295D01*
X161690476Y-56645295D02*
X161690476Y-56740533D01*
X161690476Y-56740533D02*
X161738095Y-56883390D01*
X161738095Y-56883390D02*
X162309523Y-57454819D01*
X162309523Y-57454819D02*
X161690476Y-57454819D01*
X160738095Y-57454819D02*
X161309523Y-57454819D01*
X161023809Y-57454819D02*
X161023809Y-56454819D01*
X161023809Y-56454819D02*
X161119047Y-56597676D01*
X161119047Y-56597676D02*
X161214285Y-56692914D01*
X161214285Y-56692914D02*
X161309523Y-56740533D01*
%TO.C,C21*%
X209719580Y-96557142D02*
X209767200Y-96509523D01*
X209767200Y-96509523D02*
X209814819Y-96366666D01*
X209814819Y-96366666D02*
X209814819Y-96271428D01*
X209814819Y-96271428D02*
X209767200Y-96128571D01*
X209767200Y-96128571D02*
X209671961Y-96033333D01*
X209671961Y-96033333D02*
X209576723Y-95985714D01*
X209576723Y-95985714D02*
X209386247Y-95938095D01*
X209386247Y-95938095D02*
X209243390Y-95938095D01*
X209243390Y-95938095D02*
X209052914Y-95985714D01*
X209052914Y-95985714D02*
X208957676Y-96033333D01*
X208957676Y-96033333D02*
X208862438Y-96128571D01*
X208862438Y-96128571D02*
X208814819Y-96271428D01*
X208814819Y-96271428D02*
X208814819Y-96366666D01*
X208814819Y-96366666D02*
X208862438Y-96509523D01*
X208862438Y-96509523D02*
X208910057Y-96557142D01*
X208910057Y-96938095D02*
X208862438Y-96985714D01*
X208862438Y-96985714D02*
X208814819Y-97080952D01*
X208814819Y-97080952D02*
X208814819Y-97319047D01*
X208814819Y-97319047D02*
X208862438Y-97414285D01*
X208862438Y-97414285D02*
X208910057Y-97461904D01*
X208910057Y-97461904D02*
X209005295Y-97509523D01*
X209005295Y-97509523D02*
X209100533Y-97509523D01*
X209100533Y-97509523D02*
X209243390Y-97461904D01*
X209243390Y-97461904D02*
X209814819Y-96890476D01*
X209814819Y-96890476D02*
X209814819Y-97509523D01*
X209814819Y-98461904D02*
X209814819Y-97890476D01*
X209814819Y-98176190D02*
X208814819Y-98176190D01*
X208814819Y-98176190D02*
X208957676Y-98080952D01*
X208957676Y-98080952D02*
X209052914Y-97985714D01*
X209052914Y-97985714D02*
X209100533Y-97890476D01*
%TO.C,R15*%
X167085357Y-71684819D02*
X167418690Y-71208628D01*
X167656785Y-71684819D02*
X167656785Y-70684819D01*
X167656785Y-70684819D02*
X167275833Y-70684819D01*
X167275833Y-70684819D02*
X167180595Y-70732438D01*
X167180595Y-70732438D02*
X167132976Y-70780057D01*
X167132976Y-70780057D02*
X167085357Y-70875295D01*
X167085357Y-70875295D02*
X167085357Y-71018152D01*
X167085357Y-71018152D02*
X167132976Y-71113390D01*
X167132976Y-71113390D02*
X167180595Y-71161009D01*
X167180595Y-71161009D02*
X167275833Y-71208628D01*
X167275833Y-71208628D02*
X167656785Y-71208628D01*
X166132976Y-71684819D02*
X166704404Y-71684819D01*
X166418690Y-71684819D02*
X166418690Y-70684819D01*
X166418690Y-70684819D02*
X166513928Y-70827676D01*
X166513928Y-70827676D02*
X166609166Y-70922914D01*
X166609166Y-70922914D02*
X166704404Y-70970533D01*
X165228214Y-70684819D02*
X165704404Y-70684819D01*
X165704404Y-70684819D02*
X165752023Y-71161009D01*
X165752023Y-71161009D02*
X165704404Y-71113390D01*
X165704404Y-71113390D02*
X165609166Y-71065771D01*
X165609166Y-71065771D02*
X165371071Y-71065771D01*
X165371071Y-71065771D02*
X165275833Y-71113390D01*
X165275833Y-71113390D02*
X165228214Y-71161009D01*
X165228214Y-71161009D02*
X165180595Y-71256247D01*
X165180595Y-71256247D02*
X165180595Y-71494342D01*
X165180595Y-71494342D02*
X165228214Y-71589580D01*
X165228214Y-71589580D02*
X165275833Y-71637200D01*
X165275833Y-71637200D02*
X165371071Y-71684819D01*
X165371071Y-71684819D02*
X165609166Y-71684819D01*
X165609166Y-71684819D02*
X165704404Y-71637200D01*
X165704404Y-71637200D02*
X165752023Y-71589580D01*
%TO.C,R16*%
X165724819Y-78757142D02*
X165248628Y-78423809D01*
X165724819Y-78185714D02*
X164724819Y-78185714D01*
X164724819Y-78185714D02*
X164724819Y-78566666D01*
X164724819Y-78566666D02*
X164772438Y-78661904D01*
X164772438Y-78661904D02*
X164820057Y-78709523D01*
X164820057Y-78709523D02*
X164915295Y-78757142D01*
X164915295Y-78757142D02*
X165058152Y-78757142D01*
X165058152Y-78757142D02*
X165153390Y-78709523D01*
X165153390Y-78709523D02*
X165201009Y-78661904D01*
X165201009Y-78661904D02*
X165248628Y-78566666D01*
X165248628Y-78566666D02*
X165248628Y-78185714D01*
X165724819Y-79709523D02*
X165724819Y-79138095D01*
X165724819Y-79423809D02*
X164724819Y-79423809D01*
X164724819Y-79423809D02*
X164867676Y-79328571D01*
X164867676Y-79328571D02*
X164962914Y-79233333D01*
X164962914Y-79233333D02*
X165010533Y-79138095D01*
X164724819Y-80566666D02*
X164724819Y-80376190D01*
X164724819Y-80376190D02*
X164772438Y-80280952D01*
X164772438Y-80280952D02*
X164820057Y-80233333D01*
X164820057Y-80233333D02*
X164962914Y-80138095D01*
X164962914Y-80138095D02*
X165153390Y-80090476D01*
X165153390Y-80090476D02*
X165534342Y-80090476D01*
X165534342Y-80090476D02*
X165629580Y-80138095D01*
X165629580Y-80138095D02*
X165677200Y-80185714D01*
X165677200Y-80185714D02*
X165724819Y-80280952D01*
X165724819Y-80280952D02*
X165724819Y-80471428D01*
X165724819Y-80471428D02*
X165677200Y-80566666D01*
X165677200Y-80566666D02*
X165629580Y-80614285D01*
X165629580Y-80614285D02*
X165534342Y-80661904D01*
X165534342Y-80661904D02*
X165296247Y-80661904D01*
X165296247Y-80661904D02*
X165201009Y-80614285D01*
X165201009Y-80614285D02*
X165153390Y-80566666D01*
X165153390Y-80566666D02*
X165105771Y-80471428D01*
X165105771Y-80471428D02*
X165105771Y-80280952D01*
X165105771Y-80280952D02*
X165153390Y-80185714D01*
X165153390Y-80185714D02*
X165201009Y-80138095D01*
X165201009Y-80138095D02*
X165296247Y-80090476D01*
%TO.C,R8*%
X170656666Y-74982319D02*
X170989999Y-74506128D01*
X171228094Y-74982319D02*
X171228094Y-73982319D01*
X171228094Y-73982319D02*
X170847142Y-73982319D01*
X170847142Y-73982319D02*
X170751904Y-74029938D01*
X170751904Y-74029938D02*
X170704285Y-74077557D01*
X170704285Y-74077557D02*
X170656666Y-74172795D01*
X170656666Y-74172795D02*
X170656666Y-74315652D01*
X170656666Y-74315652D02*
X170704285Y-74410890D01*
X170704285Y-74410890D02*
X170751904Y-74458509D01*
X170751904Y-74458509D02*
X170847142Y-74506128D01*
X170847142Y-74506128D02*
X171228094Y-74506128D01*
X170085237Y-74410890D02*
X170180475Y-74363271D01*
X170180475Y-74363271D02*
X170228094Y-74315652D01*
X170228094Y-74315652D02*
X170275713Y-74220414D01*
X170275713Y-74220414D02*
X170275713Y-74172795D01*
X170275713Y-74172795D02*
X170228094Y-74077557D01*
X170228094Y-74077557D02*
X170180475Y-74029938D01*
X170180475Y-74029938D02*
X170085237Y-73982319D01*
X170085237Y-73982319D02*
X169894761Y-73982319D01*
X169894761Y-73982319D02*
X169799523Y-74029938D01*
X169799523Y-74029938D02*
X169751904Y-74077557D01*
X169751904Y-74077557D02*
X169704285Y-74172795D01*
X169704285Y-74172795D02*
X169704285Y-74220414D01*
X169704285Y-74220414D02*
X169751904Y-74315652D01*
X169751904Y-74315652D02*
X169799523Y-74363271D01*
X169799523Y-74363271D02*
X169894761Y-74410890D01*
X169894761Y-74410890D02*
X170085237Y-74410890D01*
X170085237Y-74410890D02*
X170180475Y-74458509D01*
X170180475Y-74458509D02*
X170228094Y-74506128D01*
X170228094Y-74506128D02*
X170275713Y-74601366D01*
X170275713Y-74601366D02*
X170275713Y-74791842D01*
X170275713Y-74791842D02*
X170228094Y-74887080D01*
X170228094Y-74887080D02*
X170180475Y-74934700D01*
X170180475Y-74934700D02*
X170085237Y-74982319D01*
X170085237Y-74982319D02*
X169894761Y-74982319D01*
X169894761Y-74982319D02*
X169799523Y-74934700D01*
X169799523Y-74934700D02*
X169751904Y-74887080D01*
X169751904Y-74887080D02*
X169704285Y-74791842D01*
X169704285Y-74791842D02*
X169704285Y-74601366D01*
X169704285Y-74601366D02*
X169751904Y-74506128D01*
X169751904Y-74506128D02*
X169799523Y-74458509D01*
X169799523Y-74458509D02*
X169894761Y-74410890D01*
%TO.C,R10*%
X160342857Y-90154819D02*
X160676190Y-89678628D01*
X160914285Y-90154819D02*
X160914285Y-89154819D01*
X160914285Y-89154819D02*
X160533333Y-89154819D01*
X160533333Y-89154819D02*
X160438095Y-89202438D01*
X160438095Y-89202438D02*
X160390476Y-89250057D01*
X160390476Y-89250057D02*
X160342857Y-89345295D01*
X160342857Y-89345295D02*
X160342857Y-89488152D01*
X160342857Y-89488152D02*
X160390476Y-89583390D01*
X160390476Y-89583390D02*
X160438095Y-89631009D01*
X160438095Y-89631009D02*
X160533333Y-89678628D01*
X160533333Y-89678628D02*
X160914285Y-89678628D01*
X159390476Y-90154819D02*
X159961904Y-90154819D01*
X159676190Y-90154819D02*
X159676190Y-89154819D01*
X159676190Y-89154819D02*
X159771428Y-89297676D01*
X159771428Y-89297676D02*
X159866666Y-89392914D01*
X159866666Y-89392914D02*
X159961904Y-89440533D01*
X158771428Y-89154819D02*
X158676190Y-89154819D01*
X158676190Y-89154819D02*
X158580952Y-89202438D01*
X158580952Y-89202438D02*
X158533333Y-89250057D01*
X158533333Y-89250057D02*
X158485714Y-89345295D01*
X158485714Y-89345295D02*
X158438095Y-89535771D01*
X158438095Y-89535771D02*
X158438095Y-89773866D01*
X158438095Y-89773866D02*
X158485714Y-89964342D01*
X158485714Y-89964342D02*
X158533333Y-90059580D01*
X158533333Y-90059580D02*
X158580952Y-90107200D01*
X158580952Y-90107200D02*
X158676190Y-90154819D01*
X158676190Y-90154819D02*
X158771428Y-90154819D01*
X158771428Y-90154819D02*
X158866666Y-90107200D01*
X158866666Y-90107200D02*
X158914285Y-90059580D01*
X158914285Y-90059580D02*
X158961904Y-89964342D01*
X158961904Y-89964342D02*
X159009523Y-89773866D01*
X159009523Y-89773866D02*
X159009523Y-89535771D01*
X159009523Y-89535771D02*
X158961904Y-89345295D01*
X158961904Y-89345295D02*
X158914285Y-89250057D01*
X158914285Y-89250057D02*
X158866666Y-89202438D01*
X158866666Y-89202438D02*
X158771428Y-89154819D01*
%TO.C,U3*%
X164594819Y-84658095D02*
X165404342Y-84658095D01*
X165404342Y-84658095D02*
X165499580Y-84705714D01*
X165499580Y-84705714D02*
X165547200Y-84753333D01*
X165547200Y-84753333D02*
X165594819Y-84848571D01*
X165594819Y-84848571D02*
X165594819Y-85039047D01*
X165594819Y-85039047D02*
X165547200Y-85134285D01*
X165547200Y-85134285D02*
X165499580Y-85181904D01*
X165499580Y-85181904D02*
X165404342Y-85229523D01*
X165404342Y-85229523D02*
X164594819Y-85229523D01*
X164594819Y-85610476D02*
X164594819Y-86229523D01*
X164594819Y-86229523D02*
X164975771Y-85896190D01*
X164975771Y-85896190D02*
X164975771Y-86039047D01*
X164975771Y-86039047D02*
X165023390Y-86134285D01*
X165023390Y-86134285D02*
X165071009Y-86181904D01*
X165071009Y-86181904D02*
X165166247Y-86229523D01*
X165166247Y-86229523D02*
X165404342Y-86229523D01*
X165404342Y-86229523D02*
X165499580Y-86181904D01*
X165499580Y-86181904D02*
X165547200Y-86134285D01*
X165547200Y-86134285D02*
X165594819Y-86039047D01*
X165594819Y-86039047D02*
X165594819Y-85753333D01*
X165594819Y-85753333D02*
X165547200Y-85658095D01*
X165547200Y-85658095D02*
X165499580Y-85610476D01*
%TO.C,Q1*%
X172595238Y-83750057D02*
X172690476Y-83702438D01*
X172690476Y-83702438D02*
X172785714Y-83607200D01*
X172785714Y-83607200D02*
X172928571Y-83464342D01*
X172928571Y-83464342D02*
X173023809Y-83416723D01*
X173023809Y-83416723D02*
X173119047Y-83416723D01*
X173071428Y-83654819D02*
X173166666Y-83607200D01*
X173166666Y-83607200D02*
X173261904Y-83511961D01*
X173261904Y-83511961D02*
X173309523Y-83321485D01*
X173309523Y-83321485D02*
X173309523Y-82988152D01*
X173309523Y-82988152D02*
X173261904Y-82797676D01*
X173261904Y-82797676D02*
X173166666Y-82702438D01*
X173166666Y-82702438D02*
X173071428Y-82654819D01*
X173071428Y-82654819D02*
X172880952Y-82654819D01*
X172880952Y-82654819D02*
X172785714Y-82702438D01*
X172785714Y-82702438D02*
X172690476Y-82797676D01*
X172690476Y-82797676D02*
X172642857Y-82988152D01*
X172642857Y-82988152D02*
X172642857Y-83321485D01*
X172642857Y-83321485D02*
X172690476Y-83511961D01*
X172690476Y-83511961D02*
X172785714Y-83607200D01*
X172785714Y-83607200D02*
X172880952Y-83654819D01*
X172880952Y-83654819D02*
X173071428Y-83654819D01*
X171690476Y-83654819D02*
X172261904Y-83654819D01*
X171976190Y-83654819D02*
X171976190Y-82654819D01*
X171976190Y-82654819D02*
X172071428Y-82797676D01*
X172071428Y-82797676D02*
X172166666Y-82892914D01*
X172166666Y-82892914D02*
X172261904Y-82940533D01*
%TO.C,R13*%
X170642857Y-68054819D02*
X170976190Y-67578628D01*
X171214285Y-68054819D02*
X171214285Y-67054819D01*
X171214285Y-67054819D02*
X170833333Y-67054819D01*
X170833333Y-67054819D02*
X170738095Y-67102438D01*
X170738095Y-67102438D02*
X170690476Y-67150057D01*
X170690476Y-67150057D02*
X170642857Y-67245295D01*
X170642857Y-67245295D02*
X170642857Y-67388152D01*
X170642857Y-67388152D02*
X170690476Y-67483390D01*
X170690476Y-67483390D02*
X170738095Y-67531009D01*
X170738095Y-67531009D02*
X170833333Y-67578628D01*
X170833333Y-67578628D02*
X171214285Y-67578628D01*
X169690476Y-68054819D02*
X170261904Y-68054819D01*
X169976190Y-68054819D02*
X169976190Y-67054819D01*
X169976190Y-67054819D02*
X170071428Y-67197676D01*
X170071428Y-67197676D02*
X170166666Y-67292914D01*
X170166666Y-67292914D02*
X170261904Y-67340533D01*
X169357142Y-67054819D02*
X168738095Y-67054819D01*
X168738095Y-67054819D02*
X169071428Y-67435771D01*
X169071428Y-67435771D02*
X168928571Y-67435771D01*
X168928571Y-67435771D02*
X168833333Y-67483390D01*
X168833333Y-67483390D02*
X168785714Y-67531009D01*
X168785714Y-67531009D02*
X168738095Y-67626247D01*
X168738095Y-67626247D02*
X168738095Y-67864342D01*
X168738095Y-67864342D02*
X168785714Y-67959580D01*
X168785714Y-67959580D02*
X168833333Y-68007200D01*
X168833333Y-68007200D02*
X168928571Y-68054819D01*
X168928571Y-68054819D02*
X169214285Y-68054819D01*
X169214285Y-68054819D02*
X169309523Y-68007200D01*
X169309523Y-68007200D02*
X169357142Y-67959580D01*
%TO.C,C2*%
X211966666Y-85659580D02*
X212014285Y-85707200D01*
X212014285Y-85707200D02*
X212157142Y-85754819D01*
X212157142Y-85754819D02*
X212252380Y-85754819D01*
X212252380Y-85754819D02*
X212395237Y-85707200D01*
X212395237Y-85707200D02*
X212490475Y-85611961D01*
X212490475Y-85611961D02*
X212538094Y-85516723D01*
X212538094Y-85516723D02*
X212585713Y-85326247D01*
X212585713Y-85326247D02*
X212585713Y-85183390D01*
X212585713Y-85183390D02*
X212538094Y-84992914D01*
X212538094Y-84992914D02*
X212490475Y-84897676D01*
X212490475Y-84897676D02*
X212395237Y-84802438D01*
X212395237Y-84802438D02*
X212252380Y-84754819D01*
X212252380Y-84754819D02*
X212157142Y-84754819D01*
X212157142Y-84754819D02*
X212014285Y-84802438D01*
X212014285Y-84802438D02*
X211966666Y-84850057D01*
X211585713Y-84850057D02*
X211538094Y-84802438D01*
X211538094Y-84802438D02*
X211442856Y-84754819D01*
X211442856Y-84754819D02*
X211204761Y-84754819D01*
X211204761Y-84754819D02*
X211109523Y-84802438D01*
X211109523Y-84802438D02*
X211061904Y-84850057D01*
X211061904Y-84850057D02*
X211014285Y-84945295D01*
X211014285Y-84945295D02*
X211014285Y-85040533D01*
X211014285Y-85040533D02*
X211061904Y-85183390D01*
X211061904Y-85183390D02*
X211633332Y-85754819D01*
X211633332Y-85754819D02*
X211014285Y-85754819D01*
%TO.C,R38*%
X114874819Y-83457142D02*
X114398628Y-83123809D01*
X114874819Y-82885714D02*
X113874819Y-82885714D01*
X113874819Y-82885714D02*
X113874819Y-83266666D01*
X113874819Y-83266666D02*
X113922438Y-83361904D01*
X113922438Y-83361904D02*
X113970057Y-83409523D01*
X113970057Y-83409523D02*
X114065295Y-83457142D01*
X114065295Y-83457142D02*
X114208152Y-83457142D01*
X114208152Y-83457142D02*
X114303390Y-83409523D01*
X114303390Y-83409523D02*
X114351009Y-83361904D01*
X114351009Y-83361904D02*
X114398628Y-83266666D01*
X114398628Y-83266666D02*
X114398628Y-82885714D01*
X113874819Y-83790476D02*
X113874819Y-84409523D01*
X113874819Y-84409523D02*
X114255771Y-84076190D01*
X114255771Y-84076190D02*
X114255771Y-84219047D01*
X114255771Y-84219047D02*
X114303390Y-84314285D01*
X114303390Y-84314285D02*
X114351009Y-84361904D01*
X114351009Y-84361904D02*
X114446247Y-84409523D01*
X114446247Y-84409523D02*
X114684342Y-84409523D01*
X114684342Y-84409523D02*
X114779580Y-84361904D01*
X114779580Y-84361904D02*
X114827200Y-84314285D01*
X114827200Y-84314285D02*
X114874819Y-84219047D01*
X114874819Y-84219047D02*
X114874819Y-83933333D01*
X114874819Y-83933333D02*
X114827200Y-83838095D01*
X114827200Y-83838095D02*
X114779580Y-83790476D01*
X114303390Y-84980952D02*
X114255771Y-84885714D01*
X114255771Y-84885714D02*
X114208152Y-84838095D01*
X114208152Y-84838095D02*
X114112914Y-84790476D01*
X114112914Y-84790476D02*
X114065295Y-84790476D01*
X114065295Y-84790476D02*
X113970057Y-84838095D01*
X113970057Y-84838095D02*
X113922438Y-84885714D01*
X113922438Y-84885714D02*
X113874819Y-84980952D01*
X113874819Y-84980952D02*
X113874819Y-85171428D01*
X113874819Y-85171428D02*
X113922438Y-85266666D01*
X113922438Y-85266666D02*
X113970057Y-85314285D01*
X113970057Y-85314285D02*
X114065295Y-85361904D01*
X114065295Y-85361904D02*
X114112914Y-85361904D01*
X114112914Y-85361904D02*
X114208152Y-85314285D01*
X114208152Y-85314285D02*
X114255771Y-85266666D01*
X114255771Y-85266666D02*
X114303390Y-85171428D01*
X114303390Y-85171428D02*
X114303390Y-84980952D01*
X114303390Y-84980952D02*
X114351009Y-84885714D01*
X114351009Y-84885714D02*
X114398628Y-84838095D01*
X114398628Y-84838095D02*
X114493866Y-84790476D01*
X114493866Y-84790476D02*
X114684342Y-84790476D01*
X114684342Y-84790476D02*
X114779580Y-84838095D01*
X114779580Y-84838095D02*
X114827200Y-84885714D01*
X114827200Y-84885714D02*
X114874819Y-84980952D01*
X114874819Y-84980952D02*
X114874819Y-85171428D01*
X114874819Y-85171428D02*
X114827200Y-85266666D01*
X114827200Y-85266666D02*
X114779580Y-85314285D01*
X114779580Y-85314285D02*
X114684342Y-85361904D01*
X114684342Y-85361904D02*
X114493866Y-85361904D01*
X114493866Y-85361904D02*
X114398628Y-85314285D01*
X114398628Y-85314285D02*
X114351009Y-85266666D01*
X114351009Y-85266666D02*
X114303390Y-85171428D01*
%TO.C,R34*%
X185530357Y-71954819D02*
X185863690Y-71478628D01*
X186101785Y-71954819D02*
X186101785Y-70954819D01*
X186101785Y-70954819D02*
X185720833Y-70954819D01*
X185720833Y-70954819D02*
X185625595Y-71002438D01*
X185625595Y-71002438D02*
X185577976Y-71050057D01*
X185577976Y-71050057D02*
X185530357Y-71145295D01*
X185530357Y-71145295D02*
X185530357Y-71288152D01*
X185530357Y-71288152D02*
X185577976Y-71383390D01*
X185577976Y-71383390D02*
X185625595Y-71431009D01*
X185625595Y-71431009D02*
X185720833Y-71478628D01*
X185720833Y-71478628D02*
X186101785Y-71478628D01*
X185197023Y-70954819D02*
X184577976Y-70954819D01*
X184577976Y-70954819D02*
X184911309Y-71335771D01*
X184911309Y-71335771D02*
X184768452Y-71335771D01*
X184768452Y-71335771D02*
X184673214Y-71383390D01*
X184673214Y-71383390D02*
X184625595Y-71431009D01*
X184625595Y-71431009D02*
X184577976Y-71526247D01*
X184577976Y-71526247D02*
X184577976Y-71764342D01*
X184577976Y-71764342D02*
X184625595Y-71859580D01*
X184625595Y-71859580D02*
X184673214Y-71907200D01*
X184673214Y-71907200D02*
X184768452Y-71954819D01*
X184768452Y-71954819D02*
X185054166Y-71954819D01*
X185054166Y-71954819D02*
X185149404Y-71907200D01*
X185149404Y-71907200D02*
X185197023Y-71859580D01*
X183720833Y-71288152D02*
X183720833Y-71954819D01*
X183958928Y-70907200D02*
X184197023Y-71621485D01*
X184197023Y-71621485D02*
X183577976Y-71621485D01*
%TO.C,R35*%
X200742857Y-79184819D02*
X201076190Y-78708628D01*
X201314285Y-79184819D02*
X201314285Y-78184819D01*
X201314285Y-78184819D02*
X200933333Y-78184819D01*
X200933333Y-78184819D02*
X200838095Y-78232438D01*
X200838095Y-78232438D02*
X200790476Y-78280057D01*
X200790476Y-78280057D02*
X200742857Y-78375295D01*
X200742857Y-78375295D02*
X200742857Y-78518152D01*
X200742857Y-78518152D02*
X200790476Y-78613390D01*
X200790476Y-78613390D02*
X200838095Y-78661009D01*
X200838095Y-78661009D02*
X200933333Y-78708628D01*
X200933333Y-78708628D02*
X201314285Y-78708628D01*
X200409523Y-78184819D02*
X199790476Y-78184819D01*
X199790476Y-78184819D02*
X200123809Y-78565771D01*
X200123809Y-78565771D02*
X199980952Y-78565771D01*
X199980952Y-78565771D02*
X199885714Y-78613390D01*
X199885714Y-78613390D02*
X199838095Y-78661009D01*
X199838095Y-78661009D02*
X199790476Y-78756247D01*
X199790476Y-78756247D02*
X199790476Y-78994342D01*
X199790476Y-78994342D02*
X199838095Y-79089580D01*
X199838095Y-79089580D02*
X199885714Y-79137200D01*
X199885714Y-79137200D02*
X199980952Y-79184819D01*
X199980952Y-79184819D02*
X200266666Y-79184819D01*
X200266666Y-79184819D02*
X200361904Y-79137200D01*
X200361904Y-79137200D02*
X200409523Y-79089580D01*
X198885714Y-78184819D02*
X199361904Y-78184819D01*
X199361904Y-78184819D02*
X199409523Y-78661009D01*
X199409523Y-78661009D02*
X199361904Y-78613390D01*
X199361904Y-78613390D02*
X199266666Y-78565771D01*
X199266666Y-78565771D02*
X199028571Y-78565771D01*
X199028571Y-78565771D02*
X198933333Y-78613390D01*
X198933333Y-78613390D02*
X198885714Y-78661009D01*
X198885714Y-78661009D02*
X198838095Y-78756247D01*
X198838095Y-78756247D02*
X198838095Y-78994342D01*
X198838095Y-78994342D02*
X198885714Y-79089580D01*
X198885714Y-79089580D02*
X198933333Y-79137200D01*
X198933333Y-79137200D02*
X199028571Y-79184819D01*
X199028571Y-79184819D02*
X199266666Y-79184819D01*
X199266666Y-79184819D02*
X199361904Y-79137200D01*
X199361904Y-79137200D02*
X199409523Y-79089580D01*
%TO.C,R5*%
X209781666Y-77939819D02*
X210114999Y-77463628D01*
X210353094Y-77939819D02*
X210353094Y-76939819D01*
X210353094Y-76939819D02*
X209972142Y-76939819D01*
X209972142Y-76939819D02*
X209876904Y-76987438D01*
X209876904Y-76987438D02*
X209829285Y-77035057D01*
X209829285Y-77035057D02*
X209781666Y-77130295D01*
X209781666Y-77130295D02*
X209781666Y-77273152D01*
X209781666Y-77273152D02*
X209829285Y-77368390D01*
X209829285Y-77368390D02*
X209876904Y-77416009D01*
X209876904Y-77416009D02*
X209972142Y-77463628D01*
X209972142Y-77463628D02*
X210353094Y-77463628D01*
X208876904Y-76939819D02*
X209353094Y-76939819D01*
X209353094Y-76939819D02*
X209400713Y-77416009D01*
X209400713Y-77416009D02*
X209353094Y-77368390D01*
X209353094Y-77368390D02*
X209257856Y-77320771D01*
X209257856Y-77320771D02*
X209019761Y-77320771D01*
X209019761Y-77320771D02*
X208924523Y-77368390D01*
X208924523Y-77368390D02*
X208876904Y-77416009D01*
X208876904Y-77416009D02*
X208829285Y-77511247D01*
X208829285Y-77511247D02*
X208829285Y-77749342D01*
X208829285Y-77749342D02*
X208876904Y-77844580D01*
X208876904Y-77844580D02*
X208924523Y-77892200D01*
X208924523Y-77892200D02*
X209019761Y-77939819D01*
X209019761Y-77939819D02*
X209257856Y-77939819D01*
X209257856Y-77939819D02*
X209353094Y-77892200D01*
X209353094Y-77892200D02*
X209400713Y-77844580D01*
%TO.C,R36*%
X204942857Y-76754819D02*
X205276190Y-76278628D01*
X205514285Y-76754819D02*
X205514285Y-75754819D01*
X205514285Y-75754819D02*
X205133333Y-75754819D01*
X205133333Y-75754819D02*
X205038095Y-75802438D01*
X205038095Y-75802438D02*
X204990476Y-75850057D01*
X204990476Y-75850057D02*
X204942857Y-75945295D01*
X204942857Y-75945295D02*
X204942857Y-76088152D01*
X204942857Y-76088152D02*
X204990476Y-76183390D01*
X204990476Y-76183390D02*
X205038095Y-76231009D01*
X205038095Y-76231009D02*
X205133333Y-76278628D01*
X205133333Y-76278628D02*
X205514285Y-76278628D01*
X204609523Y-75754819D02*
X203990476Y-75754819D01*
X203990476Y-75754819D02*
X204323809Y-76135771D01*
X204323809Y-76135771D02*
X204180952Y-76135771D01*
X204180952Y-76135771D02*
X204085714Y-76183390D01*
X204085714Y-76183390D02*
X204038095Y-76231009D01*
X204038095Y-76231009D02*
X203990476Y-76326247D01*
X203990476Y-76326247D02*
X203990476Y-76564342D01*
X203990476Y-76564342D02*
X204038095Y-76659580D01*
X204038095Y-76659580D02*
X204085714Y-76707200D01*
X204085714Y-76707200D02*
X204180952Y-76754819D01*
X204180952Y-76754819D02*
X204466666Y-76754819D01*
X204466666Y-76754819D02*
X204561904Y-76707200D01*
X204561904Y-76707200D02*
X204609523Y-76659580D01*
X203133333Y-75754819D02*
X203323809Y-75754819D01*
X203323809Y-75754819D02*
X203419047Y-75802438D01*
X203419047Y-75802438D02*
X203466666Y-75850057D01*
X203466666Y-75850057D02*
X203561904Y-75992914D01*
X203561904Y-75992914D02*
X203609523Y-76183390D01*
X203609523Y-76183390D02*
X203609523Y-76564342D01*
X203609523Y-76564342D02*
X203561904Y-76659580D01*
X203561904Y-76659580D02*
X203514285Y-76707200D01*
X203514285Y-76707200D02*
X203419047Y-76754819D01*
X203419047Y-76754819D02*
X203228571Y-76754819D01*
X203228571Y-76754819D02*
X203133333Y-76707200D01*
X203133333Y-76707200D02*
X203085714Y-76659580D01*
X203085714Y-76659580D02*
X203038095Y-76564342D01*
X203038095Y-76564342D02*
X203038095Y-76326247D01*
X203038095Y-76326247D02*
X203085714Y-76231009D01*
X203085714Y-76231009D02*
X203133333Y-76183390D01*
X203133333Y-76183390D02*
X203228571Y-76135771D01*
X203228571Y-76135771D02*
X203419047Y-76135771D01*
X203419047Y-76135771D02*
X203514285Y-76183390D01*
X203514285Y-76183390D02*
X203561904Y-76231009D01*
X203561904Y-76231009D02*
X203609523Y-76326247D01*
%TO.C,R30*%
X125545357Y-86164819D02*
X125878690Y-85688628D01*
X126116785Y-86164819D02*
X126116785Y-85164819D01*
X126116785Y-85164819D02*
X125735833Y-85164819D01*
X125735833Y-85164819D02*
X125640595Y-85212438D01*
X125640595Y-85212438D02*
X125592976Y-85260057D01*
X125592976Y-85260057D02*
X125545357Y-85355295D01*
X125545357Y-85355295D02*
X125545357Y-85498152D01*
X125545357Y-85498152D02*
X125592976Y-85593390D01*
X125592976Y-85593390D02*
X125640595Y-85641009D01*
X125640595Y-85641009D02*
X125735833Y-85688628D01*
X125735833Y-85688628D02*
X126116785Y-85688628D01*
X125212023Y-85164819D02*
X124592976Y-85164819D01*
X124592976Y-85164819D02*
X124926309Y-85545771D01*
X124926309Y-85545771D02*
X124783452Y-85545771D01*
X124783452Y-85545771D02*
X124688214Y-85593390D01*
X124688214Y-85593390D02*
X124640595Y-85641009D01*
X124640595Y-85641009D02*
X124592976Y-85736247D01*
X124592976Y-85736247D02*
X124592976Y-85974342D01*
X124592976Y-85974342D02*
X124640595Y-86069580D01*
X124640595Y-86069580D02*
X124688214Y-86117200D01*
X124688214Y-86117200D02*
X124783452Y-86164819D01*
X124783452Y-86164819D02*
X125069166Y-86164819D01*
X125069166Y-86164819D02*
X125164404Y-86117200D01*
X125164404Y-86117200D02*
X125212023Y-86069580D01*
X123973928Y-85164819D02*
X123878690Y-85164819D01*
X123878690Y-85164819D02*
X123783452Y-85212438D01*
X123783452Y-85212438D02*
X123735833Y-85260057D01*
X123735833Y-85260057D02*
X123688214Y-85355295D01*
X123688214Y-85355295D02*
X123640595Y-85545771D01*
X123640595Y-85545771D02*
X123640595Y-85783866D01*
X123640595Y-85783866D02*
X123688214Y-85974342D01*
X123688214Y-85974342D02*
X123735833Y-86069580D01*
X123735833Y-86069580D02*
X123783452Y-86117200D01*
X123783452Y-86117200D02*
X123878690Y-86164819D01*
X123878690Y-86164819D02*
X123973928Y-86164819D01*
X123973928Y-86164819D02*
X124069166Y-86117200D01*
X124069166Y-86117200D02*
X124116785Y-86069580D01*
X124116785Y-86069580D02*
X124164404Y-85974342D01*
X124164404Y-85974342D02*
X124212023Y-85783866D01*
X124212023Y-85783866D02*
X124212023Y-85545771D01*
X124212023Y-85545771D02*
X124164404Y-85355295D01*
X124164404Y-85355295D02*
X124116785Y-85260057D01*
X124116785Y-85260057D02*
X124069166Y-85212438D01*
X124069166Y-85212438D02*
X123973928Y-85164819D01*
%TO.C,C7*%
X162766666Y-80659580D02*
X162814285Y-80707200D01*
X162814285Y-80707200D02*
X162957142Y-80754819D01*
X162957142Y-80754819D02*
X163052380Y-80754819D01*
X163052380Y-80754819D02*
X163195237Y-80707200D01*
X163195237Y-80707200D02*
X163290475Y-80611961D01*
X163290475Y-80611961D02*
X163338094Y-80516723D01*
X163338094Y-80516723D02*
X163385713Y-80326247D01*
X163385713Y-80326247D02*
X163385713Y-80183390D01*
X163385713Y-80183390D02*
X163338094Y-79992914D01*
X163338094Y-79992914D02*
X163290475Y-79897676D01*
X163290475Y-79897676D02*
X163195237Y-79802438D01*
X163195237Y-79802438D02*
X163052380Y-79754819D01*
X163052380Y-79754819D02*
X162957142Y-79754819D01*
X162957142Y-79754819D02*
X162814285Y-79802438D01*
X162814285Y-79802438D02*
X162766666Y-79850057D01*
X162433332Y-79754819D02*
X161766666Y-79754819D01*
X161766666Y-79754819D02*
X162195237Y-80754819D01*
%TO.C,R29*%
X124942857Y-88854819D02*
X125276190Y-88378628D01*
X125514285Y-88854819D02*
X125514285Y-87854819D01*
X125514285Y-87854819D02*
X125133333Y-87854819D01*
X125133333Y-87854819D02*
X125038095Y-87902438D01*
X125038095Y-87902438D02*
X124990476Y-87950057D01*
X124990476Y-87950057D02*
X124942857Y-88045295D01*
X124942857Y-88045295D02*
X124942857Y-88188152D01*
X124942857Y-88188152D02*
X124990476Y-88283390D01*
X124990476Y-88283390D02*
X125038095Y-88331009D01*
X125038095Y-88331009D02*
X125133333Y-88378628D01*
X125133333Y-88378628D02*
X125514285Y-88378628D01*
X124561904Y-87950057D02*
X124514285Y-87902438D01*
X124514285Y-87902438D02*
X124419047Y-87854819D01*
X124419047Y-87854819D02*
X124180952Y-87854819D01*
X124180952Y-87854819D02*
X124085714Y-87902438D01*
X124085714Y-87902438D02*
X124038095Y-87950057D01*
X124038095Y-87950057D02*
X123990476Y-88045295D01*
X123990476Y-88045295D02*
X123990476Y-88140533D01*
X123990476Y-88140533D02*
X124038095Y-88283390D01*
X124038095Y-88283390D02*
X124609523Y-88854819D01*
X124609523Y-88854819D02*
X123990476Y-88854819D01*
X123514285Y-88854819D02*
X123323809Y-88854819D01*
X123323809Y-88854819D02*
X123228571Y-88807200D01*
X123228571Y-88807200D02*
X123180952Y-88759580D01*
X123180952Y-88759580D02*
X123085714Y-88616723D01*
X123085714Y-88616723D02*
X123038095Y-88426247D01*
X123038095Y-88426247D02*
X123038095Y-88045295D01*
X123038095Y-88045295D02*
X123085714Y-87950057D01*
X123085714Y-87950057D02*
X123133333Y-87902438D01*
X123133333Y-87902438D02*
X123228571Y-87854819D01*
X123228571Y-87854819D02*
X123419047Y-87854819D01*
X123419047Y-87854819D02*
X123514285Y-87902438D01*
X123514285Y-87902438D02*
X123561904Y-87950057D01*
X123561904Y-87950057D02*
X123609523Y-88045295D01*
X123609523Y-88045295D02*
X123609523Y-88283390D01*
X123609523Y-88283390D02*
X123561904Y-88378628D01*
X123561904Y-88378628D02*
X123514285Y-88426247D01*
X123514285Y-88426247D02*
X123419047Y-88473866D01*
X123419047Y-88473866D02*
X123228571Y-88473866D01*
X123228571Y-88473866D02*
X123133333Y-88426247D01*
X123133333Y-88426247D02*
X123085714Y-88378628D01*
X123085714Y-88378628D02*
X123038095Y-88283390D01*
%TO.C,R41*%
X203554819Y-96957142D02*
X203078628Y-96623809D01*
X203554819Y-96385714D02*
X202554819Y-96385714D01*
X202554819Y-96385714D02*
X202554819Y-96766666D01*
X202554819Y-96766666D02*
X202602438Y-96861904D01*
X202602438Y-96861904D02*
X202650057Y-96909523D01*
X202650057Y-96909523D02*
X202745295Y-96957142D01*
X202745295Y-96957142D02*
X202888152Y-96957142D01*
X202888152Y-96957142D02*
X202983390Y-96909523D01*
X202983390Y-96909523D02*
X203031009Y-96861904D01*
X203031009Y-96861904D02*
X203078628Y-96766666D01*
X203078628Y-96766666D02*
X203078628Y-96385714D01*
X202888152Y-97814285D02*
X203554819Y-97814285D01*
X202507200Y-97576190D02*
X203221485Y-97338095D01*
X203221485Y-97338095D02*
X203221485Y-97957142D01*
X203554819Y-98861904D02*
X203554819Y-98290476D01*
X203554819Y-98576190D02*
X202554819Y-98576190D01*
X202554819Y-98576190D02*
X202697676Y-98480952D01*
X202697676Y-98480952D02*
X202792914Y-98385714D01*
X202792914Y-98385714D02*
X202840533Y-98290476D01*
%TO.C,R24*%
X159254819Y-58157142D02*
X158778628Y-57823809D01*
X159254819Y-57585714D02*
X158254819Y-57585714D01*
X158254819Y-57585714D02*
X158254819Y-57966666D01*
X158254819Y-57966666D02*
X158302438Y-58061904D01*
X158302438Y-58061904D02*
X158350057Y-58109523D01*
X158350057Y-58109523D02*
X158445295Y-58157142D01*
X158445295Y-58157142D02*
X158588152Y-58157142D01*
X158588152Y-58157142D02*
X158683390Y-58109523D01*
X158683390Y-58109523D02*
X158731009Y-58061904D01*
X158731009Y-58061904D02*
X158778628Y-57966666D01*
X158778628Y-57966666D02*
X158778628Y-57585714D01*
X158350057Y-58538095D02*
X158302438Y-58585714D01*
X158302438Y-58585714D02*
X158254819Y-58680952D01*
X158254819Y-58680952D02*
X158254819Y-58919047D01*
X158254819Y-58919047D02*
X158302438Y-59014285D01*
X158302438Y-59014285D02*
X158350057Y-59061904D01*
X158350057Y-59061904D02*
X158445295Y-59109523D01*
X158445295Y-59109523D02*
X158540533Y-59109523D01*
X158540533Y-59109523D02*
X158683390Y-59061904D01*
X158683390Y-59061904D02*
X159254819Y-58490476D01*
X159254819Y-58490476D02*
X159254819Y-59109523D01*
X158588152Y-59966666D02*
X159254819Y-59966666D01*
X158207200Y-59728571D02*
X158921485Y-59490476D01*
X158921485Y-59490476D02*
X158921485Y-60109523D01*
%TO.C,C12*%
X166778571Y-75922842D02*
X166821428Y-75965700D01*
X166821428Y-75965700D02*
X166950000Y-76008557D01*
X166950000Y-76008557D02*
X167035714Y-76008557D01*
X167035714Y-76008557D02*
X167164285Y-75965700D01*
X167164285Y-75965700D02*
X167250000Y-75879985D01*
X167250000Y-75879985D02*
X167292857Y-75794271D01*
X167292857Y-75794271D02*
X167335714Y-75622842D01*
X167335714Y-75622842D02*
X167335714Y-75494271D01*
X167335714Y-75494271D02*
X167292857Y-75322842D01*
X167292857Y-75322842D02*
X167250000Y-75237128D01*
X167250000Y-75237128D02*
X167164285Y-75151414D01*
X167164285Y-75151414D02*
X167035714Y-75108557D01*
X167035714Y-75108557D02*
X166950000Y-75108557D01*
X166950000Y-75108557D02*
X166821428Y-75151414D01*
X166821428Y-75151414D02*
X166778571Y-75194271D01*
X165921428Y-76008557D02*
X166435714Y-76008557D01*
X166178571Y-76008557D02*
X166178571Y-75108557D01*
X166178571Y-75108557D02*
X166264285Y-75237128D01*
X166264285Y-75237128D02*
X166350000Y-75322842D01*
X166350000Y-75322842D02*
X166435714Y-75365700D01*
X165578571Y-75194271D02*
X165535714Y-75151414D01*
X165535714Y-75151414D02*
X165450000Y-75108557D01*
X165450000Y-75108557D02*
X165235714Y-75108557D01*
X165235714Y-75108557D02*
X165150000Y-75151414D01*
X165150000Y-75151414D02*
X165107142Y-75194271D01*
X165107142Y-75194271D02*
X165064285Y-75279985D01*
X165064285Y-75279985D02*
X165064285Y-75365700D01*
X165064285Y-75365700D02*
X165107142Y-75494271D01*
X165107142Y-75494271D02*
X165621428Y-76008557D01*
X165621428Y-76008557D02*
X165064285Y-76008557D01*
%TO.C,C11*%
X156899580Y-77157142D02*
X156947200Y-77109523D01*
X156947200Y-77109523D02*
X156994819Y-76966666D01*
X156994819Y-76966666D02*
X156994819Y-76871428D01*
X156994819Y-76871428D02*
X156947200Y-76728571D01*
X156947200Y-76728571D02*
X156851961Y-76633333D01*
X156851961Y-76633333D02*
X156756723Y-76585714D01*
X156756723Y-76585714D02*
X156566247Y-76538095D01*
X156566247Y-76538095D02*
X156423390Y-76538095D01*
X156423390Y-76538095D02*
X156232914Y-76585714D01*
X156232914Y-76585714D02*
X156137676Y-76633333D01*
X156137676Y-76633333D02*
X156042438Y-76728571D01*
X156042438Y-76728571D02*
X155994819Y-76871428D01*
X155994819Y-76871428D02*
X155994819Y-76966666D01*
X155994819Y-76966666D02*
X156042438Y-77109523D01*
X156042438Y-77109523D02*
X156090057Y-77157142D01*
X156994819Y-78109523D02*
X156994819Y-77538095D01*
X156994819Y-77823809D02*
X155994819Y-77823809D01*
X155994819Y-77823809D02*
X156137676Y-77728571D01*
X156137676Y-77728571D02*
X156232914Y-77633333D01*
X156232914Y-77633333D02*
X156280533Y-77538095D01*
X156994819Y-79061904D02*
X156994819Y-78490476D01*
X156994819Y-78776190D02*
X155994819Y-78776190D01*
X155994819Y-78776190D02*
X156137676Y-78680952D01*
X156137676Y-78680952D02*
X156232914Y-78585714D01*
X156232914Y-78585714D02*
X156280533Y-78490476D01*
%TO.C,Q2*%
X171295238Y-79250057D02*
X171390476Y-79202438D01*
X171390476Y-79202438D02*
X171485714Y-79107200D01*
X171485714Y-79107200D02*
X171628571Y-78964342D01*
X171628571Y-78964342D02*
X171723809Y-78916723D01*
X171723809Y-78916723D02*
X171819047Y-78916723D01*
X171771428Y-79154819D02*
X171866666Y-79107200D01*
X171866666Y-79107200D02*
X171961904Y-79011961D01*
X171961904Y-79011961D02*
X172009523Y-78821485D01*
X172009523Y-78821485D02*
X172009523Y-78488152D01*
X172009523Y-78488152D02*
X171961904Y-78297676D01*
X171961904Y-78297676D02*
X171866666Y-78202438D01*
X171866666Y-78202438D02*
X171771428Y-78154819D01*
X171771428Y-78154819D02*
X171580952Y-78154819D01*
X171580952Y-78154819D02*
X171485714Y-78202438D01*
X171485714Y-78202438D02*
X171390476Y-78297676D01*
X171390476Y-78297676D02*
X171342857Y-78488152D01*
X171342857Y-78488152D02*
X171342857Y-78821485D01*
X171342857Y-78821485D02*
X171390476Y-79011961D01*
X171390476Y-79011961D02*
X171485714Y-79107200D01*
X171485714Y-79107200D02*
X171580952Y-79154819D01*
X171580952Y-79154819D02*
X171771428Y-79154819D01*
X170961904Y-78250057D02*
X170914285Y-78202438D01*
X170914285Y-78202438D02*
X170819047Y-78154819D01*
X170819047Y-78154819D02*
X170580952Y-78154819D01*
X170580952Y-78154819D02*
X170485714Y-78202438D01*
X170485714Y-78202438D02*
X170438095Y-78250057D01*
X170438095Y-78250057D02*
X170390476Y-78345295D01*
X170390476Y-78345295D02*
X170390476Y-78440533D01*
X170390476Y-78440533D02*
X170438095Y-78583390D01*
X170438095Y-78583390D02*
X171009523Y-79154819D01*
X171009523Y-79154819D02*
X170390476Y-79154819D01*
%TO.C,C9*%
X162466666Y-91759580D02*
X162514285Y-91807200D01*
X162514285Y-91807200D02*
X162657142Y-91854819D01*
X162657142Y-91854819D02*
X162752380Y-91854819D01*
X162752380Y-91854819D02*
X162895237Y-91807200D01*
X162895237Y-91807200D02*
X162990475Y-91711961D01*
X162990475Y-91711961D02*
X163038094Y-91616723D01*
X163038094Y-91616723D02*
X163085713Y-91426247D01*
X163085713Y-91426247D02*
X163085713Y-91283390D01*
X163085713Y-91283390D02*
X163038094Y-91092914D01*
X163038094Y-91092914D02*
X162990475Y-90997676D01*
X162990475Y-90997676D02*
X162895237Y-90902438D01*
X162895237Y-90902438D02*
X162752380Y-90854819D01*
X162752380Y-90854819D02*
X162657142Y-90854819D01*
X162657142Y-90854819D02*
X162514285Y-90902438D01*
X162514285Y-90902438D02*
X162466666Y-90950057D01*
X161990475Y-91854819D02*
X161799999Y-91854819D01*
X161799999Y-91854819D02*
X161704761Y-91807200D01*
X161704761Y-91807200D02*
X161657142Y-91759580D01*
X161657142Y-91759580D02*
X161561904Y-91616723D01*
X161561904Y-91616723D02*
X161514285Y-91426247D01*
X161514285Y-91426247D02*
X161514285Y-91045295D01*
X161514285Y-91045295D02*
X161561904Y-90950057D01*
X161561904Y-90950057D02*
X161609523Y-90902438D01*
X161609523Y-90902438D02*
X161704761Y-90854819D01*
X161704761Y-90854819D02*
X161895237Y-90854819D01*
X161895237Y-90854819D02*
X161990475Y-90902438D01*
X161990475Y-90902438D02*
X162038094Y-90950057D01*
X162038094Y-90950057D02*
X162085713Y-91045295D01*
X162085713Y-91045295D02*
X162085713Y-91283390D01*
X162085713Y-91283390D02*
X162038094Y-91378628D01*
X162038094Y-91378628D02*
X161990475Y-91426247D01*
X161990475Y-91426247D02*
X161895237Y-91473866D01*
X161895237Y-91473866D02*
X161704761Y-91473866D01*
X161704761Y-91473866D02*
X161609523Y-91426247D01*
X161609523Y-91426247D02*
X161561904Y-91378628D01*
X161561904Y-91378628D02*
X161514285Y-91283390D01*
%TO.C,R2*%
X215566666Y-86554819D02*
X215899999Y-86078628D01*
X216138094Y-86554819D02*
X216138094Y-85554819D01*
X216138094Y-85554819D02*
X215757142Y-85554819D01*
X215757142Y-85554819D02*
X215661904Y-85602438D01*
X215661904Y-85602438D02*
X215614285Y-85650057D01*
X215614285Y-85650057D02*
X215566666Y-85745295D01*
X215566666Y-85745295D02*
X215566666Y-85888152D01*
X215566666Y-85888152D02*
X215614285Y-85983390D01*
X215614285Y-85983390D02*
X215661904Y-86031009D01*
X215661904Y-86031009D02*
X215757142Y-86078628D01*
X215757142Y-86078628D02*
X216138094Y-86078628D01*
X215185713Y-85650057D02*
X215138094Y-85602438D01*
X215138094Y-85602438D02*
X215042856Y-85554819D01*
X215042856Y-85554819D02*
X214804761Y-85554819D01*
X214804761Y-85554819D02*
X214709523Y-85602438D01*
X214709523Y-85602438D02*
X214661904Y-85650057D01*
X214661904Y-85650057D02*
X214614285Y-85745295D01*
X214614285Y-85745295D02*
X214614285Y-85840533D01*
X214614285Y-85840533D02*
X214661904Y-85983390D01*
X214661904Y-85983390D02*
X215233332Y-86554819D01*
X215233332Y-86554819D02*
X214614285Y-86554819D01*
%TO.C,U4*%
X163439404Y-82854819D02*
X163439404Y-83664342D01*
X163439404Y-83664342D02*
X163391785Y-83759580D01*
X163391785Y-83759580D02*
X163344166Y-83807200D01*
X163344166Y-83807200D02*
X163248928Y-83854819D01*
X163248928Y-83854819D02*
X163058452Y-83854819D01*
X163058452Y-83854819D02*
X162963214Y-83807200D01*
X162963214Y-83807200D02*
X162915595Y-83759580D01*
X162915595Y-83759580D02*
X162867976Y-83664342D01*
X162867976Y-83664342D02*
X162867976Y-82854819D01*
X161963214Y-83188152D02*
X161963214Y-83854819D01*
X162201309Y-82807200D02*
X162439404Y-83521485D01*
X162439404Y-83521485D02*
X161820357Y-83521485D01*
%TO.C,D10*%
X131280235Y-81262975D02*
X130573128Y-80555869D01*
X130573128Y-80555869D02*
X130404769Y-80724227D01*
X130404769Y-80724227D02*
X130337426Y-80858914D01*
X130337426Y-80858914D02*
X130337426Y-80993601D01*
X130337426Y-80993601D02*
X130371098Y-81094617D01*
X130371098Y-81094617D02*
X130472113Y-81262975D01*
X130472113Y-81262975D02*
X130573128Y-81363991D01*
X130573128Y-81363991D02*
X130741487Y-81465006D01*
X130741487Y-81465006D02*
X130842502Y-81498678D01*
X130842502Y-81498678D02*
X130977189Y-81498678D01*
X130977189Y-81498678D02*
X131111876Y-81431334D01*
X131111876Y-81431334D02*
X131280235Y-81262975D01*
X130202739Y-82340471D02*
X130606800Y-81936410D01*
X130404769Y-82138441D02*
X129697663Y-81431334D01*
X129697663Y-81431334D02*
X129866021Y-81465006D01*
X129866021Y-81465006D02*
X130000708Y-81465006D01*
X130000708Y-81465006D02*
X130101724Y-81431334D01*
X129057899Y-82071098D02*
X128990556Y-82138441D01*
X128990556Y-82138441D02*
X128956884Y-82239456D01*
X128956884Y-82239456D02*
X128956884Y-82306800D01*
X128956884Y-82306800D02*
X128990556Y-82407815D01*
X128990556Y-82407815D02*
X129091571Y-82576174D01*
X129091571Y-82576174D02*
X129259930Y-82744533D01*
X129259930Y-82744533D02*
X129428288Y-82845548D01*
X129428288Y-82845548D02*
X129529304Y-82879220D01*
X129529304Y-82879220D02*
X129596647Y-82879220D01*
X129596647Y-82879220D02*
X129697662Y-82845548D01*
X129697662Y-82845548D02*
X129765006Y-82778204D01*
X129765006Y-82778204D02*
X129798678Y-82677189D01*
X129798678Y-82677189D02*
X129798678Y-82609846D01*
X129798678Y-82609846D02*
X129765006Y-82508830D01*
X129765006Y-82508830D02*
X129663991Y-82340472D01*
X129663991Y-82340472D02*
X129495632Y-82172113D01*
X129495632Y-82172113D02*
X129327273Y-82071098D01*
X129327273Y-82071098D02*
X129226258Y-82037426D01*
X129226258Y-82037426D02*
X129158914Y-82037426D01*
X129158914Y-82037426D02*
X129057899Y-82071098D01*
%TO.C,R6*%
X206951666Y-77969819D02*
X207284999Y-77493628D01*
X207523094Y-77969819D02*
X207523094Y-76969819D01*
X207523094Y-76969819D02*
X207142142Y-76969819D01*
X207142142Y-76969819D02*
X207046904Y-77017438D01*
X207046904Y-77017438D02*
X206999285Y-77065057D01*
X206999285Y-77065057D02*
X206951666Y-77160295D01*
X206951666Y-77160295D02*
X206951666Y-77303152D01*
X206951666Y-77303152D02*
X206999285Y-77398390D01*
X206999285Y-77398390D02*
X207046904Y-77446009D01*
X207046904Y-77446009D02*
X207142142Y-77493628D01*
X207142142Y-77493628D02*
X207523094Y-77493628D01*
X206094523Y-76969819D02*
X206284999Y-76969819D01*
X206284999Y-76969819D02*
X206380237Y-77017438D01*
X206380237Y-77017438D02*
X206427856Y-77065057D01*
X206427856Y-77065057D02*
X206523094Y-77207914D01*
X206523094Y-77207914D02*
X206570713Y-77398390D01*
X206570713Y-77398390D02*
X206570713Y-77779342D01*
X206570713Y-77779342D02*
X206523094Y-77874580D01*
X206523094Y-77874580D02*
X206475475Y-77922200D01*
X206475475Y-77922200D02*
X206380237Y-77969819D01*
X206380237Y-77969819D02*
X206189761Y-77969819D01*
X206189761Y-77969819D02*
X206094523Y-77922200D01*
X206094523Y-77922200D02*
X206046904Y-77874580D01*
X206046904Y-77874580D02*
X205999285Y-77779342D01*
X205999285Y-77779342D02*
X205999285Y-77541247D01*
X205999285Y-77541247D02*
X206046904Y-77446009D01*
X206046904Y-77446009D02*
X206094523Y-77398390D01*
X206094523Y-77398390D02*
X206189761Y-77350771D01*
X206189761Y-77350771D02*
X206380237Y-77350771D01*
X206380237Y-77350771D02*
X206475475Y-77398390D01*
X206475475Y-77398390D02*
X206523094Y-77446009D01*
X206523094Y-77446009D02*
X206570713Y-77541247D01*
%TO.C,R4*%
X212601666Y-77969819D02*
X212934999Y-77493628D01*
X213173094Y-77969819D02*
X213173094Y-76969819D01*
X213173094Y-76969819D02*
X212792142Y-76969819D01*
X212792142Y-76969819D02*
X212696904Y-77017438D01*
X212696904Y-77017438D02*
X212649285Y-77065057D01*
X212649285Y-77065057D02*
X212601666Y-77160295D01*
X212601666Y-77160295D02*
X212601666Y-77303152D01*
X212601666Y-77303152D02*
X212649285Y-77398390D01*
X212649285Y-77398390D02*
X212696904Y-77446009D01*
X212696904Y-77446009D02*
X212792142Y-77493628D01*
X212792142Y-77493628D02*
X213173094Y-77493628D01*
X211744523Y-77303152D02*
X211744523Y-77969819D01*
X211982618Y-76922200D02*
X212220713Y-77636485D01*
X212220713Y-77636485D02*
X211601666Y-77636485D01*
%TO.C,D6*%
X166754819Y-54461905D02*
X165754819Y-54461905D01*
X165754819Y-54461905D02*
X165754819Y-54700000D01*
X165754819Y-54700000D02*
X165802438Y-54842857D01*
X165802438Y-54842857D02*
X165897676Y-54938095D01*
X165897676Y-54938095D02*
X165992914Y-54985714D01*
X165992914Y-54985714D02*
X166183390Y-55033333D01*
X166183390Y-55033333D02*
X166326247Y-55033333D01*
X166326247Y-55033333D02*
X166516723Y-54985714D01*
X166516723Y-54985714D02*
X166611961Y-54938095D01*
X166611961Y-54938095D02*
X166707200Y-54842857D01*
X166707200Y-54842857D02*
X166754819Y-54700000D01*
X166754819Y-54700000D02*
X166754819Y-54461905D01*
X165754819Y-55890476D02*
X165754819Y-55700000D01*
X165754819Y-55700000D02*
X165802438Y-55604762D01*
X165802438Y-55604762D02*
X165850057Y-55557143D01*
X165850057Y-55557143D02*
X165992914Y-55461905D01*
X165992914Y-55461905D02*
X166183390Y-55414286D01*
X166183390Y-55414286D02*
X166564342Y-55414286D01*
X166564342Y-55414286D02*
X166659580Y-55461905D01*
X166659580Y-55461905D02*
X166707200Y-55509524D01*
X166707200Y-55509524D02*
X166754819Y-55604762D01*
X166754819Y-55604762D02*
X166754819Y-55795238D01*
X166754819Y-55795238D02*
X166707200Y-55890476D01*
X166707200Y-55890476D02*
X166659580Y-55938095D01*
X166659580Y-55938095D02*
X166564342Y-55985714D01*
X166564342Y-55985714D02*
X166326247Y-55985714D01*
X166326247Y-55985714D02*
X166231009Y-55938095D01*
X166231009Y-55938095D02*
X166183390Y-55890476D01*
X166183390Y-55890476D02*
X166135771Y-55795238D01*
X166135771Y-55795238D02*
X166135771Y-55604762D01*
X166135771Y-55604762D02*
X166183390Y-55509524D01*
X166183390Y-55509524D02*
X166231009Y-55461905D01*
X166231009Y-55461905D02*
X166326247Y-55414286D01*
%TO.C,R3*%
X213454819Y-80033333D02*
X212978628Y-79700000D01*
X213454819Y-79461905D02*
X212454819Y-79461905D01*
X212454819Y-79461905D02*
X212454819Y-79842857D01*
X212454819Y-79842857D02*
X212502438Y-79938095D01*
X212502438Y-79938095D02*
X212550057Y-79985714D01*
X212550057Y-79985714D02*
X212645295Y-80033333D01*
X212645295Y-80033333D02*
X212788152Y-80033333D01*
X212788152Y-80033333D02*
X212883390Y-79985714D01*
X212883390Y-79985714D02*
X212931009Y-79938095D01*
X212931009Y-79938095D02*
X212978628Y-79842857D01*
X212978628Y-79842857D02*
X212978628Y-79461905D01*
X212454819Y-80366667D02*
X212454819Y-80985714D01*
X212454819Y-80985714D02*
X212835771Y-80652381D01*
X212835771Y-80652381D02*
X212835771Y-80795238D01*
X212835771Y-80795238D02*
X212883390Y-80890476D01*
X212883390Y-80890476D02*
X212931009Y-80938095D01*
X212931009Y-80938095D02*
X213026247Y-80985714D01*
X213026247Y-80985714D02*
X213264342Y-80985714D01*
X213264342Y-80985714D02*
X213359580Y-80938095D01*
X213359580Y-80938095D02*
X213407200Y-80890476D01*
X213407200Y-80890476D02*
X213454819Y-80795238D01*
X213454819Y-80795238D02*
X213454819Y-80509524D01*
X213454819Y-80509524D02*
X213407200Y-80414286D01*
X213407200Y-80414286D02*
X213359580Y-80366667D01*
%TO.C,Q7*%
X166850057Y-59304761D02*
X166802438Y-59209523D01*
X166802438Y-59209523D02*
X166707200Y-59114285D01*
X166707200Y-59114285D02*
X166564342Y-58971428D01*
X166564342Y-58971428D02*
X166516723Y-58876190D01*
X166516723Y-58876190D02*
X166516723Y-58780952D01*
X166754819Y-58828571D02*
X166707200Y-58733333D01*
X166707200Y-58733333D02*
X166611961Y-58638095D01*
X166611961Y-58638095D02*
X166421485Y-58590476D01*
X166421485Y-58590476D02*
X166088152Y-58590476D01*
X166088152Y-58590476D02*
X165897676Y-58638095D01*
X165897676Y-58638095D02*
X165802438Y-58733333D01*
X165802438Y-58733333D02*
X165754819Y-58828571D01*
X165754819Y-58828571D02*
X165754819Y-59019047D01*
X165754819Y-59019047D02*
X165802438Y-59114285D01*
X165802438Y-59114285D02*
X165897676Y-59209523D01*
X165897676Y-59209523D02*
X166088152Y-59257142D01*
X166088152Y-59257142D02*
X166421485Y-59257142D01*
X166421485Y-59257142D02*
X166611961Y-59209523D01*
X166611961Y-59209523D02*
X166707200Y-59114285D01*
X166707200Y-59114285D02*
X166754819Y-59019047D01*
X166754819Y-59019047D02*
X166754819Y-58828571D01*
X165754819Y-59590476D02*
X165754819Y-60257142D01*
X165754819Y-60257142D02*
X166754819Y-59828571D01*
%TO.C,R40*%
X212154819Y-94457142D02*
X211678628Y-94123809D01*
X212154819Y-93885714D02*
X211154819Y-93885714D01*
X211154819Y-93885714D02*
X211154819Y-94266666D01*
X211154819Y-94266666D02*
X211202438Y-94361904D01*
X211202438Y-94361904D02*
X211250057Y-94409523D01*
X211250057Y-94409523D02*
X211345295Y-94457142D01*
X211345295Y-94457142D02*
X211488152Y-94457142D01*
X211488152Y-94457142D02*
X211583390Y-94409523D01*
X211583390Y-94409523D02*
X211631009Y-94361904D01*
X211631009Y-94361904D02*
X211678628Y-94266666D01*
X211678628Y-94266666D02*
X211678628Y-93885714D01*
X211488152Y-95314285D02*
X212154819Y-95314285D01*
X211107200Y-95076190D02*
X211821485Y-94838095D01*
X211821485Y-94838095D02*
X211821485Y-95457142D01*
X211154819Y-96028571D02*
X211154819Y-96123809D01*
X211154819Y-96123809D02*
X211202438Y-96219047D01*
X211202438Y-96219047D02*
X211250057Y-96266666D01*
X211250057Y-96266666D02*
X211345295Y-96314285D01*
X211345295Y-96314285D02*
X211535771Y-96361904D01*
X211535771Y-96361904D02*
X211773866Y-96361904D01*
X211773866Y-96361904D02*
X211964342Y-96314285D01*
X211964342Y-96314285D02*
X212059580Y-96266666D01*
X212059580Y-96266666D02*
X212107200Y-96219047D01*
X212107200Y-96219047D02*
X212154819Y-96123809D01*
X212154819Y-96123809D02*
X212154819Y-96028571D01*
X212154819Y-96028571D02*
X212107200Y-95933333D01*
X212107200Y-95933333D02*
X212059580Y-95885714D01*
X212059580Y-95885714D02*
X211964342Y-95838095D01*
X211964342Y-95838095D02*
X211773866Y-95790476D01*
X211773866Y-95790476D02*
X211535771Y-95790476D01*
X211535771Y-95790476D02*
X211345295Y-95838095D01*
X211345295Y-95838095D02*
X211250057Y-95885714D01*
X211250057Y-95885714D02*
X211202438Y-95933333D01*
X211202438Y-95933333D02*
X211154819Y-96028571D01*
%TO.C,R26*%
X151042857Y-54204819D02*
X151376190Y-53728628D01*
X151614285Y-54204819D02*
X151614285Y-53204819D01*
X151614285Y-53204819D02*
X151233333Y-53204819D01*
X151233333Y-53204819D02*
X151138095Y-53252438D01*
X151138095Y-53252438D02*
X151090476Y-53300057D01*
X151090476Y-53300057D02*
X151042857Y-53395295D01*
X151042857Y-53395295D02*
X151042857Y-53538152D01*
X151042857Y-53538152D02*
X151090476Y-53633390D01*
X151090476Y-53633390D02*
X151138095Y-53681009D01*
X151138095Y-53681009D02*
X151233333Y-53728628D01*
X151233333Y-53728628D02*
X151614285Y-53728628D01*
X150661904Y-53300057D02*
X150614285Y-53252438D01*
X150614285Y-53252438D02*
X150519047Y-53204819D01*
X150519047Y-53204819D02*
X150280952Y-53204819D01*
X150280952Y-53204819D02*
X150185714Y-53252438D01*
X150185714Y-53252438D02*
X150138095Y-53300057D01*
X150138095Y-53300057D02*
X150090476Y-53395295D01*
X150090476Y-53395295D02*
X150090476Y-53490533D01*
X150090476Y-53490533D02*
X150138095Y-53633390D01*
X150138095Y-53633390D02*
X150709523Y-54204819D01*
X150709523Y-54204819D02*
X150090476Y-54204819D01*
X149233333Y-53204819D02*
X149423809Y-53204819D01*
X149423809Y-53204819D02*
X149519047Y-53252438D01*
X149519047Y-53252438D02*
X149566666Y-53300057D01*
X149566666Y-53300057D02*
X149661904Y-53442914D01*
X149661904Y-53442914D02*
X149709523Y-53633390D01*
X149709523Y-53633390D02*
X149709523Y-54014342D01*
X149709523Y-54014342D02*
X149661904Y-54109580D01*
X149661904Y-54109580D02*
X149614285Y-54157200D01*
X149614285Y-54157200D02*
X149519047Y-54204819D01*
X149519047Y-54204819D02*
X149328571Y-54204819D01*
X149328571Y-54204819D02*
X149233333Y-54157200D01*
X149233333Y-54157200D02*
X149185714Y-54109580D01*
X149185714Y-54109580D02*
X149138095Y-54014342D01*
X149138095Y-54014342D02*
X149138095Y-53776247D01*
X149138095Y-53776247D02*
X149185714Y-53681009D01*
X149185714Y-53681009D02*
X149233333Y-53633390D01*
X149233333Y-53633390D02*
X149328571Y-53585771D01*
X149328571Y-53585771D02*
X149519047Y-53585771D01*
X149519047Y-53585771D02*
X149614285Y-53633390D01*
X149614285Y-53633390D02*
X149661904Y-53681009D01*
X149661904Y-53681009D02*
X149709523Y-53776247D01*
%TO.C,C1*%
X215959580Y-83953333D02*
X216007200Y-83905714D01*
X216007200Y-83905714D02*
X216054819Y-83762857D01*
X216054819Y-83762857D02*
X216054819Y-83667619D01*
X216054819Y-83667619D02*
X216007200Y-83524762D01*
X216007200Y-83524762D02*
X215911961Y-83429524D01*
X215911961Y-83429524D02*
X215816723Y-83381905D01*
X215816723Y-83381905D02*
X215626247Y-83334286D01*
X215626247Y-83334286D02*
X215483390Y-83334286D01*
X215483390Y-83334286D02*
X215292914Y-83381905D01*
X215292914Y-83381905D02*
X215197676Y-83429524D01*
X215197676Y-83429524D02*
X215102438Y-83524762D01*
X215102438Y-83524762D02*
X215054819Y-83667619D01*
X215054819Y-83667619D02*
X215054819Y-83762857D01*
X215054819Y-83762857D02*
X215102438Y-83905714D01*
X215102438Y-83905714D02*
X215150057Y-83953333D01*
X216054819Y-84905714D02*
X216054819Y-84334286D01*
X216054819Y-84620000D02*
X215054819Y-84620000D01*
X215054819Y-84620000D02*
X215197676Y-84524762D01*
X215197676Y-84524762D02*
X215292914Y-84429524D01*
X215292914Y-84429524D02*
X215340533Y-84334286D01*
%TO.C,R12*%
X155442857Y-73754819D02*
X155776190Y-73278628D01*
X156014285Y-73754819D02*
X156014285Y-72754819D01*
X156014285Y-72754819D02*
X155633333Y-72754819D01*
X155633333Y-72754819D02*
X155538095Y-72802438D01*
X155538095Y-72802438D02*
X155490476Y-72850057D01*
X155490476Y-72850057D02*
X155442857Y-72945295D01*
X155442857Y-72945295D02*
X155442857Y-73088152D01*
X155442857Y-73088152D02*
X155490476Y-73183390D01*
X155490476Y-73183390D02*
X155538095Y-73231009D01*
X155538095Y-73231009D02*
X155633333Y-73278628D01*
X155633333Y-73278628D02*
X156014285Y-73278628D01*
X154490476Y-73754819D02*
X155061904Y-73754819D01*
X154776190Y-73754819D02*
X154776190Y-72754819D01*
X154776190Y-72754819D02*
X154871428Y-72897676D01*
X154871428Y-72897676D02*
X154966666Y-72992914D01*
X154966666Y-72992914D02*
X155061904Y-73040533D01*
X154109523Y-72850057D02*
X154061904Y-72802438D01*
X154061904Y-72802438D02*
X153966666Y-72754819D01*
X153966666Y-72754819D02*
X153728571Y-72754819D01*
X153728571Y-72754819D02*
X153633333Y-72802438D01*
X153633333Y-72802438D02*
X153585714Y-72850057D01*
X153585714Y-72850057D02*
X153538095Y-72945295D01*
X153538095Y-72945295D02*
X153538095Y-73040533D01*
X153538095Y-73040533D02*
X153585714Y-73183390D01*
X153585714Y-73183390D02*
X154157142Y-73754819D01*
X154157142Y-73754819D02*
X153538095Y-73754819D01*
%TO.C,R17*%
X151454819Y-98957142D02*
X150978628Y-98623809D01*
X151454819Y-98385714D02*
X150454819Y-98385714D01*
X150454819Y-98385714D02*
X150454819Y-98766666D01*
X150454819Y-98766666D02*
X150502438Y-98861904D01*
X150502438Y-98861904D02*
X150550057Y-98909523D01*
X150550057Y-98909523D02*
X150645295Y-98957142D01*
X150645295Y-98957142D02*
X150788152Y-98957142D01*
X150788152Y-98957142D02*
X150883390Y-98909523D01*
X150883390Y-98909523D02*
X150931009Y-98861904D01*
X150931009Y-98861904D02*
X150978628Y-98766666D01*
X150978628Y-98766666D02*
X150978628Y-98385714D01*
X151454819Y-99909523D02*
X151454819Y-99338095D01*
X151454819Y-99623809D02*
X150454819Y-99623809D01*
X150454819Y-99623809D02*
X150597676Y-99528571D01*
X150597676Y-99528571D02*
X150692914Y-99433333D01*
X150692914Y-99433333D02*
X150740533Y-99338095D01*
X150454819Y-100242857D02*
X150454819Y-100909523D01*
X150454819Y-100909523D02*
X151454819Y-100480952D01*
%TO.C,D9*%
X127322205Y-81979383D02*
X126615098Y-81272277D01*
X126615098Y-81272277D02*
X126446739Y-81440635D01*
X126446739Y-81440635D02*
X126379396Y-81575322D01*
X126379396Y-81575322D02*
X126379396Y-81710009D01*
X126379396Y-81710009D02*
X126413068Y-81811025D01*
X126413068Y-81811025D02*
X126514083Y-81979383D01*
X126514083Y-81979383D02*
X126615098Y-82080399D01*
X126615098Y-82080399D02*
X126783457Y-82181414D01*
X126783457Y-82181414D02*
X126884472Y-82215086D01*
X126884472Y-82215086D02*
X127019159Y-82215086D01*
X127019159Y-82215086D02*
X127153846Y-82147742D01*
X127153846Y-82147742D02*
X127322205Y-81979383D01*
X126581426Y-82720162D02*
X126446739Y-82854849D01*
X126446739Y-82854849D02*
X126345724Y-82888521D01*
X126345724Y-82888521D02*
X126278381Y-82888521D01*
X126278381Y-82888521D02*
X126110022Y-82854849D01*
X126110022Y-82854849D02*
X125941663Y-82753834D01*
X125941663Y-82753834D02*
X125672289Y-82484460D01*
X125672289Y-82484460D02*
X125638617Y-82383444D01*
X125638617Y-82383444D02*
X125638617Y-82316101D01*
X125638617Y-82316101D02*
X125672289Y-82215086D01*
X125672289Y-82215086D02*
X125806976Y-82080399D01*
X125806976Y-82080399D02*
X125907991Y-82046727D01*
X125907991Y-82046727D02*
X125975335Y-82046727D01*
X125975335Y-82046727D02*
X126076350Y-82080399D01*
X126076350Y-82080399D02*
X126244709Y-82248757D01*
X126244709Y-82248757D02*
X126278381Y-82349773D01*
X126278381Y-82349773D02*
X126278381Y-82417116D01*
X126278381Y-82417116D02*
X126244709Y-82518131D01*
X126244709Y-82518131D02*
X126110022Y-82652818D01*
X126110022Y-82652818D02*
X126009007Y-82686490D01*
X126009007Y-82686490D02*
X125941663Y-82686490D01*
X125941663Y-82686490D02*
X125840648Y-82652818D01*
%TO.C,C3*%
X202359580Y-85833333D02*
X202407200Y-85785714D01*
X202407200Y-85785714D02*
X202454819Y-85642857D01*
X202454819Y-85642857D02*
X202454819Y-85547619D01*
X202454819Y-85547619D02*
X202407200Y-85404762D01*
X202407200Y-85404762D02*
X202311961Y-85309524D01*
X202311961Y-85309524D02*
X202216723Y-85261905D01*
X202216723Y-85261905D02*
X202026247Y-85214286D01*
X202026247Y-85214286D02*
X201883390Y-85214286D01*
X201883390Y-85214286D02*
X201692914Y-85261905D01*
X201692914Y-85261905D02*
X201597676Y-85309524D01*
X201597676Y-85309524D02*
X201502438Y-85404762D01*
X201502438Y-85404762D02*
X201454819Y-85547619D01*
X201454819Y-85547619D02*
X201454819Y-85642857D01*
X201454819Y-85642857D02*
X201502438Y-85785714D01*
X201502438Y-85785714D02*
X201550057Y-85833333D01*
X201454819Y-86166667D02*
X201454819Y-86785714D01*
X201454819Y-86785714D02*
X201835771Y-86452381D01*
X201835771Y-86452381D02*
X201835771Y-86595238D01*
X201835771Y-86595238D02*
X201883390Y-86690476D01*
X201883390Y-86690476D02*
X201931009Y-86738095D01*
X201931009Y-86738095D02*
X202026247Y-86785714D01*
X202026247Y-86785714D02*
X202264342Y-86785714D01*
X202264342Y-86785714D02*
X202359580Y-86738095D01*
X202359580Y-86738095D02*
X202407200Y-86690476D01*
X202407200Y-86690476D02*
X202454819Y-86595238D01*
X202454819Y-86595238D02*
X202454819Y-86309524D01*
X202454819Y-86309524D02*
X202407200Y-86214286D01*
X202407200Y-86214286D02*
X202359580Y-86166667D01*
%TO.C,C14*%
X129642857Y-85989580D02*
X129690476Y-86037200D01*
X129690476Y-86037200D02*
X129833333Y-86084819D01*
X129833333Y-86084819D02*
X129928571Y-86084819D01*
X129928571Y-86084819D02*
X130071428Y-86037200D01*
X130071428Y-86037200D02*
X130166666Y-85941961D01*
X130166666Y-85941961D02*
X130214285Y-85846723D01*
X130214285Y-85846723D02*
X130261904Y-85656247D01*
X130261904Y-85656247D02*
X130261904Y-85513390D01*
X130261904Y-85513390D02*
X130214285Y-85322914D01*
X130214285Y-85322914D02*
X130166666Y-85227676D01*
X130166666Y-85227676D02*
X130071428Y-85132438D01*
X130071428Y-85132438D02*
X129928571Y-85084819D01*
X129928571Y-85084819D02*
X129833333Y-85084819D01*
X129833333Y-85084819D02*
X129690476Y-85132438D01*
X129690476Y-85132438D02*
X129642857Y-85180057D01*
X128690476Y-86084819D02*
X129261904Y-86084819D01*
X128976190Y-86084819D02*
X128976190Y-85084819D01*
X128976190Y-85084819D02*
X129071428Y-85227676D01*
X129071428Y-85227676D02*
X129166666Y-85322914D01*
X129166666Y-85322914D02*
X129261904Y-85370533D01*
X127833333Y-85418152D02*
X127833333Y-86084819D01*
X128071428Y-85037200D02*
X128309523Y-85751485D01*
X128309523Y-85751485D02*
X127690476Y-85751485D01*
%TO.C,C18*%
X111159580Y-83257142D02*
X111207200Y-83209523D01*
X111207200Y-83209523D02*
X111254819Y-83066666D01*
X111254819Y-83066666D02*
X111254819Y-82971428D01*
X111254819Y-82971428D02*
X111207200Y-82828571D01*
X111207200Y-82828571D02*
X111111961Y-82733333D01*
X111111961Y-82733333D02*
X111016723Y-82685714D01*
X111016723Y-82685714D02*
X110826247Y-82638095D01*
X110826247Y-82638095D02*
X110683390Y-82638095D01*
X110683390Y-82638095D02*
X110492914Y-82685714D01*
X110492914Y-82685714D02*
X110397676Y-82733333D01*
X110397676Y-82733333D02*
X110302438Y-82828571D01*
X110302438Y-82828571D02*
X110254819Y-82971428D01*
X110254819Y-82971428D02*
X110254819Y-83066666D01*
X110254819Y-83066666D02*
X110302438Y-83209523D01*
X110302438Y-83209523D02*
X110350057Y-83257142D01*
X111254819Y-84209523D02*
X111254819Y-83638095D01*
X111254819Y-83923809D02*
X110254819Y-83923809D01*
X110254819Y-83923809D02*
X110397676Y-83828571D01*
X110397676Y-83828571D02*
X110492914Y-83733333D01*
X110492914Y-83733333D02*
X110540533Y-83638095D01*
X110683390Y-84780952D02*
X110635771Y-84685714D01*
X110635771Y-84685714D02*
X110588152Y-84638095D01*
X110588152Y-84638095D02*
X110492914Y-84590476D01*
X110492914Y-84590476D02*
X110445295Y-84590476D01*
X110445295Y-84590476D02*
X110350057Y-84638095D01*
X110350057Y-84638095D02*
X110302438Y-84685714D01*
X110302438Y-84685714D02*
X110254819Y-84780952D01*
X110254819Y-84780952D02*
X110254819Y-84971428D01*
X110254819Y-84971428D02*
X110302438Y-85066666D01*
X110302438Y-85066666D02*
X110350057Y-85114285D01*
X110350057Y-85114285D02*
X110445295Y-85161904D01*
X110445295Y-85161904D02*
X110492914Y-85161904D01*
X110492914Y-85161904D02*
X110588152Y-85114285D01*
X110588152Y-85114285D02*
X110635771Y-85066666D01*
X110635771Y-85066666D02*
X110683390Y-84971428D01*
X110683390Y-84971428D02*
X110683390Y-84780952D01*
X110683390Y-84780952D02*
X110731009Y-84685714D01*
X110731009Y-84685714D02*
X110778628Y-84638095D01*
X110778628Y-84638095D02*
X110873866Y-84590476D01*
X110873866Y-84590476D02*
X111064342Y-84590476D01*
X111064342Y-84590476D02*
X111159580Y-84638095D01*
X111159580Y-84638095D02*
X111207200Y-84685714D01*
X111207200Y-84685714D02*
X111254819Y-84780952D01*
X111254819Y-84780952D02*
X111254819Y-84971428D01*
X111254819Y-84971428D02*
X111207200Y-85066666D01*
X111207200Y-85066666D02*
X111159580Y-85114285D01*
X111159580Y-85114285D02*
X111064342Y-85161904D01*
X111064342Y-85161904D02*
X110873866Y-85161904D01*
X110873866Y-85161904D02*
X110778628Y-85114285D01*
X110778628Y-85114285D02*
X110731009Y-85066666D01*
X110731009Y-85066666D02*
X110683390Y-84971428D01*
%TO.C,U1*%
X207436904Y-85539819D02*
X207436904Y-86349342D01*
X207436904Y-86349342D02*
X207389285Y-86444580D01*
X207389285Y-86444580D02*
X207341666Y-86492200D01*
X207341666Y-86492200D02*
X207246428Y-86539819D01*
X207246428Y-86539819D02*
X207055952Y-86539819D01*
X207055952Y-86539819D02*
X206960714Y-86492200D01*
X206960714Y-86492200D02*
X206913095Y-86444580D01*
X206913095Y-86444580D02*
X206865476Y-86349342D01*
X206865476Y-86349342D02*
X206865476Y-85539819D01*
X205865476Y-86539819D02*
X206436904Y-86539819D01*
X206151190Y-86539819D02*
X206151190Y-85539819D01*
X206151190Y-85539819D02*
X206246428Y-85682676D01*
X206246428Y-85682676D02*
X206341666Y-85777914D01*
X206341666Y-85777914D02*
X206436904Y-85825533D01*
%TO.C,R14*%
X166142857Y-66254819D02*
X166476190Y-65778628D01*
X166714285Y-66254819D02*
X166714285Y-65254819D01*
X166714285Y-65254819D02*
X166333333Y-65254819D01*
X166333333Y-65254819D02*
X166238095Y-65302438D01*
X166238095Y-65302438D02*
X166190476Y-65350057D01*
X166190476Y-65350057D02*
X166142857Y-65445295D01*
X166142857Y-65445295D02*
X166142857Y-65588152D01*
X166142857Y-65588152D02*
X166190476Y-65683390D01*
X166190476Y-65683390D02*
X166238095Y-65731009D01*
X166238095Y-65731009D02*
X166333333Y-65778628D01*
X166333333Y-65778628D02*
X166714285Y-65778628D01*
X165190476Y-66254819D02*
X165761904Y-66254819D01*
X165476190Y-66254819D02*
X165476190Y-65254819D01*
X165476190Y-65254819D02*
X165571428Y-65397676D01*
X165571428Y-65397676D02*
X165666666Y-65492914D01*
X165666666Y-65492914D02*
X165761904Y-65540533D01*
X164333333Y-65588152D02*
X164333333Y-66254819D01*
X164571428Y-65207200D02*
X164809523Y-65921485D01*
X164809523Y-65921485D02*
X164190476Y-65921485D01*
%TO.C,R39*%
X103454819Y-83457142D02*
X102978628Y-83123809D01*
X103454819Y-82885714D02*
X102454819Y-82885714D01*
X102454819Y-82885714D02*
X102454819Y-83266666D01*
X102454819Y-83266666D02*
X102502438Y-83361904D01*
X102502438Y-83361904D02*
X102550057Y-83409523D01*
X102550057Y-83409523D02*
X102645295Y-83457142D01*
X102645295Y-83457142D02*
X102788152Y-83457142D01*
X102788152Y-83457142D02*
X102883390Y-83409523D01*
X102883390Y-83409523D02*
X102931009Y-83361904D01*
X102931009Y-83361904D02*
X102978628Y-83266666D01*
X102978628Y-83266666D02*
X102978628Y-82885714D01*
X102454819Y-83790476D02*
X102454819Y-84409523D01*
X102454819Y-84409523D02*
X102835771Y-84076190D01*
X102835771Y-84076190D02*
X102835771Y-84219047D01*
X102835771Y-84219047D02*
X102883390Y-84314285D01*
X102883390Y-84314285D02*
X102931009Y-84361904D01*
X102931009Y-84361904D02*
X103026247Y-84409523D01*
X103026247Y-84409523D02*
X103264342Y-84409523D01*
X103264342Y-84409523D02*
X103359580Y-84361904D01*
X103359580Y-84361904D02*
X103407200Y-84314285D01*
X103407200Y-84314285D02*
X103454819Y-84219047D01*
X103454819Y-84219047D02*
X103454819Y-83933333D01*
X103454819Y-83933333D02*
X103407200Y-83838095D01*
X103407200Y-83838095D02*
X103359580Y-83790476D01*
X103454819Y-84885714D02*
X103454819Y-85076190D01*
X103454819Y-85076190D02*
X103407200Y-85171428D01*
X103407200Y-85171428D02*
X103359580Y-85219047D01*
X103359580Y-85219047D02*
X103216723Y-85314285D01*
X103216723Y-85314285D02*
X103026247Y-85361904D01*
X103026247Y-85361904D02*
X102645295Y-85361904D01*
X102645295Y-85361904D02*
X102550057Y-85314285D01*
X102550057Y-85314285D02*
X102502438Y-85266666D01*
X102502438Y-85266666D02*
X102454819Y-85171428D01*
X102454819Y-85171428D02*
X102454819Y-84980952D01*
X102454819Y-84980952D02*
X102502438Y-84885714D01*
X102502438Y-84885714D02*
X102550057Y-84838095D01*
X102550057Y-84838095D02*
X102645295Y-84790476D01*
X102645295Y-84790476D02*
X102883390Y-84790476D01*
X102883390Y-84790476D02*
X102978628Y-84838095D01*
X102978628Y-84838095D02*
X103026247Y-84885714D01*
X103026247Y-84885714D02*
X103073866Y-84980952D01*
X103073866Y-84980952D02*
X103073866Y-85171428D01*
X103073866Y-85171428D02*
X103026247Y-85266666D01*
X103026247Y-85266666D02*
X102978628Y-85314285D01*
X102978628Y-85314285D02*
X102883390Y-85361904D01*
%TO.C,D12*%
X168844285Y-74294819D02*
X168844285Y-73294819D01*
X168844285Y-73294819D02*
X168606190Y-73294819D01*
X168606190Y-73294819D02*
X168463333Y-73342438D01*
X168463333Y-73342438D02*
X168368095Y-73437676D01*
X168368095Y-73437676D02*
X168320476Y-73532914D01*
X168320476Y-73532914D02*
X168272857Y-73723390D01*
X168272857Y-73723390D02*
X168272857Y-73866247D01*
X168272857Y-73866247D02*
X168320476Y-74056723D01*
X168320476Y-74056723D02*
X168368095Y-74151961D01*
X168368095Y-74151961D02*
X168463333Y-74247200D01*
X168463333Y-74247200D02*
X168606190Y-74294819D01*
X168606190Y-74294819D02*
X168844285Y-74294819D01*
X167320476Y-74294819D02*
X167891904Y-74294819D01*
X167606190Y-74294819D02*
X167606190Y-73294819D01*
X167606190Y-73294819D02*
X167701428Y-73437676D01*
X167701428Y-73437676D02*
X167796666Y-73532914D01*
X167796666Y-73532914D02*
X167891904Y-73580533D01*
X166939523Y-73390057D02*
X166891904Y-73342438D01*
X166891904Y-73342438D02*
X166796666Y-73294819D01*
X166796666Y-73294819D02*
X166558571Y-73294819D01*
X166558571Y-73294819D02*
X166463333Y-73342438D01*
X166463333Y-73342438D02*
X166415714Y-73390057D01*
X166415714Y-73390057D02*
X166368095Y-73485295D01*
X166368095Y-73485295D02*
X166368095Y-73580533D01*
X166368095Y-73580533D02*
X166415714Y-73723390D01*
X166415714Y-73723390D02*
X166987142Y-74294819D01*
X166987142Y-74294819D02*
X166368095Y-74294819D01*
%TO.C,R22*%
X164184819Y-61257142D02*
X163708628Y-60923809D01*
X164184819Y-60685714D02*
X163184819Y-60685714D01*
X163184819Y-60685714D02*
X163184819Y-61066666D01*
X163184819Y-61066666D02*
X163232438Y-61161904D01*
X163232438Y-61161904D02*
X163280057Y-61209523D01*
X163280057Y-61209523D02*
X163375295Y-61257142D01*
X163375295Y-61257142D02*
X163518152Y-61257142D01*
X163518152Y-61257142D02*
X163613390Y-61209523D01*
X163613390Y-61209523D02*
X163661009Y-61161904D01*
X163661009Y-61161904D02*
X163708628Y-61066666D01*
X163708628Y-61066666D02*
X163708628Y-60685714D01*
X163280057Y-61638095D02*
X163232438Y-61685714D01*
X163232438Y-61685714D02*
X163184819Y-61780952D01*
X163184819Y-61780952D02*
X163184819Y-62019047D01*
X163184819Y-62019047D02*
X163232438Y-62114285D01*
X163232438Y-62114285D02*
X163280057Y-62161904D01*
X163280057Y-62161904D02*
X163375295Y-62209523D01*
X163375295Y-62209523D02*
X163470533Y-62209523D01*
X163470533Y-62209523D02*
X163613390Y-62161904D01*
X163613390Y-62161904D02*
X164184819Y-61590476D01*
X164184819Y-61590476D02*
X164184819Y-62209523D01*
X163280057Y-62590476D02*
X163232438Y-62638095D01*
X163232438Y-62638095D02*
X163184819Y-62733333D01*
X163184819Y-62733333D02*
X163184819Y-62971428D01*
X163184819Y-62971428D02*
X163232438Y-63066666D01*
X163232438Y-63066666D02*
X163280057Y-63114285D01*
X163280057Y-63114285D02*
X163375295Y-63161904D01*
X163375295Y-63161904D02*
X163470533Y-63161904D01*
X163470533Y-63161904D02*
X163613390Y-63114285D01*
X163613390Y-63114285D02*
X164184819Y-62542857D01*
X164184819Y-62542857D02*
X164184819Y-63161904D01*
%TO.C,J1*%
X152373333Y-48454819D02*
X152373333Y-49169104D01*
X152373333Y-49169104D02*
X152420952Y-49311961D01*
X152420952Y-49311961D02*
X152516190Y-49407200D01*
X152516190Y-49407200D02*
X152659047Y-49454819D01*
X152659047Y-49454819D02*
X152754285Y-49454819D01*
X151373333Y-49454819D02*
X151944761Y-49454819D01*
X151659047Y-49454819D02*
X151659047Y-48454819D01*
X151659047Y-48454819D02*
X151754285Y-48597676D01*
X151754285Y-48597676D02*
X151849523Y-48692914D01*
X151849523Y-48692914D02*
X151944761Y-48740533D01*
%TO.C,R20*%
X170454819Y-99157142D02*
X169978628Y-98823809D01*
X170454819Y-98585714D02*
X169454819Y-98585714D01*
X169454819Y-98585714D02*
X169454819Y-98966666D01*
X169454819Y-98966666D02*
X169502438Y-99061904D01*
X169502438Y-99061904D02*
X169550057Y-99109523D01*
X169550057Y-99109523D02*
X169645295Y-99157142D01*
X169645295Y-99157142D02*
X169788152Y-99157142D01*
X169788152Y-99157142D02*
X169883390Y-99109523D01*
X169883390Y-99109523D02*
X169931009Y-99061904D01*
X169931009Y-99061904D02*
X169978628Y-98966666D01*
X169978628Y-98966666D02*
X169978628Y-98585714D01*
X169550057Y-99538095D02*
X169502438Y-99585714D01*
X169502438Y-99585714D02*
X169454819Y-99680952D01*
X169454819Y-99680952D02*
X169454819Y-99919047D01*
X169454819Y-99919047D02*
X169502438Y-100014285D01*
X169502438Y-100014285D02*
X169550057Y-100061904D01*
X169550057Y-100061904D02*
X169645295Y-100109523D01*
X169645295Y-100109523D02*
X169740533Y-100109523D01*
X169740533Y-100109523D02*
X169883390Y-100061904D01*
X169883390Y-100061904D02*
X170454819Y-99490476D01*
X170454819Y-99490476D02*
X170454819Y-100109523D01*
X169454819Y-100728571D02*
X169454819Y-100823809D01*
X169454819Y-100823809D02*
X169502438Y-100919047D01*
X169502438Y-100919047D02*
X169550057Y-100966666D01*
X169550057Y-100966666D02*
X169645295Y-101014285D01*
X169645295Y-101014285D02*
X169835771Y-101061904D01*
X169835771Y-101061904D02*
X170073866Y-101061904D01*
X170073866Y-101061904D02*
X170264342Y-101014285D01*
X170264342Y-101014285D02*
X170359580Y-100966666D01*
X170359580Y-100966666D02*
X170407200Y-100919047D01*
X170407200Y-100919047D02*
X170454819Y-100823809D01*
X170454819Y-100823809D02*
X170454819Y-100728571D01*
X170454819Y-100728571D02*
X170407200Y-100633333D01*
X170407200Y-100633333D02*
X170359580Y-100585714D01*
X170359580Y-100585714D02*
X170264342Y-100538095D01*
X170264342Y-100538095D02*
X170073866Y-100490476D01*
X170073866Y-100490476D02*
X169835771Y-100490476D01*
X169835771Y-100490476D02*
X169645295Y-100538095D01*
X169645295Y-100538095D02*
X169550057Y-100585714D01*
X169550057Y-100585714D02*
X169502438Y-100633333D01*
X169502438Y-100633333D02*
X169454819Y-100728571D01*
%TO.C,D7*%
X158128094Y-52974819D02*
X158128094Y-51974819D01*
X158128094Y-51974819D02*
X157889999Y-51974819D01*
X157889999Y-51974819D02*
X157747142Y-52022438D01*
X157747142Y-52022438D02*
X157651904Y-52117676D01*
X157651904Y-52117676D02*
X157604285Y-52212914D01*
X157604285Y-52212914D02*
X157556666Y-52403390D01*
X157556666Y-52403390D02*
X157556666Y-52546247D01*
X157556666Y-52546247D02*
X157604285Y-52736723D01*
X157604285Y-52736723D02*
X157651904Y-52831961D01*
X157651904Y-52831961D02*
X157747142Y-52927200D01*
X157747142Y-52927200D02*
X157889999Y-52974819D01*
X157889999Y-52974819D02*
X158128094Y-52974819D01*
X157223332Y-51974819D02*
X156556666Y-51974819D01*
X156556666Y-51974819D02*
X156985237Y-52974819D01*
%TO.C,R37*%
X157524819Y-64957142D02*
X157048628Y-64623809D01*
X157524819Y-64385714D02*
X156524819Y-64385714D01*
X156524819Y-64385714D02*
X156524819Y-64766666D01*
X156524819Y-64766666D02*
X156572438Y-64861904D01*
X156572438Y-64861904D02*
X156620057Y-64909523D01*
X156620057Y-64909523D02*
X156715295Y-64957142D01*
X156715295Y-64957142D02*
X156858152Y-64957142D01*
X156858152Y-64957142D02*
X156953390Y-64909523D01*
X156953390Y-64909523D02*
X157001009Y-64861904D01*
X157001009Y-64861904D02*
X157048628Y-64766666D01*
X157048628Y-64766666D02*
X157048628Y-64385714D01*
X156524819Y-65290476D02*
X156524819Y-65909523D01*
X156524819Y-65909523D02*
X156905771Y-65576190D01*
X156905771Y-65576190D02*
X156905771Y-65719047D01*
X156905771Y-65719047D02*
X156953390Y-65814285D01*
X156953390Y-65814285D02*
X157001009Y-65861904D01*
X157001009Y-65861904D02*
X157096247Y-65909523D01*
X157096247Y-65909523D02*
X157334342Y-65909523D01*
X157334342Y-65909523D02*
X157429580Y-65861904D01*
X157429580Y-65861904D02*
X157477200Y-65814285D01*
X157477200Y-65814285D02*
X157524819Y-65719047D01*
X157524819Y-65719047D02*
X157524819Y-65433333D01*
X157524819Y-65433333D02*
X157477200Y-65338095D01*
X157477200Y-65338095D02*
X157429580Y-65290476D01*
X156524819Y-66242857D02*
X156524819Y-66909523D01*
X156524819Y-66909523D02*
X157524819Y-66480952D01*
%TO.C,R23*%
X157044819Y-56339642D02*
X156568628Y-56006309D01*
X157044819Y-55768214D02*
X156044819Y-55768214D01*
X156044819Y-55768214D02*
X156044819Y-56149166D01*
X156044819Y-56149166D02*
X156092438Y-56244404D01*
X156092438Y-56244404D02*
X156140057Y-56292023D01*
X156140057Y-56292023D02*
X156235295Y-56339642D01*
X156235295Y-56339642D02*
X156378152Y-56339642D01*
X156378152Y-56339642D02*
X156473390Y-56292023D01*
X156473390Y-56292023D02*
X156521009Y-56244404D01*
X156521009Y-56244404D02*
X156568628Y-56149166D01*
X156568628Y-56149166D02*
X156568628Y-55768214D01*
X156140057Y-56720595D02*
X156092438Y-56768214D01*
X156092438Y-56768214D02*
X156044819Y-56863452D01*
X156044819Y-56863452D02*
X156044819Y-57101547D01*
X156044819Y-57101547D02*
X156092438Y-57196785D01*
X156092438Y-57196785D02*
X156140057Y-57244404D01*
X156140057Y-57244404D02*
X156235295Y-57292023D01*
X156235295Y-57292023D02*
X156330533Y-57292023D01*
X156330533Y-57292023D02*
X156473390Y-57244404D01*
X156473390Y-57244404D02*
X157044819Y-56672976D01*
X157044819Y-56672976D02*
X157044819Y-57292023D01*
X156044819Y-57625357D02*
X156044819Y-58244404D01*
X156044819Y-58244404D02*
X156425771Y-57911071D01*
X156425771Y-57911071D02*
X156425771Y-58053928D01*
X156425771Y-58053928D02*
X156473390Y-58149166D01*
X156473390Y-58149166D02*
X156521009Y-58196785D01*
X156521009Y-58196785D02*
X156616247Y-58244404D01*
X156616247Y-58244404D02*
X156854342Y-58244404D01*
X156854342Y-58244404D02*
X156949580Y-58196785D01*
X156949580Y-58196785D02*
X156997200Y-58149166D01*
X156997200Y-58149166D02*
X157044819Y-58053928D01*
X157044819Y-58053928D02*
X157044819Y-57768214D01*
X157044819Y-57768214D02*
X156997200Y-57672976D01*
X156997200Y-57672976D02*
X156949580Y-57625357D01*
%TO.C,Q4*%
X154195238Y-75950057D02*
X154290476Y-75902438D01*
X154290476Y-75902438D02*
X154385714Y-75807200D01*
X154385714Y-75807200D02*
X154528571Y-75664342D01*
X154528571Y-75664342D02*
X154623809Y-75616723D01*
X154623809Y-75616723D02*
X154719047Y-75616723D01*
X154671428Y-75854819D02*
X154766666Y-75807200D01*
X154766666Y-75807200D02*
X154861904Y-75711961D01*
X154861904Y-75711961D02*
X154909523Y-75521485D01*
X154909523Y-75521485D02*
X154909523Y-75188152D01*
X154909523Y-75188152D02*
X154861904Y-74997676D01*
X154861904Y-74997676D02*
X154766666Y-74902438D01*
X154766666Y-74902438D02*
X154671428Y-74854819D01*
X154671428Y-74854819D02*
X154480952Y-74854819D01*
X154480952Y-74854819D02*
X154385714Y-74902438D01*
X154385714Y-74902438D02*
X154290476Y-74997676D01*
X154290476Y-74997676D02*
X154242857Y-75188152D01*
X154242857Y-75188152D02*
X154242857Y-75521485D01*
X154242857Y-75521485D02*
X154290476Y-75711961D01*
X154290476Y-75711961D02*
X154385714Y-75807200D01*
X154385714Y-75807200D02*
X154480952Y-75854819D01*
X154480952Y-75854819D02*
X154671428Y-75854819D01*
X153385714Y-75188152D02*
X153385714Y-75854819D01*
X153623809Y-74807200D02*
X153861904Y-75521485D01*
X153861904Y-75521485D02*
X153242857Y-75521485D01*
%TO.C,R11*%
X158342857Y-72454819D02*
X158676190Y-71978628D01*
X158914285Y-72454819D02*
X158914285Y-71454819D01*
X158914285Y-71454819D02*
X158533333Y-71454819D01*
X158533333Y-71454819D02*
X158438095Y-71502438D01*
X158438095Y-71502438D02*
X158390476Y-71550057D01*
X158390476Y-71550057D02*
X158342857Y-71645295D01*
X158342857Y-71645295D02*
X158342857Y-71788152D01*
X158342857Y-71788152D02*
X158390476Y-71883390D01*
X158390476Y-71883390D02*
X158438095Y-71931009D01*
X158438095Y-71931009D02*
X158533333Y-71978628D01*
X158533333Y-71978628D02*
X158914285Y-71978628D01*
X157390476Y-72454819D02*
X157961904Y-72454819D01*
X157676190Y-72454819D02*
X157676190Y-71454819D01*
X157676190Y-71454819D02*
X157771428Y-71597676D01*
X157771428Y-71597676D02*
X157866666Y-71692914D01*
X157866666Y-71692914D02*
X157961904Y-71740533D01*
X156438095Y-72454819D02*
X157009523Y-72454819D01*
X156723809Y-72454819D02*
X156723809Y-71454819D01*
X156723809Y-71454819D02*
X156819047Y-71597676D01*
X156819047Y-71597676D02*
X156914285Y-71692914D01*
X156914285Y-71692914D02*
X157009523Y-71740533D01*
%TO.C,Q6*%
X159895238Y-80750057D02*
X159990476Y-80702438D01*
X159990476Y-80702438D02*
X160085714Y-80607200D01*
X160085714Y-80607200D02*
X160228571Y-80464342D01*
X160228571Y-80464342D02*
X160323809Y-80416723D01*
X160323809Y-80416723D02*
X160419047Y-80416723D01*
X160371428Y-80654819D02*
X160466666Y-80607200D01*
X160466666Y-80607200D02*
X160561904Y-80511961D01*
X160561904Y-80511961D02*
X160609523Y-80321485D01*
X160609523Y-80321485D02*
X160609523Y-79988152D01*
X160609523Y-79988152D02*
X160561904Y-79797676D01*
X160561904Y-79797676D02*
X160466666Y-79702438D01*
X160466666Y-79702438D02*
X160371428Y-79654819D01*
X160371428Y-79654819D02*
X160180952Y-79654819D01*
X160180952Y-79654819D02*
X160085714Y-79702438D01*
X160085714Y-79702438D02*
X159990476Y-79797676D01*
X159990476Y-79797676D02*
X159942857Y-79988152D01*
X159942857Y-79988152D02*
X159942857Y-80321485D01*
X159942857Y-80321485D02*
X159990476Y-80511961D01*
X159990476Y-80511961D02*
X160085714Y-80607200D01*
X160085714Y-80607200D02*
X160180952Y-80654819D01*
X160180952Y-80654819D02*
X160371428Y-80654819D01*
X159085714Y-79654819D02*
X159276190Y-79654819D01*
X159276190Y-79654819D02*
X159371428Y-79702438D01*
X159371428Y-79702438D02*
X159419047Y-79750057D01*
X159419047Y-79750057D02*
X159514285Y-79892914D01*
X159514285Y-79892914D02*
X159561904Y-80083390D01*
X159561904Y-80083390D02*
X159561904Y-80464342D01*
X159561904Y-80464342D02*
X159514285Y-80559580D01*
X159514285Y-80559580D02*
X159466666Y-80607200D01*
X159466666Y-80607200D02*
X159371428Y-80654819D01*
X159371428Y-80654819D02*
X159180952Y-80654819D01*
X159180952Y-80654819D02*
X159085714Y-80607200D01*
X159085714Y-80607200D02*
X159038095Y-80559580D01*
X159038095Y-80559580D02*
X158990476Y-80464342D01*
X158990476Y-80464342D02*
X158990476Y-80226247D01*
X158990476Y-80226247D02*
X159038095Y-80131009D01*
X159038095Y-80131009D02*
X159085714Y-80083390D01*
X159085714Y-80083390D02*
X159180952Y-80035771D01*
X159180952Y-80035771D02*
X159371428Y-80035771D01*
X159371428Y-80035771D02*
X159466666Y-80083390D01*
X159466666Y-80083390D02*
X159514285Y-80131009D01*
X159514285Y-80131009D02*
X159561904Y-80226247D01*
%TO.C,D13*%
X197724819Y-82205714D02*
X196724819Y-82205714D01*
X196724819Y-82205714D02*
X196724819Y-82443809D01*
X196724819Y-82443809D02*
X196772438Y-82586666D01*
X196772438Y-82586666D02*
X196867676Y-82681904D01*
X196867676Y-82681904D02*
X196962914Y-82729523D01*
X196962914Y-82729523D02*
X197153390Y-82777142D01*
X197153390Y-82777142D02*
X197296247Y-82777142D01*
X197296247Y-82777142D02*
X197486723Y-82729523D01*
X197486723Y-82729523D02*
X197581961Y-82681904D01*
X197581961Y-82681904D02*
X197677200Y-82586666D01*
X197677200Y-82586666D02*
X197724819Y-82443809D01*
X197724819Y-82443809D02*
X197724819Y-82205714D01*
X197724819Y-83729523D02*
X197724819Y-83158095D01*
X197724819Y-83443809D02*
X196724819Y-83443809D01*
X196724819Y-83443809D02*
X196867676Y-83348571D01*
X196867676Y-83348571D02*
X196962914Y-83253333D01*
X196962914Y-83253333D02*
X197010533Y-83158095D01*
X196724819Y-84062857D02*
X196724819Y-84681904D01*
X196724819Y-84681904D02*
X197105771Y-84348571D01*
X197105771Y-84348571D02*
X197105771Y-84491428D01*
X197105771Y-84491428D02*
X197153390Y-84586666D01*
X197153390Y-84586666D02*
X197201009Y-84634285D01*
X197201009Y-84634285D02*
X197296247Y-84681904D01*
X197296247Y-84681904D02*
X197534342Y-84681904D01*
X197534342Y-84681904D02*
X197629580Y-84634285D01*
X197629580Y-84634285D02*
X197677200Y-84586666D01*
X197677200Y-84586666D02*
X197724819Y-84491428D01*
X197724819Y-84491428D02*
X197724819Y-84205714D01*
X197724819Y-84205714D02*
X197677200Y-84110476D01*
X197677200Y-84110476D02*
X197629580Y-84062857D01*
%TO.C,C13*%
X152127857Y-51029580D02*
X152175476Y-51077200D01*
X152175476Y-51077200D02*
X152318333Y-51124819D01*
X152318333Y-51124819D02*
X152413571Y-51124819D01*
X152413571Y-51124819D02*
X152556428Y-51077200D01*
X152556428Y-51077200D02*
X152651666Y-50981961D01*
X152651666Y-50981961D02*
X152699285Y-50886723D01*
X152699285Y-50886723D02*
X152746904Y-50696247D01*
X152746904Y-50696247D02*
X152746904Y-50553390D01*
X152746904Y-50553390D02*
X152699285Y-50362914D01*
X152699285Y-50362914D02*
X152651666Y-50267676D01*
X152651666Y-50267676D02*
X152556428Y-50172438D01*
X152556428Y-50172438D02*
X152413571Y-50124819D01*
X152413571Y-50124819D02*
X152318333Y-50124819D01*
X152318333Y-50124819D02*
X152175476Y-50172438D01*
X152175476Y-50172438D02*
X152127857Y-50220057D01*
X151175476Y-51124819D02*
X151746904Y-51124819D01*
X151461190Y-51124819D02*
X151461190Y-50124819D01*
X151461190Y-50124819D02*
X151556428Y-50267676D01*
X151556428Y-50267676D02*
X151651666Y-50362914D01*
X151651666Y-50362914D02*
X151746904Y-50410533D01*
X150842142Y-50124819D02*
X150223095Y-50124819D01*
X150223095Y-50124819D02*
X150556428Y-50505771D01*
X150556428Y-50505771D02*
X150413571Y-50505771D01*
X150413571Y-50505771D02*
X150318333Y-50553390D01*
X150318333Y-50553390D02*
X150270714Y-50601009D01*
X150270714Y-50601009D02*
X150223095Y-50696247D01*
X150223095Y-50696247D02*
X150223095Y-50934342D01*
X150223095Y-50934342D02*
X150270714Y-51029580D01*
X150270714Y-51029580D02*
X150318333Y-51077200D01*
X150318333Y-51077200D02*
X150413571Y-51124819D01*
X150413571Y-51124819D02*
X150699285Y-51124819D01*
X150699285Y-51124819D02*
X150794523Y-51077200D01*
X150794523Y-51077200D02*
X150842142Y-51029580D01*
%TO.C,R9*%
X164666666Y-90154819D02*
X164999999Y-89678628D01*
X165238094Y-90154819D02*
X165238094Y-89154819D01*
X165238094Y-89154819D02*
X164857142Y-89154819D01*
X164857142Y-89154819D02*
X164761904Y-89202438D01*
X164761904Y-89202438D02*
X164714285Y-89250057D01*
X164714285Y-89250057D02*
X164666666Y-89345295D01*
X164666666Y-89345295D02*
X164666666Y-89488152D01*
X164666666Y-89488152D02*
X164714285Y-89583390D01*
X164714285Y-89583390D02*
X164761904Y-89631009D01*
X164761904Y-89631009D02*
X164857142Y-89678628D01*
X164857142Y-89678628D02*
X165238094Y-89678628D01*
X164190475Y-90154819D02*
X163999999Y-90154819D01*
X163999999Y-90154819D02*
X163904761Y-90107200D01*
X163904761Y-90107200D02*
X163857142Y-90059580D01*
X163857142Y-90059580D02*
X163761904Y-89916723D01*
X163761904Y-89916723D02*
X163714285Y-89726247D01*
X163714285Y-89726247D02*
X163714285Y-89345295D01*
X163714285Y-89345295D02*
X163761904Y-89250057D01*
X163761904Y-89250057D02*
X163809523Y-89202438D01*
X163809523Y-89202438D02*
X163904761Y-89154819D01*
X163904761Y-89154819D02*
X164095237Y-89154819D01*
X164095237Y-89154819D02*
X164190475Y-89202438D01*
X164190475Y-89202438D02*
X164238094Y-89250057D01*
X164238094Y-89250057D02*
X164285713Y-89345295D01*
X164285713Y-89345295D02*
X164285713Y-89583390D01*
X164285713Y-89583390D02*
X164238094Y-89678628D01*
X164238094Y-89678628D02*
X164190475Y-89726247D01*
X164190475Y-89726247D02*
X164095237Y-89773866D01*
X164095237Y-89773866D02*
X163904761Y-89773866D01*
X163904761Y-89773866D02*
X163809523Y-89726247D01*
X163809523Y-89726247D02*
X163761904Y-89678628D01*
X163761904Y-89678628D02*
X163714285Y-89583390D01*
%TO.C,Q3*%
X166295238Y-73150057D02*
X166390476Y-73102438D01*
X166390476Y-73102438D02*
X166485714Y-73007200D01*
X166485714Y-73007200D02*
X166628571Y-72864342D01*
X166628571Y-72864342D02*
X166723809Y-72816723D01*
X166723809Y-72816723D02*
X166819047Y-72816723D01*
X166771428Y-73054819D02*
X166866666Y-73007200D01*
X166866666Y-73007200D02*
X166961904Y-72911961D01*
X166961904Y-72911961D02*
X167009523Y-72721485D01*
X167009523Y-72721485D02*
X167009523Y-72388152D01*
X167009523Y-72388152D02*
X166961904Y-72197676D01*
X166961904Y-72197676D02*
X166866666Y-72102438D01*
X166866666Y-72102438D02*
X166771428Y-72054819D01*
X166771428Y-72054819D02*
X166580952Y-72054819D01*
X166580952Y-72054819D02*
X166485714Y-72102438D01*
X166485714Y-72102438D02*
X166390476Y-72197676D01*
X166390476Y-72197676D02*
X166342857Y-72388152D01*
X166342857Y-72388152D02*
X166342857Y-72721485D01*
X166342857Y-72721485D02*
X166390476Y-72911961D01*
X166390476Y-72911961D02*
X166485714Y-73007200D01*
X166485714Y-73007200D02*
X166580952Y-73054819D01*
X166580952Y-73054819D02*
X166771428Y-73054819D01*
X166009523Y-72054819D02*
X165390476Y-72054819D01*
X165390476Y-72054819D02*
X165723809Y-72435771D01*
X165723809Y-72435771D02*
X165580952Y-72435771D01*
X165580952Y-72435771D02*
X165485714Y-72483390D01*
X165485714Y-72483390D02*
X165438095Y-72531009D01*
X165438095Y-72531009D02*
X165390476Y-72626247D01*
X165390476Y-72626247D02*
X165390476Y-72864342D01*
X165390476Y-72864342D02*
X165438095Y-72959580D01*
X165438095Y-72959580D02*
X165485714Y-73007200D01*
X165485714Y-73007200D02*
X165580952Y-73054819D01*
X165580952Y-73054819D02*
X165866666Y-73054819D01*
X165866666Y-73054819D02*
X165961904Y-73007200D01*
X165961904Y-73007200D02*
X166009523Y-72959580D01*
%TO.C,Q8*%
X119092557Y-84804761D02*
X119044938Y-84709523D01*
X119044938Y-84709523D02*
X118949700Y-84614285D01*
X118949700Y-84614285D02*
X118806842Y-84471428D01*
X118806842Y-84471428D02*
X118759223Y-84376190D01*
X118759223Y-84376190D02*
X118759223Y-84280952D01*
X118997319Y-84328571D02*
X118949700Y-84233333D01*
X118949700Y-84233333D02*
X118854461Y-84138095D01*
X118854461Y-84138095D02*
X118663985Y-84090476D01*
X118663985Y-84090476D02*
X118330652Y-84090476D01*
X118330652Y-84090476D02*
X118140176Y-84138095D01*
X118140176Y-84138095D02*
X118044938Y-84233333D01*
X118044938Y-84233333D02*
X117997319Y-84328571D01*
X117997319Y-84328571D02*
X117997319Y-84519047D01*
X117997319Y-84519047D02*
X118044938Y-84614285D01*
X118044938Y-84614285D02*
X118140176Y-84709523D01*
X118140176Y-84709523D02*
X118330652Y-84757142D01*
X118330652Y-84757142D02*
X118663985Y-84757142D01*
X118663985Y-84757142D02*
X118854461Y-84709523D01*
X118854461Y-84709523D02*
X118949700Y-84614285D01*
X118949700Y-84614285D02*
X118997319Y-84519047D01*
X118997319Y-84519047D02*
X118997319Y-84328571D01*
X118425890Y-85328571D02*
X118378271Y-85233333D01*
X118378271Y-85233333D02*
X118330652Y-85185714D01*
X118330652Y-85185714D02*
X118235414Y-85138095D01*
X118235414Y-85138095D02*
X118187795Y-85138095D01*
X118187795Y-85138095D02*
X118092557Y-85185714D01*
X118092557Y-85185714D02*
X118044938Y-85233333D01*
X118044938Y-85233333D02*
X117997319Y-85328571D01*
X117997319Y-85328571D02*
X117997319Y-85519047D01*
X117997319Y-85519047D02*
X118044938Y-85614285D01*
X118044938Y-85614285D02*
X118092557Y-85661904D01*
X118092557Y-85661904D02*
X118187795Y-85709523D01*
X118187795Y-85709523D02*
X118235414Y-85709523D01*
X118235414Y-85709523D02*
X118330652Y-85661904D01*
X118330652Y-85661904D02*
X118378271Y-85614285D01*
X118378271Y-85614285D02*
X118425890Y-85519047D01*
X118425890Y-85519047D02*
X118425890Y-85328571D01*
X118425890Y-85328571D02*
X118473509Y-85233333D01*
X118473509Y-85233333D02*
X118521128Y-85185714D01*
X118521128Y-85185714D02*
X118616366Y-85138095D01*
X118616366Y-85138095D02*
X118806842Y-85138095D01*
X118806842Y-85138095D02*
X118902080Y-85185714D01*
X118902080Y-85185714D02*
X118949700Y-85233333D01*
X118949700Y-85233333D02*
X118997319Y-85328571D01*
X118997319Y-85328571D02*
X118997319Y-85519047D01*
X118997319Y-85519047D02*
X118949700Y-85614285D01*
X118949700Y-85614285D02*
X118902080Y-85661904D01*
X118902080Y-85661904D02*
X118806842Y-85709523D01*
X118806842Y-85709523D02*
X118616366Y-85709523D01*
X118616366Y-85709523D02*
X118521128Y-85661904D01*
X118521128Y-85661904D02*
X118473509Y-85614285D01*
X118473509Y-85614285D02*
X118425890Y-85519047D01*
%TO.C,C4*%
X213566666Y-89559580D02*
X213614285Y-89607200D01*
X213614285Y-89607200D02*
X213757142Y-89654819D01*
X213757142Y-89654819D02*
X213852380Y-89654819D01*
X213852380Y-89654819D02*
X213995237Y-89607200D01*
X213995237Y-89607200D02*
X214090475Y-89511961D01*
X214090475Y-89511961D02*
X214138094Y-89416723D01*
X214138094Y-89416723D02*
X214185713Y-89226247D01*
X214185713Y-89226247D02*
X214185713Y-89083390D01*
X214185713Y-89083390D02*
X214138094Y-88892914D01*
X214138094Y-88892914D02*
X214090475Y-88797676D01*
X214090475Y-88797676D02*
X213995237Y-88702438D01*
X213995237Y-88702438D02*
X213852380Y-88654819D01*
X213852380Y-88654819D02*
X213757142Y-88654819D01*
X213757142Y-88654819D02*
X213614285Y-88702438D01*
X213614285Y-88702438D02*
X213566666Y-88750057D01*
X212709523Y-88988152D02*
X212709523Y-89654819D01*
X212947618Y-88607200D02*
X213185713Y-89321485D01*
X213185713Y-89321485D02*
X212566666Y-89321485D01*
%TO.C,C5*%
X177959580Y-85420833D02*
X178007200Y-85373214D01*
X178007200Y-85373214D02*
X178054819Y-85230357D01*
X178054819Y-85230357D02*
X178054819Y-85135119D01*
X178054819Y-85135119D02*
X178007200Y-84992262D01*
X178007200Y-84992262D02*
X177911961Y-84897024D01*
X177911961Y-84897024D02*
X177816723Y-84849405D01*
X177816723Y-84849405D02*
X177626247Y-84801786D01*
X177626247Y-84801786D02*
X177483390Y-84801786D01*
X177483390Y-84801786D02*
X177292914Y-84849405D01*
X177292914Y-84849405D02*
X177197676Y-84897024D01*
X177197676Y-84897024D02*
X177102438Y-84992262D01*
X177102438Y-84992262D02*
X177054819Y-85135119D01*
X177054819Y-85135119D02*
X177054819Y-85230357D01*
X177054819Y-85230357D02*
X177102438Y-85373214D01*
X177102438Y-85373214D02*
X177150057Y-85420833D01*
X177054819Y-86325595D02*
X177054819Y-85849405D01*
X177054819Y-85849405D02*
X177531009Y-85801786D01*
X177531009Y-85801786D02*
X177483390Y-85849405D01*
X177483390Y-85849405D02*
X177435771Y-85944643D01*
X177435771Y-85944643D02*
X177435771Y-86182738D01*
X177435771Y-86182738D02*
X177483390Y-86277976D01*
X177483390Y-86277976D02*
X177531009Y-86325595D01*
X177531009Y-86325595D02*
X177626247Y-86373214D01*
X177626247Y-86373214D02*
X177864342Y-86373214D01*
X177864342Y-86373214D02*
X177959580Y-86325595D01*
X177959580Y-86325595D02*
X178007200Y-86277976D01*
X178007200Y-86277976D02*
X178054819Y-86182738D01*
X178054819Y-86182738D02*
X178054819Y-85944643D01*
X178054819Y-85944643D02*
X178007200Y-85849405D01*
X178007200Y-85849405D02*
X177959580Y-85801786D01*
%TO.C,C10*%
X160442857Y-71159580D02*
X160490476Y-71207200D01*
X160490476Y-71207200D02*
X160633333Y-71254819D01*
X160633333Y-71254819D02*
X160728571Y-71254819D01*
X160728571Y-71254819D02*
X160871428Y-71207200D01*
X160871428Y-71207200D02*
X160966666Y-71111961D01*
X160966666Y-71111961D02*
X161014285Y-71016723D01*
X161014285Y-71016723D02*
X161061904Y-70826247D01*
X161061904Y-70826247D02*
X161061904Y-70683390D01*
X161061904Y-70683390D02*
X161014285Y-70492914D01*
X161014285Y-70492914D02*
X160966666Y-70397676D01*
X160966666Y-70397676D02*
X160871428Y-70302438D01*
X160871428Y-70302438D02*
X160728571Y-70254819D01*
X160728571Y-70254819D02*
X160633333Y-70254819D01*
X160633333Y-70254819D02*
X160490476Y-70302438D01*
X160490476Y-70302438D02*
X160442857Y-70350057D01*
X159490476Y-71254819D02*
X160061904Y-71254819D01*
X159776190Y-71254819D02*
X159776190Y-70254819D01*
X159776190Y-70254819D02*
X159871428Y-70397676D01*
X159871428Y-70397676D02*
X159966666Y-70492914D01*
X159966666Y-70492914D02*
X160061904Y-70540533D01*
X158871428Y-70254819D02*
X158776190Y-70254819D01*
X158776190Y-70254819D02*
X158680952Y-70302438D01*
X158680952Y-70302438D02*
X158633333Y-70350057D01*
X158633333Y-70350057D02*
X158585714Y-70445295D01*
X158585714Y-70445295D02*
X158538095Y-70635771D01*
X158538095Y-70635771D02*
X158538095Y-70873866D01*
X158538095Y-70873866D02*
X158585714Y-71064342D01*
X158585714Y-71064342D02*
X158633333Y-71159580D01*
X158633333Y-71159580D02*
X158680952Y-71207200D01*
X158680952Y-71207200D02*
X158776190Y-71254819D01*
X158776190Y-71254819D02*
X158871428Y-71254819D01*
X158871428Y-71254819D02*
X158966666Y-71207200D01*
X158966666Y-71207200D02*
X159014285Y-71159580D01*
X159014285Y-71159580D02*
X159061904Y-71064342D01*
X159061904Y-71064342D02*
X159109523Y-70873866D01*
X159109523Y-70873866D02*
X159109523Y-70635771D01*
X159109523Y-70635771D02*
X159061904Y-70445295D01*
X159061904Y-70445295D02*
X159014285Y-70350057D01*
X159014285Y-70350057D02*
X158966666Y-70302438D01*
X158966666Y-70302438D02*
X158871428Y-70254819D01*
%TO.C,R18*%
X157554819Y-99057142D02*
X157078628Y-98723809D01*
X157554819Y-98485714D02*
X156554819Y-98485714D01*
X156554819Y-98485714D02*
X156554819Y-98866666D01*
X156554819Y-98866666D02*
X156602438Y-98961904D01*
X156602438Y-98961904D02*
X156650057Y-99009523D01*
X156650057Y-99009523D02*
X156745295Y-99057142D01*
X156745295Y-99057142D02*
X156888152Y-99057142D01*
X156888152Y-99057142D02*
X156983390Y-99009523D01*
X156983390Y-99009523D02*
X157031009Y-98961904D01*
X157031009Y-98961904D02*
X157078628Y-98866666D01*
X157078628Y-98866666D02*
X157078628Y-98485714D01*
X157554819Y-100009523D02*
X157554819Y-99438095D01*
X157554819Y-99723809D02*
X156554819Y-99723809D01*
X156554819Y-99723809D02*
X156697676Y-99628571D01*
X156697676Y-99628571D02*
X156792914Y-99533333D01*
X156792914Y-99533333D02*
X156840533Y-99438095D01*
X156983390Y-100580952D02*
X156935771Y-100485714D01*
X156935771Y-100485714D02*
X156888152Y-100438095D01*
X156888152Y-100438095D02*
X156792914Y-100390476D01*
X156792914Y-100390476D02*
X156745295Y-100390476D01*
X156745295Y-100390476D02*
X156650057Y-100438095D01*
X156650057Y-100438095D02*
X156602438Y-100485714D01*
X156602438Y-100485714D02*
X156554819Y-100580952D01*
X156554819Y-100580952D02*
X156554819Y-100771428D01*
X156554819Y-100771428D02*
X156602438Y-100866666D01*
X156602438Y-100866666D02*
X156650057Y-100914285D01*
X156650057Y-100914285D02*
X156745295Y-100961904D01*
X156745295Y-100961904D02*
X156792914Y-100961904D01*
X156792914Y-100961904D02*
X156888152Y-100914285D01*
X156888152Y-100914285D02*
X156935771Y-100866666D01*
X156935771Y-100866666D02*
X156983390Y-100771428D01*
X156983390Y-100771428D02*
X156983390Y-100580952D01*
X156983390Y-100580952D02*
X157031009Y-100485714D01*
X157031009Y-100485714D02*
X157078628Y-100438095D01*
X157078628Y-100438095D02*
X157173866Y-100390476D01*
X157173866Y-100390476D02*
X157364342Y-100390476D01*
X157364342Y-100390476D02*
X157459580Y-100438095D01*
X157459580Y-100438095D02*
X157507200Y-100485714D01*
X157507200Y-100485714D02*
X157554819Y-100580952D01*
X157554819Y-100580952D02*
X157554819Y-100771428D01*
X157554819Y-100771428D02*
X157507200Y-100866666D01*
X157507200Y-100866666D02*
X157459580Y-100914285D01*
X157459580Y-100914285D02*
X157364342Y-100961904D01*
X157364342Y-100961904D02*
X157173866Y-100961904D01*
X157173866Y-100961904D02*
X157078628Y-100914285D01*
X157078628Y-100914285D02*
X157031009Y-100866666D01*
X157031009Y-100866666D02*
X156983390Y-100771428D01*
%TO.C,R7*%
X173024819Y-76173333D02*
X172548628Y-75840000D01*
X173024819Y-75601905D02*
X172024819Y-75601905D01*
X172024819Y-75601905D02*
X172024819Y-75982857D01*
X172024819Y-75982857D02*
X172072438Y-76078095D01*
X172072438Y-76078095D02*
X172120057Y-76125714D01*
X172120057Y-76125714D02*
X172215295Y-76173333D01*
X172215295Y-76173333D02*
X172358152Y-76173333D01*
X172358152Y-76173333D02*
X172453390Y-76125714D01*
X172453390Y-76125714D02*
X172501009Y-76078095D01*
X172501009Y-76078095D02*
X172548628Y-75982857D01*
X172548628Y-75982857D02*
X172548628Y-75601905D01*
X172024819Y-76506667D02*
X172024819Y-77173333D01*
X172024819Y-77173333D02*
X173024819Y-76744762D01*
%TO.C,C19*%
X109019580Y-85457142D02*
X109067200Y-85409523D01*
X109067200Y-85409523D02*
X109114819Y-85266666D01*
X109114819Y-85266666D02*
X109114819Y-85171428D01*
X109114819Y-85171428D02*
X109067200Y-85028571D01*
X109067200Y-85028571D02*
X108971961Y-84933333D01*
X108971961Y-84933333D02*
X108876723Y-84885714D01*
X108876723Y-84885714D02*
X108686247Y-84838095D01*
X108686247Y-84838095D02*
X108543390Y-84838095D01*
X108543390Y-84838095D02*
X108352914Y-84885714D01*
X108352914Y-84885714D02*
X108257676Y-84933333D01*
X108257676Y-84933333D02*
X108162438Y-85028571D01*
X108162438Y-85028571D02*
X108114819Y-85171428D01*
X108114819Y-85171428D02*
X108114819Y-85266666D01*
X108114819Y-85266666D02*
X108162438Y-85409523D01*
X108162438Y-85409523D02*
X108210057Y-85457142D01*
X109114819Y-86409523D02*
X109114819Y-85838095D01*
X109114819Y-86123809D02*
X108114819Y-86123809D01*
X108114819Y-86123809D02*
X108257676Y-86028571D01*
X108257676Y-86028571D02*
X108352914Y-85933333D01*
X108352914Y-85933333D02*
X108400533Y-85838095D01*
X109114819Y-86885714D02*
X109114819Y-87076190D01*
X109114819Y-87076190D02*
X109067200Y-87171428D01*
X109067200Y-87171428D02*
X109019580Y-87219047D01*
X109019580Y-87219047D02*
X108876723Y-87314285D01*
X108876723Y-87314285D02*
X108686247Y-87361904D01*
X108686247Y-87361904D02*
X108305295Y-87361904D01*
X108305295Y-87361904D02*
X108210057Y-87314285D01*
X108210057Y-87314285D02*
X108162438Y-87266666D01*
X108162438Y-87266666D02*
X108114819Y-87171428D01*
X108114819Y-87171428D02*
X108114819Y-86980952D01*
X108114819Y-86980952D02*
X108162438Y-86885714D01*
X108162438Y-86885714D02*
X108210057Y-86838095D01*
X108210057Y-86838095D02*
X108305295Y-86790476D01*
X108305295Y-86790476D02*
X108543390Y-86790476D01*
X108543390Y-86790476D02*
X108638628Y-86838095D01*
X108638628Y-86838095D02*
X108686247Y-86885714D01*
X108686247Y-86885714D02*
X108733866Y-86980952D01*
X108733866Y-86980952D02*
X108733866Y-87171428D01*
X108733866Y-87171428D02*
X108686247Y-87266666D01*
X108686247Y-87266666D02*
X108638628Y-87314285D01*
X108638628Y-87314285D02*
X108543390Y-87361904D01*
%TO.C,JP1*%
X150483333Y-73454819D02*
X150483333Y-74169104D01*
X150483333Y-74169104D02*
X150530952Y-74311961D01*
X150530952Y-74311961D02*
X150626190Y-74407200D01*
X150626190Y-74407200D02*
X150769047Y-74454819D01*
X150769047Y-74454819D02*
X150864285Y-74454819D01*
X150007142Y-74454819D02*
X150007142Y-73454819D01*
X150007142Y-73454819D02*
X149626190Y-73454819D01*
X149626190Y-73454819D02*
X149530952Y-73502438D01*
X149530952Y-73502438D02*
X149483333Y-73550057D01*
X149483333Y-73550057D02*
X149435714Y-73645295D01*
X149435714Y-73645295D02*
X149435714Y-73788152D01*
X149435714Y-73788152D02*
X149483333Y-73883390D01*
X149483333Y-73883390D02*
X149530952Y-73931009D01*
X149530952Y-73931009D02*
X149626190Y-73978628D01*
X149626190Y-73978628D02*
X150007142Y-73978628D01*
X148483333Y-74454819D02*
X149054761Y-74454819D01*
X148769047Y-74454819D02*
X148769047Y-73454819D01*
X148769047Y-73454819D02*
X148864285Y-73597676D01*
X148864285Y-73597676D02*
X148959523Y-73692914D01*
X148959523Y-73692914D02*
X149054761Y-73740533D01*
%TO.C,C20*%
X211042857Y-99759580D02*
X211090476Y-99807200D01*
X211090476Y-99807200D02*
X211233333Y-99854819D01*
X211233333Y-99854819D02*
X211328571Y-99854819D01*
X211328571Y-99854819D02*
X211471428Y-99807200D01*
X211471428Y-99807200D02*
X211566666Y-99711961D01*
X211566666Y-99711961D02*
X211614285Y-99616723D01*
X211614285Y-99616723D02*
X211661904Y-99426247D01*
X211661904Y-99426247D02*
X211661904Y-99283390D01*
X211661904Y-99283390D02*
X211614285Y-99092914D01*
X211614285Y-99092914D02*
X211566666Y-98997676D01*
X211566666Y-98997676D02*
X211471428Y-98902438D01*
X211471428Y-98902438D02*
X211328571Y-98854819D01*
X211328571Y-98854819D02*
X211233333Y-98854819D01*
X211233333Y-98854819D02*
X211090476Y-98902438D01*
X211090476Y-98902438D02*
X211042857Y-98950057D01*
X210661904Y-98950057D02*
X210614285Y-98902438D01*
X210614285Y-98902438D02*
X210519047Y-98854819D01*
X210519047Y-98854819D02*
X210280952Y-98854819D01*
X210280952Y-98854819D02*
X210185714Y-98902438D01*
X210185714Y-98902438D02*
X210138095Y-98950057D01*
X210138095Y-98950057D02*
X210090476Y-99045295D01*
X210090476Y-99045295D02*
X210090476Y-99140533D01*
X210090476Y-99140533D02*
X210138095Y-99283390D01*
X210138095Y-99283390D02*
X210709523Y-99854819D01*
X210709523Y-99854819D02*
X210090476Y-99854819D01*
X209471428Y-98854819D02*
X209376190Y-98854819D01*
X209376190Y-98854819D02*
X209280952Y-98902438D01*
X209280952Y-98902438D02*
X209233333Y-98950057D01*
X209233333Y-98950057D02*
X209185714Y-99045295D01*
X209185714Y-99045295D02*
X209138095Y-99235771D01*
X209138095Y-99235771D02*
X209138095Y-99473866D01*
X209138095Y-99473866D02*
X209185714Y-99664342D01*
X209185714Y-99664342D02*
X209233333Y-99759580D01*
X209233333Y-99759580D02*
X209280952Y-99807200D01*
X209280952Y-99807200D02*
X209376190Y-99854819D01*
X209376190Y-99854819D02*
X209471428Y-99854819D01*
X209471428Y-99854819D02*
X209566666Y-99807200D01*
X209566666Y-99807200D02*
X209614285Y-99759580D01*
X209614285Y-99759580D02*
X209661904Y-99664342D01*
X209661904Y-99664342D02*
X209709523Y-99473866D01*
X209709523Y-99473866D02*
X209709523Y-99235771D01*
X209709523Y-99235771D02*
X209661904Y-99045295D01*
X209661904Y-99045295D02*
X209614285Y-98950057D01*
X209614285Y-98950057D02*
X209566666Y-98902438D01*
X209566666Y-98902438D02*
X209471428Y-98854819D01*
%TO.C,C15*%
X134252080Y-78247142D02*
X134299700Y-78199523D01*
X134299700Y-78199523D02*
X134347319Y-78056666D01*
X134347319Y-78056666D02*
X134347319Y-77961428D01*
X134347319Y-77961428D02*
X134299700Y-77818571D01*
X134299700Y-77818571D02*
X134204461Y-77723333D01*
X134204461Y-77723333D02*
X134109223Y-77675714D01*
X134109223Y-77675714D02*
X133918747Y-77628095D01*
X133918747Y-77628095D02*
X133775890Y-77628095D01*
X133775890Y-77628095D02*
X133585414Y-77675714D01*
X133585414Y-77675714D02*
X133490176Y-77723333D01*
X133490176Y-77723333D02*
X133394938Y-77818571D01*
X133394938Y-77818571D02*
X133347319Y-77961428D01*
X133347319Y-77961428D02*
X133347319Y-78056666D01*
X133347319Y-78056666D02*
X133394938Y-78199523D01*
X133394938Y-78199523D02*
X133442557Y-78247142D01*
X134347319Y-79199523D02*
X134347319Y-78628095D01*
X134347319Y-78913809D02*
X133347319Y-78913809D01*
X133347319Y-78913809D02*
X133490176Y-78818571D01*
X133490176Y-78818571D02*
X133585414Y-78723333D01*
X133585414Y-78723333D02*
X133633033Y-78628095D01*
X133347319Y-80104285D02*
X133347319Y-79628095D01*
X133347319Y-79628095D02*
X133823509Y-79580476D01*
X133823509Y-79580476D02*
X133775890Y-79628095D01*
X133775890Y-79628095D02*
X133728271Y-79723333D01*
X133728271Y-79723333D02*
X133728271Y-79961428D01*
X133728271Y-79961428D02*
X133775890Y-80056666D01*
X133775890Y-80056666D02*
X133823509Y-80104285D01*
X133823509Y-80104285D02*
X133918747Y-80151904D01*
X133918747Y-80151904D02*
X134156842Y-80151904D01*
X134156842Y-80151904D02*
X134252080Y-80104285D01*
X134252080Y-80104285D02*
X134299700Y-80056666D01*
X134299700Y-80056666D02*
X134347319Y-79961428D01*
X134347319Y-79961428D02*
X134347319Y-79723333D01*
X134347319Y-79723333D02*
X134299700Y-79628095D01*
X134299700Y-79628095D02*
X134252080Y-79580476D01*
%TO.C,R1*%
X210466666Y-87854819D02*
X210799999Y-87378628D01*
X211038094Y-87854819D02*
X211038094Y-86854819D01*
X211038094Y-86854819D02*
X210657142Y-86854819D01*
X210657142Y-86854819D02*
X210561904Y-86902438D01*
X210561904Y-86902438D02*
X210514285Y-86950057D01*
X210514285Y-86950057D02*
X210466666Y-87045295D01*
X210466666Y-87045295D02*
X210466666Y-87188152D01*
X210466666Y-87188152D02*
X210514285Y-87283390D01*
X210514285Y-87283390D02*
X210561904Y-87331009D01*
X210561904Y-87331009D02*
X210657142Y-87378628D01*
X210657142Y-87378628D02*
X211038094Y-87378628D01*
X209514285Y-87854819D02*
X210085713Y-87854819D01*
X209799999Y-87854819D02*
X209799999Y-86854819D01*
X209799999Y-86854819D02*
X209895237Y-86997676D01*
X209895237Y-86997676D02*
X209990475Y-87092914D01*
X209990475Y-87092914D02*
X210085713Y-87140533D01*
%TO.C,D11*%
X131780235Y-75262975D02*
X131073128Y-74555869D01*
X131073128Y-74555869D02*
X130904769Y-74724227D01*
X130904769Y-74724227D02*
X130837426Y-74858914D01*
X130837426Y-74858914D02*
X130837426Y-74993601D01*
X130837426Y-74993601D02*
X130871098Y-75094617D01*
X130871098Y-75094617D02*
X130972113Y-75262975D01*
X130972113Y-75262975D02*
X131073128Y-75363991D01*
X131073128Y-75363991D02*
X131241487Y-75465006D01*
X131241487Y-75465006D02*
X131342502Y-75498678D01*
X131342502Y-75498678D02*
X131477189Y-75498678D01*
X131477189Y-75498678D02*
X131611876Y-75431334D01*
X131611876Y-75431334D02*
X131780235Y-75262975D01*
X130702739Y-76340471D02*
X131106800Y-75936410D01*
X130904769Y-76138441D02*
X130197663Y-75431334D01*
X130197663Y-75431334D02*
X130366021Y-75465006D01*
X130366021Y-75465006D02*
X130500708Y-75465006D01*
X130500708Y-75465006D02*
X130601724Y-75431334D01*
X130029304Y-77013907D02*
X130433365Y-76609846D01*
X130231334Y-76811876D02*
X129524227Y-76104769D01*
X129524227Y-76104769D02*
X129692586Y-76138441D01*
X129692586Y-76138441D02*
X129827273Y-76138441D01*
X129827273Y-76138441D02*
X129928288Y-76104769D01*
%TO.C,R19*%
X163954819Y-99157142D02*
X163478628Y-98823809D01*
X163954819Y-98585714D02*
X162954819Y-98585714D01*
X162954819Y-98585714D02*
X162954819Y-98966666D01*
X162954819Y-98966666D02*
X163002438Y-99061904D01*
X163002438Y-99061904D02*
X163050057Y-99109523D01*
X163050057Y-99109523D02*
X163145295Y-99157142D01*
X163145295Y-99157142D02*
X163288152Y-99157142D01*
X163288152Y-99157142D02*
X163383390Y-99109523D01*
X163383390Y-99109523D02*
X163431009Y-99061904D01*
X163431009Y-99061904D02*
X163478628Y-98966666D01*
X163478628Y-98966666D02*
X163478628Y-98585714D01*
X163954819Y-100109523D02*
X163954819Y-99538095D01*
X163954819Y-99823809D02*
X162954819Y-99823809D01*
X162954819Y-99823809D02*
X163097676Y-99728571D01*
X163097676Y-99728571D02*
X163192914Y-99633333D01*
X163192914Y-99633333D02*
X163240533Y-99538095D01*
X163954819Y-100585714D02*
X163954819Y-100776190D01*
X163954819Y-100776190D02*
X163907200Y-100871428D01*
X163907200Y-100871428D02*
X163859580Y-100919047D01*
X163859580Y-100919047D02*
X163716723Y-101014285D01*
X163716723Y-101014285D02*
X163526247Y-101061904D01*
X163526247Y-101061904D02*
X163145295Y-101061904D01*
X163145295Y-101061904D02*
X163050057Y-101014285D01*
X163050057Y-101014285D02*
X163002438Y-100966666D01*
X163002438Y-100966666D02*
X162954819Y-100871428D01*
X162954819Y-100871428D02*
X162954819Y-100680952D01*
X162954819Y-100680952D02*
X163002438Y-100585714D01*
X163002438Y-100585714D02*
X163050057Y-100538095D01*
X163050057Y-100538095D02*
X163145295Y-100490476D01*
X163145295Y-100490476D02*
X163383390Y-100490476D01*
X163383390Y-100490476D02*
X163478628Y-100538095D01*
X163478628Y-100538095D02*
X163526247Y-100585714D01*
X163526247Y-100585714D02*
X163573866Y-100680952D01*
X163573866Y-100680952D02*
X163573866Y-100871428D01*
X163573866Y-100871428D02*
X163526247Y-100966666D01*
X163526247Y-100966666D02*
X163478628Y-101014285D01*
X163478628Y-101014285D02*
X163383390Y-101061904D01*
%TO.C,R25*%
X164454819Y-52457142D02*
X163978628Y-52123809D01*
X164454819Y-51885714D02*
X163454819Y-51885714D01*
X163454819Y-51885714D02*
X163454819Y-52266666D01*
X163454819Y-52266666D02*
X163502438Y-52361904D01*
X163502438Y-52361904D02*
X163550057Y-52409523D01*
X163550057Y-52409523D02*
X163645295Y-52457142D01*
X163645295Y-52457142D02*
X163788152Y-52457142D01*
X163788152Y-52457142D02*
X163883390Y-52409523D01*
X163883390Y-52409523D02*
X163931009Y-52361904D01*
X163931009Y-52361904D02*
X163978628Y-52266666D01*
X163978628Y-52266666D02*
X163978628Y-51885714D01*
X163550057Y-52838095D02*
X163502438Y-52885714D01*
X163502438Y-52885714D02*
X163454819Y-52980952D01*
X163454819Y-52980952D02*
X163454819Y-53219047D01*
X163454819Y-53219047D02*
X163502438Y-53314285D01*
X163502438Y-53314285D02*
X163550057Y-53361904D01*
X163550057Y-53361904D02*
X163645295Y-53409523D01*
X163645295Y-53409523D02*
X163740533Y-53409523D01*
X163740533Y-53409523D02*
X163883390Y-53361904D01*
X163883390Y-53361904D02*
X164454819Y-52790476D01*
X164454819Y-52790476D02*
X164454819Y-53409523D01*
X163454819Y-54314285D02*
X163454819Y-53838095D01*
X163454819Y-53838095D02*
X163931009Y-53790476D01*
X163931009Y-53790476D02*
X163883390Y-53838095D01*
X163883390Y-53838095D02*
X163835771Y-53933333D01*
X163835771Y-53933333D02*
X163835771Y-54171428D01*
X163835771Y-54171428D02*
X163883390Y-54266666D01*
X163883390Y-54266666D02*
X163931009Y-54314285D01*
X163931009Y-54314285D02*
X164026247Y-54361904D01*
X164026247Y-54361904D02*
X164264342Y-54361904D01*
X164264342Y-54361904D02*
X164359580Y-54314285D01*
X164359580Y-54314285D02*
X164407200Y-54266666D01*
X164407200Y-54266666D02*
X164454819Y-54171428D01*
X164454819Y-54171428D02*
X164454819Y-53933333D01*
X164454819Y-53933333D02*
X164407200Y-53838095D01*
X164407200Y-53838095D02*
X164359580Y-53790476D01*
D12*
%TO.C,C6*%
X166838748Y-89535000D02*
X167361252Y-89535000D01*
X166838748Y-88065000D02*
X167361252Y-88065000D01*
%TO.C,C8*%
X158265000Y-83138748D02*
X158265000Y-83661252D01*
X159735000Y-83138748D02*
X159735000Y-83661252D01*
%TO.C,Q5*%
X161490000Y-69430000D02*
X161490000Y-67000000D01*
X161500000Y-69450000D02*
X162500000Y-69450000D01*
X163500000Y-69450000D02*
X164550000Y-69450000D01*
X164550000Y-69450000D02*
X164550000Y-67600000D01*
%TO.C,U6*%
X144165677Y-73093212D02*
X145084916Y-72173973D01*
X143599991Y-72527526D02*
X144165677Y-73093212D01*
X134973289Y-63900824D02*
X134266182Y-63193717D01*
X134266182Y-63193717D02*
X135185421Y-62274478D01*
X137909312Y-56880784D02*
X138061815Y-57033287D01*
X138418429Y-56371667D02*
X138570932Y-56524170D01*
X154489436Y-62769453D02*
X154913700Y-61213818D01*
X146286997Y-52587115D02*
X145579890Y-51880008D01*
X145579890Y-51880008D02*
X144589941Y-52869958D01*
%TO.C,D8*%
X159938748Y-53265000D02*
X160461252Y-53265000D01*
X159938748Y-54735000D02*
X160461252Y-54735000D01*
%TO.C,R21*%
X159820000Y-56332379D02*
X159820000Y-56667621D01*
X160580000Y-56332379D02*
X160580000Y-56667621D01*
%TO.C,C21*%
X208560000Y-97315835D02*
X208560000Y-97084165D01*
X207840000Y-97315835D02*
X207840000Y-97084165D01*
%TO.C,R15*%
X166274879Y-70440000D02*
X166610121Y-70440000D01*
X166274879Y-69680000D02*
X166610121Y-69680000D01*
%TO.C,R16*%
X164480000Y-79567621D02*
X164480000Y-79232379D01*
X163720000Y-79567621D02*
X163720000Y-79232379D01*
%TO.C,R8*%
X170380000Y-76507621D02*
X170380000Y-76172379D01*
X169620000Y-76507621D02*
X169620000Y-76172379D01*
%TO.C,R10*%
X161167621Y-88120000D02*
X160832379Y-88120000D01*
X161167621Y-88880000D02*
X160832379Y-88880000D01*
%TO.C,U3*%
X169100000Y-85420000D02*
X169100000Y-84620000D01*
X165980000Y-85420000D02*
X165980000Y-83620000D01*
X165980000Y-85420000D02*
X165980000Y-86220000D01*
X169100000Y-85420000D02*
X169100000Y-86220000D01*
%TO.C,Q1*%
X172500000Y-84040000D02*
X171850000Y-84040000D01*
X172500000Y-87160000D02*
X171850000Y-87160000D01*
X172500000Y-84040000D02*
X174175000Y-84040000D01*
X172500000Y-87160000D02*
X173150000Y-87160000D01*
%TO.C,R13*%
X168420000Y-67730121D02*
X168420000Y-67394879D01*
X167660000Y-67730121D02*
X167660000Y-67394879D01*
%TO.C,C2*%
X211470000Y-83624165D02*
X211470000Y-83855835D01*
X212190000Y-83624165D02*
X212190000Y-83855835D01*
%TO.C,R38*%
X113510000Y-84827064D02*
X113510000Y-83372936D01*
X111690000Y-84827064D02*
X111690000Y-83372936D01*
%TO.C,R34*%
X185055121Y-69900000D02*
X184719879Y-69900000D01*
X185055121Y-70660000D02*
X184719879Y-70660000D01*
%TO.C,R35*%
X200267621Y-79520000D02*
X199932379Y-79520000D01*
X200267621Y-80280000D02*
X199932379Y-80280000D01*
%TO.C,R5*%
X209782621Y-78275000D02*
X209447379Y-78275000D01*
X209782621Y-79035000D02*
X209447379Y-79035000D01*
%TO.C,R36*%
X206622379Y-76700000D02*
X206957621Y-76700000D01*
X206622379Y-75940000D02*
X206957621Y-75940000D01*
%TO.C,R30*%
X125077064Y-83195000D02*
X124622936Y-83195000D01*
X125077064Y-84665000D02*
X124622936Y-84665000D01*
%TO.C,REF3*%
G36*
X117736685Y-96839089D02*
G01*
X117755347Y-96925644D01*
X117789828Y-97086708D01*
X117837116Y-97308244D01*
X117895258Y-97581088D01*
X117962304Y-97896077D01*
X118036302Y-98244047D01*
X118115301Y-98615834D01*
X118197348Y-99002276D01*
X118198216Y-99006366D01*
X118278406Y-99383987D01*
X118354044Y-99739752D01*
X118423417Y-100065639D01*
X118484814Y-100353624D01*
X118536523Y-100595684D01*
X118576831Y-100783797D01*
X118604028Y-100909941D01*
X118616400Y-100966091D01*
X118637709Y-101055808D01*
X118058770Y-101055808D01*
X117968347Y-101055405D01*
X117775635Y-101051577D01*
X117620639Y-101044354D01*
X117517368Y-101034532D01*
X117479832Y-101022907D01*
X117476752Y-101004644D01*
X117459180Y-100916255D01*
X117427362Y-100761455D01*
X117382802Y-100547419D01*
X117327008Y-100281321D01*
X117261484Y-99970334D01*
X117187737Y-99621632D01*
X117107272Y-99242391D01*
X117021596Y-98839783D01*
X116969755Y-98596085D01*
X116886859Y-98204514D01*
X116810092Y-97839566D01*
X116740968Y-97508579D01*
X116681004Y-97218886D01*
X116631714Y-96977824D01*
X116594613Y-96792729D01*
X116571217Y-96670936D01*
X116563040Y-96619780D01*
X116567165Y-96596380D01*
X116590422Y-96575632D01*
X116645072Y-96562139D01*
X116743200Y-96554382D01*
X116896895Y-96550842D01*
X117118242Y-96550000D01*
X117673764Y-96550000D01*
X117736685Y-96839089D01*
G37*
G36*
X111396553Y-97557537D02*
G01*
X111525181Y-97579046D01*
X111654256Y-97611314D01*
X111761813Y-97651098D01*
X111915179Y-97746598D01*
X112085106Y-97895403D01*
X112229481Y-98065228D01*
X112300146Y-98164914D01*
X112278194Y-98065228D01*
X112276426Y-98057093D01*
X112254077Y-97944116D01*
X112231044Y-97814853D01*
X112205846Y-97664164D01*
X112756664Y-97675292D01*
X113307481Y-97686421D01*
X113656790Y-99321271D01*
X113694591Y-99498421D01*
X113766904Y-99838676D01*
X113832977Y-100151350D01*
X113891059Y-100428043D01*
X113939396Y-100660359D01*
X113976238Y-100839899D01*
X113999833Y-100958266D01*
X114008429Y-101007060D01*
X113996238Y-101025304D01*
X113943645Y-101039768D01*
X113840508Y-101047738D01*
X113677133Y-101049899D01*
X113443827Y-101046935D01*
X112876895Y-101035871D01*
X112674313Y-100098823D01*
X112618133Y-99838852D01*
X112559121Y-99566943D01*
X112512538Y-99356506D01*
X112475768Y-99198301D01*
X112446197Y-99083091D01*
X112421210Y-99001635D01*
X112398192Y-98944695D01*
X112374528Y-98903031D01*
X112347603Y-98867404D01*
X112314802Y-98828576D01*
X112287969Y-98799037D01*
X112140856Y-98694330D01*
X111942071Y-98631826D01*
X111681691Y-98608069D01*
X111440269Y-98603532D01*
X111331376Y-98105102D01*
X111325989Y-98080408D01*
X111285459Y-97892246D01*
X111252251Y-97734005D01*
X111229669Y-97621667D01*
X111221016Y-97571212D01*
X111228502Y-97559776D01*
X111290338Y-97550032D01*
X111396553Y-97557537D01*
G37*
G36*
X118825280Y-96550338D02*
G01*
X119018140Y-96553466D01*
X119173213Y-96559344D01*
X119276513Y-96567329D01*
X119314055Y-96576775D01*
X119314616Y-96580794D01*
X119326776Y-96642987D01*
X119353629Y-96773757D01*
X119393603Y-96965639D01*
X119445131Y-97211169D01*
X119506642Y-97502881D01*
X119576567Y-97833310D01*
X119653335Y-98194993D01*
X119735378Y-98580464D01*
X119748643Y-98642707D01*
X119832310Y-99035379D01*
X119912179Y-99410375D01*
X119986419Y-99759078D01*
X120053195Y-100072870D01*
X120110675Y-100343135D01*
X120157025Y-100561255D01*
X120190412Y-100718613D01*
X120209002Y-100806593D01*
X120261303Y-101055808D01*
X119687993Y-101055808D01*
X119602488Y-101055594D01*
X119410190Y-101053386D01*
X119255405Y-101049169D01*
X119152210Y-101043414D01*
X119114683Y-101036593D01*
X119114509Y-101035062D01*
X119104173Y-100981949D01*
X119079180Y-100860646D01*
X119041353Y-100679699D01*
X118992514Y-100447655D01*
X118934486Y-100173060D01*
X118869090Y-99864460D01*
X118798148Y-99530402D01*
X118723483Y-99179432D01*
X118646917Y-98820096D01*
X118570273Y-98460942D01*
X118495372Y-98110514D01*
X118424037Y-97777360D01*
X118358090Y-97470026D01*
X118299352Y-97197059D01*
X118249648Y-96967004D01*
X118210798Y-96788408D01*
X118184624Y-96669818D01*
X118172950Y-96619780D01*
X118172317Y-96617572D01*
X118171188Y-96590995D01*
X118192666Y-96572441D01*
X118248178Y-96560488D01*
X118349150Y-96553712D01*
X118507011Y-96550691D01*
X118733189Y-96550000D01*
X118825280Y-96550338D01*
G37*
G36*
X128528754Y-92967798D02*
G01*
X128653743Y-92985709D01*
X128767887Y-93015975D01*
X128965786Y-93116171D01*
X129149767Y-93261551D01*
X129286587Y-93426217D01*
X129339945Y-93506371D01*
X129379375Y-93543482D01*
X129387514Y-93507353D01*
X129365195Y-93397679D01*
X129333510Y-93269299D01*
X129305705Y-93150706D01*
X129281138Y-93041052D01*
X129840140Y-93041052D01*
X129913245Y-93041211D01*
X130104439Y-93043273D01*
X130258657Y-93047346D01*
X130361644Y-93052954D01*
X130399141Y-93059625D01*
X130401672Y-93073844D01*
X130418033Y-93154669D01*
X130447792Y-93298135D01*
X130488860Y-93494389D01*
X130539147Y-93733579D01*
X130596565Y-94005851D01*
X130659024Y-94301354D01*
X130724435Y-94610234D01*
X130790709Y-94922639D01*
X130855756Y-95228716D01*
X130917489Y-95518612D01*
X130973817Y-95782474D01*
X131022651Y-96010450D01*
X131061902Y-96192687D01*
X131089482Y-96319333D01*
X131103300Y-96380534D01*
X131125526Y-96470251D01*
X130551807Y-96470251D01*
X129978089Y-96470251D01*
X129786690Y-95563108D01*
X129759490Y-95435099D01*
X129701913Y-95169777D01*
X129647539Y-94926318D01*
X129599591Y-94718784D01*
X129561286Y-94561237D01*
X129535847Y-94467739D01*
X129503258Y-94384312D01*
X129378753Y-94207428D01*
X129200747Y-94082256D01*
X128978268Y-94013895D01*
X128720346Y-94007439D01*
X128536263Y-94025127D01*
X128430805Y-93523121D01*
X128424922Y-93495069D01*
X128386051Y-93307164D01*
X128354450Y-93150065D01*
X128333231Y-93039503D01*
X128325509Y-92991209D01*
X128342544Y-92974432D01*
X128416997Y-92963589D01*
X128528754Y-92967798D01*
G37*
G36*
X123065135Y-97557800D02*
G01*
X123195960Y-97577872D01*
X123333942Y-97614603D01*
X123458602Y-97665263D01*
X123509579Y-97695810D01*
X123618227Y-97779272D01*
X123732837Y-97883954D01*
X123836113Y-97992397D01*
X123910761Y-98087143D01*
X123939486Y-98150731D01*
X123940740Y-98167300D01*
X123956482Y-98181147D01*
X123958246Y-98142532D01*
X123945903Y-98046249D01*
X123921550Y-97915318D01*
X123869623Y-97666483D01*
X124419618Y-97666483D01*
X124969613Y-97666483D01*
X125014541Y-97875824D01*
X125030229Y-97949348D01*
X125061606Y-98096992D01*
X125105306Y-98302955D01*
X125159113Y-98556772D01*
X125220807Y-98847979D01*
X125288170Y-99166112D01*
X125358984Y-99500706D01*
X125425666Y-99815194D01*
X125490711Y-100120614D01*
X125549278Y-100394258D01*
X125599375Y-100626872D01*
X125639009Y-100809207D01*
X125666187Y-100932009D01*
X125678916Y-100986028D01*
X125679204Y-100987023D01*
X125680897Y-101014075D01*
X125660302Y-101032961D01*
X125605928Y-101045129D01*
X125506283Y-101052027D01*
X125349877Y-101055105D01*
X125125219Y-101055808D01*
X124551104Y-101055808D01*
X124338452Y-100059983D01*
X124311198Y-99933899D01*
X124243214Y-99632830D01*
X124179817Y-99370780D01*
X124123553Y-99157587D01*
X124076969Y-99003087D01*
X124042612Y-98917119D01*
X123991393Y-98840686D01*
X123842918Y-98711875D01*
X123641602Y-98636370D01*
X123382194Y-98611742D01*
X123111555Y-98611742D01*
X123007153Y-98128763D01*
X123005416Y-98120719D01*
X122965485Y-97931434D01*
X122932848Y-97768676D01*
X122910830Y-97649557D01*
X122902752Y-97591185D01*
X122906877Y-97578552D01*
X122961948Y-97557117D01*
X123065135Y-97557800D01*
G37*
G36*
X123283735Y-100202748D02*
G01*
X123258942Y-100476755D01*
X123187533Y-100697672D01*
X123067936Y-100869700D01*
X122898582Y-100997041D01*
X122677901Y-101083896D01*
X122404322Y-101134465D01*
X122101826Y-101152826D01*
X121720824Y-101121819D01*
X121383053Y-101024687D01*
X121087671Y-100860781D01*
X120833833Y-100629452D01*
X120620697Y-100330051D01*
X120447421Y-99961928D01*
X120313161Y-99524436D01*
X120264481Y-99312852D01*
X120192927Y-98913361D01*
X120165342Y-98575303D01*
X120166725Y-98553707D01*
X121310227Y-98553707D01*
X121319569Y-98758118D01*
X121353270Y-99020506D01*
X121410974Y-99334559D01*
X121423174Y-99392987D01*
X121506359Y-99748713D01*
X121588613Y-100025246D01*
X121670097Y-100223064D01*
X121750971Y-100342647D01*
X121777646Y-100364808D01*
X121887218Y-100409398D01*
X122005947Y-100412079D01*
X122097289Y-100369969D01*
X122105778Y-100359643D01*
X122135765Y-100263087D01*
X122142375Y-100101342D01*
X122126205Y-99883495D01*
X122087855Y-99618634D01*
X122027921Y-99315846D01*
X121978741Y-99105207D01*
X121896359Y-98804515D01*
X121815721Y-98575432D01*
X121737826Y-98420624D01*
X121663672Y-98342757D01*
X121564902Y-98310751D01*
X121444570Y-98311475D01*
X121355625Y-98352323D01*
X121325600Y-98413585D01*
X121310227Y-98553707D01*
X120166725Y-98553707D01*
X120183351Y-98294184D01*
X120248580Y-98065510D01*
X120362654Y-97884785D01*
X120527196Y-97747515D01*
X120743833Y-97649206D01*
X121014189Y-97585362D01*
X121150809Y-97569024D01*
X121461728Y-97567496D01*
X121773365Y-97608756D01*
X122060872Y-97688602D01*
X122299406Y-97802828D01*
X122419712Y-97889426D01*
X122648556Y-98121481D01*
X122846785Y-98418959D01*
X123010090Y-98774742D01*
X123134163Y-99181711D01*
X123199752Y-99478659D01*
X123263482Y-99871449D01*
X123277536Y-100101342D01*
X123283735Y-100202748D01*
G37*
G36*
X133931268Y-100331052D02*
G01*
X133928526Y-100353345D01*
X133866088Y-100612583D01*
X133751185Y-100816603D01*
X133579728Y-100969136D01*
X133347626Y-101073917D01*
X133050789Y-101134678D01*
X132750505Y-101154941D01*
X132371357Y-101125331D01*
X132034096Y-101028421D01*
X131738215Y-100863818D01*
X131483205Y-100631130D01*
X131268559Y-100329967D01*
X131093768Y-99959935D01*
X130958325Y-99520644D01*
X130900279Y-99266307D01*
X130832459Y-98873162D01*
X130809642Y-98553707D01*
X131956695Y-98553707D01*
X131966036Y-98758118D01*
X131999738Y-99020506D01*
X132057442Y-99334559D01*
X132069642Y-99392987D01*
X132152827Y-99748713D01*
X132235081Y-100025246D01*
X132316565Y-100223064D01*
X132397439Y-100342647D01*
X132424114Y-100364808D01*
X132533686Y-100409398D01*
X132652415Y-100412079D01*
X132743756Y-100369969D01*
X132773781Y-100308707D01*
X132789154Y-100168585D01*
X132779812Y-99964174D01*
X132746111Y-99701785D01*
X132688407Y-99387733D01*
X132676207Y-99329305D01*
X132593022Y-98973579D01*
X132510768Y-98697046D01*
X132429284Y-98499228D01*
X132348410Y-98379645D01*
X132321735Y-98357484D01*
X132212163Y-98312894D01*
X132093434Y-98310213D01*
X132002092Y-98352323D01*
X131972068Y-98413585D01*
X131956695Y-98553707D01*
X130809642Y-98553707D01*
X130808746Y-98541164D01*
X130830805Y-98265889D01*
X130900298Y-98042912D01*
X131018890Y-97867808D01*
X131188244Y-97736152D01*
X131410022Y-97643520D01*
X131685890Y-97585487D01*
X131715565Y-97581554D01*
X132102621Y-97567046D01*
X132465210Y-97621178D01*
X132796024Y-97740496D01*
X133087756Y-97921544D01*
X133333097Y-98160867D01*
X133524740Y-98455008D01*
X133556089Y-98520721D01*
X133646231Y-98750526D01*
X133731142Y-99022010D01*
X133806651Y-99315928D01*
X133868589Y-99613035D01*
X133912784Y-99894088D01*
X133935067Y-100139841D01*
X133934496Y-100168585D01*
X133931268Y-100331052D01*
G37*
G36*
X128699503Y-95684468D02*
G01*
X128673405Y-95919762D01*
X128614367Y-96098055D01*
X128598484Y-96127033D01*
X128481638Y-96281963D01*
X128323692Y-96396773D01*
X128105721Y-96485893D01*
X127992481Y-96513026D01*
X127765435Y-96537871D01*
X127505268Y-96540808D01*
X127238457Y-96522972D01*
X126991476Y-96485497D01*
X126790801Y-96429518D01*
X126783597Y-96426723D01*
X126508322Y-96276296D01*
X126266681Y-96054352D01*
X126059492Y-95762038D01*
X125887573Y-95400501D01*
X125751739Y-94970889D01*
X125697786Y-94744898D01*
X125623039Y-94341174D01*
X125593802Y-94005904D01*
X126732058Y-94005904D01*
X126746581Y-94216046D01*
X126779575Y-94459637D01*
X126827577Y-94720557D01*
X126887123Y-94982688D01*
X126954751Y-95229911D01*
X127026997Y-95446108D01*
X127100399Y-95615161D01*
X127171493Y-95720951D01*
X127262042Y-95794532D01*
X127377649Y-95828175D01*
X127498278Y-95789192D01*
X127502264Y-95786769D01*
X127542012Y-95740605D01*
X127562345Y-95653990D01*
X127568058Y-95507579D01*
X127566137Y-95437223D01*
X127546962Y-95234983D01*
X127510398Y-94999906D01*
X127460384Y-94747984D01*
X127400857Y-94495207D01*
X127335755Y-94257565D01*
X127269016Y-94051049D01*
X127204578Y-93891648D01*
X127146380Y-93795354D01*
X127120419Y-93772592D01*
X127023342Y-93730474D01*
X126910278Y-93717325D01*
X126810905Y-93734159D01*
X126754899Y-93781990D01*
X126739469Y-93845328D01*
X126732058Y-94005904D01*
X125593802Y-94005904D01*
X125593129Y-93998187D01*
X125608882Y-93711910D01*
X125671124Y-93478319D01*
X125780681Y-93293387D01*
X125938377Y-93153088D01*
X126145040Y-93053397D01*
X126244037Y-93025637D01*
X126474204Y-92991024D01*
X126737937Y-92979180D01*
X127007604Y-92989638D01*
X127255572Y-93021930D01*
X127454209Y-93075586D01*
X127646159Y-93162774D01*
X127922841Y-93349224D01*
X128145270Y-93589260D01*
X128185267Y-93646808D01*
X128314617Y-93879302D01*
X128429810Y-94155247D01*
X128528162Y-94460291D01*
X128606991Y-94780086D01*
X128663613Y-95100280D01*
X128695344Y-95406524D01*
X128696856Y-95507579D01*
X128699503Y-95684468D01*
G37*
G36*
X135216401Y-96480987D02*
G01*
X135584755Y-96542921D01*
X135905466Y-96664154D01*
X136182986Y-96847946D01*
X136421763Y-97097557D01*
X136626248Y-97416246D01*
X136800891Y-97807274D01*
X136806518Y-97822334D01*
X136897798Y-98097020D01*
X136984655Y-98411397D01*
X137064060Y-98749008D01*
X137132982Y-99093394D01*
X137188390Y-99428097D01*
X137227253Y-99736659D01*
X137246542Y-100002621D01*
X137243226Y-100209525D01*
X137223838Y-100358525D01*
X137149800Y-100618980D01*
X137025605Y-100821908D01*
X136846238Y-100972240D01*
X136606684Y-101074906D01*
X136301926Y-101134835D01*
X136004158Y-101154737D01*
X135608190Y-101127035D01*
X135250663Y-101034385D01*
X134935774Y-100878012D01*
X134667721Y-100659136D01*
X134661602Y-100652823D01*
X134512713Y-100475667D01*
X134387195Y-100272302D01*
X134279054Y-100029345D01*
X134182296Y-99733411D01*
X134090928Y-99371115D01*
X134066068Y-99261460D01*
X134639615Y-99261460D01*
X135213162Y-99261460D01*
X135282244Y-99550549D01*
X135328565Y-99725205D01*
X135406360Y-99957346D01*
X135489263Y-100143432D01*
X135570580Y-100266832D01*
X135624631Y-100303288D01*
X135742561Y-100333748D01*
X135872901Y-100334131D01*
X135977974Y-100301254D01*
X136026626Y-100229217D01*
X136049294Y-100082436D01*
X136042787Y-99862477D01*
X136007093Y-99568995D01*
X135942202Y-99201648D01*
X135906131Y-99021162D01*
X135826501Y-98643417D01*
X135749375Y-98304931D01*
X135677165Y-98015593D01*
X135612286Y-97785294D01*
X135557149Y-97623921D01*
X135518516Y-97542625D01*
X135415554Y-97404077D01*
X135293829Y-97311798D01*
X135167531Y-97271749D01*
X135050848Y-97289893D01*
X134957972Y-97372191D01*
X134933051Y-97413923D01*
X134913288Y-97470778D01*
X134909571Y-97545831D01*
X134921489Y-97659136D01*
X134948637Y-97830746D01*
X135007740Y-98184851D01*
X134440804Y-98184851D01*
X133873869Y-98184851D01*
X133822913Y-97955573D01*
X133780888Y-97718644D01*
X133766589Y-97389270D01*
X133814540Y-97109578D01*
X133924416Y-96879985D01*
X134095893Y-96700908D01*
X134328648Y-96572764D01*
X134622356Y-96495970D01*
X134976692Y-96470943D01*
X135216401Y-96480987D01*
G37*
G36*
X128448237Y-97588400D02*
G01*
X128682813Y-97653899D01*
X128894114Y-97763290D01*
X129065049Y-97915023D01*
X129170097Y-98039865D01*
X129142101Y-97853174D01*
X129114105Y-97666483D01*
X129654250Y-97666483D01*
X129794323Y-97666809D01*
X129971891Y-97669476D01*
X130090103Y-97676173D01*
X130161706Y-97688480D01*
X130199445Y-97707983D01*
X130216065Y-97736264D01*
X130221285Y-97757040D01*
X130241935Y-97848256D01*
X130275430Y-98000772D01*
X130319655Y-98204642D01*
X130372496Y-98449917D01*
X130431837Y-98726650D01*
X130495564Y-99024893D01*
X130561562Y-99334698D01*
X130627715Y-99646118D01*
X130691910Y-99949204D01*
X130752031Y-100234010D01*
X130805963Y-100490587D01*
X130851592Y-100708988D01*
X130886802Y-100879264D01*
X130909479Y-100991469D01*
X130917508Y-101035655D01*
X130911696Y-101038731D01*
X130847184Y-101045021D01*
X130722550Y-101048671D01*
X130551931Y-101049403D01*
X130349462Y-101046935D01*
X129781415Y-101035871D01*
X129537450Y-99899450D01*
X129524245Y-99837985D01*
X129461260Y-99545937D01*
X129402880Y-99277051D01*
X129351513Y-99042293D01*
X129309568Y-98852628D01*
X129279454Y-98719024D01*
X129263578Y-98652445D01*
X129211924Y-98546853D01*
X129095407Y-98456227D01*
X128933998Y-98424097D01*
X128868134Y-98426830D01*
X128815841Y-98440155D01*
X128779050Y-98471550D01*
X128757969Y-98528492D01*
X128752807Y-98618455D01*
X128763772Y-98748917D01*
X128791072Y-98927354D01*
X128834916Y-99161240D01*
X128895513Y-99458054D01*
X128973071Y-99825269D01*
X129230517Y-101035871D01*
X128672891Y-101046968D01*
X128602809Y-101048262D01*
X128409654Y-101050703D01*
X128252126Y-101051039D01*
X128144923Y-101049308D01*
X128102746Y-101045546D01*
X128096061Y-101022603D01*
X128073960Y-100930289D01*
X128038701Y-100775826D01*
X127992315Y-100568320D01*
X127936834Y-100316875D01*
X127874288Y-100030598D01*
X127806709Y-99718594D01*
X127772619Y-99559745D01*
X127689150Y-99160547D01*
X127624119Y-98828849D01*
X127576857Y-98557367D01*
X127546694Y-98338813D01*
X127532960Y-98165902D01*
X127534985Y-98031346D01*
X127552099Y-97927861D01*
X127583631Y-97848158D01*
X127628913Y-97784953D01*
X127775759Y-97670725D01*
X127977620Y-97595265D01*
X128207476Y-97568339D01*
X128448237Y-97588400D01*
G37*
G36*
X133933123Y-93924027D02*
G01*
X134009830Y-94283804D01*
X134086199Y-94642593D01*
X134160409Y-94991841D01*
X134230638Y-95322994D01*
X134295062Y-95627497D01*
X134351859Y-95896798D01*
X134399207Y-96122342D01*
X134435283Y-96295576D01*
X134458265Y-96407945D01*
X134466331Y-96450895D01*
X134458034Y-96454134D01*
X134388302Y-96460494D01*
X134259150Y-96465598D01*
X134084477Y-96468989D01*
X133878183Y-96470211D01*
X133290036Y-96470171D01*
X133111319Y-95612911D01*
X132932602Y-94755651D01*
X132592952Y-94755062D01*
X132336814Y-94744636D01*
X131949444Y-94681473D01*
X131615578Y-94559908D01*
X131333310Y-94378583D01*
X131100734Y-94136144D01*
X130915944Y-93831232D01*
X130777034Y-93462491D01*
X130747108Y-93330138D01*
X130726176Y-93179079D01*
X131954243Y-93179079D01*
X131954547Y-93204309D01*
X131990000Y-93441710D01*
X132079317Y-93640934D01*
X132215262Y-93790379D01*
X132390595Y-93878444D01*
X132405121Y-93882317D01*
X132517500Y-93904515D01*
X132630178Y-93916847D01*
X132716981Y-93917433D01*
X132751731Y-93904392D01*
X132744054Y-93864263D01*
X132722971Y-93763627D01*
X132692336Y-93620350D01*
X132656006Y-93452212D01*
X132617841Y-93276993D01*
X132581697Y-93112472D01*
X132551432Y-92976428D01*
X132530904Y-92886640D01*
X132519520Y-92847984D01*
X132489413Y-92812876D01*
X132424908Y-92803241D01*
X132303694Y-92811721D01*
X132183514Y-92832086D01*
X132050808Y-92897034D01*
X131977051Y-93009895D01*
X131954243Y-93179079D01*
X130726176Y-93179079D01*
X130719804Y-93133099D01*
X130709275Y-92945181D01*
X130715198Y-92797393D01*
X130766613Y-92532969D01*
X130873380Y-92322639D01*
X131038578Y-92161415D01*
X131265287Y-92044306D01*
X131319848Y-92025151D01*
X131394410Y-92004642D01*
X131481131Y-91989302D01*
X131591273Y-91978396D01*
X131736102Y-91971191D01*
X131926883Y-91966953D01*
X132174879Y-91964948D01*
X132491356Y-91964443D01*
X132795472Y-91964794D01*
X133038172Y-91966291D01*
X133219342Y-91969557D01*
X133348213Y-91975214D01*
X133434016Y-91983887D01*
X133485984Y-91996197D01*
X133513348Y-92012768D01*
X133525338Y-92034223D01*
X133526035Y-92036735D01*
X133539829Y-92096471D01*
X133567865Y-92223650D01*
X133608322Y-92409719D01*
X133659377Y-92646125D01*
X133719207Y-92924312D01*
X133785989Y-93235727D01*
X133857902Y-93571817D01*
X133928930Y-93904392D01*
X133933123Y-93924027D01*
G37*
G36*
X116699900Y-99106763D02*
G01*
X116744401Y-99284464D01*
X116828933Y-99707760D01*
X116865766Y-100070244D01*
X116853924Y-100374873D01*
X116792429Y-100624607D01*
X116680304Y-100822403D01*
X116516571Y-100971220D01*
X116300254Y-101074016D01*
X116030376Y-101133750D01*
X115896553Y-101147876D01*
X115520531Y-101148017D01*
X115173203Y-101089267D01*
X114863499Y-100974597D01*
X114600351Y-100806974D01*
X114392687Y-100589366D01*
X114376537Y-100566300D01*
X114301521Y-100439026D01*
X114224927Y-100283727D01*
X114157238Y-100124606D01*
X114108937Y-99985866D01*
X114090507Y-99891708D01*
X114091110Y-99890129D01*
X114137277Y-99878206D01*
X114246286Y-99868498D01*
X114403098Y-99861967D01*
X114592670Y-99859576D01*
X114759363Y-99859991D01*
X114915449Y-99862871D01*
X115015681Y-99870344D01*
X115073558Y-99884521D01*
X115102577Y-99907513D01*
X115116238Y-99941429D01*
X115156668Y-100057371D01*
X115234679Y-100209322D01*
X115325933Y-100337856D01*
X115413617Y-100416130D01*
X115513930Y-100452534D01*
X115632926Y-100435666D01*
X115664919Y-100423416D01*
X115718439Y-100386098D01*
X115744217Y-100319235D01*
X115755140Y-100197736D01*
X115755688Y-100125354D01*
X115742398Y-99948392D01*
X115714358Y-99779827D01*
X115663732Y-99560518D01*
X114820444Y-99549765D01*
X113977156Y-99539013D01*
X113932186Y-99330456D01*
X113907260Y-99209444D01*
X113847305Y-98822947D01*
X113831938Y-98496953D01*
X113836618Y-98454963D01*
X114859808Y-98454963D01*
X114862928Y-98634583D01*
X114875699Y-98739223D01*
X114893975Y-98849012D01*
X114910029Y-98905982D01*
X114912751Y-98908874D01*
X114971117Y-98925906D01*
X115084399Y-98937917D01*
X115231088Y-98942465D01*
X115529599Y-98942465D01*
X115501598Y-98792936D01*
X115450209Y-98594883D01*
X115357828Y-98411770D01*
X115234722Y-98301486D01*
X115081343Y-98264600D01*
X114982049Y-98277946D01*
X114898051Y-98338565D01*
X114859808Y-98454963D01*
X113836618Y-98454963D01*
X113862085Y-98226472D01*
X113938671Y-98006515D01*
X114062622Y-97832090D01*
X114234862Y-97698210D01*
X114321305Y-97657938D01*
X114516653Y-97604340D01*
X114751489Y-97572172D01*
X115001592Y-97564197D01*
X115242741Y-97583182D01*
X115408935Y-97613589D01*
X115723341Y-97714149D01*
X115992183Y-97867897D01*
X116219860Y-98079432D01*
X116410772Y-98353355D01*
X116569319Y-98694265D01*
X116647890Y-98942465D01*
X116699900Y-99106763D01*
G37*
G36*
X125980744Y-96638623D02*
G01*
X126546647Y-96649686D01*
X126650783Y-97148116D01*
X126754919Y-97646546D01*
X126949801Y-97666483D01*
X127144683Y-97686421D01*
X127215565Y-98005416D01*
X127252771Y-98173873D01*
X127276238Y-98300620D01*
X127277127Y-98375266D01*
X127251957Y-98411561D01*
X127197243Y-98423255D01*
X127109502Y-98424097D01*
X127055998Y-98424653D01*
X126965744Y-98429008D01*
X126930067Y-98436272D01*
X126934480Y-98459547D01*
X126953291Y-98551123D01*
X126984812Y-98702011D01*
X127026788Y-98901479D01*
X127076967Y-99138794D01*
X127133096Y-99403226D01*
X127163832Y-99548730D01*
X127236630Y-99906740D01*
X127289727Y-100198085D01*
X127322934Y-100430633D01*
X127336061Y-100612253D01*
X127328919Y-100750813D01*
X127301319Y-100854181D01*
X127253070Y-100930225D01*
X127183983Y-100986812D01*
X127093869Y-101031811D01*
X127022216Y-101050918D01*
X126883121Y-101070269D01*
X126706363Y-101084467D01*
X126511443Y-101093020D01*
X126317861Y-101095435D01*
X126145116Y-101091220D01*
X126012707Y-101079884D01*
X125940134Y-101060933D01*
X125929957Y-101048025D01*
X125897683Y-100972689D01*
X125857201Y-100850779D01*
X125814594Y-100703945D01*
X125775946Y-100553836D01*
X125747340Y-100422102D01*
X125734859Y-100330393D01*
X125739800Y-100323151D01*
X125797447Y-100303997D01*
X125899240Y-100290519D01*
X125941555Y-100287020D01*
X126015578Y-100275063D01*
X126068139Y-100249425D01*
X126099876Y-100200929D01*
X126111429Y-100120399D01*
X126103435Y-99998658D01*
X126076533Y-99826529D01*
X126031363Y-99594837D01*
X125968562Y-99294403D01*
X125788847Y-98444034D01*
X125562231Y-98432084D01*
X125487441Y-98427267D01*
X125388230Y-98412386D01*
X125337952Y-98383531D01*
X125316108Y-98332398D01*
X125298693Y-98254139D01*
X125269707Y-98123951D01*
X125236097Y-97973036D01*
X125234513Y-97965918D01*
X125204769Y-97829854D01*
X125183635Y-97728720D01*
X125175593Y-97683946D01*
X125195109Y-97676766D01*
X125274767Y-97669356D01*
X125394902Y-97666483D01*
X125485081Y-97664993D01*
X125578136Y-97658910D01*
X125614212Y-97649736D01*
X125606563Y-97607943D01*
X125585188Y-97503714D01*
X125553403Y-97353071D01*
X125514526Y-97171921D01*
X125476965Y-96995108D01*
X125444702Y-96836978D01*
X125422868Y-96722668D01*
X125414840Y-96669206D01*
X125440750Y-96653997D01*
X125543734Y-96641660D01*
X125724109Y-96636514D01*
X125980744Y-96638623D01*
G37*
%TO.C,C7*%
X163061252Y-81165000D02*
X162538748Y-81165000D01*
X163061252Y-82635000D02*
X162538748Y-82635000D01*
%TO.C,R29*%
X124132379Y-87480000D02*
X124467621Y-87480000D01*
X124132379Y-86720000D02*
X124467621Y-86720000D01*
%TO.C,R41*%
X206610000Y-98227064D02*
X206610000Y-96772936D01*
X204790000Y-98227064D02*
X204790000Y-96772936D01*
%TO.C,R24*%
X158420000Y-56232379D02*
X158420000Y-56567621D01*
X159180000Y-56232379D02*
X159180000Y-56567621D01*
%TO.C,C12*%
X165391252Y-76205000D02*
X164868748Y-76205000D01*
X165391252Y-77675000D02*
X164868748Y-77675000D01*
%TO.C,C11*%
X157340000Y-77684165D02*
X157340000Y-77915835D01*
X158060000Y-77684165D02*
X158060000Y-77915835D01*
%TO.C,Q2*%
X167270000Y-78690000D02*
X169700000Y-78690000D01*
X167250000Y-78700000D02*
X167250000Y-79700000D01*
X167250000Y-80700000D02*
X167250000Y-81750000D01*
X167250000Y-81750000D02*
X169100000Y-81750000D01*
%TO.C,C9*%
X162415835Y-89740000D02*
X162184165Y-89740000D01*
X162415835Y-90460000D02*
X162184165Y-90460000D01*
%TO.C,R2*%
X213520121Y-85800000D02*
X213184879Y-85800000D01*
X213520121Y-86560000D02*
X213184879Y-86560000D01*
%TO.C,U4*%
X162677500Y-87250000D02*
X163477500Y-87250000D01*
X162677500Y-84130000D02*
X164477500Y-84130000D01*
X162677500Y-84130000D02*
X161877500Y-84130000D01*
X162677500Y-87250000D02*
X161877500Y-87250000D01*
%TO.C,D10*%
X127886292Y-80646761D02*
X128255759Y-80277294D01*
X128925739Y-81686208D02*
X129295206Y-81316741D01*
%TO.C,R6*%
X206952621Y-78305000D02*
X206617379Y-78305000D01*
X206952621Y-79065000D02*
X206617379Y-79065000D01*
%TO.C,R4*%
X212602621Y-78305000D02*
X212267379Y-78305000D01*
X212602621Y-79065000D02*
X212267379Y-79065000D01*
%TO.C,D6*%
X164061252Y-56335000D02*
X163538748Y-56335000D01*
X164061252Y-54865000D02*
X163538748Y-54865000D01*
%TO.C,R3*%
X212210000Y-81315121D02*
X212210000Y-80979879D01*
X211450000Y-81315121D02*
X211450000Y-80979879D01*
%TO.C,Q7*%
X165402500Y-58817500D02*
X165402500Y-58167500D01*
X162282500Y-58817500D02*
X162282500Y-58167500D01*
X165402500Y-58817500D02*
X165402500Y-60492500D01*
X162282500Y-58817500D02*
X162282500Y-59467500D01*
%TO.C,R40*%
X214210000Y-98227064D02*
X214210000Y-96772936D01*
X212390000Y-98227064D02*
X212390000Y-96772936D01*
%TO.C,R26*%
X153325121Y-53470000D02*
X152989879Y-53470000D01*
X153325121Y-54230000D02*
X152989879Y-54230000D01*
%TO.C,C1*%
X213155000Y-82758748D02*
X213155000Y-83281252D01*
X214625000Y-82758748D02*
X214625000Y-83281252D01*
%TO.C,R12*%
X157080000Y-74067621D02*
X157080000Y-73732379D01*
X156320000Y-74067621D02*
X156320000Y-73732379D01*
%TO.C,R17*%
X149570000Y-100097621D02*
X149570000Y-99762379D01*
X148810000Y-100097621D02*
X148810000Y-99762379D01*
%TO.C,D9*%
X124586292Y-80656761D02*
X124955759Y-80287294D01*
X125625739Y-81696208D02*
X125995206Y-81326741D01*
%TO.C,C3*%
X202325000Y-83571252D02*
X202325000Y-83048748D01*
X200855000Y-83571252D02*
X200855000Y-83048748D01*
%TO.C,C14*%
X128331248Y-84685000D02*
X128853752Y-84685000D01*
X128331248Y-83215000D02*
X128853752Y-83215000D01*
%TO.C,C18*%
X109760000Y-83915835D02*
X109760000Y-83684165D01*
X109040000Y-83915835D02*
X109040000Y-83684165D01*
%TO.C,U1*%
X207030000Y-79790000D02*
X205080000Y-79790000D01*
X207030000Y-79790000D02*
X210480000Y-79790000D01*
X207030000Y-84910000D02*
X208980000Y-84910000D01*
X207030000Y-84910000D02*
X205080000Y-84910000D01*
%TO.C,R14*%
X166220000Y-67730121D02*
X166220000Y-67394879D01*
X165460000Y-67730121D02*
X165460000Y-67394879D01*
%TO.C,R39*%
X105810000Y-84827064D02*
X105810000Y-83372936D01*
X103990000Y-84827064D02*
X103990000Y-83372936D01*
%TO.C,D12*%
X169005000Y-75918748D02*
X169005000Y-76441252D01*
X167535000Y-75918748D02*
X167535000Y-76441252D01*
%TO.C,R22*%
X164520000Y-61932379D02*
X164520000Y-62267621D01*
X165280000Y-61932379D02*
X165280000Y-62267621D01*
%TO.C,J1*%
X162845000Y-43925000D02*
X162845000Y-41195000D01*
X153775000Y-50605000D02*
X162725000Y-50605000D01*
X153655000Y-41195000D02*
X162845000Y-41195000D01*
X153655000Y-47525000D02*
X153655000Y-46625000D01*
X153655000Y-43925000D02*
X153655000Y-41195000D01*
X162845000Y-47525000D02*
X162845000Y-46625000D01*
%TO.C,R20*%
X169050000Y-100177621D02*
X169050000Y-99842379D01*
X168290000Y-100177621D02*
X168290000Y-99842379D01*
%TO.C,D7*%
X156038748Y-53265000D02*
X156561252Y-53265000D01*
X156038748Y-54735000D02*
X156561252Y-54735000D01*
%TO.C,R37*%
X156280000Y-65767621D02*
X156280000Y-65432379D01*
X155520000Y-65767621D02*
X155520000Y-65432379D01*
%TO.C,R23*%
X157320000Y-56232379D02*
X157320000Y-56567621D01*
X158080000Y-56232379D02*
X158080000Y-56567621D01*
%TO.C,Q4*%
X154100000Y-76240000D02*
X153450000Y-76240000D01*
X154100000Y-79360000D02*
X153450000Y-79360000D01*
X154100000Y-76240000D02*
X155775000Y-76240000D01*
X154100000Y-79360000D02*
X154750000Y-79360000D01*
%TO.C,R11*%
X158680000Y-74067621D02*
X158680000Y-73732379D01*
X157920000Y-74067621D02*
X157920000Y-73732379D01*
%TO.C,Q6*%
X160850000Y-79330000D02*
X161500000Y-79330000D01*
X160850000Y-76210000D02*
X161500000Y-76210000D01*
X160850000Y-79330000D02*
X159175000Y-79330000D01*
X160850000Y-76210000D02*
X160200000Y-76210000D01*
%TO.C,D13*%
X198435000Y-83681252D02*
X198435000Y-83158748D01*
X199905000Y-83681252D02*
X199905000Y-83158748D01*
%TO.C,C13*%
X153215580Y-52600000D02*
X152934420Y-52600000D01*
X153215580Y-51580000D02*
X152934420Y-51580000D01*
%TO.C,R9*%
X163620121Y-88120000D02*
X163284879Y-88120000D01*
X163620121Y-88880000D02*
X163284879Y-88880000D01*
%TO.C,Q3*%
X164920000Y-75100000D02*
X162490000Y-75100000D01*
X164940000Y-75090000D02*
X164940000Y-74090000D01*
X164940000Y-73090000D02*
X164940000Y-72040000D01*
X164940000Y-72040000D02*
X163090000Y-72040000D01*
%TO.C,Q8*%
X122660000Y-84900000D02*
X122660000Y-84250000D01*
X119540000Y-84900000D02*
X119540000Y-84250000D01*
X122660000Y-84900000D02*
X122660000Y-86575000D01*
X119540000Y-84900000D02*
X119540000Y-85550000D01*
%TO.C,C4*%
X213515835Y-87540000D02*
X213284165Y-87540000D01*
X213515835Y-88260000D02*
X213284165Y-88260000D01*
%TO.C,C5*%
X176655000Y-85848752D02*
X176655000Y-85326248D01*
X175185000Y-85848752D02*
X175185000Y-85326248D01*
%TO.C,C10*%
X161235000Y-73661252D02*
X161235000Y-73138748D01*
X159765000Y-73661252D02*
X159765000Y-73138748D01*
%TO.C,R18*%
X156100000Y-100107621D02*
X156100000Y-99772379D01*
X155340000Y-100107621D02*
X155340000Y-99772379D01*
%TO.C,R7*%
X171780000Y-76507621D02*
X171780000Y-76172379D01*
X171020000Y-76507621D02*
X171020000Y-76172379D01*
%TO.C,C19*%
X107860000Y-83915835D02*
X107860000Y-83684165D01*
X107140000Y-83915835D02*
X107140000Y-83684165D01*
%TO.C,JP1*%
X148950000Y-73000000D02*
X150350000Y-73000000D01*
X150350000Y-71000000D02*
X148950000Y-71000000D01*
X151050000Y-72300000D02*
X151050000Y-71700000D01*
X148250000Y-71700000D02*
X148250000Y-72300000D01*
X151050000Y-71700000D02*
G75*
G03*
X150350000Y-71000000I-699999J1D01*
G01*
X150350000Y-73000000D02*
G75*
G03*
X151050000Y-72300000I1J699999D01*
G01*
X148250000Y-72300000D02*
G75*
G03*
X148950000Y-73000000I700000J0D01*
G01*
X148950000Y-71000000D02*
G75*
G03*
X148250000Y-71700000I0J-700000D01*
G01*
%TO.C,C20*%
X211060000Y-97415835D02*
X211060000Y-97184165D01*
X210340000Y-97415835D02*
X210340000Y-97184165D01*
%TO.C,C15*%
X131327500Y-78618748D02*
X131327500Y-79141252D01*
X132797500Y-78618748D02*
X132797500Y-79141252D01*
%TO.C,R1*%
X210720121Y-85800000D02*
X210384879Y-85800000D01*
X210720121Y-86560000D02*
X210384879Y-86560000D01*
%TO.C,D11*%
X127728043Y-77525010D02*
X128097510Y-77155543D01*
X128767490Y-78564457D02*
X129136957Y-78194990D01*
%TO.C,R19*%
X162550000Y-100160121D02*
X162550000Y-99824879D01*
X161790000Y-100160121D02*
X161790000Y-99824879D01*
%TO.C,R25*%
X162360000Y-53192379D02*
X162360000Y-53527621D01*
X163120000Y-53192379D02*
X163120000Y-53527621D01*
%TO.C,REF1*%
G36*
X192200995Y-87090547D02*
G01*
X192377843Y-87270671D01*
X192695483Y-87670263D01*
X192813852Y-88015009D01*
X192743088Y-88363256D01*
X192493327Y-88773356D01*
X192443889Y-88840756D01*
X191963638Y-89447569D01*
X191478267Y-89953090D01*
X190940313Y-90391860D01*
X190302313Y-90798421D01*
X189516802Y-91207314D01*
X188536319Y-91653080D01*
X188060186Y-91848109D01*
X187497559Y-92021152D01*
X187061565Y-92056912D01*
X186702163Y-91957004D01*
X186369310Y-91723043D01*
X185967468Y-91363998D01*
X186609351Y-91287976D01*
X187233596Y-91160330D01*
X187902759Y-90892110D01*
X188599590Y-90468324D01*
X189357698Y-89868284D01*
X190210697Y-89071302D01*
X191569154Y-87726698D01*
X191569154Y-86468207D01*
X192200995Y-87090547D01*
G37*
G36*
X190261923Y-77488894D02*
G01*
X191008198Y-77621019D01*
X191758707Y-77832462D01*
X192062533Y-77942177D01*
X192788689Y-78245326D01*
X193515531Y-78597031D01*
X194182967Y-78965109D01*
X194730907Y-79317374D01*
X195099258Y-79621642D01*
X195533341Y-80074220D01*
X195225626Y-80404732D01*
X195191554Y-80437710D01*
X194920875Y-80637255D01*
X194486947Y-80907862D01*
X193942011Y-81218191D01*
X193338309Y-81536903D01*
X193140278Y-81637199D01*
X192589623Y-81913761D01*
X192136683Y-82137846D01*
X191823897Y-82288595D01*
X191693704Y-82345152D01*
X191648958Y-82245925D01*
X191566069Y-81944845D01*
X191458912Y-81489978D01*
X191339687Y-80930099D01*
X191232683Y-80438466D01*
X191087482Y-79854088D01*
X190948806Y-79375562D01*
X190836034Y-79074286D01*
X190769086Y-78953199D01*
X190368417Y-78466834D01*
X189824697Y-78040179D01*
X189224515Y-77744674D01*
X188744438Y-77579632D01*
X189158968Y-77488585D01*
X189598458Y-77446481D01*
X190261923Y-77488894D01*
G37*
G36*
X196156604Y-84600252D02*
G01*
X195850166Y-85125176D01*
X195392904Y-85711531D01*
X194760645Y-86406393D01*
X194734519Y-86433823D01*
X194320711Y-86861624D01*
X193971349Y-87210956D01*
X193722528Y-87446475D01*
X193610339Y-87532835D01*
X193582125Y-87520117D01*
X193403589Y-87374643D01*
X193104539Y-87097297D01*
X192722761Y-86726473D01*
X192296044Y-86300565D01*
X191862176Y-85857966D01*
X191458944Y-85437071D01*
X191124137Y-85076273D01*
X190895541Y-84813966D01*
X190810945Y-84688544D01*
X190850775Y-84611025D01*
X190940204Y-84500000D01*
X192832836Y-84500000D01*
X192896243Y-84730377D01*
X193085572Y-85005472D01*
X193315950Y-85172442D01*
X193591045Y-85258208D01*
X193821422Y-85194801D01*
X194096518Y-85005472D01*
X194263488Y-84775095D01*
X194349254Y-84500000D01*
X194341636Y-84422269D01*
X194187454Y-84106955D01*
X193905892Y-83848764D01*
X193591045Y-83741791D01*
X193513314Y-83749408D01*
X193198000Y-83903591D01*
X192939809Y-84185153D01*
X192832836Y-84500000D01*
X190940204Y-84500000D01*
X191037653Y-84379018D01*
X191342677Y-84045952D01*
X191727115Y-83655503D01*
X192288544Y-83141225D01*
X192977270Y-82634747D01*
X193780597Y-82184930D01*
X194275651Y-81918475D01*
X194967933Y-81470647D01*
X195483117Y-81034100D01*
X196048324Y-80452487D01*
X196227774Y-81370522D01*
X196309000Y-81871652D01*
X196385841Y-82560459D01*
X196420776Y-83173134D01*
X196413698Y-83546376D01*
X196336391Y-84089678D01*
X196191905Y-84500000D01*
X196156604Y-84600252D01*
G37*
G36*
X190802095Y-85692140D02*
G01*
X191082649Y-86000331D01*
X191237204Y-86240038D01*
X191302785Y-86475968D01*
X191316418Y-86772826D01*
X191314882Y-86911356D01*
X191293888Y-87113190D01*
X191226601Y-87302474D01*
X191086192Y-87517111D01*
X190845834Y-87795007D01*
X190478700Y-88174068D01*
X189957960Y-88692197D01*
X189493750Y-89138631D01*
X188688527Y-89834018D01*
X187953665Y-90348587D01*
X187251782Y-90706891D01*
X186545496Y-90933482D01*
X186463617Y-90952096D01*
X186153662Y-91011474D01*
X185982993Y-91026175D01*
X185980909Y-91025460D01*
X185888814Y-90900683D01*
X185712981Y-90594890D01*
X185477856Y-90152494D01*
X185207883Y-89617910D01*
X184952365Y-89110014D01*
X184623225Y-88478759D01*
X184317583Y-87915055D01*
X184078212Y-87499126D01*
X184061367Y-87471060D01*
X183804468Y-86964293D01*
X183552465Y-86346274D01*
X183357648Y-85744346D01*
X183297879Y-85519160D01*
X183280769Y-85445901D01*
X183449116Y-85445901D01*
X183456167Y-85643092D01*
X183565317Y-86048009D01*
X183800296Y-86730636D01*
X184075097Y-87290494D01*
X184353997Y-87623593D01*
X184374048Y-87637397D01*
X184679645Y-87729315D01*
X185170641Y-87761438D01*
X185792732Y-87733243D01*
X186491616Y-87644207D01*
X186721127Y-87590217D01*
X187246377Y-87409697D01*
X187886274Y-87139696D01*
X188576690Y-86805994D01*
X188827217Y-86676549D01*
X189344497Y-86399955D01*
X189685883Y-86193776D01*
X189889022Y-86029787D01*
X189991559Y-85879759D01*
X190031142Y-85715467D01*
X190034100Y-85685381D01*
X190005476Y-85428500D01*
X189850226Y-85155974D01*
X189530951Y-84799298D01*
X189270331Y-84551891D01*
X188994000Y-84331974D01*
X188822324Y-84247263D01*
X188821415Y-84247269D01*
X188628717Y-84302396D01*
X188286873Y-84445049D01*
X187869282Y-84644624D01*
X187388786Y-84869928D01*
X186740857Y-85136266D01*
X186071931Y-85379418D01*
X185444452Y-85578327D01*
X184920863Y-85711940D01*
X184563608Y-85759203D01*
X184229591Y-85711160D01*
X183860697Y-85574129D01*
X183818828Y-85550340D01*
X183563544Y-85425346D01*
X183449116Y-85445901D01*
X183280769Y-85445901D01*
X183201687Y-85107290D01*
X183150314Y-84746636D01*
X183139815Y-84361629D01*
X183166245Y-83876700D01*
X183225657Y-83216277D01*
X183285511Y-82670939D01*
X183373045Y-82029062D01*
X183465667Y-81481029D01*
X183551180Y-81105916D01*
X183855798Y-80377603D01*
X184386466Y-79653269D01*
X185127419Y-79019891D01*
X186090236Y-78467799D01*
X187286500Y-77987324D01*
X188136544Y-77698206D01*
X189095590Y-78200747D01*
X189536728Y-78450396D01*
X189988659Y-78771472D01*
X190226221Y-79042688D01*
X190286585Y-79190131D01*
X190387968Y-79521591D01*
X190516965Y-80023909D01*
X190678232Y-80716490D01*
X190876429Y-81618734D01*
X191116213Y-82750046D01*
X191052909Y-82942523D01*
X190829588Y-83252279D01*
X190479954Y-83630306D01*
X190429011Y-83681170D01*
X190110191Y-84027501D01*
X189885205Y-84319904D01*
X189800000Y-84499639D01*
X189809646Y-84540643D01*
X189946025Y-84760505D01*
X190209955Y-85080896D01*
X190558209Y-85447761D01*
X190795350Y-85685381D01*
X190802095Y-85692140D01*
G37*
%TO.C,REF2*%
G36*
X223679700Y-99346316D02*
G01*
X223309324Y-99346316D01*
X223309324Y-98975940D01*
X223679700Y-98975940D01*
X223679700Y-99346316D01*
G37*
G36*
X223679700Y-98235188D02*
G01*
X223309324Y-98235188D01*
X223309324Y-97124060D01*
X223679700Y-97124060D01*
X223679700Y-98235188D01*
G37*
G36*
X223309324Y-98975940D02*
G01*
X222938948Y-98975940D01*
X222938948Y-98605564D01*
X223309324Y-98605564D01*
X223309324Y-98975940D01*
G37*
G36*
X222568572Y-98605564D02*
G01*
X222198196Y-98605564D01*
X222198196Y-97494436D01*
X222568572Y-97494436D01*
X222568572Y-98605564D01*
G37*
G36*
X222938948Y-101938949D02*
G01*
X221827820Y-101938949D01*
X221827820Y-100827821D01*
X222938948Y-100827821D01*
X222938948Y-101938949D01*
G37*
G36*
X222938948Y-95272180D02*
G01*
X221827820Y-95272180D01*
X221827820Y-94161052D01*
X222938948Y-94161052D01*
X222938948Y-95272180D01*
G37*
G36*
X221827820Y-98975940D02*
G01*
X221087068Y-98975940D01*
X221087068Y-98605564D01*
X221827820Y-98605564D01*
X221827820Y-98975940D01*
G37*
G36*
X221457444Y-97494436D02*
G01*
X221087068Y-97494436D01*
X221087068Y-97124060D01*
X221457444Y-97124060D01*
X221457444Y-97494436D01*
G37*
G36*
X221457444Y-96753684D02*
G01*
X221087068Y-96753684D01*
X221087068Y-96383308D01*
X221457444Y-96383308D01*
X221457444Y-96753684D01*
G37*
G36*
X220716692Y-100087069D02*
G01*
X220346316Y-100087069D01*
X220346316Y-99716692D01*
X220716692Y-99716692D01*
X220716692Y-100087069D01*
G37*
G36*
X220716692Y-96753684D02*
G01*
X220346316Y-96753684D01*
X220346316Y-96383308D01*
X220716692Y-96383308D01*
X220716692Y-96753684D01*
G37*
G36*
X220716692Y-96012932D02*
G01*
X220346316Y-96012932D01*
X220346316Y-95642556D01*
X220716692Y-95642556D01*
X220716692Y-96012932D01*
G37*
G36*
X220716692Y-93790676D02*
G01*
X220346316Y-93790676D01*
X220346316Y-93420300D01*
X220716692Y-93420300D01*
X220716692Y-93790676D01*
G37*
G36*
X218864812Y-99716692D02*
G01*
X218494436Y-99716692D01*
X218494436Y-99346316D01*
X218864812Y-99346316D01*
X218864812Y-99716692D01*
G37*
G36*
X217753684Y-94161052D02*
G01*
X217383308Y-94161052D01*
X217383308Y-93790676D01*
X217753684Y-93790676D01*
X217753684Y-94161052D01*
G37*
G36*
X217383308Y-102679701D02*
G01*
X217012931Y-102679701D01*
X217012931Y-102309325D01*
X217383308Y-102309325D01*
X217383308Y-102679701D01*
G37*
G36*
X217012931Y-100457445D02*
G01*
X216642555Y-100457445D01*
X216642555Y-100087069D01*
X217012931Y-100087069D01*
X217012931Y-100457445D01*
G37*
G36*
X216272179Y-96753684D02*
G01*
X215161051Y-96753684D01*
X215161051Y-96383308D01*
X216272179Y-96383308D01*
X216272179Y-96753684D01*
G37*
G36*
X216272179Y-95272180D02*
G01*
X215161051Y-95272180D01*
X215161051Y-94161052D01*
X216272179Y-94161052D01*
X216272179Y-95272180D01*
G37*
G36*
X215161051Y-97124060D02*
G01*
X214790675Y-97124060D01*
X214790675Y-96753684D01*
X215161051Y-96753684D01*
X215161051Y-97124060D01*
G37*
G36*
X214790675Y-96753684D02*
G01*
X214420299Y-96753684D01*
X214420299Y-96383308D01*
X214790675Y-96383308D01*
X214790675Y-96753684D01*
G37*
G36*
X223679700Y-96753684D02*
G01*
X223309324Y-96753684D01*
X223309324Y-97124060D01*
X222198196Y-97124060D01*
X222198196Y-96383308D01*
X223679700Y-96383308D01*
X223679700Y-96753684D01*
G37*
G36*
X221087068Y-99346316D02*
G01*
X221457444Y-99346316D01*
X221457444Y-99716692D01*
X220716692Y-99716692D01*
X220716692Y-98975940D01*
X221087068Y-98975940D01*
X221087068Y-99346316D01*
G37*
G36*
X222568572Y-99346316D02*
G01*
X222938948Y-99346316D01*
X222938948Y-99716692D01*
X221827820Y-99716692D01*
X221827820Y-99346316D01*
X222198196Y-99346316D01*
X222198196Y-98975940D01*
X222568572Y-98975940D01*
X222568572Y-99346316D01*
G37*
G36*
X217753684Y-97124060D02*
G01*
X217383308Y-97124060D01*
X217383308Y-96753684D01*
X217012931Y-96753684D01*
X217012931Y-96383308D01*
X217383308Y-96383308D01*
X217383308Y-95642556D01*
X217753684Y-95642556D01*
X217753684Y-97124060D01*
G37*
G36*
X223679700Y-102679701D02*
G01*
X221087068Y-102679701D01*
X221087068Y-102309325D01*
X221457444Y-102309325D01*
X223309324Y-102309325D01*
X223309324Y-100457445D01*
X221457444Y-100457445D01*
X221457444Y-102309325D01*
X221087068Y-102309325D01*
X221087068Y-100087069D01*
X223679700Y-100087069D01*
X223679700Y-102309325D01*
X223679700Y-102679701D01*
G37*
G36*
X223679700Y-96012932D02*
G01*
X221087068Y-96012932D01*
X221087068Y-95642556D01*
X221457444Y-95642556D01*
X223309324Y-95642556D01*
X223309324Y-93790676D01*
X221457444Y-93790676D01*
X221457444Y-95642556D01*
X221087068Y-95642556D01*
X221087068Y-93420300D01*
X223679700Y-93420300D01*
X223679700Y-95642556D01*
X223679700Y-96012932D01*
G37*
G36*
X217012931Y-96012932D02*
G01*
X214420299Y-96012932D01*
X214420299Y-95642556D01*
X214790675Y-95642556D01*
X216642555Y-95642556D01*
X216642555Y-93790676D01*
X214790675Y-93790676D01*
X214790675Y-95642556D01*
X214420299Y-95642556D01*
X214420299Y-93420300D01*
X217012931Y-93420300D01*
X217012931Y-95642556D01*
X217012931Y-96012932D01*
G37*
G36*
X220346316Y-102309325D02*
G01*
X220346316Y-101938949D01*
X219975940Y-101938949D01*
X219975940Y-102309325D01*
X219235188Y-102309325D01*
X219235188Y-100827821D01*
X220346316Y-100827821D01*
X220346316Y-101198197D01*
X219975940Y-101198197D01*
X219975940Y-101568573D01*
X219605564Y-101568573D01*
X219605564Y-101938949D01*
X219975940Y-101938949D01*
X219975940Y-101568573D01*
X220346316Y-101568573D01*
X220346316Y-101198197D01*
X220716692Y-101198197D01*
X220716692Y-101568573D01*
X220716692Y-102309325D01*
X220716692Y-102679701D01*
X219975940Y-102679701D01*
X219975940Y-102309325D01*
X220346316Y-102309325D01*
G37*
G36*
X221827820Y-97864812D02*
G01*
X221827820Y-98235188D01*
X220716692Y-98235188D01*
X220716692Y-98975940D01*
X220346316Y-98975940D01*
X220346316Y-98235188D01*
X219235188Y-98235188D01*
X219235188Y-98975940D01*
X219605564Y-98975940D01*
X219605564Y-98605564D01*
X219975940Y-98605564D01*
X219975940Y-98975940D01*
X220346316Y-98975940D01*
X220346316Y-99346316D01*
X219975940Y-99346316D01*
X219975940Y-99716692D01*
X219975940Y-100087069D01*
X218864812Y-100087069D01*
X218864812Y-100457445D01*
X218124060Y-100457445D01*
X218124060Y-100827821D01*
X217753684Y-100827821D01*
X217753684Y-101198197D01*
X217383308Y-101198197D01*
X217383308Y-101938949D01*
X217012931Y-101938949D01*
X217012931Y-102309325D01*
X216642555Y-102309325D01*
X216642555Y-101198197D01*
X216272179Y-101198197D01*
X216272179Y-102309325D01*
X216642555Y-102309325D01*
X216642555Y-102679701D01*
X214420299Y-102679701D01*
X214420299Y-102309325D01*
X215161051Y-102309325D01*
X215531427Y-102309325D01*
X215901803Y-102309325D01*
X215901803Y-101568573D01*
X215531427Y-101568573D01*
X215531427Y-102309325D01*
X215161051Y-102309325D01*
X215161051Y-101938949D01*
X214790675Y-101938949D01*
X214790675Y-101568573D01*
X214420299Y-101568573D01*
X214420299Y-100827821D01*
X215161051Y-100827821D01*
X215161051Y-101198197D01*
X215531427Y-101198197D01*
X215531427Y-100827821D01*
X215901803Y-100827821D01*
X215901803Y-99716692D01*
X216272179Y-99716692D01*
X216272179Y-100827821D01*
X217383308Y-100827821D01*
X217383308Y-100087069D01*
X217753684Y-100087069D01*
X217753684Y-100457445D01*
X218124060Y-100457445D01*
X218124060Y-100087069D01*
X217753684Y-100087069D01*
X217383308Y-100087069D01*
X217383308Y-99716692D01*
X216272179Y-99716692D01*
X215901803Y-99716692D01*
X215531427Y-99716692D01*
X215531427Y-100087069D01*
X215531427Y-100457445D01*
X214420299Y-100457445D01*
X214420299Y-100087069D01*
X214790675Y-100087069D01*
X215161051Y-100087069D01*
X215161051Y-99716692D01*
X214790675Y-99716692D01*
X214790675Y-100087069D01*
X214420299Y-100087069D01*
X214420299Y-98975940D01*
X214790675Y-98975940D01*
X214790675Y-98605564D01*
X215531427Y-98605564D01*
X215531427Y-98975940D01*
X214790675Y-98975940D01*
X214790675Y-99346316D01*
X215901803Y-99346316D01*
X215901803Y-98975940D01*
X216272179Y-98975940D01*
X216642555Y-98975940D01*
X216642555Y-99346316D01*
X217753684Y-99346316D01*
X217753684Y-99716692D01*
X218124060Y-99716692D01*
X218124060Y-100087069D01*
X218864812Y-100087069D01*
X218864812Y-99716692D01*
X219235188Y-99716692D01*
X219235188Y-99346316D01*
X218864812Y-99346316D01*
X218864812Y-98235188D01*
X218494436Y-98235188D01*
X218494436Y-99346316D01*
X218124060Y-99346316D01*
X218124060Y-98605564D01*
X217753684Y-98605564D01*
X217753684Y-98975940D01*
X216642555Y-98975940D01*
X216642555Y-98605564D01*
X216272179Y-98605564D01*
X216272179Y-98975940D01*
X215901803Y-98975940D01*
X215901803Y-97864812D01*
X215531427Y-97864812D01*
X215531427Y-98235188D01*
X214790675Y-98235188D01*
X214790675Y-98605564D01*
X214420299Y-98605564D01*
X214420299Y-97864812D01*
X215161051Y-97864812D01*
X215161051Y-97494436D01*
X215901803Y-97494436D01*
X215901803Y-97124060D01*
X216272179Y-97124060D01*
X216272179Y-96753684D01*
X216642555Y-96753684D01*
X216642555Y-97124060D01*
X216272179Y-97124060D01*
X216272179Y-98235188D01*
X216642555Y-98235188D01*
X216642555Y-97864812D01*
X217012931Y-97864812D01*
X217012931Y-97494436D01*
X216642555Y-97494436D01*
X216642555Y-97124060D01*
X217383308Y-97124060D01*
X217383308Y-97864812D01*
X217383308Y-98605564D01*
X217753684Y-98605564D01*
X217753684Y-98235188D01*
X218124060Y-98235188D01*
X218124060Y-97864812D01*
X218864812Y-97864812D01*
X219235188Y-97864812D01*
X219235188Y-97494436D01*
X218864812Y-97494436D01*
X218864812Y-97864812D01*
X218124060Y-97864812D01*
X217753684Y-97864812D01*
X217753684Y-97494436D01*
X218864812Y-97494436D01*
X218864812Y-97124060D01*
X219235188Y-97124060D01*
X219235188Y-96753684D01*
X219605564Y-96753684D01*
X219605564Y-96383308D01*
X218864812Y-96383308D01*
X218864812Y-95642556D01*
X218494436Y-95642556D01*
X218494436Y-96753684D01*
X218124060Y-96753684D01*
X218124060Y-95272180D01*
X217383308Y-95272180D01*
X217383308Y-94901804D01*
X217753684Y-94901804D01*
X217753684Y-94531428D01*
X218124060Y-94531428D01*
X218124060Y-94161052D01*
X218494436Y-94161052D01*
X218494436Y-93420300D01*
X219235188Y-93420300D01*
X219235188Y-93790676D01*
X218864812Y-93790676D01*
X218864812Y-94161052D01*
X219235188Y-94161052D01*
X219235188Y-93790676D01*
X220346316Y-93790676D01*
X220346316Y-94161052D01*
X220716692Y-94161052D01*
X220716692Y-95272180D01*
X220346316Y-95272180D01*
X220346316Y-94901804D01*
X219605564Y-94901804D01*
X219605564Y-94161052D01*
X219235188Y-94161052D01*
X219235188Y-94531428D01*
X218494436Y-94531428D01*
X218494436Y-94901804D01*
X219235188Y-94901804D01*
X219235188Y-96012932D01*
X219605564Y-96012932D01*
X219605564Y-95272180D01*
X219975940Y-95272180D01*
X219975940Y-97124060D01*
X220346316Y-97124060D01*
X220346316Y-97864812D01*
X221827820Y-97864812D01*
G37*
G36*
X218864812Y-102309325D02*
G01*
X218494436Y-102309325D01*
X218494436Y-102679701D01*
X218124060Y-102679701D01*
X218124060Y-102309325D01*
X217753684Y-102309325D01*
X217753684Y-101938949D01*
X218124060Y-101938949D01*
X218494436Y-101938949D01*
X218494436Y-101568573D01*
X218124060Y-101568573D01*
X218124060Y-101938949D01*
X217753684Y-101938949D01*
X217753684Y-101198197D01*
X218124060Y-101198197D01*
X218124060Y-100827821D01*
X218864812Y-100827821D01*
X218864812Y-101198197D01*
X218864812Y-101938949D01*
X218864812Y-102309325D01*
G37*
G36*
X219235188Y-100457445D02*
G01*
X219235188Y-100827821D01*
X218864812Y-100827821D01*
X218864812Y-100457445D01*
X219235188Y-100457445D01*
G37*
%TD*%
M02*
