M48
; DRILL file {KiCad 7.0.5} date Tue Aug 29 10:42:23 2023
; FORMAT={-:-/ absolute / inch / decimal}
; #@! TF.CreationDate,2023-08-29T10:42:23-04:00
; #@! TF.GenerationSoftware,Kicad,Pcbnew,7.0.5
; #@! TF.FileFunction,Plated,1,2,PTH
FMAT,2
INCH
; #@! TA.AperFunction,Plated,PTH,ViaDrill
T1C0.0157
; #@! TA.AperFunction,Plated,PTH,ComponentDrill
T2C0.0157
; #@! TA.AperFunction,Plated,PTH,ComponentDrill
T3C0.0236
; #@! TA.AperFunction,Plated,PTH,ComponentDrill
T4C0.0315
; #@! TA.AperFunction,Plated,PTH,ComponentDrill
T5C0.0394
; #@! TA.AperFunction,Plated,PTH,ComponentDrill
T6C0.0433
%
G90
G05
T1
X3.9764Y-3.1102
X3.9764Y-3.2677
X3.9764Y-3.4252
X3.9764Y-3.5827
X3.9764Y-3.7402
X4.0157Y-3.8189
X4.0551Y-3.0315
X4.1142Y-3.0039
X4.1732Y-3.7402
X4.1732Y-3.8976
X4.311Y-3.2283
X4.3307Y-3.563
X4.3307Y-3.9764
X4.4882Y-3.563
X4.4882Y-3.7402
X4.4882Y-4.0551
X4.5669Y-3.2087
X4.5669Y-3.3858
X4.6457Y-3.5039
X4.6457Y-3.6417
X4.6457Y-3.7402
X4.6457Y-3.8976
X4.6457Y-4.0551
X4.6654Y-2.9528
X4.6811Y-3.1654
X4.7205Y-3.1299
X4.7323Y-3.5276
X4.8031Y-3.1102
X4.8031Y-3.2087
X4.8031Y-3.6417
X4.8031Y-3.7402
X4.8031Y-3.8976
X4.8031Y-4.0551
X4.8425Y-3.4843
X4.8819Y-2.9528
X4.9134Y-3.685
X4.9606Y-3.8976
X4.9606Y-4.0551
X5.0Y-2.6378
X5.0Y-3.3661
X5.0Y-3.4843
X5.0787Y-2.4016
X5.0787Y-2.8346
X5.1181Y-3.8976
X5.1181Y-4.0551
X5.1575Y-2.4016
X5.1575Y-3.248
X5.1575Y-3.3661
X5.1575Y-3.4843
X5.1772Y-2.8346
X5.1959Y-2.7008
X5.1969Y-2.6496
X5.2283Y-2.5748
X5.2283Y-2.8071
X5.2283Y-3.6654
X5.2362Y-2.4803
X5.2598Y-2.3465
X5.2598Y-2.4016
X5.2677Y-3.7756
X5.2756Y-3.8976
X5.2756Y-4.0551
X5.2953Y-2.7559
X5.3031Y-3.7402
X5.3071Y-2.6181
X5.315Y-2.4803
X5.3189Y-2.2874
X5.3189Y-2.3465
X5.3346Y-2.874
X5.3346Y-2.9528
X5.3346Y-3.0709
X5.3346Y-3.189
X5.3346Y-3.4843
X5.3346Y-3.6299
X5.3583Y-2.748
X5.3583Y-2.7913
X5.378Y-2.2283
X5.4134Y-2.4803
X5.4173Y-2.2677
X5.4331Y-2.7953
X5.4331Y-4.0551
X5.437Y-2.1654
X5.437Y-3.4803
X5.4528Y-2.9528
X5.4528Y-3.0709
X5.4528Y-3.189
X5.4801Y-2.2087
X5.4921Y-2.4016
X5.4961Y-2.8583
X5.5157Y-3.5433
X5.5197Y-2.1654
X5.5512Y-2.9528
X5.5512Y-3.0709
X5.5591Y-2.8543
X5.5709Y-2.6378
X5.5709Y-3.6299
X5.5906Y-4.0551
X5.5945Y-2.0118
X5.5945Y-2.0866
X5.5957Y-3.5106
X5.625Y-2.3858
X5.626Y-2.4331
X5.6299Y-3.3425
X5.6339Y-2.314
X5.6378Y-1.9685
X5.6378Y-2.0433
X5.6457Y-2.7205
X5.6693Y-3.0709
X5.6693Y-3.189
X5.6811Y-1.9252
X5.6811Y-2.0
X5.6811Y-2.9606
X5.6929Y-2.1821
X5.6969Y-2.3346
X5.6969Y-2.3819
X5.7165Y-2.7362
X5.7205Y-2.1535
X5.7441Y-2.3346
X5.7441Y-3.374
X5.748Y-1.9291
X5.748Y-2.0079
X5.748Y-3.2677
X5.748Y-3.5472
X5.748Y-3.6299
X5.748Y-3.7559
X5.748Y-3.8976
X5.748Y-4.0551
X5.7847Y-2.6957
X5.7911Y-2.3351
X5.7913Y-2.5433
X5.814Y-2.6665
X5.815Y-2.4144
X5.8268Y-1.9291
X5.8268Y-2.0079
X5.8346Y-2.5019
X5.8504Y-3.5472
X5.8504Y-3.626
X5.8661Y-3.2677
X5.8701Y-3.1181
X5.874Y-2.5019
X5.8976Y-3.7047
X5.9055Y-1.9291
X5.9055Y-2.0079
X5.9055Y-2.5709
X5.9055Y-2.7559
X5.9055Y-3.7795
X5.9055Y-3.8976
X5.9055Y-4.0551
X5.9094Y-2.9606
X5.9094Y-3.9961
X5.9173Y-2.5236
X5.9252Y-2.1575
X5.9331Y-3.4094
X5.937Y-3.4646
X5.9843Y-1.9291
X5.9882Y-2.4685
X6.0039Y-3.4646
X6.0039Y-3.5472
X6.0039Y-3.6417
X6.0039Y-3.7795
X6.0236Y-3.8976
X6.063Y-4.0551
X6.0631Y-2.9606
X6.0748Y-2.1978
X6.121Y-2.8965
X6.121Y-2.9378
X6.122Y-2.8346
X6.1378Y-2.626
X6.1417Y-2.3228
X6.1417Y-2.7362
X6.1417Y-3.4646
X6.1417Y-3.5472
X6.1417Y-3.622
X6.1417Y-3.7402
X6.1604Y-2.0207
X6.1614Y-2.4252
X6.1614Y-2.4803
X6.1688Y-3.9966
X6.1693Y-3.0512
X6.17Y-3.0068
X6.1811Y-2.8346
X6.1811Y-3.2283
X6.2096Y-2.2968
X6.2205Y-3.1496
X6.2205Y-4.0551
X6.2402Y-3.0079
X6.2402Y-3.8976
X6.251Y-2.2968
X6.2598Y-3.3858
X6.2598Y-3.4646
X6.2756Y-2.4449
X6.2953Y-3.063
X6.2992Y-2.3031
X6.3071Y-2.1654
X6.311Y-2.7244
X6.314Y-2.0009
X6.3425Y-2.3386
X6.3455Y-2.3898
X6.374Y-2.752
X6.374Y-2.7953
X6.378Y-2.4449
X6.378Y-3.6417
X6.378Y-4.0551
X6.3858Y-2.9724
X6.4016Y-3.8346
X6.4055Y-2.8976
X6.4131Y-2.4094
X6.4213Y-2.6457
X6.4232Y-3.998
X6.4488Y-3.4488
X6.4685Y-3.5315
X6.5039Y-3.4173
X6.5276Y-2.063
X6.5276Y-2.5787
X6.5354Y-3.6417
X6.5354Y-3.8583
X6.5354Y-4.0551
X6.5551Y-3.2283
X6.5748Y-2.8543
X6.5827Y-2.4843
X6.5945Y-3.3661
X6.6339Y-2.4409
X6.6339Y-2.5157
X6.6457Y-2.7953
X6.6654Y-3.4528
X6.6811Y-4.0
X6.6929Y-3.3465
X6.6929Y-3.6417
X6.6929Y-3.8583
X6.6929Y-4.0551
X6.7323Y-2.7953
X6.7323Y-2.9134
X6.748Y-3.1457
X6.748Y-3.4921
X6.752Y-2.4409
X6.8307Y-2.2835
X6.8493Y-2.5168
X6.8504Y-2.6772
X6.8504Y-2.7953
X6.8504Y-2.9134
X6.8504Y-3.0709
X6.8504Y-3.622
X6.8504Y-4.0551
X6.9291Y-2.4409
X6.9685Y-2.2835
X6.9724Y-2.7953
X6.9724Y-2.9134
X6.9724Y-3.0709
X7.0079Y-2.4409
X7.0079Y-3.622
X7.0079Y-4.0551
X7.0118Y-2.5472
X7.0866Y-2.4409
X7.0866Y-2.5591
X7.0866Y-2.6772
X7.0866Y-2.9134
X7.0866Y-3.0709
X7.0866Y-3.4843
X7.126Y-2.2835
X7.126Y-3.3858
X7.1654Y-3.622
X7.1654Y-3.8583
X7.1654Y-4.0551
X7.1811Y-3.4724
X7.2047Y-2.0472
X7.2087Y-2.9134
X7.2087Y-3.0709
X7.2835Y-2.2835
X7.2835Y-2.5197
X7.3228Y-3.2283
X7.3228Y-3.937
X7.3228Y-4.0551
X7.3622Y-2.0472
X7.3819Y-2.7677
X7.4016Y-2.2047
X7.4016Y-2.3622
X7.4016Y-2.5197
X7.4409Y-2.6772
X7.4803Y-3.2283
X7.4803Y-3.937
X7.4803Y-4.0551
X7.5984Y-3.689
X7.6142Y-3.2205
X7.6378Y-3.4449
X7.6378Y-3.622
X7.6378Y-3.8583
X7.6378Y-4.0551
X7.6575Y-3.0709
X7.7953Y-3.622
X7.7953Y-3.8583
X7.7953Y-4.0551
X7.8346Y-2.9921
X7.9331Y-3.4646
X7.9528Y-3.622
X7.9528Y-4.0551
X7.9921Y-3.1457
X8.0Y-3.374
X8.0315Y-3.4252
X8.0512Y-3.4646
X8.0709Y-3.0315
X8.1102Y-4.0551
X8.1693Y-3.4646
X8.2441Y-3.8504
X8.2677Y-4.0551
X8.2874Y-3.4646
X8.3071Y-3.0315
X8.3858Y-3.1693
X8.4252Y-4.0551
X8.4449Y-3.1693
X8.4646Y-3.0315
X8.5827Y-3.2677
X8.5827Y-3.6614
X8.5827Y-4.0551
X8.7402Y-3.2677
X8.7402Y-4.0551
X8.8189Y-3.3465
X8.8189Y-3.6614
X8.8189Y-3.8189
X8.8189Y-3.9764
T2
X6.1132Y-1.9124
X6.1132Y-1.9656
X6.1467Y-1.9124
X6.1467Y-1.9656
X6.1801Y-1.9124
X6.1801Y-1.9656
X6.2136Y-1.9124
X6.2136Y-1.9656
X6.247Y-1.9124
X6.247Y-1.9656
X6.2805Y-1.9124
X6.2805Y-1.9656
X6.314Y-1.9124
X6.314Y-1.9656
X6.3474Y-1.9124
X6.3474Y-1.9656
T4
X8.5451Y-3.4834
X8.6226Y-3.4971
X8.7002Y-3.5108
X8.7777Y-3.5244
T5
X4.0323Y-3.4724
X4.1323Y-3.4724
X4.1931Y-3.1533
X4.2323Y-3.4724
X4.2638Y-3.0826
X4.3323Y-3.4724
X4.4323Y-3.4724
X5.0433Y-2.5472
X5.0866Y-2.4764
X5.122Y-2.5472
X5.1654Y-2.4764
X7.1299Y-2.1299
X7.2087Y-2.1299
X7.2874Y-2.1299
X7.3661Y-2.1299
X7.9969Y-3.9843
X8.0969Y-3.9843
X8.1969Y-3.9843
X8.2969Y-3.9843
X8.3969Y-3.9843
T6
X6.5787Y-2.0
X6.5787Y-2.2559
X6.7559Y-2.0
X6.7559Y-2.2559
T3
G00X6.06Y-1.7781
M15
G01X6.06Y-1.8096
M16
G05
G00X6.06Y-1.8974
M15
G01X6.06Y-1.9565
M16
G05
G00X6.4006Y-1.7781
M15
G01X6.4006Y-1.8096
M16
G05
G00X6.4006Y-1.8974
M15
G01X6.4006Y-1.9565
M16
G05
T0
M30
