%TF.GenerationSoftware,KiCad,Pcbnew,7.0.5*%
%TF.CreationDate,2023-08-29T10:42:25-04:00*%
%TF.ProjectId,Pro-Controller-X,50726f2d-436f-46e7-9472-6f6c6c65722d,rev?*%
%TF.SameCoordinates,Original*%
%TF.FileFunction,Soldermask,Top*%
%TF.FilePolarity,Negative*%
%FSLAX46Y46*%
G04 Gerber Fmt 4.6, Leading zero omitted, Abs format (unit mm)*
G04 Created by KiCad (PCBNEW 7.0.5) date 2023-08-29 10:42:25*
%MOMM*%
%LPD*%
G01*
G04 APERTURE LIST*
G04 Aperture macros list*
%AMRoundRect*
0 Rectangle with rounded corners*
0 $1 Rounding radius*
0 $2 $3 $4 $5 $6 $7 $8 $9 X,Y pos of 4 corners*
0 Add a 4 corners polygon primitive as box body*
4,1,4,$2,$3,$4,$5,$6,$7,$8,$9,$2,$3,0*
0 Add four circle primitives for the rounded corners*
1,1,$1+$1,$2,$3*
1,1,$1+$1,$4,$5*
1,1,$1+$1,$6,$7*
1,1,$1+$1,$8,$9*
0 Add four rect primitives between the rounded corners*
20,1,$1+$1,$2,$3,$4,$5,0*
20,1,$1+$1,$4,$5,$6,$7,0*
20,1,$1+$1,$6,$7,$8,$9,0*
20,1,$1+$1,$8,$9,$2,$3,0*%
%AMHorizOval*
0 Thick line with rounded ends*
0 $1 width*
0 $2 $3 position (X,Y) of the first rounded end (center of the circle)*
0 $4 $5 position (X,Y) of the second rounded end (center of the circle)*
0 Add line between two ends*
20,1,$1,$2,$3,$4,$5,0*
0 Add two circle primitives to create the rounded ends*
1,1,$1,$2,$3*
1,1,$1,$4,$5*%
%AMRotRect*
0 Rectangle, with rotation*
0 The origin of the aperture is its center*
0 $1 length*
0 $2 width*
0 $3 Rotation angle, in degrees counterclockwise*
0 Add horizontal line*
21,1,$1,$2,0,0,$3*%
%AMFreePoly0*
4,1,125,0.214415,1.222415,0.400984,1.172304,0.445930,1.148805,0.549607,1.100421,0.705930,1.044402,0.884719,0.991338,0.922966,0.981391,1.440809,0.808779,1.936394,0.562154,2.393607,0.251116,2.796334,-0.114738,2.837651,-0.159046,2.982400,-0.327869,3.063959,-0.453023,3.085627,-0.543485,3.050702,-0.608230,3.012284,-0.634174,2.925163,-0.661330,2.765436,-0.691751,2.545171,-0.723998,
2.276441,-0.756631,1.971314,-0.788210,1.641861,-0.817295,1.300153,-0.842447,1.226544,-0.847184,0.384578,-0.883777,-0.428578,-0.884196,-1.256605,-0.848067,-1.606826,-0.822898,-2.468409,-0.754610,-2.565160,-0.845502,-2.654776,-0.959737,-2.755515,-1.136673,-2.858823,-1.356519,-2.956147,-1.599483,-3.038933,-1.845773,-3.098627,-2.075596,-3.100352,-2.083866,-3.151199,-2.356909,-3.176914,-2.571345,
-3.178940,-2.749100,-3.158721,-2.912103,-3.155846,-2.926862,-3.128220,-3.064994,-2.806013,-3.040464,-2.641009,-3.026284,-2.418853,-3.004943,-2.166626,-2.979148,-1.911407,-2.951604,-1.868949,-2.946861,-1.587140,-2.922193,-1.237754,-2.902706,-0.837870,-2.888501,-0.404567,-2.879681,0.045077,-2.876348,0.493983,-2.878604,0.925072,-2.886551,1.321266,-2.900292,1.665484,-2.919928,1.735392,-2.925280,
2.010970,-2.950174,2.212086,-2.976541,2.349037,-3.008775,2.432118,-3.051265,2.471626,-3.108402,2.477857,-3.184579,2.470370,-3.238726,2.433491,-3.376981,2.374596,-3.533033,2.304758,-3.683556,2.235051,-3.805219,2.176549,-3.874695,2.165497,-3.880976,2.023040,-3.919114,1.805067,-3.953874,1.520829,-3.984508,1.179577,-4.010270,0.790564,-4.030412,0.363039,-4.044189,0.081636,-4.049219,
-0.226871,-4.052376,-0.514450,-4.053972,-0.768049,-4.054041,-0.974614,-4.052617,-1.121094,-4.049734,-1.190484,-4.045951,-1.287025,-4.035020,-1.447399,-4.017258,-1.651123,-3.994918,-1.877710,-3.970254,-1.932555,-3.964310,-2.229194,-3.928240,-2.527186,-3.884904,-2.813245,-3.836928,-3.074082,-3.786938,-3.296410,-3.737559,-3.466943,-3.691416,-3.572392,-3.651136,-3.594845,-3.635849,-3.627205,-3.569229,
-3.663717,-3.441057,-3.698413,-3.273985,-3.711952,-3.191425,-3.749107,-2.663907,-3.705463,-2.134218,-3.584118,-1.612562,-3.388174,-1.109141,-3.120730,-0.634158,-2.811405,-0.227857,-2.552670,0.048791,-2.300121,0.272298,-2.024122,0.466397,-1.736943,0.632457,-1.556084,0.722495,-1.351854,0.812753,-1.144938,0.895325,-0.956019,0.962306,-0.805781,1.005792,-0.727214,1.018355,-0.653508,1.037003,
-0.535754,1.083486,-0.448414,1.123977,-0.238683,1.197463,-0.008273,1.230538,0.214415,1.222415,0.214415,1.222415,$1*%
%AMFreePoly1*
4,1,101,1.406878,2.347014,1.516826,2.341466,1.589810,2.331888,1.635395,2.317743,1.663149,2.298493,1.682637,2.273603,1.686454,2.267795,1.761832,2.095757,1.810279,1.866252,1.830211,1.602747,1.820046,1.328706,1.778202,1.067595,1.769698,1.033298,1.719029,0.865975,1.653262,0.710223,1.559811,0.540391,1.426090,0.330832,1.421893,0.324517,1.318160,0.207754,1.159403,0.074512,
0.968713,-0.058677,0.769183,-0.175277,0.635134,-0.238794,0.528077,-0.294612,0.459841,-0.350918,0.451848,-0.364291,0.400448,-0.418040,0.289197,-0.453647,0.109498,-0.472928,-0.085280,-0.477807,-0.262917,-0.472572,-0.382303,-0.451889,-0.469402,-0.410332,-0.493823,-0.392427,-0.585437,-0.331530,-0.725472,-0.250995,-0.885505,-0.167072,-0.904588,-0.157602,-1.066805,-0.064688,-1.225514,0.048174,
-1.363993,0.166409,-1.465517,0.275440,-1.513362,0.360693,-1.515025,0.374436,-1.482948,0.424377,-1.405585,0.487442,-1.403560,0.488775,-1.360137,0.511371,-1.300011,0.529138,-1.212799,0.542793,-1.088117,0.553049,-0.915580,0.560622,-0.684804,0.566227,-0.385404,0.570579,-0.184445,0.572730,0.150386,0.576207,0.410698,0.579857,0.606774,0.584616,0.748898,0.591420,0.847356,0.601207,
0.912432,0.614912,0.954410,0.633472,0.983574,0.657823,1.003591,0.680890,1.121878,0.866545,1.218869,1.097436,1.279567,1.334228,1.291236,1.435392,1.304842,1.668614,1.177630,1.660029,1.099718,1.657323,0.950788,1.654428,0.744627,1.651523,0.495024,1.648790,0.215767,1.646410,0.053923,1.645313,-0.303681,1.644336,-0.585348,1.647237,-0.799914,1.655407,-0.956213,1.670235,
-1.063081,1.693114,-1.129352,1.725433,-1.163861,1.768583,-1.175443,1.823955,-1.175793,1.838870,-1.152430,1.969816,-1.093006,2.108092,-1.013517,2.225820,-0.929962,2.295122,-0.910252,2.301626,-0.844474,2.307277,-0.705594,2.313591,-0.505311,2.320230,-0.255326,2.326855,0.032662,2.333130,0.346952,2.338716,0.406105,2.339632,0.759578,2.344840,1.037820,2.348164,1.250398,2.349067,
1.406878,2.347014,1.406878,2.347014,$1*%
%AMFreePoly2*
4,1,108,0.820751,2.347239,0.840183,2.345966,0.953807,2.300637,0.968778,2.288185,0.986272,2.279637,1.074206,2.194595,1.083334,2.177395,1.096279,2.162849,1.145379,2.050804,1.147074,2.033707,1.153533,2.017790,1.157895,1.956711,1.157003,1.953113,1.158149,1.949588,1.158149,-2.629450,1.157000,-2.632983,1.157894,-2.636592,1.153521,-2.697667,1.147060,-2.713580,1.145365,-2.730668,
1.096260,-2.842704,1.083317,-2.857247,1.074189,-2.874445,0.986257,-2.959483,0.968762,-2.968031,0.953796,-2.980479,0.840180,-3.025809,0.820754,-3.027082,0.802179,-3.032925,0.679860,-3.031771,0.663573,-3.026308,0.646409,-3.025674,0.592722,-3.006009,0.442687,-2.964500,0.438225,-2.961550,0.432886,-2.961235,0.135437,-2.844747,0.130729,-2.840882,0.124736,-2.839810,-0.156943,-2.689135,
-0.161162,-2.684743,-0.166990,-2.682973,-0.428984,-2.500203,-0.432657,-2.495345,-0.438236,-2.492902,-0.676906,-2.280577,-0.679983,-2.275320,-0.685234,-2.272238,-0.897266,-2.033307,-0.899702,-2.027726,-0.904557,-2.024046,-1.087003,-1.761828,-1.088766,-1.755999,-1.093153,-1.751774,-1.243482,-1.469911,-1.244546,-1.463916,-1.248406,-1.459204,-1.364529,-1.161611,-1.364881,-1.155531,-1.368159,-1.150398,
-1.448462,-0.841211,-1.448096,-0.835132,-1.450747,-0.829650,-1.494115,-0.513161,-1.493168,-0.507896,-1.494987,-0.502867,-1.500230,-0.343213,-1.499281,-0.339931,-1.500230,-0.336649,-1.494987,-0.176995,-1.493168,-0.171965,-1.494115,-0.166701,-1.450747,0.149788,-1.448096,0.155270,-1.448462,0.161349,-1.368159,0.470536,-1.364881,0.475669,-1.364529,0.481749,-1.248406,0.779342,-1.244546,0.784054,
-1.243482,0.790049,-1.093153,1.071912,-1.088766,1.076137,-1.087003,1.081966,-0.904557,1.344184,-0.899702,1.347864,-0.897266,1.353445,-0.685234,1.592376,-0.679983,1.595458,-0.676906,1.600715,-0.438236,1.813040,-0.432657,1.815483,-0.428984,1.820341,-0.166990,2.003111,-0.161162,2.004881,-0.156943,2.009273,0.124736,2.159948,0.130729,2.161020,0.135437,2.164885,0.432886,2.281373,
0.438225,2.281688,0.442687,2.284638,0.592715,2.326145,0.646398,2.345816,0.663566,2.346452,0.679853,2.351916,0.802179,2.353079,0.820751,2.347239,0.820751,2.347239,$1*%
%AMFreePoly3*
4,1,108,-0.779861,2.451909,-0.763574,2.446446,-0.746410,2.445812,-0.692726,2.426148,-0.542688,2.384639,-0.538224,2.381688,-0.532886,2.381373,-0.235438,2.264885,-0.230731,2.261020,-0.224735,2.259948,0.056943,2.109273,0.061162,2.104881,0.066990,2.103111,0.328984,1.920341,0.332657,1.915483,0.338236,1.913040,0.576906,1.700715,0.579982,1.695458,0.585234,1.692376,0.797267,1.453445,
0.799704,1.447862,0.804556,1.444184,0.987003,1.181966,0.988766,1.176136,0.993153,1.171911,1.143482,0.890049,1.144547,0.884052,1.148406,0.879341,1.264529,0.581749,1.264881,0.575669,1.268159,0.570536,1.348462,0.261349,1.348096,0.255269,1.350747,0.249787,1.394115,-0.066701,1.393168,-0.071965,1.394987,-0.076995,1.400230,-0.236649,1.399281,-0.239931,1.400230,-0.243213,
1.394987,-0.402867,1.393168,-0.407896,1.394115,-0.413161,1.350747,-0.729649,1.348096,-0.735131,1.348462,-0.741211,1.268159,-1.050398,1.264881,-1.055531,1.264529,-1.061611,1.148406,-1.359203,1.144547,-1.363914,1.143482,-1.369911,0.993153,-1.651773,0.988766,-1.655998,0.987003,-1.661828,0.804556,-1.924046,0.799704,-1.927724,0.797267,-1.933307,0.585234,-2.172238,0.579982,-2.175320,
0.576906,-2.180577,0.338236,-2.392902,0.332657,-2.395345,0.328984,-2.400203,0.066990,-2.582973,0.061162,-2.584743,0.056943,-2.589135,-0.224735,-2.739810,-0.230731,-2.740882,-0.235438,-2.744747,-0.532886,-2.861235,-0.538224,-2.861550,-0.542688,-2.864501,-0.692719,-2.906008,-0.746398,-2.925678,-0.763566,-2.926314,-0.779853,-2.931778,-0.902178,-2.932941,-0.920750,-2.927101,-0.940183,-2.925828,
-1.053807,-2.880499,-1.068778,-2.868047,-1.086272,-2.859499,-1.174206,-2.774456,-1.183334,-2.757258,-1.196279,-2.742711,-1.245379,-2.630666,-1.247074,-2.613570,-1.253533,-2.597653,-1.257895,-2.536573,-1.257003,-2.532975,-1.258149,-2.529450,-1.258149,2.049588,-1.257001,2.053118,-1.257894,2.056722,-1.253526,2.117798,-1.247065,2.133715,-1.245369,2.150808,-1.196262,2.262845,-1.183318,2.277389,
-1.174191,2.294584,-1.086259,2.379622,-1.068766,2.388169,-1.053797,2.400619,-0.940180,2.445948,-0.920753,2.447221,-0.902181,2.453063,-0.779861,2.451909,-0.779861,2.451909,$1*%
G04 Aperture macros list end*
%ADD10RoundRect,0.218750X0.218750X0.256250X-0.218750X0.256250X-0.218750X-0.256250X0.218750X-0.256250X0*%
%ADD11RoundRect,0.160000X0.197500X0.160000X-0.197500X0.160000X-0.197500X-0.160000X0.197500X-0.160000X0*%
%ADD12RoundRect,0.155000X-0.212500X-0.155000X0.212500X-0.155000X0.212500X0.155000X-0.212500X0.155000X0*%
%ADD13RoundRect,0.155000X0.212500X0.155000X-0.212500X0.155000X-0.212500X-0.155000X0.212500X-0.155000X0*%
%ADD14RoundRect,0.218750X0.256250X-0.218750X0.256250X0.218750X-0.256250X0.218750X-0.256250X-0.218750X0*%
%ADD15C,2.250000*%
%ADD16C,4.500000*%
%ADD17C,5.000000*%
%ADD18C,3.250000*%
%ADD19C,4.000000*%
%ADD20FreePoly0,0.000000*%
%ADD21FreePoly1,0.000000*%
%ADD22R,1.000000X1.500000*%
%ADD23FreePoly2,0.000000*%
%ADD24FreePoly2,90.000000*%
%ADD25C,1.500000*%
%ADD26C,2.000000*%
%ADD27FreePoly0,180.000000*%
%ADD28FreePoly1,180.000000*%
%ADD29FreePoly3,0.000000*%
%ADD30FreePoly3,90.000000*%
%ADD31O,1.700000X1.700000*%
%ADD32R,1.700000X1.700000*%
%ADD33RotRect,1.700000X1.700000X315.000000*%
%ADD34HorizOval,1.700000X0.000000X0.000000X0.000000X0.000000X0*%
%ADD35RoundRect,0.160000X-0.197500X-0.160000X0.197500X-0.160000X0.197500X0.160000X-0.197500X0.160000X0*%
%ADD36RoundRect,0.087500X-0.225000X-0.087500X0.225000X-0.087500X0.225000X0.087500X-0.225000X0.087500X0*%
%ADD37RoundRect,0.087500X-0.087500X-0.225000X0.087500X-0.225000X0.087500X0.225000X-0.087500X0.225000X0*%
%ADD38RotRect,1.350000X1.350000X80.000000*%
%ADD39HorizOval,1.350000X0.000000X0.000000X0.000000X0.000000X0*%
%ADD40C,0.700000*%
%ADD41O,0.900000X1.700000*%
%ADD42O,0.900000X2.400000*%
G04 APERTURE END LIST*
D10*
%TO.C,D3*%
X162177500Y-100590000D03*
X160602500Y-100590000D03*
%TD*%
%TO.C,D1*%
X149197500Y-100600000D03*
X147622500Y-100600000D03*
%TD*%
D11*
%TO.C,R31*%
X146597500Y-75200000D03*
X145402500Y-75200000D03*
%TD*%
%TO.C,R27*%
X155585000Y-52060000D03*
X154390000Y-52060000D03*
%TD*%
D12*
%TO.C,C17*%
X147032500Y-80000000D03*
X148167500Y-80000000D03*
%TD*%
D11*
%TO.C,R28*%
X162497500Y-52090000D03*
X161302500Y-52090000D03*
%TD*%
D10*
%TO.C,D4*%
X168680000Y-100610000D03*
X167105000Y-100610000D03*
%TD*%
%TO.C,D2*%
X155730000Y-100560000D03*
X154155000Y-100560000D03*
%TD*%
D13*
%TO.C,C16*%
X150967500Y-78270000D03*
X149832500Y-78270000D03*
%TD*%
D14*
%TO.C,D5*%
X158180000Y-54887500D03*
X158180000Y-53312500D03*
%TD*%
D15*
%TO.C,U2*%
X215700000Y-92200000D03*
D16*
X208200000Y-93200000D03*
D17*
X176000000Y-99300000D03*
D18*
X158100000Y-93300000D03*
D17*
X140200000Y-99300000D03*
D19*
X139400000Y-52400000D03*
D15*
X104000000Y-92100000D03*
D20*
X198200000Y-82100000D03*
X187200000Y-92100000D03*
X187500000Y-72500000D03*
X176200000Y-82100000D03*
D21*
X171200000Y-67800000D03*
X145200000Y-67800000D03*
D22*
X155900000Y-68000000D03*
X155900000Y-64500000D03*
X155900000Y-86600000D03*
X155900000Y-83000000D03*
D23*
X127700000Y-75500000D03*
D24*
X119700000Y-86200000D03*
D23*
X127700000Y-93400000D03*
D24*
X137800000Y-86200000D03*
D25*
X130100000Y-64700000D03*
X131200000Y-62900000D03*
X183100000Y-54100000D03*
X187100000Y-54100000D03*
D26*
X171600000Y-57300000D03*
X171600000Y-50800000D03*
D27*
X198200000Y-87400000D03*
X187200000Y-97400000D03*
X187500000Y-77800000D03*
X176200000Y-87400000D03*
D28*
X171100000Y-64700000D03*
X145100000Y-64700000D03*
D22*
X160300000Y-68000000D03*
X160300000Y-64500000D03*
X160300000Y-86600000D03*
X160300000Y-83000000D03*
D29*
X130600000Y-75600000D03*
D30*
X119800000Y-83300000D03*
D29*
X130600000Y-93500000D03*
D30*
X137900000Y-83300000D03*
D25*
X128100000Y-64700000D03*
X129200000Y-62900000D03*
X181100000Y-54100000D03*
X185100000Y-54100000D03*
D26*
X167100000Y-57300000D03*
X167100000Y-50800000D03*
D31*
X210740000Y-101200000D03*
D32*
X112580000Y-88200000D03*
D31*
X208200000Y-101200000D03*
X104960000Y-88200000D03*
X203120000Y-101200000D03*
X110040000Y-88200000D03*
X107500000Y-88200000D03*
X102420000Y-88200000D03*
D32*
X213280000Y-101200000D03*
D31*
X205660000Y-101200000D03*
%TD*%
D33*
%TO.C,J2*%
X108301562Y-78298439D03*
D34*
X106505511Y-80094490D03*
%TD*%
D35*
%TO.C,R32*%
X147902500Y-75200000D03*
X149097500Y-75200000D03*
%TD*%
%TO.C,R33*%
X143702500Y-76700000D03*
X144897500Y-76700000D03*
%TD*%
D36*
%TO.C,U5*%
X146337500Y-76750000D03*
X146337500Y-77250000D03*
X146337500Y-77750000D03*
X146337500Y-78250000D03*
D37*
X147000000Y-78412500D03*
X147500000Y-78412500D03*
X148000000Y-78412500D03*
D36*
X148662500Y-78250000D03*
X148662500Y-77750000D03*
X148662500Y-77250000D03*
X148662500Y-76750000D03*
D37*
X148000000Y-76587500D03*
X147500000Y-76587500D03*
X147000000Y-76587500D03*
%TD*%
D38*
%TO.C,J4*%
X217045577Y-88479056D03*
D39*
X219015193Y-88826352D03*
X220984808Y-89173649D03*
X222954424Y-89520945D03*
%TD*%
D40*
%TO.C,J1*%
X155275000Y-49925000D03*
X156125000Y-49925000D03*
X156975000Y-49925000D03*
X157825000Y-49925000D03*
X158675000Y-49925000D03*
X159525000Y-49925000D03*
X160375000Y-49925000D03*
X161225000Y-49925000D03*
X161225000Y-48575000D03*
X160375000Y-48575000D03*
X159525000Y-48575000D03*
X158675000Y-48575000D03*
X157825000Y-48575000D03*
X156975000Y-48575000D03*
X156125000Y-48575000D03*
X155275000Y-48575000D03*
D41*
X162575000Y-45565000D03*
X153925000Y-45565000D03*
D42*
X162575000Y-48945000D03*
X153925000Y-48945000D03*
%TD*%
M02*
