%TF.GenerationSoftware,KiCad,Pcbnew,7.0.5*%
%TF.CreationDate,2023-08-29T10:42:25-04:00*%
%TF.ProjectId,Pro-Controller-X,50726f2d-436f-46e7-9472-6f6c6c65722d,rev?*%
%TF.SameCoordinates,Original*%
%TF.FileFunction,Legend,Top*%
%TF.FilePolarity,Positive*%
%FSLAX46Y46*%
G04 Gerber Fmt 4.6, Leading zero omitted, Abs format (unit mm)*
G04 Created by KiCad (PCBNEW 7.0.5) date 2023-08-29 10:42:25*
%MOMM*%
%LPD*%
G01*
G04 APERTURE LIST*
%ADD10C,0.150000*%
%ADD11C,0.120000*%
%ADD12C,0.400000*%
G04 APERTURE END LIST*
D10*
%TO.C,D3*%
X160651905Y-102474819D02*
X160651905Y-101474819D01*
X160651905Y-101474819D02*
X160890000Y-101474819D01*
X160890000Y-101474819D02*
X161032857Y-101522438D01*
X161032857Y-101522438D02*
X161128095Y-101617676D01*
X161128095Y-101617676D02*
X161175714Y-101712914D01*
X161175714Y-101712914D02*
X161223333Y-101903390D01*
X161223333Y-101903390D02*
X161223333Y-102046247D01*
X161223333Y-102046247D02*
X161175714Y-102236723D01*
X161175714Y-102236723D02*
X161128095Y-102331961D01*
X161128095Y-102331961D02*
X161032857Y-102427200D01*
X161032857Y-102427200D02*
X160890000Y-102474819D01*
X160890000Y-102474819D02*
X160651905Y-102474819D01*
X161556667Y-101474819D02*
X162175714Y-101474819D01*
X162175714Y-101474819D02*
X161842381Y-101855771D01*
X161842381Y-101855771D02*
X161985238Y-101855771D01*
X161985238Y-101855771D02*
X162080476Y-101903390D01*
X162080476Y-101903390D02*
X162128095Y-101951009D01*
X162128095Y-101951009D02*
X162175714Y-102046247D01*
X162175714Y-102046247D02*
X162175714Y-102284342D01*
X162175714Y-102284342D02*
X162128095Y-102379580D01*
X162128095Y-102379580D02*
X162080476Y-102427200D01*
X162080476Y-102427200D02*
X161985238Y-102474819D01*
X161985238Y-102474819D02*
X161699524Y-102474819D01*
X161699524Y-102474819D02*
X161604286Y-102427200D01*
X161604286Y-102427200D02*
X161556667Y-102379580D01*
%TO.C,D1*%
X147671905Y-102484819D02*
X147671905Y-101484819D01*
X147671905Y-101484819D02*
X147910000Y-101484819D01*
X147910000Y-101484819D02*
X148052857Y-101532438D01*
X148052857Y-101532438D02*
X148148095Y-101627676D01*
X148148095Y-101627676D02*
X148195714Y-101722914D01*
X148195714Y-101722914D02*
X148243333Y-101913390D01*
X148243333Y-101913390D02*
X148243333Y-102056247D01*
X148243333Y-102056247D02*
X148195714Y-102246723D01*
X148195714Y-102246723D02*
X148148095Y-102341961D01*
X148148095Y-102341961D02*
X148052857Y-102437200D01*
X148052857Y-102437200D02*
X147910000Y-102484819D01*
X147910000Y-102484819D02*
X147671905Y-102484819D01*
X149195714Y-102484819D02*
X148624286Y-102484819D01*
X148910000Y-102484819D02*
X148910000Y-101484819D01*
X148910000Y-101484819D02*
X148814762Y-101627676D01*
X148814762Y-101627676D02*
X148719524Y-101722914D01*
X148719524Y-101722914D02*
X148624286Y-101770533D01*
%TO.C,R31*%
X145477142Y-74604819D02*
X145143809Y-74128628D01*
X144905714Y-74604819D02*
X144905714Y-73604819D01*
X144905714Y-73604819D02*
X145286666Y-73604819D01*
X145286666Y-73604819D02*
X145381904Y-73652438D01*
X145381904Y-73652438D02*
X145429523Y-73700057D01*
X145429523Y-73700057D02*
X145477142Y-73795295D01*
X145477142Y-73795295D02*
X145477142Y-73938152D01*
X145477142Y-73938152D02*
X145429523Y-74033390D01*
X145429523Y-74033390D02*
X145381904Y-74081009D01*
X145381904Y-74081009D02*
X145286666Y-74128628D01*
X145286666Y-74128628D02*
X144905714Y-74128628D01*
X145810476Y-73604819D02*
X146429523Y-73604819D01*
X146429523Y-73604819D02*
X146096190Y-73985771D01*
X146096190Y-73985771D02*
X146239047Y-73985771D01*
X146239047Y-73985771D02*
X146334285Y-74033390D01*
X146334285Y-74033390D02*
X146381904Y-74081009D01*
X146381904Y-74081009D02*
X146429523Y-74176247D01*
X146429523Y-74176247D02*
X146429523Y-74414342D01*
X146429523Y-74414342D02*
X146381904Y-74509580D01*
X146381904Y-74509580D02*
X146334285Y-74557200D01*
X146334285Y-74557200D02*
X146239047Y-74604819D01*
X146239047Y-74604819D02*
X145953333Y-74604819D01*
X145953333Y-74604819D02*
X145858095Y-74557200D01*
X145858095Y-74557200D02*
X145810476Y-74509580D01*
X147381904Y-74604819D02*
X146810476Y-74604819D01*
X147096190Y-74604819D02*
X147096190Y-73604819D01*
X147096190Y-73604819D02*
X147000952Y-73747676D01*
X147000952Y-73747676D02*
X146905714Y-73842914D01*
X146905714Y-73842914D02*
X146810476Y-73890533D01*
%TO.C,R27*%
X154344642Y-53684819D02*
X154011309Y-53208628D01*
X153773214Y-53684819D02*
X153773214Y-52684819D01*
X153773214Y-52684819D02*
X154154166Y-52684819D01*
X154154166Y-52684819D02*
X154249404Y-52732438D01*
X154249404Y-52732438D02*
X154297023Y-52780057D01*
X154297023Y-52780057D02*
X154344642Y-52875295D01*
X154344642Y-52875295D02*
X154344642Y-53018152D01*
X154344642Y-53018152D02*
X154297023Y-53113390D01*
X154297023Y-53113390D02*
X154249404Y-53161009D01*
X154249404Y-53161009D02*
X154154166Y-53208628D01*
X154154166Y-53208628D02*
X153773214Y-53208628D01*
X154725595Y-52780057D02*
X154773214Y-52732438D01*
X154773214Y-52732438D02*
X154868452Y-52684819D01*
X154868452Y-52684819D02*
X155106547Y-52684819D01*
X155106547Y-52684819D02*
X155201785Y-52732438D01*
X155201785Y-52732438D02*
X155249404Y-52780057D01*
X155249404Y-52780057D02*
X155297023Y-52875295D01*
X155297023Y-52875295D02*
X155297023Y-52970533D01*
X155297023Y-52970533D02*
X155249404Y-53113390D01*
X155249404Y-53113390D02*
X154677976Y-53684819D01*
X154677976Y-53684819D02*
X155297023Y-53684819D01*
X155630357Y-52684819D02*
X156297023Y-52684819D01*
X156297023Y-52684819D02*
X155868452Y-53684819D01*
%TO.C,C17*%
X146957142Y-81659580D02*
X146909523Y-81707200D01*
X146909523Y-81707200D02*
X146766666Y-81754819D01*
X146766666Y-81754819D02*
X146671428Y-81754819D01*
X146671428Y-81754819D02*
X146528571Y-81707200D01*
X146528571Y-81707200D02*
X146433333Y-81611961D01*
X146433333Y-81611961D02*
X146385714Y-81516723D01*
X146385714Y-81516723D02*
X146338095Y-81326247D01*
X146338095Y-81326247D02*
X146338095Y-81183390D01*
X146338095Y-81183390D02*
X146385714Y-80992914D01*
X146385714Y-80992914D02*
X146433333Y-80897676D01*
X146433333Y-80897676D02*
X146528571Y-80802438D01*
X146528571Y-80802438D02*
X146671428Y-80754819D01*
X146671428Y-80754819D02*
X146766666Y-80754819D01*
X146766666Y-80754819D02*
X146909523Y-80802438D01*
X146909523Y-80802438D02*
X146957142Y-80850057D01*
X147909523Y-81754819D02*
X147338095Y-81754819D01*
X147623809Y-81754819D02*
X147623809Y-80754819D01*
X147623809Y-80754819D02*
X147528571Y-80897676D01*
X147528571Y-80897676D02*
X147433333Y-80992914D01*
X147433333Y-80992914D02*
X147338095Y-81040533D01*
X148242857Y-80754819D02*
X148909523Y-80754819D01*
X148909523Y-80754819D02*
X148480952Y-81754819D01*
%TO.C,R28*%
X161257142Y-53734819D02*
X160923809Y-53258628D01*
X160685714Y-53734819D02*
X160685714Y-52734819D01*
X160685714Y-52734819D02*
X161066666Y-52734819D01*
X161066666Y-52734819D02*
X161161904Y-52782438D01*
X161161904Y-52782438D02*
X161209523Y-52830057D01*
X161209523Y-52830057D02*
X161257142Y-52925295D01*
X161257142Y-52925295D02*
X161257142Y-53068152D01*
X161257142Y-53068152D02*
X161209523Y-53163390D01*
X161209523Y-53163390D02*
X161161904Y-53211009D01*
X161161904Y-53211009D02*
X161066666Y-53258628D01*
X161066666Y-53258628D02*
X160685714Y-53258628D01*
X161638095Y-52830057D02*
X161685714Y-52782438D01*
X161685714Y-52782438D02*
X161780952Y-52734819D01*
X161780952Y-52734819D02*
X162019047Y-52734819D01*
X162019047Y-52734819D02*
X162114285Y-52782438D01*
X162114285Y-52782438D02*
X162161904Y-52830057D01*
X162161904Y-52830057D02*
X162209523Y-52925295D01*
X162209523Y-52925295D02*
X162209523Y-53020533D01*
X162209523Y-53020533D02*
X162161904Y-53163390D01*
X162161904Y-53163390D02*
X161590476Y-53734819D01*
X161590476Y-53734819D02*
X162209523Y-53734819D01*
X162780952Y-53163390D02*
X162685714Y-53115771D01*
X162685714Y-53115771D02*
X162638095Y-53068152D01*
X162638095Y-53068152D02*
X162590476Y-52972914D01*
X162590476Y-52972914D02*
X162590476Y-52925295D01*
X162590476Y-52925295D02*
X162638095Y-52830057D01*
X162638095Y-52830057D02*
X162685714Y-52782438D01*
X162685714Y-52782438D02*
X162780952Y-52734819D01*
X162780952Y-52734819D02*
X162971428Y-52734819D01*
X162971428Y-52734819D02*
X163066666Y-52782438D01*
X163066666Y-52782438D02*
X163114285Y-52830057D01*
X163114285Y-52830057D02*
X163161904Y-52925295D01*
X163161904Y-52925295D02*
X163161904Y-52972914D01*
X163161904Y-52972914D02*
X163114285Y-53068152D01*
X163114285Y-53068152D02*
X163066666Y-53115771D01*
X163066666Y-53115771D02*
X162971428Y-53163390D01*
X162971428Y-53163390D02*
X162780952Y-53163390D01*
X162780952Y-53163390D02*
X162685714Y-53211009D01*
X162685714Y-53211009D02*
X162638095Y-53258628D01*
X162638095Y-53258628D02*
X162590476Y-53353866D01*
X162590476Y-53353866D02*
X162590476Y-53544342D01*
X162590476Y-53544342D02*
X162638095Y-53639580D01*
X162638095Y-53639580D02*
X162685714Y-53687200D01*
X162685714Y-53687200D02*
X162780952Y-53734819D01*
X162780952Y-53734819D02*
X162971428Y-53734819D01*
X162971428Y-53734819D02*
X163066666Y-53687200D01*
X163066666Y-53687200D02*
X163114285Y-53639580D01*
X163114285Y-53639580D02*
X163161904Y-53544342D01*
X163161904Y-53544342D02*
X163161904Y-53353866D01*
X163161904Y-53353866D02*
X163114285Y-53258628D01*
X163114285Y-53258628D02*
X163066666Y-53211009D01*
X163066666Y-53211009D02*
X162971428Y-53163390D01*
%TO.C,D4*%
X167154405Y-102554819D02*
X167154405Y-101554819D01*
X167154405Y-101554819D02*
X167392500Y-101554819D01*
X167392500Y-101554819D02*
X167535357Y-101602438D01*
X167535357Y-101602438D02*
X167630595Y-101697676D01*
X167630595Y-101697676D02*
X167678214Y-101792914D01*
X167678214Y-101792914D02*
X167725833Y-101983390D01*
X167725833Y-101983390D02*
X167725833Y-102126247D01*
X167725833Y-102126247D02*
X167678214Y-102316723D01*
X167678214Y-102316723D02*
X167630595Y-102411961D01*
X167630595Y-102411961D02*
X167535357Y-102507200D01*
X167535357Y-102507200D02*
X167392500Y-102554819D01*
X167392500Y-102554819D02*
X167154405Y-102554819D01*
X168582976Y-101888152D02*
X168582976Y-102554819D01*
X168344881Y-101507200D02*
X168106786Y-102221485D01*
X168106786Y-102221485D02*
X168725833Y-102221485D01*
%TO.C,D2*%
X154204405Y-102444819D02*
X154204405Y-101444819D01*
X154204405Y-101444819D02*
X154442500Y-101444819D01*
X154442500Y-101444819D02*
X154585357Y-101492438D01*
X154585357Y-101492438D02*
X154680595Y-101587676D01*
X154680595Y-101587676D02*
X154728214Y-101682914D01*
X154728214Y-101682914D02*
X154775833Y-101873390D01*
X154775833Y-101873390D02*
X154775833Y-102016247D01*
X154775833Y-102016247D02*
X154728214Y-102206723D01*
X154728214Y-102206723D02*
X154680595Y-102301961D01*
X154680595Y-102301961D02*
X154585357Y-102397200D01*
X154585357Y-102397200D02*
X154442500Y-102444819D01*
X154442500Y-102444819D02*
X154204405Y-102444819D01*
X155156786Y-101540057D02*
X155204405Y-101492438D01*
X155204405Y-101492438D02*
X155299643Y-101444819D01*
X155299643Y-101444819D02*
X155537738Y-101444819D01*
X155537738Y-101444819D02*
X155632976Y-101492438D01*
X155632976Y-101492438D02*
X155680595Y-101540057D01*
X155680595Y-101540057D02*
X155728214Y-101635295D01*
X155728214Y-101635295D02*
X155728214Y-101730533D01*
X155728214Y-101730533D02*
X155680595Y-101873390D01*
X155680595Y-101873390D02*
X155109167Y-102444819D01*
X155109167Y-102444819D02*
X155728214Y-102444819D01*
%TO.C,C16*%
X152457142Y-78659580D02*
X152409523Y-78707200D01*
X152409523Y-78707200D02*
X152266666Y-78754819D01*
X152266666Y-78754819D02*
X152171428Y-78754819D01*
X152171428Y-78754819D02*
X152028571Y-78707200D01*
X152028571Y-78707200D02*
X151933333Y-78611961D01*
X151933333Y-78611961D02*
X151885714Y-78516723D01*
X151885714Y-78516723D02*
X151838095Y-78326247D01*
X151838095Y-78326247D02*
X151838095Y-78183390D01*
X151838095Y-78183390D02*
X151885714Y-77992914D01*
X151885714Y-77992914D02*
X151933333Y-77897676D01*
X151933333Y-77897676D02*
X152028571Y-77802438D01*
X152028571Y-77802438D02*
X152171428Y-77754819D01*
X152171428Y-77754819D02*
X152266666Y-77754819D01*
X152266666Y-77754819D02*
X152409523Y-77802438D01*
X152409523Y-77802438D02*
X152457142Y-77850057D01*
X153409523Y-78754819D02*
X152838095Y-78754819D01*
X153123809Y-78754819D02*
X153123809Y-77754819D01*
X153123809Y-77754819D02*
X153028571Y-77897676D01*
X153028571Y-77897676D02*
X152933333Y-77992914D01*
X152933333Y-77992914D02*
X152838095Y-78040533D01*
X154266666Y-77754819D02*
X154076190Y-77754819D01*
X154076190Y-77754819D02*
X153980952Y-77802438D01*
X153980952Y-77802438D02*
X153933333Y-77850057D01*
X153933333Y-77850057D02*
X153838095Y-77992914D01*
X153838095Y-77992914D02*
X153790476Y-78183390D01*
X153790476Y-78183390D02*
X153790476Y-78564342D01*
X153790476Y-78564342D02*
X153838095Y-78659580D01*
X153838095Y-78659580D02*
X153885714Y-78707200D01*
X153885714Y-78707200D02*
X153980952Y-78754819D01*
X153980952Y-78754819D02*
X154171428Y-78754819D01*
X154171428Y-78754819D02*
X154266666Y-78707200D01*
X154266666Y-78707200D02*
X154314285Y-78659580D01*
X154314285Y-78659580D02*
X154361904Y-78564342D01*
X154361904Y-78564342D02*
X154361904Y-78326247D01*
X154361904Y-78326247D02*
X154314285Y-78231009D01*
X154314285Y-78231009D02*
X154266666Y-78183390D01*
X154266666Y-78183390D02*
X154171428Y-78135771D01*
X154171428Y-78135771D02*
X153980952Y-78135771D01*
X153980952Y-78135771D02*
X153885714Y-78183390D01*
X153885714Y-78183390D02*
X153838095Y-78231009D01*
X153838095Y-78231009D02*
X153790476Y-78326247D01*
%TO.C,D5*%
X157204819Y-54838094D02*
X156204819Y-54838094D01*
X156204819Y-54838094D02*
X156204819Y-54599999D01*
X156204819Y-54599999D02*
X156252438Y-54457142D01*
X156252438Y-54457142D02*
X156347676Y-54361904D01*
X156347676Y-54361904D02*
X156442914Y-54314285D01*
X156442914Y-54314285D02*
X156633390Y-54266666D01*
X156633390Y-54266666D02*
X156776247Y-54266666D01*
X156776247Y-54266666D02*
X156966723Y-54314285D01*
X156966723Y-54314285D02*
X157061961Y-54361904D01*
X157061961Y-54361904D02*
X157157200Y-54457142D01*
X157157200Y-54457142D02*
X157204819Y-54599999D01*
X157204819Y-54599999D02*
X157204819Y-54838094D01*
X156204819Y-53361904D02*
X156204819Y-53838094D01*
X156204819Y-53838094D02*
X156681009Y-53885713D01*
X156681009Y-53885713D02*
X156633390Y-53838094D01*
X156633390Y-53838094D02*
X156585771Y-53742856D01*
X156585771Y-53742856D02*
X156585771Y-53504761D01*
X156585771Y-53504761D02*
X156633390Y-53409523D01*
X156633390Y-53409523D02*
X156681009Y-53361904D01*
X156681009Y-53361904D02*
X156776247Y-53314285D01*
X156776247Y-53314285D02*
X157014342Y-53314285D01*
X157014342Y-53314285D02*
X157109580Y-53361904D01*
X157109580Y-53361904D02*
X157157200Y-53409523D01*
X157157200Y-53409523D02*
X157204819Y-53504761D01*
X157204819Y-53504761D02*
X157204819Y-53742856D01*
X157204819Y-53742856D02*
X157157200Y-53838094D01*
X157157200Y-53838094D02*
X157109580Y-53885713D01*
%TO.C,U2*%
X225161904Y-88345180D02*
X225161904Y-87535657D01*
X225161904Y-87535657D02*
X225114285Y-87440419D01*
X225114285Y-87440419D02*
X225066666Y-87392800D01*
X225066666Y-87392800D02*
X224971428Y-87345180D01*
X224971428Y-87345180D02*
X224780952Y-87345180D01*
X224780952Y-87345180D02*
X224685714Y-87392800D01*
X224685714Y-87392800D02*
X224638095Y-87440419D01*
X224638095Y-87440419D02*
X224590476Y-87535657D01*
X224590476Y-87535657D02*
X224590476Y-88345180D01*
X224161904Y-88249942D02*
X224114285Y-88297561D01*
X224114285Y-88297561D02*
X224019047Y-88345180D01*
X224019047Y-88345180D02*
X223780952Y-88345180D01*
X223780952Y-88345180D02*
X223685714Y-88297561D01*
X223685714Y-88297561D02*
X223638095Y-88249942D01*
X223638095Y-88249942D02*
X223590476Y-88154704D01*
X223590476Y-88154704D02*
X223590476Y-88059466D01*
X223590476Y-88059466D02*
X223638095Y-87916609D01*
X223638095Y-87916609D02*
X224209523Y-87345180D01*
X224209523Y-87345180D02*
X223590476Y-87345180D01*
%TO.C,J2*%
X110098919Y-76029676D02*
X109593843Y-76534752D01*
X109593843Y-76534752D02*
X109459156Y-76602096D01*
X109459156Y-76602096D02*
X109324469Y-76602096D01*
X109324469Y-76602096D02*
X109189782Y-76534752D01*
X109189782Y-76534752D02*
X109122438Y-76467409D01*
X110334622Y-76400065D02*
X110401965Y-76400065D01*
X110401965Y-76400065D02*
X110502980Y-76433737D01*
X110502980Y-76433737D02*
X110671339Y-76602096D01*
X110671339Y-76602096D02*
X110705011Y-76703111D01*
X110705011Y-76703111D02*
X110705011Y-76770455D01*
X110705011Y-76770455D02*
X110671339Y-76871470D01*
X110671339Y-76871470D02*
X110603996Y-76938813D01*
X110603996Y-76938813D02*
X110469309Y-77006157D01*
X110469309Y-77006157D02*
X109661187Y-77006157D01*
X109661187Y-77006157D02*
X110098919Y-77443890D01*
%TO.C,R32*%
X148557142Y-74654819D02*
X148223809Y-74178628D01*
X147985714Y-74654819D02*
X147985714Y-73654819D01*
X147985714Y-73654819D02*
X148366666Y-73654819D01*
X148366666Y-73654819D02*
X148461904Y-73702438D01*
X148461904Y-73702438D02*
X148509523Y-73750057D01*
X148509523Y-73750057D02*
X148557142Y-73845295D01*
X148557142Y-73845295D02*
X148557142Y-73988152D01*
X148557142Y-73988152D02*
X148509523Y-74083390D01*
X148509523Y-74083390D02*
X148461904Y-74131009D01*
X148461904Y-74131009D02*
X148366666Y-74178628D01*
X148366666Y-74178628D02*
X147985714Y-74178628D01*
X148890476Y-73654819D02*
X149509523Y-73654819D01*
X149509523Y-73654819D02*
X149176190Y-74035771D01*
X149176190Y-74035771D02*
X149319047Y-74035771D01*
X149319047Y-74035771D02*
X149414285Y-74083390D01*
X149414285Y-74083390D02*
X149461904Y-74131009D01*
X149461904Y-74131009D02*
X149509523Y-74226247D01*
X149509523Y-74226247D02*
X149509523Y-74464342D01*
X149509523Y-74464342D02*
X149461904Y-74559580D01*
X149461904Y-74559580D02*
X149414285Y-74607200D01*
X149414285Y-74607200D02*
X149319047Y-74654819D01*
X149319047Y-74654819D02*
X149033333Y-74654819D01*
X149033333Y-74654819D02*
X148938095Y-74607200D01*
X148938095Y-74607200D02*
X148890476Y-74559580D01*
X149890476Y-73750057D02*
X149938095Y-73702438D01*
X149938095Y-73702438D02*
X150033333Y-73654819D01*
X150033333Y-73654819D02*
X150271428Y-73654819D01*
X150271428Y-73654819D02*
X150366666Y-73702438D01*
X150366666Y-73702438D02*
X150414285Y-73750057D01*
X150414285Y-73750057D02*
X150461904Y-73845295D01*
X150461904Y-73845295D02*
X150461904Y-73940533D01*
X150461904Y-73940533D02*
X150414285Y-74083390D01*
X150414285Y-74083390D02*
X149842857Y-74654819D01*
X149842857Y-74654819D02*
X150461904Y-74654819D01*
%TO.C,R33*%
X140457142Y-77454819D02*
X140123809Y-76978628D01*
X139885714Y-77454819D02*
X139885714Y-76454819D01*
X139885714Y-76454819D02*
X140266666Y-76454819D01*
X140266666Y-76454819D02*
X140361904Y-76502438D01*
X140361904Y-76502438D02*
X140409523Y-76550057D01*
X140409523Y-76550057D02*
X140457142Y-76645295D01*
X140457142Y-76645295D02*
X140457142Y-76788152D01*
X140457142Y-76788152D02*
X140409523Y-76883390D01*
X140409523Y-76883390D02*
X140361904Y-76931009D01*
X140361904Y-76931009D02*
X140266666Y-76978628D01*
X140266666Y-76978628D02*
X139885714Y-76978628D01*
X140790476Y-76454819D02*
X141409523Y-76454819D01*
X141409523Y-76454819D02*
X141076190Y-76835771D01*
X141076190Y-76835771D02*
X141219047Y-76835771D01*
X141219047Y-76835771D02*
X141314285Y-76883390D01*
X141314285Y-76883390D02*
X141361904Y-76931009D01*
X141361904Y-76931009D02*
X141409523Y-77026247D01*
X141409523Y-77026247D02*
X141409523Y-77264342D01*
X141409523Y-77264342D02*
X141361904Y-77359580D01*
X141361904Y-77359580D02*
X141314285Y-77407200D01*
X141314285Y-77407200D02*
X141219047Y-77454819D01*
X141219047Y-77454819D02*
X140933333Y-77454819D01*
X140933333Y-77454819D02*
X140838095Y-77407200D01*
X140838095Y-77407200D02*
X140790476Y-77359580D01*
X141742857Y-76454819D02*
X142361904Y-76454819D01*
X142361904Y-76454819D02*
X142028571Y-76835771D01*
X142028571Y-76835771D02*
X142171428Y-76835771D01*
X142171428Y-76835771D02*
X142266666Y-76883390D01*
X142266666Y-76883390D02*
X142314285Y-76931009D01*
X142314285Y-76931009D02*
X142361904Y-77026247D01*
X142361904Y-77026247D02*
X142361904Y-77264342D01*
X142361904Y-77264342D02*
X142314285Y-77359580D01*
X142314285Y-77359580D02*
X142266666Y-77407200D01*
X142266666Y-77407200D02*
X142171428Y-77454819D01*
X142171428Y-77454819D02*
X141885714Y-77454819D01*
X141885714Y-77454819D02*
X141790476Y-77407200D01*
X141790476Y-77407200D02*
X141742857Y-77359580D01*
%TO.C,U5*%
X144138095Y-77454819D02*
X144138095Y-78264342D01*
X144138095Y-78264342D02*
X144185714Y-78359580D01*
X144185714Y-78359580D02*
X144233333Y-78407200D01*
X144233333Y-78407200D02*
X144328571Y-78454819D01*
X144328571Y-78454819D02*
X144519047Y-78454819D01*
X144519047Y-78454819D02*
X144614285Y-78407200D01*
X144614285Y-78407200D02*
X144661904Y-78359580D01*
X144661904Y-78359580D02*
X144709523Y-78264342D01*
X144709523Y-78264342D02*
X144709523Y-77454819D01*
X145661904Y-77454819D02*
X145185714Y-77454819D01*
X145185714Y-77454819D02*
X145138095Y-77931009D01*
X145138095Y-77931009D02*
X145185714Y-77883390D01*
X145185714Y-77883390D02*
X145280952Y-77835771D01*
X145280952Y-77835771D02*
X145519047Y-77835771D01*
X145519047Y-77835771D02*
X145614285Y-77883390D01*
X145614285Y-77883390D02*
X145661904Y-77931009D01*
X145661904Y-77931009D02*
X145709523Y-78026247D01*
X145709523Y-78026247D02*
X145709523Y-78264342D01*
X145709523Y-78264342D02*
X145661904Y-78359580D01*
X145661904Y-78359580D02*
X145614285Y-78407200D01*
X145614285Y-78407200D02*
X145519047Y-78454819D01*
X145519047Y-78454819D02*
X145280952Y-78454819D01*
X145280952Y-78454819D02*
X145185714Y-78407200D01*
X145185714Y-78407200D02*
X145138095Y-78359580D01*
%TO.C,J4*%
X214422091Y-88354940D02*
X215125525Y-88478975D01*
X215125525Y-88478975D02*
X215257943Y-88550677D01*
X215257943Y-88550677D02*
X215335197Y-88661006D01*
X215335197Y-88661006D02*
X215357285Y-88809962D01*
X215357285Y-88809962D02*
X215340747Y-88903753D01*
X214907471Y-87521806D02*
X215564009Y-87637572D01*
X214490961Y-87690133D02*
X215153051Y-88048645D01*
X215153051Y-88048645D02*
X215260547Y-87439002D01*
D11*
%TO.C,D3*%
X162875000Y-99855000D02*
X160590000Y-99855000D01*
X162875000Y-101325000D02*
X162875000Y-99855000D01*
X160590000Y-101325000D02*
X162875000Y-101325000D01*
%TO.C,D1*%
X149895000Y-99865000D02*
X147610000Y-99865000D01*
X149895000Y-101335000D02*
X149895000Y-99865000D01*
X147610000Y-101335000D02*
X149895000Y-101335000D01*
%TO.C,R31*%
X146167621Y-75580000D02*
X145832379Y-75580000D01*
X146167621Y-74820000D02*
X145832379Y-74820000D01*
%TO.C,R27*%
X155155121Y-52440000D02*
X154819879Y-52440000D01*
X155155121Y-51680000D02*
X154819879Y-51680000D01*
%TO.C,C17*%
X147484165Y-79640000D02*
X147715835Y-79640000D01*
X147484165Y-80360000D02*
X147715835Y-80360000D01*
%TO.C,R28*%
X162067621Y-52470000D02*
X161732379Y-52470000D01*
X162067621Y-51710000D02*
X161732379Y-51710000D01*
%TO.C,D4*%
X169377500Y-99875000D02*
X167092500Y-99875000D01*
X169377500Y-101345000D02*
X169377500Y-99875000D01*
X167092500Y-101345000D02*
X169377500Y-101345000D01*
%TO.C,D2*%
X156427500Y-99825000D02*
X154142500Y-99825000D01*
X156427500Y-101295000D02*
X156427500Y-99825000D01*
X154142500Y-101295000D02*
X156427500Y-101295000D01*
%TO.C,C16*%
X150515835Y-78630000D02*
X150284165Y-78630000D01*
X150515835Y-77910000D02*
X150284165Y-77910000D01*
%TO.C,D5*%
X158915000Y-55585000D02*
X158915000Y-53300000D01*
X157445000Y-55585000D02*
X158915000Y-55585000D01*
X157445000Y-53300000D02*
X157445000Y-55585000D01*
D12*
%TO.C,U2*%
X207188812Y-86400000D02*
X207300000Y-82948528D01*
X206100000Y-81748528D02*
X205178472Y-81730126D01*
X205884653Y-87600000D02*
X204200000Y-87600000D01*
X201100000Y-90799999D02*
X201100000Y-92700000D01*
X199900000Y-93900000D02*
X196200000Y-93900000D01*
X196277633Y-73982837D02*
X196175568Y-74891502D01*
X196200000Y-97400000D02*
X196200000Y-93900000D01*
X194185489Y-100692085D02*
X196200000Y-97400000D01*
X182747311Y-69676773D02*
X183000001Y-69500001D01*
X179400000Y-98600000D02*
X182000000Y-98600000D01*
X179400000Y-97700000D02*
X179400000Y-98600000D01*
X178500000Y-96900000D02*
X179400000Y-97700000D01*
X178500000Y-94800000D02*
X178500000Y-96900000D01*
X177599999Y-74373087D02*
X178800001Y-70500000D01*
X177500000Y-93800000D02*
X178500000Y-94800000D01*
X175514930Y-75600468D02*
X174888863Y-75589337D01*
X174500000Y-93800000D02*
X177500000Y-93800000D01*
X173300001Y-76900000D02*
X173113902Y-78827805D01*
X173200000Y-90900000D02*
X173200000Y-92500000D01*
X172200000Y-90300000D02*
X173200000Y-90900000D01*
X171200000Y-59500000D02*
X145199989Y-59500746D01*
X170702201Y-91203669D02*
X172200000Y-90300000D01*
X169300001Y-85100000D02*
X167978711Y-85957422D01*
X167400000Y-87900000D02*
X169000000Y-90600000D01*
X164600000Y-91300000D02*
X151500000Y-91300000D01*
X164600000Y-72900000D02*
X171100011Y-72899254D01*
X164600000Y-72900000D02*
X164600000Y-91300000D01*
X151500000Y-91300000D02*
X151500000Y-72900000D01*
X151500000Y-72900000D02*
X145100000Y-72900000D01*
X205884653Y-87600003D02*
G75*
G03*
X207188812Y-86400000I99997J1200003D01*
G01*
X207299972Y-82948528D02*
G75*
G03*
X206100000Y-81748528I-1199972J28D01*
G01*
X203738175Y-81169957D02*
G75*
G03*
X205178472Y-81730125I1363525J1374157D01*
G01*
X201102348Y-90804774D02*
G75*
G03*
X204199998Y-87600000I-2902348J5904774D01*
G01*
X199900000Y-93900000D02*
G75*
G03*
X201100000Y-92700000I0J1200000D01*
G01*
X203799999Y-81200000D02*
G75*
G03*
X198200000Y-78142674I-5599999J-3600000D01*
G01*
X196175568Y-74891502D02*
G75*
G03*
X198200000Y-78142674I2324432J-808498D01*
G01*
X190452426Y-68737284D02*
G75*
G03*
X196277633Y-73982836I11406864J6810134D01*
G01*
X192091713Y-100815687D02*
G75*
G03*
X194185489Y-100692085I1008287J715687D01*
G01*
X192091704Y-100815694D02*
G75*
G03*
X190121256Y-100644789I-1074704J-946206D01*
G01*
X182000001Y-98599999D02*
G75*
G03*
X190121256Y-100644787I5299999J3899999D01*
G01*
X190452424Y-68737288D02*
G75*
G03*
X183000001Y-69500001I-3100004J-6499992D01*
G01*
X181262368Y-69466355D02*
G75*
G03*
X182747310Y-69676772I837632J566355D01*
G01*
X181262367Y-69466357D02*
G75*
G03*
X178800002Y-70500000I-762367J-1633643D01*
G01*
X175514930Y-75600468D02*
G75*
G03*
X177599999Y-74373087I285070J1900468D01*
G01*
X173200000Y-92500000D02*
G75*
G03*
X174500000Y-93800000I1300000J0D01*
G01*
X174888863Y-75589338D02*
G75*
G03*
X173300002Y-76900000I-88863J-1510662D01*
G01*
X171100011Y-72899254D02*
G75*
G03*
X171200000Y-59500000I99989J6699254D01*
G01*
X169000002Y-90600000D02*
G75*
G03*
X170702201Y-91203668I1099998J400000D01*
G01*
X173113902Y-78827806D02*
G75*
G03*
X169300002Y-85100000I3086098J-6172194D01*
G01*
X167978711Y-85957422D02*
G75*
G03*
X167400000Y-87900000I621289J-1242578D01*
G01*
X145199989Y-59500746D02*
G75*
G03*
X145100000Y-72900000I-99989J-6699254D01*
G01*
X144991193Y-84600000D02*
G75*
G03*
X144991193Y-84600000I-15891193J0D01*
G01*
D11*
%TO.C,J2*%
X107361110Y-77357987D02*
X108301562Y-76417535D01*
X104624607Y-80094490D02*
X106505511Y-81975394D01*
X106463084Y-78256013D02*
X104624607Y-80094490D01*
X106463084Y-78256013D02*
X108343988Y-80136917D01*
X108301562Y-76417535D02*
X109242014Y-77357987D01*
X108343988Y-80136917D02*
X106505511Y-81975394D01*
%TO.C,R32*%
X148332379Y-74820000D02*
X148667621Y-74820000D01*
X148332379Y-75580000D02*
X148667621Y-75580000D01*
%TO.C,R33*%
X144132379Y-76320000D02*
X144467621Y-76320000D01*
X144132379Y-77080000D02*
X144467621Y-77080000D01*
%TO.C,U5*%
X148435000Y-76140000D02*
X149110000Y-76140000D01*
X145890000Y-78860000D02*
X145890000Y-78685000D01*
X149110000Y-78860000D02*
X149110000Y-78685000D01*
X146565000Y-78860000D02*
X145890000Y-78860000D01*
X148435000Y-78860000D02*
X149110000Y-78860000D01*
X149110000Y-76140000D02*
X149110000Y-76315000D01*
X146565000Y-76140000D02*
X145890000Y-76140000D01*
%TO.C,J4*%
X218214452Y-87608808D02*
X224182387Y-88661116D01*
X217846318Y-89696600D02*
X218214452Y-87608808D01*
X215817614Y-89338885D02*
X216001681Y-88294989D01*
X223814253Y-90748908D02*
X224182387Y-88661116D01*
X216861510Y-89522952D02*
X215817614Y-89338885D01*
X217846318Y-89696600D02*
X223814253Y-90748908D01*
%TD*%
M02*
