M48
; DRILL file {KiCad 7.0.5} date Fri Aug 25 10:09:20 2023
; FORMAT={-:-/ absolute / metric / decimal}
; #@! TF.CreationDate,2023-08-25T10:09:20-04:00
; #@! TF.GenerationSoftware,Kicad,Pcbnew,7.0.5
; #@! TF.FileFunction,Plated,1,2,PTH
FMAT,2
METRIC
; #@! TA.AperFunction,Plated,PTH,ViaDrill
T1C0.400
; #@! TA.AperFunction,Plated,PTH,ComponentDrill
T2C0.400
; #@! TA.AperFunction,Plated,PTH,ComponentDrill
T3C0.600
; #@! TA.AperFunction,Plated,PTH,ComponentDrill
T4C0.800
; #@! TA.AperFunction,Plated,PTH,ComponentDrill
T5C1.000
; #@! TA.AperFunction,Plated,PTH,ComponentDrill
T6C1.100
; #@! TA.AperFunction,Plated,PTH,ComponentDrill
T7C2.250
; #@! TA.AperFunction,Plated,PTH,ComponentDrill
T8C3.250
; #@! TA.AperFunction,Plated,PTH,ComponentDrill
T9C4.000
; #@! TA.AperFunction,Plated,PTH,ComponentDrill
T10C4.500
; #@! TA.AperFunction,Plated,PTH,ComponentDrill
T11C5.000
%
G90
G05
T1
X101.0Y-79.0
X101.0Y-83.0
X101.0Y-87.0
X101.0Y-91.0
X101.0Y-95.0
X102.0Y-97.0
X103.0Y-77.0
X104.0Y-76.3
X106.0Y-99.0
X109.5Y-82.0
X110.0Y-101.0
X114.0Y-103.0
X118.0Y-75.0
X118.0Y-103.0
X118.9Y-80.4
X119.9Y-79.5
X120.2Y-89.6
X122.0Y-103.0
X124.8Y-93.6
X126.0Y-103.0
X127.0Y-67.0
X129.0Y-61.0
X130.0Y-103.0
X131.0Y-61.0
X131.975Y-68.6
X132.0Y-67.3
X132.8Y-65.4
X132.8Y-71.3
X132.8Y-93.1
X133.0Y-63.0
X133.6Y-59.6
X133.6Y-61.0
X133.8Y-95.9
X134.0Y-103.0
X134.7Y-95.0
X134.8Y-66.5
X135.0Y-63.0
X135.1Y-58.1
X135.1Y-59.6
X136.1Y-69.8
X136.1Y-70.9
X136.6Y-56.6
X137.6Y-57.6
X138.0Y-103.0
X138.1Y-55.0
X138.1Y-88.4
X139.193Y-56.1
X139.6Y-72.6
X140.2Y-55.0
X141.2Y-72.5
X142.0Y-103.0
X142.1Y-51.1
X142.1Y-53.0
X142.13Y-89.17
X142.875Y-60.6
X142.9Y-61.8
X143.0Y-74.2
X143.1Y-58.775
X143.2Y-50.0
X143.2Y-51.9
X143.4Y-69.1
X144.3Y-48.9
X144.3Y-50.8
X144.3Y-75.2
X144.6Y-55.425
X144.7Y-59.3
X144.7Y-60.5
X145.2Y-69.5
X145.3Y-54.7
X145.9Y-59.3
X146.0Y-103.0
X146.1Y-48.8
X146.1Y-50.7
X146.933Y-68.471
X147.093Y-59.313
X147.1Y-64.6
X147.675Y-67.728
X147.7Y-61.325
X148.2Y-63.549
X149.1Y-79.2
X149.2Y-63.549
X149.8Y-94.1
X150.0Y-65.3
X150.0Y-70.0
X150.0Y-103.0
X150.1Y-75.2
X150.1Y-101.5
X150.3Y-64.1
X150.5Y-54.8
X150.7Y-86.8
X150.8Y-88.0
X152.1Y-62.7
X154.002Y-75.2
X154.3Y-55.825
X155.475Y-73.57
X155.475Y-74.62
X155.5Y-72.0
X155.9Y-66.7
X156.0Y-58.4
X156.475Y-51.325
X156.7Y-77.5
X156.7Y-101.5
X156.718Y-76.373
X157.1Y-64.0
X157.725Y-58.338
X158.5Y-76.4
X158.775Y-58.338
X159.9Y-77.8
X160.2Y-55.0
X160.3Y-69.2
X160.375Y-50.824
X161.1Y-59.4
X161.175Y-60.7
X161.9Y-69.9
X161.9Y-71.0
X162.0Y-103.0
X162.2Y-75.5
X162.6Y-97.4
X162.7Y-73.6
X162.892Y-61.2
X163.1Y-67.2
X163.2Y-101.6
X163.8Y-87.6
X164.3Y-89.7
X165.2Y-86.8
X165.8Y-52.4
X165.8Y-65.5
X166.0Y-103.0
X167.1Y-63.2
X168.8Y-71.0
X169.3Y-87.7
X169.7Y-101.6
X170.0Y-103.0
X171.4Y-79.9
X171.4Y-88.7
X174.0Y-103.0
X176.2Y-62.1
X178.0Y-103.0
X178.1Y-64.7
X182.0Y-103.0
X182.4Y-88.2
X183.0Y-52.0
X186.0Y-103.0
X187.0Y-52.0
X187.5Y-70.3
X188.0Y-56.0
X188.0Y-60.0
X188.0Y-64.0
X189.0Y-68.0
X190.0Y-103.0
X193.4Y-81.8
X193.4Y-93.7
X194.0Y-103.0
X198.0Y-103.0
X199.0Y-76.0
X202.0Y-103.0
X203.0Y-79.9
X203.2Y-85.7
X204.0Y-87.0
X205.0Y-77.0
X206.0Y-103.0
X209.4Y-97.8
X210.0Y-103.0
X211.0Y-77.0
X213.0Y-80.5
X214.0Y-103.0
X214.5Y-80.5
X215.0Y-77.0
X218.0Y-83.0
X218.0Y-103.0
X222.0Y-83.0
X222.0Y-103.0
X224.0Y-85.0
X224.0Y-93.0
X224.0Y-97.0
X224.0Y-101.0
T2
X155.275Y-48.575
X155.275Y-49.925
X156.125Y-48.575
X156.125Y-49.925
X156.975Y-48.575
X156.975Y-49.925
X157.825Y-48.575
X157.825Y-49.925
X158.675Y-48.575
X158.675Y-49.925
X159.525Y-48.575
X159.525Y-49.925
X160.375Y-48.575
X160.375Y-49.925
X161.225Y-48.575
X161.225Y-49.925
T4
X217.046Y-88.479
X219.015Y-88.826
X220.985Y-89.174
X222.954Y-89.521
T5
X102.42Y-88.2
X104.96Y-88.2
X106.506Y-80.094
X107.5Y-88.2
X108.302Y-78.298
X110.04Y-88.2
X112.58Y-88.2
X128.1Y-64.7
X129.2Y-62.9
X130.1Y-64.7
X131.2Y-62.9
X181.1Y-54.1
X183.1Y-54.1
X185.1Y-54.1
X187.1Y-54.1
X203.12Y-101.2
X205.66Y-101.2
X208.2Y-101.2
X210.74Y-101.2
X213.28Y-101.2
T6
X167.1Y-50.8
X167.1Y-57.3
X171.6Y-50.8
X171.6Y-57.3
T7
X104.0Y-92.1
X215.7Y-92.2
T8
X158.1Y-93.3
T9
X139.4Y-52.4
T10
X208.2Y-93.2
T11
X140.2Y-99.3
X176.0Y-99.3
T3
X153.925Y-45.165G85X153.925Y-45.965
G05
X153.925Y-48.195G85X153.925Y-49.695
G05
X162.575Y-45.165G85X162.575Y-45.965
G05
X162.575Y-48.195G85X162.575Y-49.695
G05
T0
M30
