%TF.GenerationSoftware,KiCad,Pcbnew,7.0.5*%
%TF.CreationDate,2023-08-25T10:09:23-04:00*%
%TF.ProjectId,Pro-Controller-X,50726f2d-436f-46e7-9472-6f6c6c65722d,rev?*%
%TF.SameCoordinates,Original*%
%TF.FileFunction,Legend,Bot*%
%TF.FilePolarity,Positive*%
%FSLAX46Y46*%
G04 Gerber Fmt 4.6, Leading zero omitted, Abs format (unit mm)*
G04 Created by KiCad (PCBNEW 7.0.5) date 2023-08-25 10:09:23*
%MOMM*%
%LPD*%
G01*
G04 APERTURE LIST*
%ADD10C,0.150000*%
%ADD11C,0.120000*%
%ADD12C,0.200000*%
G04 APERTURE END LIST*
D10*
%TO.C,JP1*%
X150483333Y-73454819D02*
X150483333Y-74169104D01*
X150483333Y-74169104D02*
X150530952Y-74311961D01*
X150530952Y-74311961D02*
X150626190Y-74407200D01*
X150626190Y-74407200D02*
X150769047Y-74454819D01*
X150769047Y-74454819D02*
X150864285Y-74454819D01*
X150007142Y-74454819D02*
X150007142Y-73454819D01*
X150007142Y-73454819D02*
X149626190Y-73454819D01*
X149626190Y-73454819D02*
X149530952Y-73502438D01*
X149530952Y-73502438D02*
X149483333Y-73550057D01*
X149483333Y-73550057D02*
X149435714Y-73645295D01*
X149435714Y-73645295D02*
X149435714Y-73788152D01*
X149435714Y-73788152D02*
X149483333Y-73883390D01*
X149483333Y-73883390D02*
X149530952Y-73931009D01*
X149530952Y-73931009D02*
X149626190Y-73978628D01*
X149626190Y-73978628D02*
X150007142Y-73978628D01*
X148483333Y-74454819D02*
X149054761Y-74454819D01*
X148769047Y-74454819D02*
X148769047Y-73454819D01*
X148769047Y-73454819D02*
X148864285Y-73597676D01*
X148864285Y-73597676D02*
X148959523Y-73692914D01*
X148959523Y-73692914D02*
X149054761Y-73740533D01*
%TO.C,C6*%
X167266666Y-90839580D02*
X167314285Y-90887200D01*
X167314285Y-90887200D02*
X167457142Y-90934819D01*
X167457142Y-90934819D02*
X167552380Y-90934819D01*
X167552380Y-90934819D02*
X167695237Y-90887200D01*
X167695237Y-90887200D02*
X167790475Y-90791961D01*
X167790475Y-90791961D02*
X167838094Y-90696723D01*
X167838094Y-90696723D02*
X167885713Y-90506247D01*
X167885713Y-90506247D02*
X167885713Y-90363390D01*
X167885713Y-90363390D02*
X167838094Y-90172914D01*
X167838094Y-90172914D02*
X167790475Y-90077676D01*
X167790475Y-90077676D02*
X167695237Y-89982438D01*
X167695237Y-89982438D02*
X167552380Y-89934819D01*
X167552380Y-89934819D02*
X167457142Y-89934819D01*
X167457142Y-89934819D02*
X167314285Y-89982438D01*
X167314285Y-89982438D02*
X167266666Y-90030057D01*
X166409523Y-89934819D02*
X166599999Y-89934819D01*
X166599999Y-89934819D02*
X166695237Y-89982438D01*
X166695237Y-89982438D02*
X166742856Y-90030057D01*
X166742856Y-90030057D02*
X166838094Y-90172914D01*
X166838094Y-90172914D02*
X166885713Y-90363390D01*
X166885713Y-90363390D02*
X166885713Y-90744342D01*
X166885713Y-90744342D02*
X166838094Y-90839580D01*
X166838094Y-90839580D02*
X166790475Y-90887200D01*
X166790475Y-90887200D02*
X166695237Y-90934819D01*
X166695237Y-90934819D02*
X166504761Y-90934819D01*
X166504761Y-90934819D02*
X166409523Y-90887200D01*
X166409523Y-90887200D02*
X166361904Y-90839580D01*
X166361904Y-90839580D02*
X166314285Y-90744342D01*
X166314285Y-90744342D02*
X166314285Y-90506247D01*
X166314285Y-90506247D02*
X166361904Y-90411009D01*
X166361904Y-90411009D02*
X166409523Y-90363390D01*
X166409523Y-90363390D02*
X166504761Y-90315771D01*
X166504761Y-90315771D02*
X166695237Y-90315771D01*
X166695237Y-90315771D02*
X166790475Y-90363390D01*
X166790475Y-90363390D02*
X166838094Y-90411009D01*
X166838094Y-90411009D02*
X166885713Y-90506247D01*
%TO.C,C8*%
X157679580Y-83233333D02*
X157727200Y-83185714D01*
X157727200Y-83185714D02*
X157774819Y-83042857D01*
X157774819Y-83042857D02*
X157774819Y-82947619D01*
X157774819Y-82947619D02*
X157727200Y-82804762D01*
X157727200Y-82804762D02*
X157631961Y-82709524D01*
X157631961Y-82709524D02*
X157536723Y-82661905D01*
X157536723Y-82661905D02*
X157346247Y-82614286D01*
X157346247Y-82614286D02*
X157203390Y-82614286D01*
X157203390Y-82614286D02*
X157012914Y-82661905D01*
X157012914Y-82661905D02*
X156917676Y-82709524D01*
X156917676Y-82709524D02*
X156822438Y-82804762D01*
X156822438Y-82804762D02*
X156774819Y-82947619D01*
X156774819Y-82947619D02*
X156774819Y-83042857D01*
X156774819Y-83042857D02*
X156822438Y-83185714D01*
X156822438Y-83185714D02*
X156870057Y-83233333D01*
X157203390Y-83804762D02*
X157155771Y-83709524D01*
X157155771Y-83709524D02*
X157108152Y-83661905D01*
X157108152Y-83661905D02*
X157012914Y-83614286D01*
X157012914Y-83614286D02*
X156965295Y-83614286D01*
X156965295Y-83614286D02*
X156870057Y-83661905D01*
X156870057Y-83661905D02*
X156822438Y-83709524D01*
X156822438Y-83709524D02*
X156774819Y-83804762D01*
X156774819Y-83804762D02*
X156774819Y-83995238D01*
X156774819Y-83995238D02*
X156822438Y-84090476D01*
X156822438Y-84090476D02*
X156870057Y-84138095D01*
X156870057Y-84138095D02*
X156965295Y-84185714D01*
X156965295Y-84185714D02*
X157012914Y-84185714D01*
X157012914Y-84185714D02*
X157108152Y-84138095D01*
X157108152Y-84138095D02*
X157155771Y-84090476D01*
X157155771Y-84090476D02*
X157203390Y-83995238D01*
X157203390Y-83995238D02*
X157203390Y-83804762D01*
X157203390Y-83804762D02*
X157251009Y-83709524D01*
X157251009Y-83709524D02*
X157298628Y-83661905D01*
X157298628Y-83661905D02*
X157393866Y-83614286D01*
X157393866Y-83614286D02*
X157584342Y-83614286D01*
X157584342Y-83614286D02*
X157679580Y-83661905D01*
X157679580Y-83661905D02*
X157727200Y-83709524D01*
X157727200Y-83709524D02*
X157774819Y-83804762D01*
X157774819Y-83804762D02*
X157774819Y-83995238D01*
X157774819Y-83995238D02*
X157727200Y-84090476D01*
X157727200Y-84090476D02*
X157679580Y-84138095D01*
X157679580Y-84138095D02*
X157584342Y-84185714D01*
X157584342Y-84185714D02*
X157393866Y-84185714D01*
X157393866Y-84185714D02*
X157298628Y-84138095D01*
X157298628Y-84138095D02*
X157251009Y-84090476D01*
X157251009Y-84090476D02*
X157203390Y-83995238D01*
%TO.C,Q5*%
X161100057Y-68404761D02*
X161052438Y-68309523D01*
X161052438Y-68309523D02*
X160957200Y-68214285D01*
X160957200Y-68214285D02*
X160814342Y-68071428D01*
X160814342Y-68071428D02*
X160766723Y-67976190D01*
X160766723Y-67976190D02*
X160766723Y-67880952D01*
X161004819Y-67928571D02*
X160957200Y-67833333D01*
X160957200Y-67833333D02*
X160861961Y-67738095D01*
X160861961Y-67738095D02*
X160671485Y-67690476D01*
X160671485Y-67690476D02*
X160338152Y-67690476D01*
X160338152Y-67690476D02*
X160147676Y-67738095D01*
X160147676Y-67738095D02*
X160052438Y-67833333D01*
X160052438Y-67833333D02*
X160004819Y-67928571D01*
X160004819Y-67928571D02*
X160004819Y-68119047D01*
X160004819Y-68119047D02*
X160052438Y-68214285D01*
X160052438Y-68214285D02*
X160147676Y-68309523D01*
X160147676Y-68309523D02*
X160338152Y-68357142D01*
X160338152Y-68357142D02*
X160671485Y-68357142D01*
X160671485Y-68357142D02*
X160861961Y-68309523D01*
X160861961Y-68309523D02*
X160957200Y-68214285D01*
X160957200Y-68214285D02*
X161004819Y-68119047D01*
X161004819Y-68119047D02*
X161004819Y-67928571D01*
X160004819Y-69261904D02*
X160004819Y-68785714D01*
X160004819Y-68785714D02*
X160481009Y-68738095D01*
X160481009Y-68738095D02*
X160433390Y-68785714D01*
X160433390Y-68785714D02*
X160385771Y-68880952D01*
X160385771Y-68880952D02*
X160385771Y-69119047D01*
X160385771Y-69119047D02*
X160433390Y-69214285D01*
X160433390Y-69214285D02*
X160481009Y-69261904D01*
X160481009Y-69261904D02*
X160576247Y-69309523D01*
X160576247Y-69309523D02*
X160814342Y-69309523D01*
X160814342Y-69309523D02*
X160909580Y-69261904D01*
X160909580Y-69261904D02*
X160957200Y-69214285D01*
X160957200Y-69214285D02*
X161004819Y-69119047D01*
X161004819Y-69119047D02*
X161004819Y-68880952D01*
X161004819Y-68880952D02*
X160957200Y-68785714D01*
X160957200Y-68785714D02*
X160909580Y-68738095D01*
%TO.C,U6*%
X144860958Y-75290253D02*
X144288538Y-74717833D01*
X144288538Y-74717833D02*
X144254866Y-74616818D01*
X144254866Y-74616818D02*
X144254866Y-74549474D01*
X144254866Y-74549474D02*
X144288538Y-74448459D01*
X144288538Y-74448459D02*
X144423225Y-74313772D01*
X144423225Y-74313772D02*
X144524240Y-74280100D01*
X144524240Y-74280100D02*
X144591584Y-74280100D01*
X144591584Y-74280100D02*
X144692599Y-74313772D01*
X144692599Y-74313772D02*
X145265019Y-74886192D01*
X145904782Y-74246428D02*
X145770095Y-74381115D01*
X145770095Y-74381115D02*
X145669080Y-74414787D01*
X145669080Y-74414787D02*
X145601736Y-74414787D01*
X145601736Y-74414787D02*
X145433377Y-74381115D01*
X145433377Y-74381115D02*
X145265019Y-74280100D01*
X145265019Y-74280100D02*
X144995645Y-74010726D01*
X144995645Y-74010726D02*
X144961973Y-73909711D01*
X144961973Y-73909711D02*
X144961973Y-73842367D01*
X144961973Y-73842367D02*
X144995645Y-73741352D01*
X144995645Y-73741352D02*
X145130332Y-73606665D01*
X145130332Y-73606665D02*
X145231347Y-73572993D01*
X145231347Y-73572993D02*
X145298690Y-73572993D01*
X145298690Y-73572993D02*
X145399706Y-73606665D01*
X145399706Y-73606665D02*
X145568064Y-73775024D01*
X145568064Y-73775024D02*
X145601736Y-73876039D01*
X145601736Y-73876039D02*
X145601736Y-73943383D01*
X145601736Y-73943383D02*
X145568064Y-74044398D01*
X145568064Y-74044398D02*
X145433377Y-74179085D01*
X145433377Y-74179085D02*
X145332362Y-74212757D01*
X145332362Y-74212757D02*
X145265019Y-74212757D01*
X145265019Y-74212757D02*
X145164003Y-74179085D01*
%TO.C,D8*%
X160308094Y-52974819D02*
X160308094Y-51974819D01*
X160308094Y-51974819D02*
X160069999Y-51974819D01*
X160069999Y-51974819D02*
X159927142Y-52022438D01*
X159927142Y-52022438D02*
X159831904Y-52117676D01*
X159831904Y-52117676D02*
X159784285Y-52212914D01*
X159784285Y-52212914D02*
X159736666Y-52403390D01*
X159736666Y-52403390D02*
X159736666Y-52546247D01*
X159736666Y-52546247D02*
X159784285Y-52736723D01*
X159784285Y-52736723D02*
X159831904Y-52831961D01*
X159831904Y-52831961D02*
X159927142Y-52927200D01*
X159927142Y-52927200D02*
X160069999Y-52974819D01*
X160069999Y-52974819D02*
X160308094Y-52974819D01*
X159165237Y-52403390D02*
X159260475Y-52355771D01*
X159260475Y-52355771D02*
X159308094Y-52308152D01*
X159308094Y-52308152D02*
X159355713Y-52212914D01*
X159355713Y-52212914D02*
X159355713Y-52165295D01*
X159355713Y-52165295D02*
X159308094Y-52070057D01*
X159308094Y-52070057D02*
X159260475Y-52022438D01*
X159260475Y-52022438D02*
X159165237Y-51974819D01*
X159165237Y-51974819D02*
X158974761Y-51974819D01*
X158974761Y-51974819D02*
X158879523Y-52022438D01*
X158879523Y-52022438D02*
X158831904Y-52070057D01*
X158831904Y-52070057D02*
X158784285Y-52165295D01*
X158784285Y-52165295D02*
X158784285Y-52212914D01*
X158784285Y-52212914D02*
X158831904Y-52308152D01*
X158831904Y-52308152D02*
X158879523Y-52355771D01*
X158879523Y-52355771D02*
X158974761Y-52403390D01*
X158974761Y-52403390D02*
X159165237Y-52403390D01*
X159165237Y-52403390D02*
X159260475Y-52451009D01*
X159260475Y-52451009D02*
X159308094Y-52498628D01*
X159308094Y-52498628D02*
X159355713Y-52593866D01*
X159355713Y-52593866D02*
X159355713Y-52784342D01*
X159355713Y-52784342D02*
X159308094Y-52879580D01*
X159308094Y-52879580D02*
X159260475Y-52927200D01*
X159260475Y-52927200D02*
X159165237Y-52974819D01*
X159165237Y-52974819D02*
X158974761Y-52974819D01*
X158974761Y-52974819D02*
X158879523Y-52927200D01*
X158879523Y-52927200D02*
X158831904Y-52879580D01*
X158831904Y-52879580D02*
X158784285Y-52784342D01*
X158784285Y-52784342D02*
X158784285Y-52593866D01*
X158784285Y-52593866D02*
X158831904Y-52498628D01*
X158831904Y-52498628D02*
X158879523Y-52451009D01*
X158879523Y-52451009D02*
X158974761Y-52403390D01*
%TO.C,R21*%
X161542857Y-58854819D02*
X161876190Y-58378628D01*
X162114285Y-58854819D02*
X162114285Y-57854819D01*
X162114285Y-57854819D02*
X161733333Y-57854819D01*
X161733333Y-57854819D02*
X161638095Y-57902438D01*
X161638095Y-57902438D02*
X161590476Y-57950057D01*
X161590476Y-57950057D02*
X161542857Y-58045295D01*
X161542857Y-58045295D02*
X161542857Y-58188152D01*
X161542857Y-58188152D02*
X161590476Y-58283390D01*
X161590476Y-58283390D02*
X161638095Y-58331009D01*
X161638095Y-58331009D02*
X161733333Y-58378628D01*
X161733333Y-58378628D02*
X162114285Y-58378628D01*
X161161904Y-57950057D02*
X161114285Y-57902438D01*
X161114285Y-57902438D02*
X161019047Y-57854819D01*
X161019047Y-57854819D02*
X160780952Y-57854819D01*
X160780952Y-57854819D02*
X160685714Y-57902438D01*
X160685714Y-57902438D02*
X160638095Y-57950057D01*
X160638095Y-57950057D02*
X160590476Y-58045295D01*
X160590476Y-58045295D02*
X160590476Y-58140533D01*
X160590476Y-58140533D02*
X160638095Y-58283390D01*
X160638095Y-58283390D02*
X161209523Y-58854819D01*
X161209523Y-58854819D02*
X160590476Y-58854819D01*
X159638095Y-58854819D02*
X160209523Y-58854819D01*
X159923809Y-58854819D02*
X159923809Y-57854819D01*
X159923809Y-57854819D02*
X160019047Y-57997676D01*
X160019047Y-57997676D02*
X160114285Y-58092914D01*
X160114285Y-58092914D02*
X160209523Y-58140533D01*
%TO.C,C21*%
X209719580Y-96557142D02*
X209767200Y-96509523D01*
X209767200Y-96509523D02*
X209814819Y-96366666D01*
X209814819Y-96366666D02*
X209814819Y-96271428D01*
X209814819Y-96271428D02*
X209767200Y-96128571D01*
X209767200Y-96128571D02*
X209671961Y-96033333D01*
X209671961Y-96033333D02*
X209576723Y-95985714D01*
X209576723Y-95985714D02*
X209386247Y-95938095D01*
X209386247Y-95938095D02*
X209243390Y-95938095D01*
X209243390Y-95938095D02*
X209052914Y-95985714D01*
X209052914Y-95985714D02*
X208957676Y-96033333D01*
X208957676Y-96033333D02*
X208862438Y-96128571D01*
X208862438Y-96128571D02*
X208814819Y-96271428D01*
X208814819Y-96271428D02*
X208814819Y-96366666D01*
X208814819Y-96366666D02*
X208862438Y-96509523D01*
X208862438Y-96509523D02*
X208910057Y-96557142D01*
X208910057Y-96938095D02*
X208862438Y-96985714D01*
X208862438Y-96985714D02*
X208814819Y-97080952D01*
X208814819Y-97080952D02*
X208814819Y-97319047D01*
X208814819Y-97319047D02*
X208862438Y-97414285D01*
X208862438Y-97414285D02*
X208910057Y-97461904D01*
X208910057Y-97461904D02*
X209005295Y-97509523D01*
X209005295Y-97509523D02*
X209100533Y-97509523D01*
X209100533Y-97509523D02*
X209243390Y-97461904D01*
X209243390Y-97461904D02*
X209814819Y-96890476D01*
X209814819Y-96890476D02*
X209814819Y-97509523D01*
X209814819Y-98461904D02*
X209814819Y-97890476D01*
X209814819Y-98176190D02*
X208814819Y-98176190D01*
X208814819Y-98176190D02*
X208957676Y-98080952D01*
X208957676Y-98080952D02*
X209052914Y-97985714D01*
X209052914Y-97985714D02*
X209100533Y-97890476D01*
%TO.C,R15*%
X167085357Y-71684819D02*
X167418690Y-71208628D01*
X167656785Y-71684819D02*
X167656785Y-70684819D01*
X167656785Y-70684819D02*
X167275833Y-70684819D01*
X167275833Y-70684819D02*
X167180595Y-70732438D01*
X167180595Y-70732438D02*
X167132976Y-70780057D01*
X167132976Y-70780057D02*
X167085357Y-70875295D01*
X167085357Y-70875295D02*
X167085357Y-71018152D01*
X167085357Y-71018152D02*
X167132976Y-71113390D01*
X167132976Y-71113390D02*
X167180595Y-71161009D01*
X167180595Y-71161009D02*
X167275833Y-71208628D01*
X167275833Y-71208628D02*
X167656785Y-71208628D01*
X166132976Y-71684819D02*
X166704404Y-71684819D01*
X166418690Y-71684819D02*
X166418690Y-70684819D01*
X166418690Y-70684819D02*
X166513928Y-70827676D01*
X166513928Y-70827676D02*
X166609166Y-70922914D01*
X166609166Y-70922914D02*
X166704404Y-70970533D01*
X165228214Y-70684819D02*
X165704404Y-70684819D01*
X165704404Y-70684819D02*
X165752023Y-71161009D01*
X165752023Y-71161009D02*
X165704404Y-71113390D01*
X165704404Y-71113390D02*
X165609166Y-71065771D01*
X165609166Y-71065771D02*
X165371071Y-71065771D01*
X165371071Y-71065771D02*
X165275833Y-71113390D01*
X165275833Y-71113390D02*
X165228214Y-71161009D01*
X165228214Y-71161009D02*
X165180595Y-71256247D01*
X165180595Y-71256247D02*
X165180595Y-71494342D01*
X165180595Y-71494342D02*
X165228214Y-71589580D01*
X165228214Y-71589580D02*
X165275833Y-71637200D01*
X165275833Y-71637200D02*
X165371071Y-71684819D01*
X165371071Y-71684819D02*
X165609166Y-71684819D01*
X165609166Y-71684819D02*
X165704404Y-71637200D01*
X165704404Y-71637200D02*
X165752023Y-71589580D01*
%TO.C,R16*%
X165724819Y-78757142D02*
X165248628Y-78423809D01*
X165724819Y-78185714D02*
X164724819Y-78185714D01*
X164724819Y-78185714D02*
X164724819Y-78566666D01*
X164724819Y-78566666D02*
X164772438Y-78661904D01*
X164772438Y-78661904D02*
X164820057Y-78709523D01*
X164820057Y-78709523D02*
X164915295Y-78757142D01*
X164915295Y-78757142D02*
X165058152Y-78757142D01*
X165058152Y-78757142D02*
X165153390Y-78709523D01*
X165153390Y-78709523D02*
X165201009Y-78661904D01*
X165201009Y-78661904D02*
X165248628Y-78566666D01*
X165248628Y-78566666D02*
X165248628Y-78185714D01*
X165724819Y-79709523D02*
X165724819Y-79138095D01*
X165724819Y-79423809D02*
X164724819Y-79423809D01*
X164724819Y-79423809D02*
X164867676Y-79328571D01*
X164867676Y-79328571D02*
X164962914Y-79233333D01*
X164962914Y-79233333D02*
X165010533Y-79138095D01*
X164724819Y-80566666D02*
X164724819Y-80376190D01*
X164724819Y-80376190D02*
X164772438Y-80280952D01*
X164772438Y-80280952D02*
X164820057Y-80233333D01*
X164820057Y-80233333D02*
X164962914Y-80138095D01*
X164962914Y-80138095D02*
X165153390Y-80090476D01*
X165153390Y-80090476D02*
X165534342Y-80090476D01*
X165534342Y-80090476D02*
X165629580Y-80138095D01*
X165629580Y-80138095D02*
X165677200Y-80185714D01*
X165677200Y-80185714D02*
X165724819Y-80280952D01*
X165724819Y-80280952D02*
X165724819Y-80471428D01*
X165724819Y-80471428D02*
X165677200Y-80566666D01*
X165677200Y-80566666D02*
X165629580Y-80614285D01*
X165629580Y-80614285D02*
X165534342Y-80661904D01*
X165534342Y-80661904D02*
X165296247Y-80661904D01*
X165296247Y-80661904D02*
X165201009Y-80614285D01*
X165201009Y-80614285D02*
X165153390Y-80566666D01*
X165153390Y-80566666D02*
X165105771Y-80471428D01*
X165105771Y-80471428D02*
X165105771Y-80280952D01*
X165105771Y-80280952D02*
X165153390Y-80185714D01*
X165153390Y-80185714D02*
X165201009Y-80138095D01*
X165201009Y-80138095D02*
X165296247Y-80090476D01*
%TO.C,R8*%
X170656666Y-74982319D02*
X170989999Y-74506128D01*
X171228094Y-74982319D02*
X171228094Y-73982319D01*
X171228094Y-73982319D02*
X170847142Y-73982319D01*
X170847142Y-73982319D02*
X170751904Y-74029938D01*
X170751904Y-74029938D02*
X170704285Y-74077557D01*
X170704285Y-74077557D02*
X170656666Y-74172795D01*
X170656666Y-74172795D02*
X170656666Y-74315652D01*
X170656666Y-74315652D02*
X170704285Y-74410890D01*
X170704285Y-74410890D02*
X170751904Y-74458509D01*
X170751904Y-74458509D02*
X170847142Y-74506128D01*
X170847142Y-74506128D02*
X171228094Y-74506128D01*
X170085237Y-74410890D02*
X170180475Y-74363271D01*
X170180475Y-74363271D02*
X170228094Y-74315652D01*
X170228094Y-74315652D02*
X170275713Y-74220414D01*
X170275713Y-74220414D02*
X170275713Y-74172795D01*
X170275713Y-74172795D02*
X170228094Y-74077557D01*
X170228094Y-74077557D02*
X170180475Y-74029938D01*
X170180475Y-74029938D02*
X170085237Y-73982319D01*
X170085237Y-73982319D02*
X169894761Y-73982319D01*
X169894761Y-73982319D02*
X169799523Y-74029938D01*
X169799523Y-74029938D02*
X169751904Y-74077557D01*
X169751904Y-74077557D02*
X169704285Y-74172795D01*
X169704285Y-74172795D02*
X169704285Y-74220414D01*
X169704285Y-74220414D02*
X169751904Y-74315652D01*
X169751904Y-74315652D02*
X169799523Y-74363271D01*
X169799523Y-74363271D02*
X169894761Y-74410890D01*
X169894761Y-74410890D02*
X170085237Y-74410890D01*
X170085237Y-74410890D02*
X170180475Y-74458509D01*
X170180475Y-74458509D02*
X170228094Y-74506128D01*
X170228094Y-74506128D02*
X170275713Y-74601366D01*
X170275713Y-74601366D02*
X170275713Y-74791842D01*
X170275713Y-74791842D02*
X170228094Y-74887080D01*
X170228094Y-74887080D02*
X170180475Y-74934700D01*
X170180475Y-74934700D02*
X170085237Y-74982319D01*
X170085237Y-74982319D02*
X169894761Y-74982319D01*
X169894761Y-74982319D02*
X169799523Y-74934700D01*
X169799523Y-74934700D02*
X169751904Y-74887080D01*
X169751904Y-74887080D02*
X169704285Y-74791842D01*
X169704285Y-74791842D02*
X169704285Y-74601366D01*
X169704285Y-74601366D02*
X169751904Y-74506128D01*
X169751904Y-74506128D02*
X169799523Y-74458509D01*
X169799523Y-74458509D02*
X169894761Y-74410890D01*
%TO.C,R10*%
X160342857Y-90154819D02*
X160676190Y-89678628D01*
X160914285Y-90154819D02*
X160914285Y-89154819D01*
X160914285Y-89154819D02*
X160533333Y-89154819D01*
X160533333Y-89154819D02*
X160438095Y-89202438D01*
X160438095Y-89202438D02*
X160390476Y-89250057D01*
X160390476Y-89250057D02*
X160342857Y-89345295D01*
X160342857Y-89345295D02*
X160342857Y-89488152D01*
X160342857Y-89488152D02*
X160390476Y-89583390D01*
X160390476Y-89583390D02*
X160438095Y-89631009D01*
X160438095Y-89631009D02*
X160533333Y-89678628D01*
X160533333Y-89678628D02*
X160914285Y-89678628D01*
X159390476Y-90154819D02*
X159961904Y-90154819D01*
X159676190Y-90154819D02*
X159676190Y-89154819D01*
X159676190Y-89154819D02*
X159771428Y-89297676D01*
X159771428Y-89297676D02*
X159866666Y-89392914D01*
X159866666Y-89392914D02*
X159961904Y-89440533D01*
X158771428Y-89154819D02*
X158676190Y-89154819D01*
X158676190Y-89154819D02*
X158580952Y-89202438D01*
X158580952Y-89202438D02*
X158533333Y-89250057D01*
X158533333Y-89250057D02*
X158485714Y-89345295D01*
X158485714Y-89345295D02*
X158438095Y-89535771D01*
X158438095Y-89535771D02*
X158438095Y-89773866D01*
X158438095Y-89773866D02*
X158485714Y-89964342D01*
X158485714Y-89964342D02*
X158533333Y-90059580D01*
X158533333Y-90059580D02*
X158580952Y-90107200D01*
X158580952Y-90107200D02*
X158676190Y-90154819D01*
X158676190Y-90154819D02*
X158771428Y-90154819D01*
X158771428Y-90154819D02*
X158866666Y-90107200D01*
X158866666Y-90107200D02*
X158914285Y-90059580D01*
X158914285Y-90059580D02*
X158961904Y-89964342D01*
X158961904Y-89964342D02*
X159009523Y-89773866D01*
X159009523Y-89773866D02*
X159009523Y-89535771D01*
X159009523Y-89535771D02*
X158961904Y-89345295D01*
X158961904Y-89345295D02*
X158914285Y-89250057D01*
X158914285Y-89250057D02*
X158866666Y-89202438D01*
X158866666Y-89202438D02*
X158771428Y-89154819D01*
%TO.C,U3*%
X164594819Y-84658095D02*
X165404342Y-84658095D01*
X165404342Y-84658095D02*
X165499580Y-84705714D01*
X165499580Y-84705714D02*
X165547200Y-84753333D01*
X165547200Y-84753333D02*
X165594819Y-84848571D01*
X165594819Y-84848571D02*
X165594819Y-85039047D01*
X165594819Y-85039047D02*
X165547200Y-85134285D01*
X165547200Y-85134285D02*
X165499580Y-85181904D01*
X165499580Y-85181904D02*
X165404342Y-85229523D01*
X165404342Y-85229523D02*
X164594819Y-85229523D01*
X164594819Y-85610476D02*
X164594819Y-86229523D01*
X164594819Y-86229523D02*
X164975771Y-85896190D01*
X164975771Y-85896190D02*
X164975771Y-86039047D01*
X164975771Y-86039047D02*
X165023390Y-86134285D01*
X165023390Y-86134285D02*
X165071009Y-86181904D01*
X165071009Y-86181904D02*
X165166247Y-86229523D01*
X165166247Y-86229523D02*
X165404342Y-86229523D01*
X165404342Y-86229523D02*
X165499580Y-86181904D01*
X165499580Y-86181904D02*
X165547200Y-86134285D01*
X165547200Y-86134285D02*
X165594819Y-86039047D01*
X165594819Y-86039047D02*
X165594819Y-85753333D01*
X165594819Y-85753333D02*
X165547200Y-85658095D01*
X165547200Y-85658095D02*
X165499580Y-85610476D01*
%TO.C,Q1*%
X172595238Y-83750057D02*
X172690476Y-83702438D01*
X172690476Y-83702438D02*
X172785714Y-83607200D01*
X172785714Y-83607200D02*
X172928571Y-83464342D01*
X172928571Y-83464342D02*
X173023809Y-83416723D01*
X173023809Y-83416723D02*
X173119047Y-83416723D01*
X173071428Y-83654819D02*
X173166666Y-83607200D01*
X173166666Y-83607200D02*
X173261904Y-83511961D01*
X173261904Y-83511961D02*
X173309523Y-83321485D01*
X173309523Y-83321485D02*
X173309523Y-82988152D01*
X173309523Y-82988152D02*
X173261904Y-82797676D01*
X173261904Y-82797676D02*
X173166666Y-82702438D01*
X173166666Y-82702438D02*
X173071428Y-82654819D01*
X173071428Y-82654819D02*
X172880952Y-82654819D01*
X172880952Y-82654819D02*
X172785714Y-82702438D01*
X172785714Y-82702438D02*
X172690476Y-82797676D01*
X172690476Y-82797676D02*
X172642857Y-82988152D01*
X172642857Y-82988152D02*
X172642857Y-83321485D01*
X172642857Y-83321485D02*
X172690476Y-83511961D01*
X172690476Y-83511961D02*
X172785714Y-83607200D01*
X172785714Y-83607200D02*
X172880952Y-83654819D01*
X172880952Y-83654819D02*
X173071428Y-83654819D01*
X171690476Y-83654819D02*
X172261904Y-83654819D01*
X171976190Y-83654819D02*
X171976190Y-82654819D01*
X171976190Y-82654819D02*
X172071428Y-82797676D01*
X172071428Y-82797676D02*
X172166666Y-82892914D01*
X172166666Y-82892914D02*
X172261904Y-82940533D01*
%TO.C,R13*%
X169742857Y-66254819D02*
X170076190Y-65778628D01*
X170314285Y-66254819D02*
X170314285Y-65254819D01*
X170314285Y-65254819D02*
X169933333Y-65254819D01*
X169933333Y-65254819D02*
X169838095Y-65302438D01*
X169838095Y-65302438D02*
X169790476Y-65350057D01*
X169790476Y-65350057D02*
X169742857Y-65445295D01*
X169742857Y-65445295D02*
X169742857Y-65588152D01*
X169742857Y-65588152D02*
X169790476Y-65683390D01*
X169790476Y-65683390D02*
X169838095Y-65731009D01*
X169838095Y-65731009D02*
X169933333Y-65778628D01*
X169933333Y-65778628D02*
X170314285Y-65778628D01*
X168790476Y-66254819D02*
X169361904Y-66254819D01*
X169076190Y-66254819D02*
X169076190Y-65254819D01*
X169076190Y-65254819D02*
X169171428Y-65397676D01*
X169171428Y-65397676D02*
X169266666Y-65492914D01*
X169266666Y-65492914D02*
X169361904Y-65540533D01*
X168457142Y-65254819D02*
X167838095Y-65254819D01*
X167838095Y-65254819D02*
X168171428Y-65635771D01*
X168171428Y-65635771D02*
X168028571Y-65635771D01*
X168028571Y-65635771D02*
X167933333Y-65683390D01*
X167933333Y-65683390D02*
X167885714Y-65731009D01*
X167885714Y-65731009D02*
X167838095Y-65826247D01*
X167838095Y-65826247D02*
X167838095Y-66064342D01*
X167838095Y-66064342D02*
X167885714Y-66159580D01*
X167885714Y-66159580D02*
X167933333Y-66207200D01*
X167933333Y-66207200D02*
X168028571Y-66254819D01*
X168028571Y-66254819D02*
X168314285Y-66254819D01*
X168314285Y-66254819D02*
X168409523Y-66207200D01*
X168409523Y-66207200D02*
X168457142Y-66159580D01*
%TO.C,C2*%
X211966666Y-85659580D02*
X212014285Y-85707200D01*
X212014285Y-85707200D02*
X212157142Y-85754819D01*
X212157142Y-85754819D02*
X212252380Y-85754819D01*
X212252380Y-85754819D02*
X212395237Y-85707200D01*
X212395237Y-85707200D02*
X212490475Y-85611961D01*
X212490475Y-85611961D02*
X212538094Y-85516723D01*
X212538094Y-85516723D02*
X212585713Y-85326247D01*
X212585713Y-85326247D02*
X212585713Y-85183390D01*
X212585713Y-85183390D02*
X212538094Y-84992914D01*
X212538094Y-84992914D02*
X212490475Y-84897676D01*
X212490475Y-84897676D02*
X212395237Y-84802438D01*
X212395237Y-84802438D02*
X212252380Y-84754819D01*
X212252380Y-84754819D02*
X212157142Y-84754819D01*
X212157142Y-84754819D02*
X212014285Y-84802438D01*
X212014285Y-84802438D02*
X211966666Y-84850057D01*
X211585713Y-84850057D02*
X211538094Y-84802438D01*
X211538094Y-84802438D02*
X211442856Y-84754819D01*
X211442856Y-84754819D02*
X211204761Y-84754819D01*
X211204761Y-84754819D02*
X211109523Y-84802438D01*
X211109523Y-84802438D02*
X211061904Y-84850057D01*
X211061904Y-84850057D02*
X211014285Y-84945295D01*
X211014285Y-84945295D02*
X211014285Y-85040533D01*
X211014285Y-85040533D02*
X211061904Y-85183390D01*
X211061904Y-85183390D02*
X211633332Y-85754819D01*
X211633332Y-85754819D02*
X211014285Y-85754819D01*
%TO.C,R38*%
X114874819Y-83457142D02*
X114398628Y-83123809D01*
X114874819Y-82885714D02*
X113874819Y-82885714D01*
X113874819Y-82885714D02*
X113874819Y-83266666D01*
X113874819Y-83266666D02*
X113922438Y-83361904D01*
X113922438Y-83361904D02*
X113970057Y-83409523D01*
X113970057Y-83409523D02*
X114065295Y-83457142D01*
X114065295Y-83457142D02*
X114208152Y-83457142D01*
X114208152Y-83457142D02*
X114303390Y-83409523D01*
X114303390Y-83409523D02*
X114351009Y-83361904D01*
X114351009Y-83361904D02*
X114398628Y-83266666D01*
X114398628Y-83266666D02*
X114398628Y-82885714D01*
X113874819Y-83790476D02*
X113874819Y-84409523D01*
X113874819Y-84409523D02*
X114255771Y-84076190D01*
X114255771Y-84076190D02*
X114255771Y-84219047D01*
X114255771Y-84219047D02*
X114303390Y-84314285D01*
X114303390Y-84314285D02*
X114351009Y-84361904D01*
X114351009Y-84361904D02*
X114446247Y-84409523D01*
X114446247Y-84409523D02*
X114684342Y-84409523D01*
X114684342Y-84409523D02*
X114779580Y-84361904D01*
X114779580Y-84361904D02*
X114827200Y-84314285D01*
X114827200Y-84314285D02*
X114874819Y-84219047D01*
X114874819Y-84219047D02*
X114874819Y-83933333D01*
X114874819Y-83933333D02*
X114827200Y-83838095D01*
X114827200Y-83838095D02*
X114779580Y-83790476D01*
X114303390Y-84980952D02*
X114255771Y-84885714D01*
X114255771Y-84885714D02*
X114208152Y-84838095D01*
X114208152Y-84838095D02*
X114112914Y-84790476D01*
X114112914Y-84790476D02*
X114065295Y-84790476D01*
X114065295Y-84790476D02*
X113970057Y-84838095D01*
X113970057Y-84838095D02*
X113922438Y-84885714D01*
X113922438Y-84885714D02*
X113874819Y-84980952D01*
X113874819Y-84980952D02*
X113874819Y-85171428D01*
X113874819Y-85171428D02*
X113922438Y-85266666D01*
X113922438Y-85266666D02*
X113970057Y-85314285D01*
X113970057Y-85314285D02*
X114065295Y-85361904D01*
X114065295Y-85361904D02*
X114112914Y-85361904D01*
X114112914Y-85361904D02*
X114208152Y-85314285D01*
X114208152Y-85314285D02*
X114255771Y-85266666D01*
X114255771Y-85266666D02*
X114303390Y-85171428D01*
X114303390Y-85171428D02*
X114303390Y-84980952D01*
X114303390Y-84980952D02*
X114351009Y-84885714D01*
X114351009Y-84885714D02*
X114398628Y-84838095D01*
X114398628Y-84838095D02*
X114493866Y-84790476D01*
X114493866Y-84790476D02*
X114684342Y-84790476D01*
X114684342Y-84790476D02*
X114779580Y-84838095D01*
X114779580Y-84838095D02*
X114827200Y-84885714D01*
X114827200Y-84885714D02*
X114874819Y-84980952D01*
X114874819Y-84980952D02*
X114874819Y-85171428D01*
X114874819Y-85171428D02*
X114827200Y-85266666D01*
X114827200Y-85266666D02*
X114779580Y-85314285D01*
X114779580Y-85314285D02*
X114684342Y-85361904D01*
X114684342Y-85361904D02*
X114493866Y-85361904D01*
X114493866Y-85361904D02*
X114398628Y-85314285D01*
X114398628Y-85314285D02*
X114351009Y-85266666D01*
X114351009Y-85266666D02*
X114303390Y-85171428D01*
%TO.C,R34*%
X185530357Y-69564819D02*
X185863690Y-69088628D01*
X186101785Y-69564819D02*
X186101785Y-68564819D01*
X186101785Y-68564819D02*
X185720833Y-68564819D01*
X185720833Y-68564819D02*
X185625595Y-68612438D01*
X185625595Y-68612438D02*
X185577976Y-68660057D01*
X185577976Y-68660057D02*
X185530357Y-68755295D01*
X185530357Y-68755295D02*
X185530357Y-68898152D01*
X185530357Y-68898152D02*
X185577976Y-68993390D01*
X185577976Y-68993390D02*
X185625595Y-69041009D01*
X185625595Y-69041009D02*
X185720833Y-69088628D01*
X185720833Y-69088628D02*
X186101785Y-69088628D01*
X185197023Y-68564819D02*
X184577976Y-68564819D01*
X184577976Y-68564819D02*
X184911309Y-68945771D01*
X184911309Y-68945771D02*
X184768452Y-68945771D01*
X184768452Y-68945771D02*
X184673214Y-68993390D01*
X184673214Y-68993390D02*
X184625595Y-69041009D01*
X184625595Y-69041009D02*
X184577976Y-69136247D01*
X184577976Y-69136247D02*
X184577976Y-69374342D01*
X184577976Y-69374342D02*
X184625595Y-69469580D01*
X184625595Y-69469580D02*
X184673214Y-69517200D01*
X184673214Y-69517200D02*
X184768452Y-69564819D01*
X184768452Y-69564819D02*
X185054166Y-69564819D01*
X185054166Y-69564819D02*
X185149404Y-69517200D01*
X185149404Y-69517200D02*
X185197023Y-69469580D01*
X183720833Y-68898152D02*
X183720833Y-69564819D01*
X183958928Y-68517200D02*
X184197023Y-69231485D01*
X184197023Y-69231485D02*
X183577976Y-69231485D01*
%TO.C,R35*%
X200742857Y-79184819D02*
X201076190Y-78708628D01*
X201314285Y-79184819D02*
X201314285Y-78184819D01*
X201314285Y-78184819D02*
X200933333Y-78184819D01*
X200933333Y-78184819D02*
X200838095Y-78232438D01*
X200838095Y-78232438D02*
X200790476Y-78280057D01*
X200790476Y-78280057D02*
X200742857Y-78375295D01*
X200742857Y-78375295D02*
X200742857Y-78518152D01*
X200742857Y-78518152D02*
X200790476Y-78613390D01*
X200790476Y-78613390D02*
X200838095Y-78661009D01*
X200838095Y-78661009D02*
X200933333Y-78708628D01*
X200933333Y-78708628D02*
X201314285Y-78708628D01*
X200409523Y-78184819D02*
X199790476Y-78184819D01*
X199790476Y-78184819D02*
X200123809Y-78565771D01*
X200123809Y-78565771D02*
X199980952Y-78565771D01*
X199980952Y-78565771D02*
X199885714Y-78613390D01*
X199885714Y-78613390D02*
X199838095Y-78661009D01*
X199838095Y-78661009D02*
X199790476Y-78756247D01*
X199790476Y-78756247D02*
X199790476Y-78994342D01*
X199790476Y-78994342D02*
X199838095Y-79089580D01*
X199838095Y-79089580D02*
X199885714Y-79137200D01*
X199885714Y-79137200D02*
X199980952Y-79184819D01*
X199980952Y-79184819D02*
X200266666Y-79184819D01*
X200266666Y-79184819D02*
X200361904Y-79137200D01*
X200361904Y-79137200D02*
X200409523Y-79089580D01*
X198885714Y-78184819D02*
X199361904Y-78184819D01*
X199361904Y-78184819D02*
X199409523Y-78661009D01*
X199409523Y-78661009D02*
X199361904Y-78613390D01*
X199361904Y-78613390D02*
X199266666Y-78565771D01*
X199266666Y-78565771D02*
X199028571Y-78565771D01*
X199028571Y-78565771D02*
X198933333Y-78613390D01*
X198933333Y-78613390D02*
X198885714Y-78661009D01*
X198885714Y-78661009D02*
X198838095Y-78756247D01*
X198838095Y-78756247D02*
X198838095Y-78994342D01*
X198838095Y-78994342D02*
X198885714Y-79089580D01*
X198885714Y-79089580D02*
X198933333Y-79137200D01*
X198933333Y-79137200D02*
X199028571Y-79184819D01*
X199028571Y-79184819D02*
X199266666Y-79184819D01*
X199266666Y-79184819D02*
X199361904Y-79137200D01*
X199361904Y-79137200D02*
X199409523Y-79089580D01*
%TO.C,R5*%
X209781666Y-77939819D02*
X210114999Y-77463628D01*
X210353094Y-77939819D02*
X210353094Y-76939819D01*
X210353094Y-76939819D02*
X209972142Y-76939819D01*
X209972142Y-76939819D02*
X209876904Y-76987438D01*
X209876904Y-76987438D02*
X209829285Y-77035057D01*
X209829285Y-77035057D02*
X209781666Y-77130295D01*
X209781666Y-77130295D02*
X209781666Y-77273152D01*
X209781666Y-77273152D02*
X209829285Y-77368390D01*
X209829285Y-77368390D02*
X209876904Y-77416009D01*
X209876904Y-77416009D02*
X209972142Y-77463628D01*
X209972142Y-77463628D02*
X210353094Y-77463628D01*
X208876904Y-76939819D02*
X209353094Y-76939819D01*
X209353094Y-76939819D02*
X209400713Y-77416009D01*
X209400713Y-77416009D02*
X209353094Y-77368390D01*
X209353094Y-77368390D02*
X209257856Y-77320771D01*
X209257856Y-77320771D02*
X209019761Y-77320771D01*
X209019761Y-77320771D02*
X208924523Y-77368390D01*
X208924523Y-77368390D02*
X208876904Y-77416009D01*
X208876904Y-77416009D02*
X208829285Y-77511247D01*
X208829285Y-77511247D02*
X208829285Y-77749342D01*
X208829285Y-77749342D02*
X208876904Y-77844580D01*
X208876904Y-77844580D02*
X208924523Y-77892200D01*
X208924523Y-77892200D02*
X209019761Y-77939819D01*
X209019761Y-77939819D02*
X209257856Y-77939819D01*
X209257856Y-77939819D02*
X209353094Y-77892200D01*
X209353094Y-77892200D02*
X209400713Y-77844580D01*
%TO.C,R36*%
X204942857Y-76754819D02*
X205276190Y-76278628D01*
X205514285Y-76754819D02*
X205514285Y-75754819D01*
X205514285Y-75754819D02*
X205133333Y-75754819D01*
X205133333Y-75754819D02*
X205038095Y-75802438D01*
X205038095Y-75802438D02*
X204990476Y-75850057D01*
X204990476Y-75850057D02*
X204942857Y-75945295D01*
X204942857Y-75945295D02*
X204942857Y-76088152D01*
X204942857Y-76088152D02*
X204990476Y-76183390D01*
X204990476Y-76183390D02*
X205038095Y-76231009D01*
X205038095Y-76231009D02*
X205133333Y-76278628D01*
X205133333Y-76278628D02*
X205514285Y-76278628D01*
X204609523Y-75754819D02*
X203990476Y-75754819D01*
X203990476Y-75754819D02*
X204323809Y-76135771D01*
X204323809Y-76135771D02*
X204180952Y-76135771D01*
X204180952Y-76135771D02*
X204085714Y-76183390D01*
X204085714Y-76183390D02*
X204038095Y-76231009D01*
X204038095Y-76231009D02*
X203990476Y-76326247D01*
X203990476Y-76326247D02*
X203990476Y-76564342D01*
X203990476Y-76564342D02*
X204038095Y-76659580D01*
X204038095Y-76659580D02*
X204085714Y-76707200D01*
X204085714Y-76707200D02*
X204180952Y-76754819D01*
X204180952Y-76754819D02*
X204466666Y-76754819D01*
X204466666Y-76754819D02*
X204561904Y-76707200D01*
X204561904Y-76707200D02*
X204609523Y-76659580D01*
X203133333Y-75754819D02*
X203323809Y-75754819D01*
X203323809Y-75754819D02*
X203419047Y-75802438D01*
X203419047Y-75802438D02*
X203466666Y-75850057D01*
X203466666Y-75850057D02*
X203561904Y-75992914D01*
X203561904Y-75992914D02*
X203609523Y-76183390D01*
X203609523Y-76183390D02*
X203609523Y-76564342D01*
X203609523Y-76564342D02*
X203561904Y-76659580D01*
X203561904Y-76659580D02*
X203514285Y-76707200D01*
X203514285Y-76707200D02*
X203419047Y-76754819D01*
X203419047Y-76754819D02*
X203228571Y-76754819D01*
X203228571Y-76754819D02*
X203133333Y-76707200D01*
X203133333Y-76707200D02*
X203085714Y-76659580D01*
X203085714Y-76659580D02*
X203038095Y-76564342D01*
X203038095Y-76564342D02*
X203038095Y-76326247D01*
X203038095Y-76326247D02*
X203085714Y-76231009D01*
X203085714Y-76231009D02*
X203133333Y-76183390D01*
X203133333Y-76183390D02*
X203228571Y-76135771D01*
X203228571Y-76135771D02*
X203419047Y-76135771D01*
X203419047Y-76135771D02*
X203514285Y-76183390D01*
X203514285Y-76183390D02*
X203561904Y-76231009D01*
X203561904Y-76231009D02*
X203609523Y-76326247D01*
%TO.C,R30*%
X125545357Y-86164819D02*
X125878690Y-85688628D01*
X126116785Y-86164819D02*
X126116785Y-85164819D01*
X126116785Y-85164819D02*
X125735833Y-85164819D01*
X125735833Y-85164819D02*
X125640595Y-85212438D01*
X125640595Y-85212438D02*
X125592976Y-85260057D01*
X125592976Y-85260057D02*
X125545357Y-85355295D01*
X125545357Y-85355295D02*
X125545357Y-85498152D01*
X125545357Y-85498152D02*
X125592976Y-85593390D01*
X125592976Y-85593390D02*
X125640595Y-85641009D01*
X125640595Y-85641009D02*
X125735833Y-85688628D01*
X125735833Y-85688628D02*
X126116785Y-85688628D01*
X125212023Y-85164819D02*
X124592976Y-85164819D01*
X124592976Y-85164819D02*
X124926309Y-85545771D01*
X124926309Y-85545771D02*
X124783452Y-85545771D01*
X124783452Y-85545771D02*
X124688214Y-85593390D01*
X124688214Y-85593390D02*
X124640595Y-85641009D01*
X124640595Y-85641009D02*
X124592976Y-85736247D01*
X124592976Y-85736247D02*
X124592976Y-85974342D01*
X124592976Y-85974342D02*
X124640595Y-86069580D01*
X124640595Y-86069580D02*
X124688214Y-86117200D01*
X124688214Y-86117200D02*
X124783452Y-86164819D01*
X124783452Y-86164819D02*
X125069166Y-86164819D01*
X125069166Y-86164819D02*
X125164404Y-86117200D01*
X125164404Y-86117200D02*
X125212023Y-86069580D01*
X123973928Y-85164819D02*
X123878690Y-85164819D01*
X123878690Y-85164819D02*
X123783452Y-85212438D01*
X123783452Y-85212438D02*
X123735833Y-85260057D01*
X123735833Y-85260057D02*
X123688214Y-85355295D01*
X123688214Y-85355295D02*
X123640595Y-85545771D01*
X123640595Y-85545771D02*
X123640595Y-85783866D01*
X123640595Y-85783866D02*
X123688214Y-85974342D01*
X123688214Y-85974342D02*
X123735833Y-86069580D01*
X123735833Y-86069580D02*
X123783452Y-86117200D01*
X123783452Y-86117200D02*
X123878690Y-86164819D01*
X123878690Y-86164819D02*
X123973928Y-86164819D01*
X123973928Y-86164819D02*
X124069166Y-86117200D01*
X124069166Y-86117200D02*
X124116785Y-86069580D01*
X124116785Y-86069580D02*
X124164404Y-85974342D01*
X124164404Y-85974342D02*
X124212023Y-85783866D01*
X124212023Y-85783866D02*
X124212023Y-85545771D01*
X124212023Y-85545771D02*
X124164404Y-85355295D01*
X124164404Y-85355295D02*
X124116785Y-85260057D01*
X124116785Y-85260057D02*
X124069166Y-85212438D01*
X124069166Y-85212438D02*
X123973928Y-85164819D01*
%TO.C,C7*%
X162766666Y-80659580D02*
X162814285Y-80707200D01*
X162814285Y-80707200D02*
X162957142Y-80754819D01*
X162957142Y-80754819D02*
X163052380Y-80754819D01*
X163052380Y-80754819D02*
X163195237Y-80707200D01*
X163195237Y-80707200D02*
X163290475Y-80611961D01*
X163290475Y-80611961D02*
X163338094Y-80516723D01*
X163338094Y-80516723D02*
X163385713Y-80326247D01*
X163385713Y-80326247D02*
X163385713Y-80183390D01*
X163385713Y-80183390D02*
X163338094Y-79992914D01*
X163338094Y-79992914D02*
X163290475Y-79897676D01*
X163290475Y-79897676D02*
X163195237Y-79802438D01*
X163195237Y-79802438D02*
X163052380Y-79754819D01*
X163052380Y-79754819D02*
X162957142Y-79754819D01*
X162957142Y-79754819D02*
X162814285Y-79802438D01*
X162814285Y-79802438D02*
X162766666Y-79850057D01*
X162433332Y-79754819D02*
X161766666Y-79754819D01*
X161766666Y-79754819D02*
X162195237Y-80754819D01*
%TO.C,R29*%
X124942857Y-88854819D02*
X125276190Y-88378628D01*
X125514285Y-88854819D02*
X125514285Y-87854819D01*
X125514285Y-87854819D02*
X125133333Y-87854819D01*
X125133333Y-87854819D02*
X125038095Y-87902438D01*
X125038095Y-87902438D02*
X124990476Y-87950057D01*
X124990476Y-87950057D02*
X124942857Y-88045295D01*
X124942857Y-88045295D02*
X124942857Y-88188152D01*
X124942857Y-88188152D02*
X124990476Y-88283390D01*
X124990476Y-88283390D02*
X125038095Y-88331009D01*
X125038095Y-88331009D02*
X125133333Y-88378628D01*
X125133333Y-88378628D02*
X125514285Y-88378628D01*
X124561904Y-87950057D02*
X124514285Y-87902438D01*
X124514285Y-87902438D02*
X124419047Y-87854819D01*
X124419047Y-87854819D02*
X124180952Y-87854819D01*
X124180952Y-87854819D02*
X124085714Y-87902438D01*
X124085714Y-87902438D02*
X124038095Y-87950057D01*
X124038095Y-87950057D02*
X123990476Y-88045295D01*
X123990476Y-88045295D02*
X123990476Y-88140533D01*
X123990476Y-88140533D02*
X124038095Y-88283390D01*
X124038095Y-88283390D02*
X124609523Y-88854819D01*
X124609523Y-88854819D02*
X123990476Y-88854819D01*
X123514285Y-88854819D02*
X123323809Y-88854819D01*
X123323809Y-88854819D02*
X123228571Y-88807200D01*
X123228571Y-88807200D02*
X123180952Y-88759580D01*
X123180952Y-88759580D02*
X123085714Y-88616723D01*
X123085714Y-88616723D02*
X123038095Y-88426247D01*
X123038095Y-88426247D02*
X123038095Y-88045295D01*
X123038095Y-88045295D02*
X123085714Y-87950057D01*
X123085714Y-87950057D02*
X123133333Y-87902438D01*
X123133333Y-87902438D02*
X123228571Y-87854819D01*
X123228571Y-87854819D02*
X123419047Y-87854819D01*
X123419047Y-87854819D02*
X123514285Y-87902438D01*
X123514285Y-87902438D02*
X123561904Y-87950057D01*
X123561904Y-87950057D02*
X123609523Y-88045295D01*
X123609523Y-88045295D02*
X123609523Y-88283390D01*
X123609523Y-88283390D02*
X123561904Y-88378628D01*
X123561904Y-88378628D02*
X123514285Y-88426247D01*
X123514285Y-88426247D02*
X123419047Y-88473866D01*
X123419047Y-88473866D02*
X123228571Y-88473866D01*
X123228571Y-88473866D02*
X123133333Y-88426247D01*
X123133333Y-88426247D02*
X123085714Y-88378628D01*
X123085714Y-88378628D02*
X123038095Y-88283390D01*
%TO.C,R41*%
X203554819Y-96957142D02*
X203078628Y-96623809D01*
X203554819Y-96385714D02*
X202554819Y-96385714D01*
X202554819Y-96385714D02*
X202554819Y-96766666D01*
X202554819Y-96766666D02*
X202602438Y-96861904D01*
X202602438Y-96861904D02*
X202650057Y-96909523D01*
X202650057Y-96909523D02*
X202745295Y-96957142D01*
X202745295Y-96957142D02*
X202888152Y-96957142D01*
X202888152Y-96957142D02*
X202983390Y-96909523D01*
X202983390Y-96909523D02*
X203031009Y-96861904D01*
X203031009Y-96861904D02*
X203078628Y-96766666D01*
X203078628Y-96766666D02*
X203078628Y-96385714D01*
X202888152Y-97814285D02*
X203554819Y-97814285D01*
X202507200Y-97576190D02*
X203221485Y-97338095D01*
X203221485Y-97338095D02*
X203221485Y-97957142D01*
X203554819Y-98861904D02*
X203554819Y-98290476D01*
X203554819Y-98576190D02*
X202554819Y-98576190D01*
X202554819Y-98576190D02*
X202697676Y-98480952D01*
X202697676Y-98480952D02*
X202792914Y-98385714D01*
X202792914Y-98385714D02*
X202840533Y-98290476D01*
%TO.C,R24*%
X159254819Y-58157142D02*
X158778628Y-57823809D01*
X159254819Y-57585714D02*
X158254819Y-57585714D01*
X158254819Y-57585714D02*
X158254819Y-57966666D01*
X158254819Y-57966666D02*
X158302438Y-58061904D01*
X158302438Y-58061904D02*
X158350057Y-58109523D01*
X158350057Y-58109523D02*
X158445295Y-58157142D01*
X158445295Y-58157142D02*
X158588152Y-58157142D01*
X158588152Y-58157142D02*
X158683390Y-58109523D01*
X158683390Y-58109523D02*
X158731009Y-58061904D01*
X158731009Y-58061904D02*
X158778628Y-57966666D01*
X158778628Y-57966666D02*
X158778628Y-57585714D01*
X158350057Y-58538095D02*
X158302438Y-58585714D01*
X158302438Y-58585714D02*
X158254819Y-58680952D01*
X158254819Y-58680952D02*
X158254819Y-58919047D01*
X158254819Y-58919047D02*
X158302438Y-59014285D01*
X158302438Y-59014285D02*
X158350057Y-59061904D01*
X158350057Y-59061904D02*
X158445295Y-59109523D01*
X158445295Y-59109523D02*
X158540533Y-59109523D01*
X158540533Y-59109523D02*
X158683390Y-59061904D01*
X158683390Y-59061904D02*
X159254819Y-58490476D01*
X159254819Y-58490476D02*
X159254819Y-59109523D01*
X158588152Y-59966666D02*
X159254819Y-59966666D01*
X158207200Y-59728571D02*
X158921485Y-59490476D01*
X158921485Y-59490476D02*
X158921485Y-60109523D01*
%TO.C,C12*%
X165772857Y-75619580D02*
X165820476Y-75667200D01*
X165820476Y-75667200D02*
X165963333Y-75714819D01*
X165963333Y-75714819D02*
X166058571Y-75714819D01*
X166058571Y-75714819D02*
X166201428Y-75667200D01*
X166201428Y-75667200D02*
X166296666Y-75571961D01*
X166296666Y-75571961D02*
X166344285Y-75476723D01*
X166344285Y-75476723D02*
X166391904Y-75286247D01*
X166391904Y-75286247D02*
X166391904Y-75143390D01*
X166391904Y-75143390D02*
X166344285Y-74952914D01*
X166344285Y-74952914D02*
X166296666Y-74857676D01*
X166296666Y-74857676D02*
X166201428Y-74762438D01*
X166201428Y-74762438D02*
X166058571Y-74714819D01*
X166058571Y-74714819D02*
X165963333Y-74714819D01*
X165963333Y-74714819D02*
X165820476Y-74762438D01*
X165820476Y-74762438D02*
X165772857Y-74810057D01*
X164820476Y-75714819D02*
X165391904Y-75714819D01*
X165106190Y-75714819D02*
X165106190Y-74714819D01*
X165106190Y-74714819D02*
X165201428Y-74857676D01*
X165201428Y-74857676D02*
X165296666Y-74952914D01*
X165296666Y-74952914D02*
X165391904Y-75000533D01*
X164439523Y-74810057D02*
X164391904Y-74762438D01*
X164391904Y-74762438D02*
X164296666Y-74714819D01*
X164296666Y-74714819D02*
X164058571Y-74714819D01*
X164058571Y-74714819D02*
X163963333Y-74762438D01*
X163963333Y-74762438D02*
X163915714Y-74810057D01*
X163915714Y-74810057D02*
X163868095Y-74905295D01*
X163868095Y-74905295D02*
X163868095Y-75000533D01*
X163868095Y-75000533D02*
X163915714Y-75143390D01*
X163915714Y-75143390D02*
X164487142Y-75714819D01*
X164487142Y-75714819D02*
X163868095Y-75714819D01*
%TO.C,C11*%
X156899580Y-77157142D02*
X156947200Y-77109523D01*
X156947200Y-77109523D02*
X156994819Y-76966666D01*
X156994819Y-76966666D02*
X156994819Y-76871428D01*
X156994819Y-76871428D02*
X156947200Y-76728571D01*
X156947200Y-76728571D02*
X156851961Y-76633333D01*
X156851961Y-76633333D02*
X156756723Y-76585714D01*
X156756723Y-76585714D02*
X156566247Y-76538095D01*
X156566247Y-76538095D02*
X156423390Y-76538095D01*
X156423390Y-76538095D02*
X156232914Y-76585714D01*
X156232914Y-76585714D02*
X156137676Y-76633333D01*
X156137676Y-76633333D02*
X156042438Y-76728571D01*
X156042438Y-76728571D02*
X155994819Y-76871428D01*
X155994819Y-76871428D02*
X155994819Y-76966666D01*
X155994819Y-76966666D02*
X156042438Y-77109523D01*
X156042438Y-77109523D02*
X156090057Y-77157142D01*
X156994819Y-78109523D02*
X156994819Y-77538095D01*
X156994819Y-77823809D02*
X155994819Y-77823809D01*
X155994819Y-77823809D02*
X156137676Y-77728571D01*
X156137676Y-77728571D02*
X156232914Y-77633333D01*
X156232914Y-77633333D02*
X156280533Y-77538095D01*
X156994819Y-79061904D02*
X156994819Y-78490476D01*
X156994819Y-78776190D02*
X155994819Y-78776190D01*
X155994819Y-78776190D02*
X156137676Y-78680952D01*
X156137676Y-78680952D02*
X156232914Y-78585714D01*
X156232914Y-78585714D02*
X156280533Y-78490476D01*
%TO.C,Q2*%
X168295238Y-78300057D02*
X168390476Y-78252438D01*
X168390476Y-78252438D02*
X168485714Y-78157200D01*
X168485714Y-78157200D02*
X168628571Y-78014342D01*
X168628571Y-78014342D02*
X168723809Y-77966723D01*
X168723809Y-77966723D02*
X168819047Y-77966723D01*
X168771428Y-78204819D02*
X168866666Y-78157200D01*
X168866666Y-78157200D02*
X168961904Y-78061961D01*
X168961904Y-78061961D02*
X169009523Y-77871485D01*
X169009523Y-77871485D02*
X169009523Y-77538152D01*
X169009523Y-77538152D02*
X168961904Y-77347676D01*
X168961904Y-77347676D02*
X168866666Y-77252438D01*
X168866666Y-77252438D02*
X168771428Y-77204819D01*
X168771428Y-77204819D02*
X168580952Y-77204819D01*
X168580952Y-77204819D02*
X168485714Y-77252438D01*
X168485714Y-77252438D02*
X168390476Y-77347676D01*
X168390476Y-77347676D02*
X168342857Y-77538152D01*
X168342857Y-77538152D02*
X168342857Y-77871485D01*
X168342857Y-77871485D02*
X168390476Y-78061961D01*
X168390476Y-78061961D02*
X168485714Y-78157200D01*
X168485714Y-78157200D02*
X168580952Y-78204819D01*
X168580952Y-78204819D02*
X168771428Y-78204819D01*
X167961904Y-77300057D02*
X167914285Y-77252438D01*
X167914285Y-77252438D02*
X167819047Y-77204819D01*
X167819047Y-77204819D02*
X167580952Y-77204819D01*
X167580952Y-77204819D02*
X167485714Y-77252438D01*
X167485714Y-77252438D02*
X167438095Y-77300057D01*
X167438095Y-77300057D02*
X167390476Y-77395295D01*
X167390476Y-77395295D02*
X167390476Y-77490533D01*
X167390476Y-77490533D02*
X167438095Y-77633390D01*
X167438095Y-77633390D02*
X168009523Y-78204819D01*
X168009523Y-78204819D02*
X167390476Y-78204819D01*
%TO.C,C9*%
X162466666Y-91759580D02*
X162514285Y-91807200D01*
X162514285Y-91807200D02*
X162657142Y-91854819D01*
X162657142Y-91854819D02*
X162752380Y-91854819D01*
X162752380Y-91854819D02*
X162895237Y-91807200D01*
X162895237Y-91807200D02*
X162990475Y-91711961D01*
X162990475Y-91711961D02*
X163038094Y-91616723D01*
X163038094Y-91616723D02*
X163085713Y-91426247D01*
X163085713Y-91426247D02*
X163085713Y-91283390D01*
X163085713Y-91283390D02*
X163038094Y-91092914D01*
X163038094Y-91092914D02*
X162990475Y-90997676D01*
X162990475Y-90997676D02*
X162895237Y-90902438D01*
X162895237Y-90902438D02*
X162752380Y-90854819D01*
X162752380Y-90854819D02*
X162657142Y-90854819D01*
X162657142Y-90854819D02*
X162514285Y-90902438D01*
X162514285Y-90902438D02*
X162466666Y-90950057D01*
X161990475Y-91854819D02*
X161799999Y-91854819D01*
X161799999Y-91854819D02*
X161704761Y-91807200D01*
X161704761Y-91807200D02*
X161657142Y-91759580D01*
X161657142Y-91759580D02*
X161561904Y-91616723D01*
X161561904Y-91616723D02*
X161514285Y-91426247D01*
X161514285Y-91426247D02*
X161514285Y-91045295D01*
X161514285Y-91045295D02*
X161561904Y-90950057D01*
X161561904Y-90950057D02*
X161609523Y-90902438D01*
X161609523Y-90902438D02*
X161704761Y-90854819D01*
X161704761Y-90854819D02*
X161895237Y-90854819D01*
X161895237Y-90854819D02*
X161990475Y-90902438D01*
X161990475Y-90902438D02*
X162038094Y-90950057D01*
X162038094Y-90950057D02*
X162085713Y-91045295D01*
X162085713Y-91045295D02*
X162085713Y-91283390D01*
X162085713Y-91283390D02*
X162038094Y-91378628D01*
X162038094Y-91378628D02*
X161990475Y-91426247D01*
X161990475Y-91426247D02*
X161895237Y-91473866D01*
X161895237Y-91473866D02*
X161704761Y-91473866D01*
X161704761Y-91473866D02*
X161609523Y-91426247D01*
X161609523Y-91426247D02*
X161561904Y-91378628D01*
X161561904Y-91378628D02*
X161514285Y-91283390D01*
%TO.C,R2*%
X215566666Y-86554819D02*
X215899999Y-86078628D01*
X216138094Y-86554819D02*
X216138094Y-85554819D01*
X216138094Y-85554819D02*
X215757142Y-85554819D01*
X215757142Y-85554819D02*
X215661904Y-85602438D01*
X215661904Y-85602438D02*
X215614285Y-85650057D01*
X215614285Y-85650057D02*
X215566666Y-85745295D01*
X215566666Y-85745295D02*
X215566666Y-85888152D01*
X215566666Y-85888152D02*
X215614285Y-85983390D01*
X215614285Y-85983390D02*
X215661904Y-86031009D01*
X215661904Y-86031009D02*
X215757142Y-86078628D01*
X215757142Y-86078628D02*
X216138094Y-86078628D01*
X215185713Y-85650057D02*
X215138094Y-85602438D01*
X215138094Y-85602438D02*
X215042856Y-85554819D01*
X215042856Y-85554819D02*
X214804761Y-85554819D01*
X214804761Y-85554819D02*
X214709523Y-85602438D01*
X214709523Y-85602438D02*
X214661904Y-85650057D01*
X214661904Y-85650057D02*
X214614285Y-85745295D01*
X214614285Y-85745295D02*
X214614285Y-85840533D01*
X214614285Y-85840533D02*
X214661904Y-85983390D01*
X214661904Y-85983390D02*
X215233332Y-86554819D01*
X215233332Y-86554819D02*
X214614285Y-86554819D01*
%TO.C,U4*%
X163439404Y-82854819D02*
X163439404Y-83664342D01*
X163439404Y-83664342D02*
X163391785Y-83759580D01*
X163391785Y-83759580D02*
X163344166Y-83807200D01*
X163344166Y-83807200D02*
X163248928Y-83854819D01*
X163248928Y-83854819D02*
X163058452Y-83854819D01*
X163058452Y-83854819D02*
X162963214Y-83807200D01*
X162963214Y-83807200D02*
X162915595Y-83759580D01*
X162915595Y-83759580D02*
X162867976Y-83664342D01*
X162867976Y-83664342D02*
X162867976Y-82854819D01*
X161963214Y-83188152D02*
X161963214Y-83854819D01*
X162201309Y-82807200D02*
X162439404Y-83521485D01*
X162439404Y-83521485D02*
X161820357Y-83521485D01*
%TO.C,D10*%
X130958923Y-81632665D02*
X130251816Y-80925559D01*
X130251816Y-80925559D02*
X130083457Y-81093917D01*
X130083457Y-81093917D02*
X130016114Y-81228604D01*
X130016114Y-81228604D02*
X130016114Y-81363291D01*
X130016114Y-81363291D02*
X130049786Y-81464307D01*
X130049786Y-81464307D02*
X130150801Y-81632665D01*
X130150801Y-81632665D02*
X130251816Y-81733681D01*
X130251816Y-81733681D02*
X130420175Y-81834696D01*
X130420175Y-81834696D02*
X130521190Y-81868368D01*
X130521190Y-81868368D02*
X130655877Y-81868368D01*
X130655877Y-81868368D02*
X130790564Y-81801024D01*
X130790564Y-81801024D02*
X130958923Y-81632665D01*
X129881427Y-82710161D02*
X130285488Y-82306100D01*
X130083457Y-82508131D02*
X129376351Y-81801024D01*
X129376351Y-81801024D02*
X129544709Y-81834696D01*
X129544709Y-81834696D02*
X129679396Y-81834696D01*
X129679396Y-81834696D02*
X129780412Y-81801024D01*
X128736587Y-82440788D02*
X128669244Y-82508131D01*
X128669244Y-82508131D02*
X128635572Y-82609146D01*
X128635572Y-82609146D02*
X128635572Y-82676490D01*
X128635572Y-82676490D02*
X128669244Y-82777505D01*
X128669244Y-82777505D02*
X128770259Y-82945864D01*
X128770259Y-82945864D02*
X128938618Y-83114223D01*
X128938618Y-83114223D02*
X129106976Y-83215238D01*
X129106976Y-83215238D02*
X129207992Y-83248910D01*
X129207992Y-83248910D02*
X129275335Y-83248910D01*
X129275335Y-83248910D02*
X129376350Y-83215238D01*
X129376350Y-83215238D02*
X129443694Y-83147894D01*
X129443694Y-83147894D02*
X129477366Y-83046879D01*
X129477366Y-83046879D02*
X129477366Y-82979536D01*
X129477366Y-82979536D02*
X129443694Y-82878520D01*
X129443694Y-82878520D02*
X129342679Y-82710162D01*
X129342679Y-82710162D02*
X129174320Y-82541803D01*
X129174320Y-82541803D02*
X129005961Y-82440788D01*
X129005961Y-82440788D02*
X128904946Y-82407116D01*
X128904946Y-82407116D02*
X128837602Y-82407116D01*
X128837602Y-82407116D02*
X128736587Y-82440788D01*
%TO.C,R6*%
X206951666Y-77969819D02*
X207284999Y-77493628D01*
X207523094Y-77969819D02*
X207523094Y-76969819D01*
X207523094Y-76969819D02*
X207142142Y-76969819D01*
X207142142Y-76969819D02*
X207046904Y-77017438D01*
X207046904Y-77017438D02*
X206999285Y-77065057D01*
X206999285Y-77065057D02*
X206951666Y-77160295D01*
X206951666Y-77160295D02*
X206951666Y-77303152D01*
X206951666Y-77303152D02*
X206999285Y-77398390D01*
X206999285Y-77398390D02*
X207046904Y-77446009D01*
X207046904Y-77446009D02*
X207142142Y-77493628D01*
X207142142Y-77493628D02*
X207523094Y-77493628D01*
X206094523Y-76969819D02*
X206284999Y-76969819D01*
X206284999Y-76969819D02*
X206380237Y-77017438D01*
X206380237Y-77017438D02*
X206427856Y-77065057D01*
X206427856Y-77065057D02*
X206523094Y-77207914D01*
X206523094Y-77207914D02*
X206570713Y-77398390D01*
X206570713Y-77398390D02*
X206570713Y-77779342D01*
X206570713Y-77779342D02*
X206523094Y-77874580D01*
X206523094Y-77874580D02*
X206475475Y-77922200D01*
X206475475Y-77922200D02*
X206380237Y-77969819D01*
X206380237Y-77969819D02*
X206189761Y-77969819D01*
X206189761Y-77969819D02*
X206094523Y-77922200D01*
X206094523Y-77922200D02*
X206046904Y-77874580D01*
X206046904Y-77874580D02*
X205999285Y-77779342D01*
X205999285Y-77779342D02*
X205999285Y-77541247D01*
X205999285Y-77541247D02*
X206046904Y-77446009D01*
X206046904Y-77446009D02*
X206094523Y-77398390D01*
X206094523Y-77398390D02*
X206189761Y-77350771D01*
X206189761Y-77350771D02*
X206380237Y-77350771D01*
X206380237Y-77350771D02*
X206475475Y-77398390D01*
X206475475Y-77398390D02*
X206523094Y-77446009D01*
X206523094Y-77446009D02*
X206570713Y-77541247D01*
%TO.C,R4*%
X212601666Y-77969819D02*
X212934999Y-77493628D01*
X213173094Y-77969819D02*
X213173094Y-76969819D01*
X213173094Y-76969819D02*
X212792142Y-76969819D01*
X212792142Y-76969819D02*
X212696904Y-77017438D01*
X212696904Y-77017438D02*
X212649285Y-77065057D01*
X212649285Y-77065057D02*
X212601666Y-77160295D01*
X212601666Y-77160295D02*
X212601666Y-77303152D01*
X212601666Y-77303152D02*
X212649285Y-77398390D01*
X212649285Y-77398390D02*
X212696904Y-77446009D01*
X212696904Y-77446009D02*
X212792142Y-77493628D01*
X212792142Y-77493628D02*
X213173094Y-77493628D01*
X211744523Y-77303152D02*
X211744523Y-77969819D01*
X211982618Y-76922200D02*
X212220713Y-77636485D01*
X212220713Y-77636485D02*
X211601666Y-77636485D01*
%TO.C,D6*%
X166754819Y-54461905D02*
X165754819Y-54461905D01*
X165754819Y-54461905D02*
X165754819Y-54700000D01*
X165754819Y-54700000D02*
X165802438Y-54842857D01*
X165802438Y-54842857D02*
X165897676Y-54938095D01*
X165897676Y-54938095D02*
X165992914Y-54985714D01*
X165992914Y-54985714D02*
X166183390Y-55033333D01*
X166183390Y-55033333D02*
X166326247Y-55033333D01*
X166326247Y-55033333D02*
X166516723Y-54985714D01*
X166516723Y-54985714D02*
X166611961Y-54938095D01*
X166611961Y-54938095D02*
X166707200Y-54842857D01*
X166707200Y-54842857D02*
X166754819Y-54700000D01*
X166754819Y-54700000D02*
X166754819Y-54461905D01*
X165754819Y-55890476D02*
X165754819Y-55700000D01*
X165754819Y-55700000D02*
X165802438Y-55604762D01*
X165802438Y-55604762D02*
X165850057Y-55557143D01*
X165850057Y-55557143D02*
X165992914Y-55461905D01*
X165992914Y-55461905D02*
X166183390Y-55414286D01*
X166183390Y-55414286D02*
X166564342Y-55414286D01*
X166564342Y-55414286D02*
X166659580Y-55461905D01*
X166659580Y-55461905D02*
X166707200Y-55509524D01*
X166707200Y-55509524D02*
X166754819Y-55604762D01*
X166754819Y-55604762D02*
X166754819Y-55795238D01*
X166754819Y-55795238D02*
X166707200Y-55890476D01*
X166707200Y-55890476D02*
X166659580Y-55938095D01*
X166659580Y-55938095D02*
X166564342Y-55985714D01*
X166564342Y-55985714D02*
X166326247Y-55985714D01*
X166326247Y-55985714D02*
X166231009Y-55938095D01*
X166231009Y-55938095D02*
X166183390Y-55890476D01*
X166183390Y-55890476D02*
X166135771Y-55795238D01*
X166135771Y-55795238D02*
X166135771Y-55604762D01*
X166135771Y-55604762D02*
X166183390Y-55509524D01*
X166183390Y-55509524D02*
X166231009Y-55461905D01*
X166231009Y-55461905D02*
X166326247Y-55414286D01*
%TO.C,R3*%
X213454819Y-80033333D02*
X212978628Y-79700000D01*
X213454819Y-79461905D02*
X212454819Y-79461905D01*
X212454819Y-79461905D02*
X212454819Y-79842857D01*
X212454819Y-79842857D02*
X212502438Y-79938095D01*
X212502438Y-79938095D02*
X212550057Y-79985714D01*
X212550057Y-79985714D02*
X212645295Y-80033333D01*
X212645295Y-80033333D02*
X212788152Y-80033333D01*
X212788152Y-80033333D02*
X212883390Y-79985714D01*
X212883390Y-79985714D02*
X212931009Y-79938095D01*
X212931009Y-79938095D02*
X212978628Y-79842857D01*
X212978628Y-79842857D02*
X212978628Y-79461905D01*
X212454819Y-80366667D02*
X212454819Y-80985714D01*
X212454819Y-80985714D02*
X212835771Y-80652381D01*
X212835771Y-80652381D02*
X212835771Y-80795238D01*
X212835771Y-80795238D02*
X212883390Y-80890476D01*
X212883390Y-80890476D02*
X212931009Y-80938095D01*
X212931009Y-80938095D02*
X213026247Y-80985714D01*
X213026247Y-80985714D02*
X213264342Y-80985714D01*
X213264342Y-80985714D02*
X213359580Y-80938095D01*
X213359580Y-80938095D02*
X213407200Y-80890476D01*
X213407200Y-80890476D02*
X213454819Y-80795238D01*
X213454819Y-80795238D02*
X213454819Y-80509524D01*
X213454819Y-80509524D02*
X213407200Y-80414286D01*
X213407200Y-80414286D02*
X213359580Y-80366667D01*
%TO.C,Q7*%
X166850057Y-59304761D02*
X166802438Y-59209523D01*
X166802438Y-59209523D02*
X166707200Y-59114285D01*
X166707200Y-59114285D02*
X166564342Y-58971428D01*
X166564342Y-58971428D02*
X166516723Y-58876190D01*
X166516723Y-58876190D02*
X166516723Y-58780952D01*
X166754819Y-58828571D02*
X166707200Y-58733333D01*
X166707200Y-58733333D02*
X166611961Y-58638095D01*
X166611961Y-58638095D02*
X166421485Y-58590476D01*
X166421485Y-58590476D02*
X166088152Y-58590476D01*
X166088152Y-58590476D02*
X165897676Y-58638095D01*
X165897676Y-58638095D02*
X165802438Y-58733333D01*
X165802438Y-58733333D02*
X165754819Y-58828571D01*
X165754819Y-58828571D02*
X165754819Y-59019047D01*
X165754819Y-59019047D02*
X165802438Y-59114285D01*
X165802438Y-59114285D02*
X165897676Y-59209523D01*
X165897676Y-59209523D02*
X166088152Y-59257142D01*
X166088152Y-59257142D02*
X166421485Y-59257142D01*
X166421485Y-59257142D02*
X166611961Y-59209523D01*
X166611961Y-59209523D02*
X166707200Y-59114285D01*
X166707200Y-59114285D02*
X166754819Y-59019047D01*
X166754819Y-59019047D02*
X166754819Y-58828571D01*
X165754819Y-59590476D02*
X165754819Y-60257142D01*
X165754819Y-60257142D02*
X166754819Y-59828571D01*
%TO.C,R40*%
X215574819Y-96857142D02*
X215098628Y-96523809D01*
X215574819Y-96285714D02*
X214574819Y-96285714D01*
X214574819Y-96285714D02*
X214574819Y-96666666D01*
X214574819Y-96666666D02*
X214622438Y-96761904D01*
X214622438Y-96761904D02*
X214670057Y-96809523D01*
X214670057Y-96809523D02*
X214765295Y-96857142D01*
X214765295Y-96857142D02*
X214908152Y-96857142D01*
X214908152Y-96857142D02*
X215003390Y-96809523D01*
X215003390Y-96809523D02*
X215051009Y-96761904D01*
X215051009Y-96761904D02*
X215098628Y-96666666D01*
X215098628Y-96666666D02*
X215098628Y-96285714D01*
X214908152Y-97714285D02*
X215574819Y-97714285D01*
X214527200Y-97476190D02*
X215241485Y-97238095D01*
X215241485Y-97238095D02*
X215241485Y-97857142D01*
X214574819Y-98428571D02*
X214574819Y-98523809D01*
X214574819Y-98523809D02*
X214622438Y-98619047D01*
X214622438Y-98619047D02*
X214670057Y-98666666D01*
X214670057Y-98666666D02*
X214765295Y-98714285D01*
X214765295Y-98714285D02*
X214955771Y-98761904D01*
X214955771Y-98761904D02*
X215193866Y-98761904D01*
X215193866Y-98761904D02*
X215384342Y-98714285D01*
X215384342Y-98714285D02*
X215479580Y-98666666D01*
X215479580Y-98666666D02*
X215527200Y-98619047D01*
X215527200Y-98619047D02*
X215574819Y-98523809D01*
X215574819Y-98523809D02*
X215574819Y-98428571D01*
X215574819Y-98428571D02*
X215527200Y-98333333D01*
X215527200Y-98333333D02*
X215479580Y-98285714D01*
X215479580Y-98285714D02*
X215384342Y-98238095D01*
X215384342Y-98238095D02*
X215193866Y-98190476D01*
X215193866Y-98190476D02*
X214955771Y-98190476D01*
X214955771Y-98190476D02*
X214765295Y-98238095D01*
X214765295Y-98238095D02*
X214670057Y-98285714D01*
X214670057Y-98285714D02*
X214622438Y-98333333D01*
X214622438Y-98333333D02*
X214574819Y-98428571D01*
%TO.C,R26*%
X151042857Y-54204819D02*
X151376190Y-53728628D01*
X151614285Y-54204819D02*
X151614285Y-53204819D01*
X151614285Y-53204819D02*
X151233333Y-53204819D01*
X151233333Y-53204819D02*
X151138095Y-53252438D01*
X151138095Y-53252438D02*
X151090476Y-53300057D01*
X151090476Y-53300057D02*
X151042857Y-53395295D01*
X151042857Y-53395295D02*
X151042857Y-53538152D01*
X151042857Y-53538152D02*
X151090476Y-53633390D01*
X151090476Y-53633390D02*
X151138095Y-53681009D01*
X151138095Y-53681009D02*
X151233333Y-53728628D01*
X151233333Y-53728628D02*
X151614285Y-53728628D01*
X150661904Y-53300057D02*
X150614285Y-53252438D01*
X150614285Y-53252438D02*
X150519047Y-53204819D01*
X150519047Y-53204819D02*
X150280952Y-53204819D01*
X150280952Y-53204819D02*
X150185714Y-53252438D01*
X150185714Y-53252438D02*
X150138095Y-53300057D01*
X150138095Y-53300057D02*
X150090476Y-53395295D01*
X150090476Y-53395295D02*
X150090476Y-53490533D01*
X150090476Y-53490533D02*
X150138095Y-53633390D01*
X150138095Y-53633390D02*
X150709523Y-54204819D01*
X150709523Y-54204819D02*
X150090476Y-54204819D01*
X149233333Y-53204819D02*
X149423809Y-53204819D01*
X149423809Y-53204819D02*
X149519047Y-53252438D01*
X149519047Y-53252438D02*
X149566666Y-53300057D01*
X149566666Y-53300057D02*
X149661904Y-53442914D01*
X149661904Y-53442914D02*
X149709523Y-53633390D01*
X149709523Y-53633390D02*
X149709523Y-54014342D01*
X149709523Y-54014342D02*
X149661904Y-54109580D01*
X149661904Y-54109580D02*
X149614285Y-54157200D01*
X149614285Y-54157200D02*
X149519047Y-54204819D01*
X149519047Y-54204819D02*
X149328571Y-54204819D01*
X149328571Y-54204819D02*
X149233333Y-54157200D01*
X149233333Y-54157200D02*
X149185714Y-54109580D01*
X149185714Y-54109580D02*
X149138095Y-54014342D01*
X149138095Y-54014342D02*
X149138095Y-53776247D01*
X149138095Y-53776247D02*
X149185714Y-53681009D01*
X149185714Y-53681009D02*
X149233333Y-53633390D01*
X149233333Y-53633390D02*
X149328571Y-53585771D01*
X149328571Y-53585771D02*
X149519047Y-53585771D01*
X149519047Y-53585771D02*
X149614285Y-53633390D01*
X149614285Y-53633390D02*
X149661904Y-53681009D01*
X149661904Y-53681009D02*
X149709523Y-53776247D01*
%TO.C,C1*%
X215959580Y-83953333D02*
X216007200Y-83905714D01*
X216007200Y-83905714D02*
X216054819Y-83762857D01*
X216054819Y-83762857D02*
X216054819Y-83667619D01*
X216054819Y-83667619D02*
X216007200Y-83524762D01*
X216007200Y-83524762D02*
X215911961Y-83429524D01*
X215911961Y-83429524D02*
X215816723Y-83381905D01*
X215816723Y-83381905D02*
X215626247Y-83334286D01*
X215626247Y-83334286D02*
X215483390Y-83334286D01*
X215483390Y-83334286D02*
X215292914Y-83381905D01*
X215292914Y-83381905D02*
X215197676Y-83429524D01*
X215197676Y-83429524D02*
X215102438Y-83524762D01*
X215102438Y-83524762D02*
X215054819Y-83667619D01*
X215054819Y-83667619D02*
X215054819Y-83762857D01*
X215054819Y-83762857D02*
X215102438Y-83905714D01*
X215102438Y-83905714D02*
X215150057Y-83953333D01*
X216054819Y-84905714D02*
X216054819Y-84334286D01*
X216054819Y-84620000D02*
X215054819Y-84620000D01*
X215054819Y-84620000D02*
X215197676Y-84524762D01*
X215197676Y-84524762D02*
X215292914Y-84429524D01*
X215292914Y-84429524D02*
X215340533Y-84334286D01*
%TO.C,R12*%
X155442857Y-73754819D02*
X155776190Y-73278628D01*
X156014285Y-73754819D02*
X156014285Y-72754819D01*
X156014285Y-72754819D02*
X155633333Y-72754819D01*
X155633333Y-72754819D02*
X155538095Y-72802438D01*
X155538095Y-72802438D02*
X155490476Y-72850057D01*
X155490476Y-72850057D02*
X155442857Y-72945295D01*
X155442857Y-72945295D02*
X155442857Y-73088152D01*
X155442857Y-73088152D02*
X155490476Y-73183390D01*
X155490476Y-73183390D02*
X155538095Y-73231009D01*
X155538095Y-73231009D02*
X155633333Y-73278628D01*
X155633333Y-73278628D02*
X156014285Y-73278628D01*
X154490476Y-73754819D02*
X155061904Y-73754819D01*
X154776190Y-73754819D02*
X154776190Y-72754819D01*
X154776190Y-72754819D02*
X154871428Y-72897676D01*
X154871428Y-72897676D02*
X154966666Y-72992914D01*
X154966666Y-72992914D02*
X155061904Y-73040533D01*
X154109523Y-72850057D02*
X154061904Y-72802438D01*
X154061904Y-72802438D02*
X153966666Y-72754819D01*
X153966666Y-72754819D02*
X153728571Y-72754819D01*
X153728571Y-72754819D02*
X153633333Y-72802438D01*
X153633333Y-72802438D02*
X153585714Y-72850057D01*
X153585714Y-72850057D02*
X153538095Y-72945295D01*
X153538095Y-72945295D02*
X153538095Y-73040533D01*
X153538095Y-73040533D02*
X153585714Y-73183390D01*
X153585714Y-73183390D02*
X154157142Y-73754819D01*
X154157142Y-73754819D02*
X153538095Y-73754819D01*
%TO.C,R17*%
X150854819Y-98957142D02*
X150378628Y-98623809D01*
X150854819Y-98385714D02*
X149854819Y-98385714D01*
X149854819Y-98385714D02*
X149854819Y-98766666D01*
X149854819Y-98766666D02*
X149902438Y-98861904D01*
X149902438Y-98861904D02*
X149950057Y-98909523D01*
X149950057Y-98909523D02*
X150045295Y-98957142D01*
X150045295Y-98957142D02*
X150188152Y-98957142D01*
X150188152Y-98957142D02*
X150283390Y-98909523D01*
X150283390Y-98909523D02*
X150331009Y-98861904D01*
X150331009Y-98861904D02*
X150378628Y-98766666D01*
X150378628Y-98766666D02*
X150378628Y-98385714D01*
X150854819Y-99909523D02*
X150854819Y-99338095D01*
X150854819Y-99623809D02*
X149854819Y-99623809D01*
X149854819Y-99623809D02*
X149997676Y-99528571D01*
X149997676Y-99528571D02*
X150092914Y-99433333D01*
X150092914Y-99433333D02*
X150140533Y-99338095D01*
X149854819Y-100242857D02*
X149854819Y-100909523D01*
X149854819Y-100909523D02*
X150854819Y-100480952D01*
%TO.C,D9*%
X127322205Y-81979383D02*
X126615098Y-81272277D01*
X126615098Y-81272277D02*
X126446739Y-81440635D01*
X126446739Y-81440635D02*
X126379396Y-81575322D01*
X126379396Y-81575322D02*
X126379396Y-81710009D01*
X126379396Y-81710009D02*
X126413068Y-81811025D01*
X126413068Y-81811025D02*
X126514083Y-81979383D01*
X126514083Y-81979383D02*
X126615098Y-82080399D01*
X126615098Y-82080399D02*
X126783457Y-82181414D01*
X126783457Y-82181414D02*
X126884472Y-82215086D01*
X126884472Y-82215086D02*
X127019159Y-82215086D01*
X127019159Y-82215086D02*
X127153846Y-82147742D01*
X127153846Y-82147742D02*
X127322205Y-81979383D01*
X126581426Y-82720162D02*
X126446739Y-82854849D01*
X126446739Y-82854849D02*
X126345724Y-82888521D01*
X126345724Y-82888521D02*
X126278381Y-82888521D01*
X126278381Y-82888521D02*
X126110022Y-82854849D01*
X126110022Y-82854849D02*
X125941663Y-82753834D01*
X125941663Y-82753834D02*
X125672289Y-82484460D01*
X125672289Y-82484460D02*
X125638617Y-82383444D01*
X125638617Y-82383444D02*
X125638617Y-82316101D01*
X125638617Y-82316101D02*
X125672289Y-82215086D01*
X125672289Y-82215086D02*
X125806976Y-82080399D01*
X125806976Y-82080399D02*
X125907991Y-82046727D01*
X125907991Y-82046727D02*
X125975335Y-82046727D01*
X125975335Y-82046727D02*
X126076350Y-82080399D01*
X126076350Y-82080399D02*
X126244709Y-82248757D01*
X126244709Y-82248757D02*
X126278381Y-82349773D01*
X126278381Y-82349773D02*
X126278381Y-82417116D01*
X126278381Y-82417116D02*
X126244709Y-82518131D01*
X126244709Y-82518131D02*
X126110022Y-82652818D01*
X126110022Y-82652818D02*
X126009007Y-82686490D01*
X126009007Y-82686490D02*
X125941663Y-82686490D01*
X125941663Y-82686490D02*
X125840648Y-82652818D01*
%TO.C,C3*%
X201429580Y-80353333D02*
X201477200Y-80305714D01*
X201477200Y-80305714D02*
X201524819Y-80162857D01*
X201524819Y-80162857D02*
X201524819Y-80067619D01*
X201524819Y-80067619D02*
X201477200Y-79924762D01*
X201477200Y-79924762D02*
X201381961Y-79829524D01*
X201381961Y-79829524D02*
X201286723Y-79781905D01*
X201286723Y-79781905D02*
X201096247Y-79734286D01*
X201096247Y-79734286D02*
X200953390Y-79734286D01*
X200953390Y-79734286D02*
X200762914Y-79781905D01*
X200762914Y-79781905D02*
X200667676Y-79829524D01*
X200667676Y-79829524D02*
X200572438Y-79924762D01*
X200572438Y-79924762D02*
X200524819Y-80067619D01*
X200524819Y-80067619D02*
X200524819Y-80162857D01*
X200524819Y-80162857D02*
X200572438Y-80305714D01*
X200572438Y-80305714D02*
X200620057Y-80353333D01*
X200524819Y-80686667D02*
X200524819Y-81305714D01*
X200524819Y-81305714D02*
X200905771Y-80972381D01*
X200905771Y-80972381D02*
X200905771Y-81115238D01*
X200905771Y-81115238D02*
X200953390Y-81210476D01*
X200953390Y-81210476D02*
X201001009Y-81258095D01*
X201001009Y-81258095D02*
X201096247Y-81305714D01*
X201096247Y-81305714D02*
X201334342Y-81305714D01*
X201334342Y-81305714D02*
X201429580Y-81258095D01*
X201429580Y-81258095D02*
X201477200Y-81210476D01*
X201477200Y-81210476D02*
X201524819Y-81115238D01*
X201524819Y-81115238D02*
X201524819Y-80829524D01*
X201524819Y-80829524D02*
X201477200Y-80734286D01*
X201477200Y-80734286D02*
X201429580Y-80686667D01*
%TO.C,C14*%
X129235357Y-85989580D02*
X129282976Y-86037200D01*
X129282976Y-86037200D02*
X129425833Y-86084819D01*
X129425833Y-86084819D02*
X129521071Y-86084819D01*
X129521071Y-86084819D02*
X129663928Y-86037200D01*
X129663928Y-86037200D02*
X129759166Y-85941961D01*
X129759166Y-85941961D02*
X129806785Y-85846723D01*
X129806785Y-85846723D02*
X129854404Y-85656247D01*
X129854404Y-85656247D02*
X129854404Y-85513390D01*
X129854404Y-85513390D02*
X129806785Y-85322914D01*
X129806785Y-85322914D02*
X129759166Y-85227676D01*
X129759166Y-85227676D02*
X129663928Y-85132438D01*
X129663928Y-85132438D02*
X129521071Y-85084819D01*
X129521071Y-85084819D02*
X129425833Y-85084819D01*
X129425833Y-85084819D02*
X129282976Y-85132438D01*
X129282976Y-85132438D02*
X129235357Y-85180057D01*
X128282976Y-86084819D02*
X128854404Y-86084819D01*
X128568690Y-86084819D02*
X128568690Y-85084819D01*
X128568690Y-85084819D02*
X128663928Y-85227676D01*
X128663928Y-85227676D02*
X128759166Y-85322914D01*
X128759166Y-85322914D02*
X128854404Y-85370533D01*
X127425833Y-85418152D02*
X127425833Y-86084819D01*
X127663928Y-85037200D02*
X127902023Y-85751485D01*
X127902023Y-85751485D02*
X127282976Y-85751485D01*
%TO.C,C18*%
X110919580Y-83157142D02*
X110967200Y-83109523D01*
X110967200Y-83109523D02*
X111014819Y-82966666D01*
X111014819Y-82966666D02*
X111014819Y-82871428D01*
X111014819Y-82871428D02*
X110967200Y-82728571D01*
X110967200Y-82728571D02*
X110871961Y-82633333D01*
X110871961Y-82633333D02*
X110776723Y-82585714D01*
X110776723Y-82585714D02*
X110586247Y-82538095D01*
X110586247Y-82538095D02*
X110443390Y-82538095D01*
X110443390Y-82538095D02*
X110252914Y-82585714D01*
X110252914Y-82585714D02*
X110157676Y-82633333D01*
X110157676Y-82633333D02*
X110062438Y-82728571D01*
X110062438Y-82728571D02*
X110014819Y-82871428D01*
X110014819Y-82871428D02*
X110014819Y-82966666D01*
X110014819Y-82966666D02*
X110062438Y-83109523D01*
X110062438Y-83109523D02*
X110110057Y-83157142D01*
X111014819Y-84109523D02*
X111014819Y-83538095D01*
X111014819Y-83823809D02*
X110014819Y-83823809D01*
X110014819Y-83823809D02*
X110157676Y-83728571D01*
X110157676Y-83728571D02*
X110252914Y-83633333D01*
X110252914Y-83633333D02*
X110300533Y-83538095D01*
X110443390Y-84680952D02*
X110395771Y-84585714D01*
X110395771Y-84585714D02*
X110348152Y-84538095D01*
X110348152Y-84538095D02*
X110252914Y-84490476D01*
X110252914Y-84490476D02*
X110205295Y-84490476D01*
X110205295Y-84490476D02*
X110110057Y-84538095D01*
X110110057Y-84538095D02*
X110062438Y-84585714D01*
X110062438Y-84585714D02*
X110014819Y-84680952D01*
X110014819Y-84680952D02*
X110014819Y-84871428D01*
X110014819Y-84871428D02*
X110062438Y-84966666D01*
X110062438Y-84966666D02*
X110110057Y-85014285D01*
X110110057Y-85014285D02*
X110205295Y-85061904D01*
X110205295Y-85061904D02*
X110252914Y-85061904D01*
X110252914Y-85061904D02*
X110348152Y-85014285D01*
X110348152Y-85014285D02*
X110395771Y-84966666D01*
X110395771Y-84966666D02*
X110443390Y-84871428D01*
X110443390Y-84871428D02*
X110443390Y-84680952D01*
X110443390Y-84680952D02*
X110491009Y-84585714D01*
X110491009Y-84585714D02*
X110538628Y-84538095D01*
X110538628Y-84538095D02*
X110633866Y-84490476D01*
X110633866Y-84490476D02*
X110824342Y-84490476D01*
X110824342Y-84490476D02*
X110919580Y-84538095D01*
X110919580Y-84538095D02*
X110967200Y-84585714D01*
X110967200Y-84585714D02*
X111014819Y-84680952D01*
X111014819Y-84680952D02*
X111014819Y-84871428D01*
X111014819Y-84871428D02*
X110967200Y-84966666D01*
X110967200Y-84966666D02*
X110919580Y-85014285D01*
X110919580Y-85014285D02*
X110824342Y-85061904D01*
X110824342Y-85061904D02*
X110633866Y-85061904D01*
X110633866Y-85061904D02*
X110538628Y-85014285D01*
X110538628Y-85014285D02*
X110491009Y-84966666D01*
X110491009Y-84966666D02*
X110443390Y-84871428D01*
%TO.C,U1*%
X207436904Y-85539819D02*
X207436904Y-86349342D01*
X207436904Y-86349342D02*
X207389285Y-86444580D01*
X207389285Y-86444580D02*
X207341666Y-86492200D01*
X207341666Y-86492200D02*
X207246428Y-86539819D01*
X207246428Y-86539819D02*
X207055952Y-86539819D01*
X207055952Y-86539819D02*
X206960714Y-86492200D01*
X206960714Y-86492200D02*
X206913095Y-86444580D01*
X206913095Y-86444580D02*
X206865476Y-86349342D01*
X206865476Y-86349342D02*
X206865476Y-85539819D01*
X205865476Y-86539819D02*
X206436904Y-86539819D01*
X206151190Y-86539819D02*
X206151190Y-85539819D01*
X206151190Y-85539819D02*
X206246428Y-85682676D01*
X206246428Y-85682676D02*
X206341666Y-85777914D01*
X206341666Y-85777914D02*
X206436904Y-85825533D01*
%TO.C,R14*%
X166142857Y-66254819D02*
X166476190Y-65778628D01*
X166714285Y-66254819D02*
X166714285Y-65254819D01*
X166714285Y-65254819D02*
X166333333Y-65254819D01*
X166333333Y-65254819D02*
X166238095Y-65302438D01*
X166238095Y-65302438D02*
X166190476Y-65350057D01*
X166190476Y-65350057D02*
X166142857Y-65445295D01*
X166142857Y-65445295D02*
X166142857Y-65588152D01*
X166142857Y-65588152D02*
X166190476Y-65683390D01*
X166190476Y-65683390D02*
X166238095Y-65731009D01*
X166238095Y-65731009D02*
X166333333Y-65778628D01*
X166333333Y-65778628D02*
X166714285Y-65778628D01*
X165190476Y-66254819D02*
X165761904Y-66254819D01*
X165476190Y-66254819D02*
X165476190Y-65254819D01*
X165476190Y-65254819D02*
X165571428Y-65397676D01*
X165571428Y-65397676D02*
X165666666Y-65492914D01*
X165666666Y-65492914D02*
X165761904Y-65540533D01*
X164333333Y-65588152D02*
X164333333Y-66254819D01*
X164571428Y-65207200D02*
X164809523Y-65921485D01*
X164809523Y-65921485D02*
X164190476Y-65921485D01*
%TO.C,R39*%
X107174819Y-83457142D02*
X106698628Y-83123809D01*
X107174819Y-82885714D02*
X106174819Y-82885714D01*
X106174819Y-82885714D02*
X106174819Y-83266666D01*
X106174819Y-83266666D02*
X106222438Y-83361904D01*
X106222438Y-83361904D02*
X106270057Y-83409523D01*
X106270057Y-83409523D02*
X106365295Y-83457142D01*
X106365295Y-83457142D02*
X106508152Y-83457142D01*
X106508152Y-83457142D02*
X106603390Y-83409523D01*
X106603390Y-83409523D02*
X106651009Y-83361904D01*
X106651009Y-83361904D02*
X106698628Y-83266666D01*
X106698628Y-83266666D02*
X106698628Y-82885714D01*
X106174819Y-83790476D02*
X106174819Y-84409523D01*
X106174819Y-84409523D02*
X106555771Y-84076190D01*
X106555771Y-84076190D02*
X106555771Y-84219047D01*
X106555771Y-84219047D02*
X106603390Y-84314285D01*
X106603390Y-84314285D02*
X106651009Y-84361904D01*
X106651009Y-84361904D02*
X106746247Y-84409523D01*
X106746247Y-84409523D02*
X106984342Y-84409523D01*
X106984342Y-84409523D02*
X107079580Y-84361904D01*
X107079580Y-84361904D02*
X107127200Y-84314285D01*
X107127200Y-84314285D02*
X107174819Y-84219047D01*
X107174819Y-84219047D02*
X107174819Y-83933333D01*
X107174819Y-83933333D02*
X107127200Y-83838095D01*
X107127200Y-83838095D02*
X107079580Y-83790476D01*
X107174819Y-84885714D02*
X107174819Y-85076190D01*
X107174819Y-85076190D02*
X107127200Y-85171428D01*
X107127200Y-85171428D02*
X107079580Y-85219047D01*
X107079580Y-85219047D02*
X106936723Y-85314285D01*
X106936723Y-85314285D02*
X106746247Y-85361904D01*
X106746247Y-85361904D02*
X106365295Y-85361904D01*
X106365295Y-85361904D02*
X106270057Y-85314285D01*
X106270057Y-85314285D02*
X106222438Y-85266666D01*
X106222438Y-85266666D02*
X106174819Y-85171428D01*
X106174819Y-85171428D02*
X106174819Y-84980952D01*
X106174819Y-84980952D02*
X106222438Y-84885714D01*
X106222438Y-84885714D02*
X106270057Y-84838095D01*
X106270057Y-84838095D02*
X106365295Y-84790476D01*
X106365295Y-84790476D02*
X106603390Y-84790476D01*
X106603390Y-84790476D02*
X106698628Y-84838095D01*
X106698628Y-84838095D02*
X106746247Y-84885714D01*
X106746247Y-84885714D02*
X106793866Y-84980952D01*
X106793866Y-84980952D02*
X106793866Y-85171428D01*
X106793866Y-85171428D02*
X106746247Y-85266666D01*
X106746247Y-85266666D02*
X106698628Y-85314285D01*
X106698628Y-85314285D02*
X106603390Y-85361904D01*
%TO.C,D12*%
X168844285Y-74294819D02*
X168844285Y-73294819D01*
X168844285Y-73294819D02*
X168606190Y-73294819D01*
X168606190Y-73294819D02*
X168463333Y-73342438D01*
X168463333Y-73342438D02*
X168368095Y-73437676D01*
X168368095Y-73437676D02*
X168320476Y-73532914D01*
X168320476Y-73532914D02*
X168272857Y-73723390D01*
X168272857Y-73723390D02*
X168272857Y-73866247D01*
X168272857Y-73866247D02*
X168320476Y-74056723D01*
X168320476Y-74056723D02*
X168368095Y-74151961D01*
X168368095Y-74151961D02*
X168463333Y-74247200D01*
X168463333Y-74247200D02*
X168606190Y-74294819D01*
X168606190Y-74294819D02*
X168844285Y-74294819D01*
X167320476Y-74294819D02*
X167891904Y-74294819D01*
X167606190Y-74294819D02*
X167606190Y-73294819D01*
X167606190Y-73294819D02*
X167701428Y-73437676D01*
X167701428Y-73437676D02*
X167796666Y-73532914D01*
X167796666Y-73532914D02*
X167891904Y-73580533D01*
X166939523Y-73390057D02*
X166891904Y-73342438D01*
X166891904Y-73342438D02*
X166796666Y-73294819D01*
X166796666Y-73294819D02*
X166558571Y-73294819D01*
X166558571Y-73294819D02*
X166463333Y-73342438D01*
X166463333Y-73342438D02*
X166415714Y-73390057D01*
X166415714Y-73390057D02*
X166368095Y-73485295D01*
X166368095Y-73485295D02*
X166368095Y-73580533D01*
X166368095Y-73580533D02*
X166415714Y-73723390D01*
X166415714Y-73723390D02*
X166987142Y-74294819D01*
X166987142Y-74294819D02*
X166368095Y-74294819D01*
%TO.C,R22*%
X164184819Y-61457142D02*
X163708628Y-61123809D01*
X164184819Y-60885714D02*
X163184819Y-60885714D01*
X163184819Y-60885714D02*
X163184819Y-61266666D01*
X163184819Y-61266666D02*
X163232438Y-61361904D01*
X163232438Y-61361904D02*
X163280057Y-61409523D01*
X163280057Y-61409523D02*
X163375295Y-61457142D01*
X163375295Y-61457142D02*
X163518152Y-61457142D01*
X163518152Y-61457142D02*
X163613390Y-61409523D01*
X163613390Y-61409523D02*
X163661009Y-61361904D01*
X163661009Y-61361904D02*
X163708628Y-61266666D01*
X163708628Y-61266666D02*
X163708628Y-60885714D01*
X163280057Y-61838095D02*
X163232438Y-61885714D01*
X163232438Y-61885714D02*
X163184819Y-61980952D01*
X163184819Y-61980952D02*
X163184819Y-62219047D01*
X163184819Y-62219047D02*
X163232438Y-62314285D01*
X163232438Y-62314285D02*
X163280057Y-62361904D01*
X163280057Y-62361904D02*
X163375295Y-62409523D01*
X163375295Y-62409523D02*
X163470533Y-62409523D01*
X163470533Y-62409523D02*
X163613390Y-62361904D01*
X163613390Y-62361904D02*
X164184819Y-61790476D01*
X164184819Y-61790476D02*
X164184819Y-62409523D01*
X163280057Y-62790476D02*
X163232438Y-62838095D01*
X163232438Y-62838095D02*
X163184819Y-62933333D01*
X163184819Y-62933333D02*
X163184819Y-63171428D01*
X163184819Y-63171428D02*
X163232438Y-63266666D01*
X163232438Y-63266666D02*
X163280057Y-63314285D01*
X163280057Y-63314285D02*
X163375295Y-63361904D01*
X163375295Y-63361904D02*
X163470533Y-63361904D01*
X163470533Y-63361904D02*
X163613390Y-63314285D01*
X163613390Y-63314285D02*
X164184819Y-62742857D01*
X164184819Y-62742857D02*
X164184819Y-63361904D01*
%TO.C,J1*%
X152373333Y-48454819D02*
X152373333Y-49169104D01*
X152373333Y-49169104D02*
X152420952Y-49311961D01*
X152420952Y-49311961D02*
X152516190Y-49407200D01*
X152516190Y-49407200D02*
X152659047Y-49454819D01*
X152659047Y-49454819D02*
X152754285Y-49454819D01*
X151373333Y-49454819D02*
X151944761Y-49454819D01*
X151659047Y-49454819D02*
X151659047Y-48454819D01*
X151659047Y-48454819D02*
X151754285Y-48597676D01*
X151754285Y-48597676D02*
X151849523Y-48692914D01*
X151849523Y-48692914D02*
X151944761Y-48740533D01*
%TO.C,R20*%
X170454819Y-99157142D02*
X169978628Y-98823809D01*
X170454819Y-98585714D02*
X169454819Y-98585714D01*
X169454819Y-98585714D02*
X169454819Y-98966666D01*
X169454819Y-98966666D02*
X169502438Y-99061904D01*
X169502438Y-99061904D02*
X169550057Y-99109523D01*
X169550057Y-99109523D02*
X169645295Y-99157142D01*
X169645295Y-99157142D02*
X169788152Y-99157142D01*
X169788152Y-99157142D02*
X169883390Y-99109523D01*
X169883390Y-99109523D02*
X169931009Y-99061904D01*
X169931009Y-99061904D02*
X169978628Y-98966666D01*
X169978628Y-98966666D02*
X169978628Y-98585714D01*
X169550057Y-99538095D02*
X169502438Y-99585714D01*
X169502438Y-99585714D02*
X169454819Y-99680952D01*
X169454819Y-99680952D02*
X169454819Y-99919047D01*
X169454819Y-99919047D02*
X169502438Y-100014285D01*
X169502438Y-100014285D02*
X169550057Y-100061904D01*
X169550057Y-100061904D02*
X169645295Y-100109523D01*
X169645295Y-100109523D02*
X169740533Y-100109523D01*
X169740533Y-100109523D02*
X169883390Y-100061904D01*
X169883390Y-100061904D02*
X170454819Y-99490476D01*
X170454819Y-99490476D02*
X170454819Y-100109523D01*
X169454819Y-100728571D02*
X169454819Y-100823809D01*
X169454819Y-100823809D02*
X169502438Y-100919047D01*
X169502438Y-100919047D02*
X169550057Y-100966666D01*
X169550057Y-100966666D02*
X169645295Y-101014285D01*
X169645295Y-101014285D02*
X169835771Y-101061904D01*
X169835771Y-101061904D02*
X170073866Y-101061904D01*
X170073866Y-101061904D02*
X170264342Y-101014285D01*
X170264342Y-101014285D02*
X170359580Y-100966666D01*
X170359580Y-100966666D02*
X170407200Y-100919047D01*
X170407200Y-100919047D02*
X170454819Y-100823809D01*
X170454819Y-100823809D02*
X170454819Y-100728571D01*
X170454819Y-100728571D02*
X170407200Y-100633333D01*
X170407200Y-100633333D02*
X170359580Y-100585714D01*
X170359580Y-100585714D02*
X170264342Y-100538095D01*
X170264342Y-100538095D02*
X170073866Y-100490476D01*
X170073866Y-100490476D02*
X169835771Y-100490476D01*
X169835771Y-100490476D02*
X169645295Y-100538095D01*
X169645295Y-100538095D02*
X169550057Y-100585714D01*
X169550057Y-100585714D02*
X169502438Y-100633333D01*
X169502438Y-100633333D02*
X169454819Y-100728571D01*
%TO.C,D7*%
X158128094Y-52974819D02*
X158128094Y-51974819D01*
X158128094Y-51974819D02*
X157889999Y-51974819D01*
X157889999Y-51974819D02*
X157747142Y-52022438D01*
X157747142Y-52022438D02*
X157651904Y-52117676D01*
X157651904Y-52117676D02*
X157604285Y-52212914D01*
X157604285Y-52212914D02*
X157556666Y-52403390D01*
X157556666Y-52403390D02*
X157556666Y-52546247D01*
X157556666Y-52546247D02*
X157604285Y-52736723D01*
X157604285Y-52736723D02*
X157651904Y-52831961D01*
X157651904Y-52831961D02*
X157747142Y-52927200D01*
X157747142Y-52927200D02*
X157889999Y-52974819D01*
X157889999Y-52974819D02*
X158128094Y-52974819D01*
X157223332Y-51974819D02*
X156556666Y-51974819D01*
X156556666Y-51974819D02*
X156985237Y-52974819D01*
%TO.C,R37*%
X157524819Y-64957142D02*
X157048628Y-64623809D01*
X157524819Y-64385714D02*
X156524819Y-64385714D01*
X156524819Y-64385714D02*
X156524819Y-64766666D01*
X156524819Y-64766666D02*
X156572438Y-64861904D01*
X156572438Y-64861904D02*
X156620057Y-64909523D01*
X156620057Y-64909523D02*
X156715295Y-64957142D01*
X156715295Y-64957142D02*
X156858152Y-64957142D01*
X156858152Y-64957142D02*
X156953390Y-64909523D01*
X156953390Y-64909523D02*
X157001009Y-64861904D01*
X157001009Y-64861904D02*
X157048628Y-64766666D01*
X157048628Y-64766666D02*
X157048628Y-64385714D01*
X156524819Y-65290476D02*
X156524819Y-65909523D01*
X156524819Y-65909523D02*
X156905771Y-65576190D01*
X156905771Y-65576190D02*
X156905771Y-65719047D01*
X156905771Y-65719047D02*
X156953390Y-65814285D01*
X156953390Y-65814285D02*
X157001009Y-65861904D01*
X157001009Y-65861904D02*
X157096247Y-65909523D01*
X157096247Y-65909523D02*
X157334342Y-65909523D01*
X157334342Y-65909523D02*
X157429580Y-65861904D01*
X157429580Y-65861904D02*
X157477200Y-65814285D01*
X157477200Y-65814285D02*
X157524819Y-65719047D01*
X157524819Y-65719047D02*
X157524819Y-65433333D01*
X157524819Y-65433333D02*
X157477200Y-65338095D01*
X157477200Y-65338095D02*
X157429580Y-65290476D01*
X156524819Y-66242857D02*
X156524819Y-66909523D01*
X156524819Y-66909523D02*
X157524819Y-66480952D01*
%TO.C,R23*%
X157044819Y-56339642D02*
X156568628Y-56006309D01*
X157044819Y-55768214D02*
X156044819Y-55768214D01*
X156044819Y-55768214D02*
X156044819Y-56149166D01*
X156044819Y-56149166D02*
X156092438Y-56244404D01*
X156092438Y-56244404D02*
X156140057Y-56292023D01*
X156140057Y-56292023D02*
X156235295Y-56339642D01*
X156235295Y-56339642D02*
X156378152Y-56339642D01*
X156378152Y-56339642D02*
X156473390Y-56292023D01*
X156473390Y-56292023D02*
X156521009Y-56244404D01*
X156521009Y-56244404D02*
X156568628Y-56149166D01*
X156568628Y-56149166D02*
X156568628Y-55768214D01*
X156140057Y-56720595D02*
X156092438Y-56768214D01*
X156092438Y-56768214D02*
X156044819Y-56863452D01*
X156044819Y-56863452D02*
X156044819Y-57101547D01*
X156044819Y-57101547D02*
X156092438Y-57196785D01*
X156092438Y-57196785D02*
X156140057Y-57244404D01*
X156140057Y-57244404D02*
X156235295Y-57292023D01*
X156235295Y-57292023D02*
X156330533Y-57292023D01*
X156330533Y-57292023D02*
X156473390Y-57244404D01*
X156473390Y-57244404D02*
X157044819Y-56672976D01*
X157044819Y-56672976D02*
X157044819Y-57292023D01*
X156044819Y-57625357D02*
X156044819Y-58244404D01*
X156044819Y-58244404D02*
X156425771Y-57911071D01*
X156425771Y-57911071D02*
X156425771Y-58053928D01*
X156425771Y-58053928D02*
X156473390Y-58149166D01*
X156473390Y-58149166D02*
X156521009Y-58196785D01*
X156521009Y-58196785D02*
X156616247Y-58244404D01*
X156616247Y-58244404D02*
X156854342Y-58244404D01*
X156854342Y-58244404D02*
X156949580Y-58196785D01*
X156949580Y-58196785D02*
X156997200Y-58149166D01*
X156997200Y-58149166D02*
X157044819Y-58053928D01*
X157044819Y-58053928D02*
X157044819Y-57768214D01*
X157044819Y-57768214D02*
X156997200Y-57672976D01*
X156997200Y-57672976D02*
X156949580Y-57625357D01*
%TO.C,Q4*%
X154195238Y-75950057D02*
X154290476Y-75902438D01*
X154290476Y-75902438D02*
X154385714Y-75807200D01*
X154385714Y-75807200D02*
X154528571Y-75664342D01*
X154528571Y-75664342D02*
X154623809Y-75616723D01*
X154623809Y-75616723D02*
X154719047Y-75616723D01*
X154671428Y-75854819D02*
X154766666Y-75807200D01*
X154766666Y-75807200D02*
X154861904Y-75711961D01*
X154861904Y-75711961D02*
X154909523Y-75521485D01*
X154909523Y-75521485D02*
X154909523Y-75188152D01*
X154909523Y-75188152D02*
X154861904Y-74997676D01*
X154861904Y-74997676D02*
X154766666Y-74902438D01*
X154766666Y-74902438D02*
X154671428Y-74854819D01*
X154671428Y-74854819D02*
X154480952Y-74854819D01*
X154480952Y-74854819D02*
X154385714Y-74902438D01*
X154385714Y-74902438D02*
X154290476Y-74997676D01*
X154290476Y-74997676D02*
X154242857Y-75188152D01*
X154242857Y-75188152D02*
X154242857Y-75521485D01*
X154242857Y-75521485D02*
X154290476Y-75711961D01*
X154290476Y-75711961D02*
X154385714Y-75807200D01*
X154385714Y-75807200D02*
X154480952Y-75854819D01*
X154480952Y-75854819D02*
X154671428Y-75854819D01*
X153385714Y-75188152D02*
X153385714Y-75854819D01*
X153623809Y-74807200D02*
X153861904Y-75521485D01*
X153861904Y-75521485D02*
X153242857Y-75521485D01*
%TO.C,R11*%
X158342857Y-72454819D02*
X158676190Y-71978628D01*
X158914285Y-72454819D02*
X158914285Y-71454819D01*
X158914285Y-71454819D02*
X158533333Y-71454819D01*
X158533333Y-71454819D02*
X158438095Y-71502438D01*
X158438095Y-71502438D02*
X158390476Y-71550057D01*
X158390476Y-71550057D02*
X158342857Y-71645295D01*
X158342857Y-71645295D02*
X158342857Y-71788152D01*
X158342857Y-71788152D02*
X158390476Y-71883390D01*
X158390476Y-71883390D02*
X158438095Y-71931009D01*
X158438095Y-71931009D02*
X158533333Y-71978628D01*
X158533333Y-71978628D02*
X158914285Y-71978628D01*
X157390476Y-72454819D02*
X157961904Y-72454819D01*
X157676190Y-72454819D02*
X157676190Y-71454819D01*
X157676190Y-71454819D02*
X157771428Y-71597676D01*
X157771428Y-71597676D02*
X157866666Y-71692914D01*
X157866666Y-71692914D02*
X157961904Y-71740533D01*
X156438095Y-72454819D02*
X157009523Y-72454819D01*
X156723809Y-72454819D02*
X156723809Y-71454819D01*
X156723809Y-71454819D02*
X156819047Y-71597676D01*
X156819047Y-71597676D02*
X156914285Y-71692914D01*
X156914285Y-71692914D02*
X157009523Y-71740533D01*
%TO.C,Q6*%
X159895238Y-80750057D02*
X159990476Y-80702438D01*
X159990476Y-80702438D02*
X160085714Y-80607200D01*
X160085714Y-80607200D02*
X160228571Y-80464342D01*
X160228571Y-80464342D02*
X160323809Y-80416723D01*
X160323809Y-80416723D02*
X160419047Y-80416723D01*
X160371428Y-80654819D02*
X160466666Y-80607200D01*
X160466666Y-80607200D02*
X160561904Y-80511961D01*
X160561904Y-80511961D02*
X160609523Y-80321485D01*
X160609523Y-80321485D02*
X160609523Y-79988152D01*
X160609523Y-79988152D02*
X160561904Y-79797676D01*
X160561904Y-79797676D02*
X160466666Y-79702438D01*
X160466666Y-79702438D02*
X160371428Y-79654819D01*
X160371428Y-79654819D02*
X160180952Y-79654819D01*
X160180952Y-79654819D02*
X160085714Y-79702438D01*
X160085714Y-79702438D02*
X159990476Y-79797676D01*
X159990476Y-79797676D02*
X159942857Y-79988152D01*
X159942857Y-79988152D02*
X159942857Y-80321485D01*
X159942857Y-80321485D02*
X159990476Y-80511961D01*
X159990476Y-80511961D02*
X160085714Y-80607200D01*
X160085714Y-80607200D02*
X160180952Y-80654819D01*
X160180952Y-80654819D02*
X160371428Y-80654819D01*
X159085714Y-79654819D02*
X159276190Y-79654819D01*
X159276190Y-79654819D02*
X159371428Y-79702438D01*
X159371428Y-79702438D02*
X159419047Y-79750057D01*
X159419047Y-79750057D02*
X159514285Y-79892914D01*
X159514285Y-79892914D02*
X159561904Y-80083390D01*
X159561904Y-80083390D02*
X159561904Y-80464342D01*
X159561904Y-80464342D02*
X159514285Y-80559580D01*
X159514285Y-80559580D02*
X159466666Y-80607200D01*
X159466666Y-80607200D02*
X159371428Y-80654819D01*
X159371428Y-80654819D02*
X159180952Y-80654819D01*
X159180952Y-80654819D02*
X159085714Y-80607200D01*
X159085714Y-80607200D02*
X159038095Y-80559580D01*
X159038095Y-80559580D02*
X158990476Y-80464342D01*
X158990476Y-80464342D02*
X158990476Y-80226247D01*
X158990476Y-80226247D02*
X159038095Y-80131009D01*
X159038095Y-80131009D02*
X159085714Y-80083390D01*
X159085714Y-80083390D02*
X159180952Y-80035771D01*
X159180952Y-80035771D02*
X159371428Y-80035771D01*
X159371428Y-80035771D02*
X159466666Y-80083390D01*
X159466666Y-80083390D02*
X159514285Y-80131009D01*
X159514285Y-80131009D02*
X159561904Y-80226247D01*
%TO.C,D13*%
X197724819Y-82205714D02*
X196724819Y-82205714D01*
X196724819Y-82205714D02*
X196724819Y-82443809D01*
X196724819Y-82443809D02*
X196772438Y-82586666D01*
X196772438Y-82586666D02*
X196867676Y-82681904D01*
X196867676Y-82681904D02*
X196962914Y-82729523D01*
X196962914Y-82729523D02*
X197153390Y-82777142D01*
X197153390Y-82777142D02*
X197296247Y-82777142D01*
X197296247Y-82777142D02*
X197486723Y-82729523D01*
X197486723Y-82729523D02*
X197581961Y-82681904D01*
X197581961Y-82681904D02*
X197677200Y-82586666D01*
X197677200Y-82586666D02*
X197724819Y-82443809D01*
X197724819Y-82443809D02*
X197724819Y-82205714D01*
X197724819Y-83729523D02*
X197724819Y-83158095D01*
X197724819Y-83443809D02*
X196724819Y-83443809D01*
X196724819Y-83443809D02*
X196867676Y-83348571D01*
X196867676Y-83348571D02*
X196962914Y-83253333D01*
X196962914Y-83253333D02*
X197010533Y-83158095D01*
X196724819Y-84062857D02*
X196724819Y-84681904D01*
X196724819Y-84681904D02*
X197105771Y-84348571D01*
X197105771Y-84348571D02*
X197105771Y-84491428D01*
X197105771Y-84491428D02*
X197153390Y-84586666D01*
X197153390Y-84586666D02*
X197201009Y-84634285D01*
X197201009Y-84634285D02*
X197296247Y-84681904D01*
X197296247Y-84681904D02*
X197534342Y-84681904D01*
X197534342Y-84681904D02*
X197629580Y-84634285D01*
X197629580Y-84634285D02*
X197677200Y-84586666D01*
X197677200Y-84586666D02*
X197724819Y-84491428D01*
X197724819Y-84491428D02*
X197724819Y-84205714D01*
X197724819Y-84205714D02*
X197677200Y-84110476D01*
X197677200Y-84110476D02*
X197629580Y-84062857D01*
%TO.C,C13*%
X152127857Y-51029580D02*
X152175476Y-51077200D01*
X152175476Y-51077200D02*
X152318333Y-51124819D01*
X152318333Y-51124819D02*
X152413571Y-51124819D01*
X152413571Y-51124819D02*
X152556428Y-51077200D01*
X152556428Y-51077200D02*
X152651666Y-50981961D01*
X152651666Y-50981961D02*
X152699285Y-50886723D01*
X152699285Y-50886723D02*
X152746904Y-50696247D01*
X152746904Y-50696247D02*
X152746904Y-50553390D01*
X152746904Y-50553390D02*
X152699285Y-50362914D01*
X152699285Y-50362914D02*
X152651666Y-50267676D01*
X152651666Y-50267676D02*
X152556428Y-50172438D01*
X152556428Y-50172438D02*
X152413571Y-50124819D01*
X152413571Y-50124819D02*
X152318333Y-50124819D01*
X152318333Y-50124819D02*
X152175476Y-50172438D01*
X152175476Y-50172438D02*
X152127857Y-50220057D01*
X151175476Y-51124819D02*
X151746904Y-51124819D01*
X151461190Y-51124819D02*
X151461190Y-50124819D01*
X151461190Y-50124819D02*
X151556428Y-50267676D01*
X151556428Y-50267676D02*
X151651666Y-50362914D01*
X151651666Y-50362914D02*
X151746904Y-50410533D01*
X150842142Y-50124819D02*
X150223095Y-50124819D01*
X150223095Y-50124819D02*
X150556428Y-50505771D01*
X150556428Y-50505771D02*
X150413571Y-50505771D01*
X150413571Y-50505771D02*
X150318333Y-50553390D01*
X150318333Y-50553390D02*
X150270714Y-50601009D01*
X150270714Y-50601009D02*
X150223095Y-50696247D01*
X150223095Y-50696247D02*
X150223095Y-50934342D01*
X150223095Y-50934342D02*
X150270714Y-51029580D01*
X150270714Y-51029580D02*
X150318333Y-51077200D01*
X150318333Y-51077200D02*
X150413571Y-51124819D01*
X150413571Y-51124819D02*
X150699285Y-51124819D01*
X150699285Y-51124819D02*
X150794523Y-51077200D01*
X150794523Y-51077200D02*
X150842142Y-51029580D01*
%TO.C,R9*%
X164666666Y-90154819D02*
X164999999Y-89678628D01*
X165238094Y-90154819D02*
X165238094Y-89154819D01*
X165238094Y-89154819D02*
X164857142Y-89154819D01*
X164857142Y-89154819D02*
X164761904Y-89202438D01*
X164761904Y-89202438D02*
X164714285Y-89250057D01*
X164714285Y-89250057D02*
X164666666Y-89345295D01*
X164666666Y-89345295D02*
X164666666Y-89488152D01*
X164666666Y-89488152D02*
X164714285Y-89583390D01*
X164714285Y-89583390D02*
X164761904Y-89631009D01*
X164761904Y-89631009D02*
X164857142Y-89678628D01*
X164857142Y-89678628D02*
X165238094Y-89678628D01*
X164190475Y-90154819D02*
X163999999Y-90154819D01*
X163999999Y-90154819D02*
X163904761Y-90107200D01*
X163904761Y-90107200D02*
X163857142Y-90059580D01*
X163857142Y-90059580D02*
X163761904Y-89916723D01*
X163761904Y-89916723D02*
X163714285Y-89726247D01*
X163714285Y-89726247D02*
X163714285Y-89345295D01*
X163714285Y-89345295D02*
X163761904Y-89250057D01*
X163761904Y-89250057D02*
X163809523Y-89202438D01*
X163809523Y-89202438D02*
X163904761Y-89154819D01*
X163904761Y-89154819D02*
X164095237Y-89154819D01*
X164095237Y-89154819D02*
X164190475Y-89202438D01*
X164190475Y-89202438D02*
X164238094Y-89250057D01*
X164238094Y-89250057D02*
X164285713Y-89345295D01*
X164285713Y-89345295D02*
X164285713Y-89583390D01*
X164285713Y-89583390D02*
X164238094Y-89678628D01*
X164238094Y-89678628D02*
X164190475Y-89726247D01*
X164190475Y-89726247D02*
X164095237Y-89773866D01*
X164095237Y-89773866D02*
X163904761Y-89773866D01*
X163904761Y-89773866D02*
X163809523Y-89726247D01*
X163809523Y-89726247D02*
X163761904Y-89678628D01*
X163761904Y-89678628D02*
X163714285Y-89583390D01*
%TO.C,Q3*%
X164085238Y-76590057D02*
X164180476Y-76542438D01*
X164180476Y-76542438D02*
X164275714Y-76447200D01*
X164275714Y-76447200D02*
X164418571Y-76304342D01*
X164418571Y-76304342D02*
X164513809Y-76256723D01*
X164513809Y-76256723D02*
X164609047Y-76256723D01*
X164561428Y-76494819D02*
X164656666Y-76447200D01*
X164656666Y-76447200D02*
X164751904Y-76351961D01*
X164751904Y-76351961D02*
X164799523Y-76161485D01*
X164799523Y-76161485D02*
X164799523Y-75828152D01*
X164799523Y-75828152D02*
X164751904Y-75637676D01*
X164751904Y-75637676D02*
X164656666Y-75542438D01*
X164656666Y-75542438D02*
X164561428Y-75494819D01*
X164561428Y-75494819D02*
X164370952Y-75494819D01*
X164370952Y-75494819D02*
X164275714Y-75542438D01*
X164275714Y-75542438D02*
X164180476Y-75637676D01*
X164180476Y-75637676D02*
X164132857Y-75828152D01*
X164132857Y-75828152D02*
X164132857Y-76161485D01*
X164132857Y-76161485D02*
X164180476Y-76351961D01*
X164180476Y-76351961D02*
X164275714Y-76447200D01*
X164275714Y-76447200D02*
X164370952Y-76494819D01*
X164370952Y-76494819D02*
X164561428Y-76494819D01*
X163799523Y-75494819D02*
X163180476Y-75494819D01*
X163180476Y-75494819D02*
X163513809Y-75875771D01*
X163513809Y-75875771D02*
X163370952Y-75875771D01*
X163370952Y-75875771D02*
X163275714Y-75923390D01*
X163275714Y-75923390D02*
X163228095Y-75971009D01*
X163228095Y-75971009D02*
X163180476Y-76066247D01*
X163180476Y-76066247D02*
X163180476Y-76304342D01*
X163180476Y-76304342D02*
X163228095Y-76399580D01*
X163228095Y-76399580D02*
X163275714Y-76447200D01*
X163275714Y-76447200D02*
X163370952Y-76494819D01*
X163370952Y-76494819D02*
X163656666Y-76494819D01*
X163656666Y-76494819D02*
X163751904Y-76447200D01*
X163751904Y-76447200D02*
X163799523Y-76399580D01*
%TO.C,Q8*%
X119092557Y-84804761D02*
X119044938Y-84709523D01*
X119044938Y-84709523D02*
X118949700Y-84614285D01*
X118949700Y-84614285D02*
X118806842Y-84471428D01*
X118806842Y-84471428D02*
X118759223Y-84376190D01*
X118759223Y-84376190D02*
X118759223Y-84280952D01*
X118997319Y-84328571D02*
X118949700Y-84233333D01*
X118949700Y-84233333D02*
X118854461Y-84138095D01*
X118854461Y-84138095D02*
X118663985Y-84090476D01*
X118663985Y-84090476D02*
X118330652Y-84090476D01*
X118330652Y-84090476D02*
X118140176Y-84138095D01*
X118140176Y-84138095D02*
X118044938Y-84233333D01*
X118044938Y-84233333D02*
X117997319Y-84328571D01*
X117997319Y-84328571D02*
X117997319Y-84519047D01*
X117997319Y-84519047D02*
X118044938Y-84614285D01*
X118044938Y-84614285D02*
X118140176Y-84709523D01*
X118140176Y-84709523D02*
X118330652Y-84757142D01*
X118330652Y-84757142D02*
X118663985Y-84757142D01*
X118663985Y-84757142D02*
X118854461Y-84709523D01*
X118854461Y-84709523D02*
X118949700Y-84614285D01*
X118949700Y-84614285D02*
X118997319Y-84519047D01*
X118997319Y-84519047D02*
X118997319Y-84328571D01*
X118425890Y-85328571D02*
X118378271Y-85233333D01*
X118378271Y-85233333D02*
X118330652Y-85185714D01*
X118330652Y-85185714D02*
X118235414Y-85138095D01*
X118235414Y-85138095D02*
X118187795Y-85138095D01*
X118187795Y-85138095D02*
X118092557Y-85185714D01*
X118092557Y-85185714D02*
X118044938Y-85233333D01*
X118044938Y-85233333D02*
X117997319Y-85328571D01*
X117997319Y-85328571D02*
X117997319Y-85519047D01*
X117997319Y-85519047D02*
X118044938Y-85614285D01*
X118044938Y-85614285D02*
X118092557Y-85661904D01*
X118092557Y-85661904D02*
X118187795Y-85709523D01*
X118187795Y-85709523D02*
X118235414Y-85709523D01*
X118235414Y-85709523D02*
X118330652Y-85661904D01*
X118330652Y-85661904D02*
X118378271Y-85614285D01*
X118378271Y-85614285D02*
X118425890Y-85519047D01*
X118425890Y-85519047D02*
X118425890Y-85328571D01*
X118425890Y-85328571D02*
X118473509Y-85233333D01*
X118473509Y-85233333D02*
X118521128Y-85185714D01*
X118521128Y-85185714D02*
X118616366Y-85138095D01*
X118616366Y-85138095D02*
X118806842Y-85138095D01*
X118806842Y-85138095D02*
X118902080Y-85185714D01*
X118902080Y-85185714D02*
X118949700Y-85233333D01*
X118949700Y-85233333D02*
X118997319Y-85328571D01*
X118997319Y-85328571D02*
X118997319Y-85519047D01*
X118997319Y-85519047D02*
X118949700Y-85614285D01*
X118949700Y-85614285D02*
X118902080Y-85661904D01*
X118902080Y-85661904D02*
X118806842Y-85709523D01*
X118806842Y-85709523D02*
X118616366Y-85709523D01*
X118616366Y-85709523D02*
X118521128Y-85661904D01*
X118521128Y-85661904D02*
X118473509Y-85614285D01*
X118473509Y-85614285D02*
X118425890Y-85519047D01*
%TO.C,C4*%
X213566666Y-89559580D02*
X213614285Y-89607200D01*
X213614285Y-89607200D02*
X213757142Y-89654819D01*
X213757142Y-89654819D02*
X213852380Y-89654819D01*
X213852380Y-89654819D02*
X213995237Y-89607200D01*
X213995237Y-89607200D02*
X214090475Y-89511961D01*
X214090475Y-89511961D02*
X214138094Y-89416723D01*
X214138094Y-89416723D02*
X214185713Y-89226247D01*
X214185713Y-89226247D02*
X214185713Y-89083390D01*
X214185713Y-89083390D02*
X214138094Y-88892914D01*
X214138094Y-88892914D02*
X214090475Y-88797676D01*
X214090475Y-88797676D02*
X213995237Y-88702438D01*
X213995237Y-88702438D02*
X213852380Y-88654819D01*
X213852380Y-88654819D02*
X213757142Y-88654819D01*
X213757142Y-88654819D02*
X213614285Y-88702438D01*
X213614285Y-88702438D02*
X213566666Y-88750057D01*
X212709523Y-88988152D02*
X212709523Y-89654819D01*
X212947618Y-88607200D02*
X213185713Y-89321485D01*
X213185713Y-89321485D02*
X212566666Y-89321485D01*
%TO.C,C5*%
X177959580Y-85420833D02*
X178007200Y-85373214D01*
X178007200Y-85373214D02*
X178054819Y-85230357D01*
X178054819Y-85230357D02*
X178054819Y-85135119D01*
X178054819Y-85135119D02*
X178007200Y-84992262D01*
X178007200Y-84992262D02*
X177911961Y-84897024D01*
X177911961Y-84897024D02*
X177816723Y-84849405D01*
X177816723Y-84849405D02*
X177626247Y-84801786D01*
X177626247Y-84801786D02*
X177483390Y-84801786D01*
X177483390Y-84801786D02*
X177292914Y-84849405D01*
X177292914Y-84849405D02*
X177197676Y-84897024D01*
X177197676Y-84897024D02*
X177102438Y-84992262D01*
X177102438Y-84992262D02*
X177054819Y-85135119D01*
X177054819Y-85135119D02*
X177054819Y-85230357D01*
X177054819Y-85230357D02*
X177102438Y-85373214D01*
X177102438Y-85373214D02*
X177150057Y-85420833D01*
X177054819Y-86325595D02*
X177054819Y-85849405D01*
X177054819Y-85849405D02*
X177531009Y-85801786D01*
X177531009Y-85801786D02*
X177483390Y-85849405D01*
X177483390Y-85849405D02*
X177435771Y-85944643D01*
X177435771Y-85944643D02*
X177435771Y-86182738D01*
X177435771Y-86182738D02*
X177483390Y-86277976D01*
X177483390Y-86277976D02*
X177531009Y-86325595D01*
X177531009Y-86325595D02*
X177626247Y-86373214D01*
X177626247Y-86373214D02*
X177864342Y-86373214D01*
X177864342Y-86373214D02*
X177959580Y-86325595D01*
X177959580Y-86325595D02*
X178007200Y-86277976D01*
X178007200Y-86277976D02*
X178054819Y-86182738D01*
X178054819Y-86182738D02*
X178054819Y-85944643D01*
X178054819Y-85944643D02*
X178007200Y-85849405D01*
X178007200Y-85849405D02*
X177959580Y-85801786D01*
%TO.C,C10*%
X160442857Y-71159580D02*
X160490476Y-71207200D01*
X160490476Y-71207200D02*
X160633333Y-71254819D01*
X160633333Y-71254819D02*
X160728571Y-71254819D01*
X160728571Y-71254819D02*
X160871428Y-71207200D01*
X160871428Y-71207200D02*
X160966666Y-71111961D01*
X160966666Y-71111961D02*
X161014285Y-71016723D01*
X161014285Y-71016723D02*
X161061904Y-70826247D01*
X161061904Y-70826247D02*
X161061904Y-70683390D01*
X161061904Y-70683390D02*
X161014285Y-70492914D01*
X161014285Y-70492914D02*
X160966666Y-70397676D01*
X160966666Y-70397676D02*
X160871428Y-70302438D01*
X160871428Y-70302438D02*
X160728571Y-70254819D01*
X160728571Y-70254819D02*
X160633333Y-70254819D01*
X160633333Y-70254819D02*
X160490476Y-70302438D01*
X160490476Y-70302438D02*
X160442857Y-70350057D01*
X159490476Y-71254819D02*
X160061904Y-71254819D01*
X159776190Y-71254819D02*
X159776190Y-70254819D01*
X159776190Y-70254819D02*
X159871428Y-70397676D01*
X159871428Y-70397676D02*
X159966666Y-70492914D01*
X159966666Y-70492914D02*
X160061904Y-70540533D01*
X158871428Y-70254819D02*
X158776190Y-70254819D01*
X158776190Y-70254819D02*
X158680952Y-70302438D01*
X158680952Y-70302438D02*
X158633333Y-70350057D01*
X158633333Y-70350057D02*
X158585714Y-70445295D01*
X158585714Y-70445295D02*
X158538095Y-70635771D01*
X158538095Y-70635771D02*
X158538095Y-70873866D01*
X158538095Y-70873866D02*
X158585714Y-71064342D01*
X158585714Y-71064342D02*
X158633333Y-71159580D01*
X158633333Y-71159580D02*
X158680952Y-71207200D01*
X158680952Y-71207200D02*
X158776190Y-71254819D01*
X158776190Y-71254819D02*
X158871428Y-71254819D01*
X158871428Y-71254819D02*
X158966666Y-71207200D01*
X158966666Y-71207200D02*
X159014285Y-71159580D01*
X159014285Y-71159580D02*
X159061904Y-71064342D01*
X159061904Y-71064342D02*
X159109523Y-70873866D01*
X159109523Y-70873866D02*
X159109523Y-70635771D01*
X159109523Y-70635771D02*
X159061904Y-70445295D01*
X159061904Y-70445295D02*
X159014285Y-70350057D01*
X159014285Y-70350057D02*
X158966666Y-70302438D01*
X158966666Y-70302438D02*
X158871428Y-70254819D01*
%TO.C,R18*%
X157554819Y-99057142D02*
X157078628Y-98723809D01*
X157554819Y-98485714D02*
X156554819Y-98485714D01*
X156554819Y-98485714D02*
X156554819Y-98866666D01*
X156554819Y-98866666D02*
X156602438Y-98961904D01*
X156602438Y-98961904D02*
X156650057Y-99009523D01*
X156650057Y-99009523D02*
X156745295Y-99057142D01*
X156745295Y-99057142D02*
X156888152Y-99057142D01*
X156888152Y-99057142D02*
X156983390Y-99009523D01*
X156983390Y-99009523D02*
X157031009Y-98961904D01*
X157031009Y-98961904D02*
X157078628Y-98866666D01*
X157078628Y-98866666D02*
X157078628Y-98485714D01*
X157554819Y-100009523D02*
X157554819Y-99438095D01*
X157554819Y-99723809D02*
X156554819Y-99723809D01*
X156554819Y-99723809D02*
X156697676Y-99628571D01*
X156697676Y-99628571D02*
X156792914Y-99533333D01*
X156792914Y-99533333D02*
X156840533Y-99438095D01*
X156983390Y-100580952D02*
X156935771Y-100485714D01*
X156935771Y-100485714D02*
X156888152Y-100438095D01*
X156888152Y-100438095D02*
X156792914Y-100390476D01*
X156792914Y-100390476D02*
X156745295Y-100390476D01*
X156745295Y-100390476D02*
X156650057Y-100438095D01*
X156650057Y-100438095D02*
X156602438Y-100485714D01*
X156602438Y-100485714D02*
X156554819Y-100580952D01*
X156554819Y-100580952D02*
X156554819Y-100771428D01*
X156554819Y-100771428D02*
X156602438Y-100866666D01*
X156602438Y-100866666D02*
X156650057Y-100914285D01*
X156650057Y-100914285D02*
X156745295Y-100961904D01*
X156745295Y-100961904D02*
X156792914Y-100961904D01*
X156792914Y-100961904D02*
X156888152Y-100914285D01*
X156888152Y-100914285D02*
X156935771Y-100866666D01*
X156935771Y-100866666D02*
X156983390Y-100771428D01*
X156983390Y-100771428D02*
X156983390Y-100580952D01*
X156983390Y-100580952D02*
X157031009Y-100485714D01*
X157031009Y-100485714D02*
X157078628Y-100438095D01*
X157078628Y-100438095D02*
X157173866Y-100390476D01*
X157173866Y-100390476D02*
X157364342Y-100390476D01*
X157364342Y-100390476D02*
X157459580Y-100438095D01*
X157459580Y-100438095D02*
X157507200Y-100485714D01*
X157507200Y-100485714D02*
X157554819Y-100580952D01*
X157554819Y-100580952D02*
X157554819Y-100771428D01*
X157554819Y-100771428D02*
X157507200Y-100866666D01*
X157507200Y-100866666D02*
X157459580Y-100914285D01*
X157459580Y-100914285D02*
X157364342Y-100961904D01*
X157364342Y-100961904D02*
X157173866Y-100961904D01*
X157173866Y-100961904D02*
X157078628Y-100914285D01*
X157078628Y-100914285D02*
X157031009Y-100866666D01*
X157031009Y-100866666D02*
X156983390Y-100771428D01*
%TO.C,R7*%
X173024819Y-76173333D02*
X172548628Y-75840000D01*
X173024819Y-75601905D02*
X172024819Y-75601905D01*
X172024819Y-75601905D02*
X172024819Y-75982857D01*
X172024819Y-75982857D02*
X172072438Y-76078095D01*
X172072438Y-76078095D02*
X172120057Y-76125714D01*
X172120057Y-76125714D02*
X172215295Y-76173333D01*
X172215295Y-76173333D02*
X172358152Y-76173333D01*
X172358152Y-76173333D02*
X172453390Y-76125714D01*
X172453390Y-76125714D02*
X172501009Y-76078095D01*
X172501009Y-76078095D02*
X172548628Y-75982857D01*
X172548628Y-75982857D02*
X172548628Y-75601905D01*
X172024819Y-76506667D02*
X172024819Y-77173333D01*
X172024819Y-77173333D02*
X173024819Y-76744762D01*
%TO.C,C19*%
X109019580Y-83157142D02*
X109067200Y-83109523D01*
X109067200Y-83109523D02*
X109114819Y-82966666D01*
X109114819Y-82966666D02*
X109114819Y-82871428D01*
X109114819Y-82871428D02*
X109067200Y-82728571D01*
X109067200Y-82728571D02*
X108971961Y-82633333D01*
X108971961Y-82633333D02*
X108876723Y-82585714D01*
X108876723Y-82585714D02*
X108686247Y-82538095D01*
X108686247Y-82538095D02*
X108543390Y-82538095D01*
X108543390Y-82538095D02*
X108352914Y-82585714D01*
X108352914Y-82585714D02*
X108257676Y-82633333D01*
X108257676Y-82633333D02*
X108162438Y-82728571D01*
X108162438Y-82728571D02*
X108114819Y-82871428D01*
X108114819Y-82871428D02*
X108114819Y-82966666D01*
X108114819Y-82966666D02*
X108162438Y-83109523D01*
X108162438Y-83109523D02*
X108210057Y-83157142D01*
X109114819Y-84109523D02*
X109114819Y-83538095D01*
X109114819Y-83823809D02*
X108114819Y-83823809D01*
X108114819Y-83823809D02*
X108257676Y-83728571D01*
X108257676Y-83728571D02*
X108352914Y-83633333D01*
X108352914Y-83633333D02*
X108400533Y-83538095D01*
X109114819Y-84585714D02*
X109114819Y-84776190D01*
X109114819Y-84776190D02*
X109067200Y-84871428D01*
X109067200Y-84871428D02*
X109019580Y-84919047D01*
X109019580Y-84919047D02*
X108876723Y-85014285D01*
X108876723Y-85014285D02*
X108686247Y-85061904D01*
X108686247Y-85061904D02*
X108305295Y-85061904D01*
X108305295Y-85061904D02*
X108210057Y-85014285D01*
X108210057Y-85014285D02*
X108162438Y-84966666D01*
X108162438Y-84966666D02*
X108114819Y-84871428D01*
X108114819Y-84871428D02*
X108114819Y-84680952D01*
X108114819Y-84680952D02*
X108162438Y-84585714D01*
X108162438Y-84585714D02*
X108210057Y-84538095D01*
X108210057Y-84538095D02*
X108305295Y-84490476D01*
X108305295Y-84490476D02*
X108543390Y-84490476D01*
X108543390Y-84490476D02*
X108638628Y-84538095D01*
X108638628Y-84538095D02*
X108686247Y-84585714D01*
X108686247Y-84585714D02*
X108733866Y-84680952D01*
X108733866Y-84680952D02*
X108733866Y-84871428D01*
X108733866Y-84871428D02*
X108686247Y-84966666D01*
X108686247Y-84966666D02*
X108638628Y-85014285D01*
X108638628Y-85014285D02*
X108543390Y-85061904D01*
%TO.C,C20*%
X211042857Y-99759580D02*
X211090476Y-99807200D01*
X211090476Y-99807200D02*
X211233333Y-99854819D01*
X211233333Y-99854819D02*
X211328571Y-99854819D01*
X211328571Y-99854819D02*
X211471428Y-99807200D01*
X211471428Y-99807200D02*
X211566666Y-99711961D01*
X211566666Y-99711961D02*
X211614285Y-99616723D01*
X211614285Y-99616723D02*
X211661904Y-99426247D01*
X211661904Y-99426247D02*
X211661904Y-99283390D01*
X211661904Y-99283390D02*
X211614285Y-99092914D01*
X211614285Y-99092914D02*
X211566666Y-98997676D01*
X211566666Y-98997676D02*
X211471428Y-98902438D01*
X211471428Y-98902438D02*
X211328571Y-98854819D01*
X211328571Y-98854819D02*
X211233333Y-98854819D01*
X211233333Y-98854819D02*
X211090476Y-98902438D01*
X211090476Y-98902438D02*
X211042857Y-98950057D01*
X210661904Y-98950057D02*
X210614285Y-98902438D01*
X210614285Y-98902438D02*
X210519047Y-98854819D01*
X210519047Y-98854819D02*
X210280952Y-98854819D01*
X210280952Y-98854819D02*
X210185714Y-98902438D01*
X210185714Y-98902438D02*
X210138095Y-98950057D01*
X210138095Y-98950057D02*
X210090476Y-99045295D01*
X210090476Y-99045295D02*
X210090476Y-99140533D01*
X210090476Y-99140533D02*
X210138095Y-99283390D01*
X210138095Y-99283390D02*
X210709523Y-99854819D01*
X210709523Y-99854819D02*
X210090476Y-99854819D01*
X209471428Y-98854819D02*
X209376190Y-98854819D01*
X209376190Y-98854819D02*
X209280952Y-98902438D01*
X209280952Y-98902438D02*
X209233333Y-98950057D01*
X209233333Y-98950057D02*
X209185714Y-99045295D01*
X209185714Y-99045295D02*
X209138095Y-99235771D01*
X209138095Y-99235771D02*
X209138095Y-99473866D01*
X209138095Y-99473866D02*
X209185714Y-99664342D01*
X209185714Y-99664342D02*
X209233333Y-99759580D01*
X209233333Y-99759580D02*
X209280952Y-99807200D01*
X209280952Y-99807200D02*
X209376190Y-99854819D01*
X209376190Y-99854819D02*
X209471428Y-99854819D01*
X209471428Y-99854819D02*
X209566666Y-99807200D01*
X209566666Y-99807200D02*
X209614285Y-99759580D01*
X209614285Y-99759580D02*
X209661904Y-99664342D01*
X209661904Y-99664342D02*
X209709523Y-99473866D01*
X209709523Y-99473866D02*
X209709523Y-99235771D01*
X209709523Y-99235771D02*
X209661904Y-99045295D01*
X209661904Y-99045295D02*
X209614285Y-98950057D01*
X209614285Y-98950057D02*
X209566666Y-98902438D01*
X209566666Y-98902438D02*
X209471428Y-98854819D01*
%TO.C,C15*%
X134252080Y-78247142D02*
X134299700Y-78199523D01*
X134299700Y-78199523D02*
X134347319Y-78056666D01*
X134347319Y-78056666D02*
X134347319Y-77961428D01*
X134347319Y-77961428D02*
X134299700Y-77818571D01*
X134299700Y-77818571D02*
X134204461Y-77723333D01*
X134204461Y-77723333D02*
X134109223Y-77675714D01*
X134109223Y-77675714D02*
X133918747Y-77628095D01*
X133918747Y-77628095D02*
X133775890Y-77628095D01*
X133775890Y-77628095D02*
X133585414Y-77675714D01*
X133585414Y-77675714D02*
X133490176Y-77723333D01*
X133490176Y-77723333D02*
X133394938Y-77818571D01*
X133394938Y-77818571D02*
X133347319Y-77961428D01*
X133347319Y-77961428D02*
X133347319Y-78056666D01*
X133347319Y-78056666D02*
X133394938Y-78199523D01*
X133394938Y-78199523D02*
X133442557Y-78247142D01*
X134347319Y-79199523D02*
X134347319Y-78628095D01*
X134347319Y-78913809D02*
X133347319Y-78913809D01*
X133347319Y-78913809D02*
X133490176Y-78818571D01*
X133490176Y-78818571D02*
X133585414Y-78723333D01*
X133585414Y-78723333D02*
X133633033Y-78628095D01*
X133347319Y-80104285D02*
X133347319Y-79628095D01*
X133347319Y-79628095D02*
X133823509Y-79580476D01*
X133823509Y-79580476D02*
X133775890Y-79628095D01*
X133775890Y-79628095D02*
X133728271Y-79723333D01*
X133728271Y-79723333D02*
X133728271Y-79961428D01*
X133728271Y-79961428D02*
X133775890Y-80056666D01*
X133775890Y-80056666D02*
X133823509Y-80104285D01*
X133823509Y-80104285D02*
X133918747Y-80151904D01*
X133918747Y-80151904D02*
X134156842Y-80151904D01*
X134156842Y-80151904D02*
X134252080Y-80104285D01*
X134252080Y-80104285D02*
X134299700Y-80056666D01*
X134299700Y-80056666D02*
X134347319Y-79961428D01*
X134347319Y-79961428D02*
X134347319Y-79723333D01*
X134347319Y-79723333D02*
X134299700Y-79628095D01*
X134299700Y-79628095D02*
X134252080Y-79580476D01*
%TO.C,R1*%
X210466666Y-87854819D02*
X210799999Y-87378628D01*
X211038094Y-87854819D02*
X211038094Y-86854819D01*
X211038094Y-86854819D02*
X210657142Y-86854819D01*
X210657142Y-86854819D02*
X210561904Y-86902438D01*
X210561904Y-86902438D02*
X210514285Y-86950057D01*
X210514285Y-86950057D02*
X210466666Y-87045295D01*
X210466666Y-87045295D02*
X210466666Y-87188152D01*
X210466666Y-87188152D02*
X210514285Y-87283390D01*
X210514285Y-87283390D02*
X210561904Y-87331009D01*
X210561904Y-87331009D02*
X210657142Y-87378628D01*
X210657142Y-87378628D02*
X211038094Y-87378628D01*
X209514285Y-87854819D02*
X210085713Y-87854819D01*
X209799999Y-87854819D02*
X209799999Y-86854819D01*
X209799999Y-86854819D02*
X209895237Y-86997676D01*
X209895237Y-86997676D02*
X209990475Y-87092914D01*
X209990475Y-87092914D02*
X210085713Y-87140533D01*
%TO.C,D11*%
X130800674Y-78510914D02*
X130093567Y-77803808D01*
X130093567Y-77803808D02*
X129925208Y-77972166D01*
X129925208Y-77972166D02*
X129857865Y-78106853D01*
X129857865Y-78106853D02*
X129857865Y-78241540D01*
X129857865Y-78241540D02*
X129891537Y-78342556D01*
X129891537Y-78342556D02*
X129992552Y-78510914D01*
X129992552Y-78510914D02*
X130093567Y-78611930D01*
X130093567Y-78611930D02*
X130261926Y-78712945D01*
X130261926Y-78712945D02*
X130362941Y-78746617D01*
X130362941Y-78746617D02*
X130497628Y-78746617D01*
X130497628Y-78746617D02*
X130632315Y-78679273D01*
X130632315Y-78679273D02*
X130800674Y-78510914D01*
X129723178Y-79588410D02*
X130127239Y-79184349D01*
X129925208Y-79386380D02*
X129218102Y-78679273D01*
X129218102Y-78679273D02*
X129386460Y-78712945D01*
X129386460Y-78712945D02*
X129521147Y-78712945D01*
X129521147Y-78712945D02*
X129622163Y-78679273D01*
X129049743Y-80261846D02*
X129453804Y-79857785D01*
X129251773Y-80059815D02*
X128544666Y-79352708D01*
X128544666Y-79352708D02*
X128713025Y-79386380D01*
X128713025Y-79386380D02*
X128847712Y-79386380D01*
X128847712Y-79386380D02*
X128948727Y-79352708D01*
%TO.C,R19*%
X163954819Y-99157142D02*
X163478628Y-98823809D01*
X163954819Y-98585714D02*
X162954819Y-98585714D01*
X162954819Y-98585714D02*
X162954819Y-98966666D01*
X162954819Y-98966666D02*
X163002438Y-99061904D01*
X163002438Y-99061904D02*
X163050057Y-99109523D01*
X163050057Y-99109523D02*
X163145295Y-99157142D01*
X163145295Y-99157142D02*
X163288152Y-99157142D01*
X163288152Y-99157142D02*
X163383390Y-99109523D01*
X163383390Y-99109523D02*
X163431009Y-99061904D01*
X163431009Y-99061904D02*
X163478628Y-98966666D01*
X163478628Y-98966666D02*
X163478628Y-98585714D01*
X163954819Y-100109523D02*
X163954819Y-99538095D01*
X163954819Y-99823809D02*
X162954819Y-99823809D01*
X162954819Y-99823809D02*
X163097676Y-99728571D01*
X163097676Y-99728571D02*
X163192914Y-99633333D01*
X163192914Y-99633333D02*
X163240533Y-99538095D01*
X163954819Y-100585714D02*
X163954819Y-100776190D01*
X163954819Y-100776190D02*
X163907200Y-100871428D01*
X163907200Y-100871428D02*
X163859580Y-100919047D01*
X163859580Y-100919047D02*
X163716723Y-101014285D01*
X163716723Y-101014285D02*
X163526247Y-101061904D01*
X163526247Y-101061904D02*
X163145295Y-101061904D01*
X163145295Y-101061904D02*
X163050057Y-101014285D01*
X163050057Y-101014285D02*
X163002438Y-100966666D01*
X163002438Y-100966666D02*
X162954819Y-100871428D01*
X162954819Y-100871428D02*
X162954819Y-100680952D01*
X162954819Y-100680952D02*
X163002438Y-100585714D01*
X163002438Y-100585714D02*
X163050057Y-100538095D01*
X163050057Y-100538095D02*
X163145295Y-100490476D01*
X163145295Y-100490476D02*
X163383390Y-100490476D01*
X163383390Y-100490476D02*
X163478628Y-100538095D01*
X163478628Y-100538095D02*
X163526247Y-100585714D01*
X163526247Y-100585714D02*
X163573866Y-100680952D01*
X163573866Y-100680952D02*
X163573866Y-100871428D01*
X163573866Y-100871428D02*
X163526247Y-100966666D01*
X163526247Y-100966666D02*
X163478628Y-101014285D01*
X163478628Y-101014285D02*
X163383390Y-101061904D01*
%TO.C,R25*%
X164454819Y-52457142D02*
X163978628Y-52123809D01*
X164454819Y-51885714D02*
X163454819Y-51885714D01*
X163454819Y-51885714D02*
X163454819Y-52266666D01*
X163454819Y-52266666D02*
X163502438Y-52361904D01*
X163502438Y-52361904D02*
X163550057Y-52409523D01*
X163550057Y-52409523D02*
X163645295Y-52457142D01*
X163645295Y-52457142D02*
X163788152Y-52457142D01*
X163788152Y-52457142D02*
X163883390Y-52409523D01*
X163883390Y-52409523D02*
X163931009Y-52361904D01*
X163931009Y-52361904D02*
X163978628Y-52266666D01*
X163978628Y-52266666D02*
X163978628Y-51885714D01*
X163550057Y-52838095D02*
X163502438Y-52885714D01*
X163502438Y-52885714D02*
X163454819Y-52980952D01*
X163454819Y-52980952D02*
X163454819Y-53219047D01*
X163454819Y-53219047D02*
X163502438Y-53314285D01*
X163502438Y-53314285D02*
X163550057Y-53361904D01*
X163550057Y-53361904D02*
X163645295Y-53409523D01*
X163645295Y-53409523D02*
X163740533Y-53409523D01*
X163740533Y-53409523D02*
X163883390Y-53361904D01*
X163883390Y-53361904D02*
X164454819Y-52790476D01*
X164454819Y-52790476D02*
X164454819Y-53409523D01*
X163454819Y-54314285D02*
X163454819Y-53838095D01*
X163454819Y-53838095D02*
X163931009Y-53790476D01*
X163931009Y-53790476D02*
X163883390Y-53838095D01*
X163883390Y-53838095D02*
X163835771Y-53933333D01*
X163835771Y-53933333D02*
X163835771Y-54171428D01*
X163835771Y-54171428D02*
X163883390Y-54266666D01*
X163883390Y-54266666D02*
X163931009Y-54314285D01*
X163931009Y-54314285D02*
X164026247Y-54361904D01*
X164026247Y-54361904D02*
X164264342Y-54361904D01*
X164264342Y-54361904D02*
X164359580Y-54314285D01*
X164359580Y-54314285D02*
X164407200Y-54266666D01*
X164407200Y-54266666D02*
X164454819Y-54171428D01*
X164454819Y-54171428D02*
X164454819Y-53933333D01*
X164454819Y-53933333D02*
X164407200Y-53838095D01*
X164407200Y-53838095D02*
X164359580Y-53790476D01*
D11*
%TO.C,JP1*%
X148950000Y-73000000D02*
X150350000Y-73000000D01*
X150350000Y-71000000D02*
X148950000Y-71000000D01*
X151050000Y-72300000D02*
X151050000Y-71700000D01*
X148250000Y-71700000D02*
X148250000Y-72300000D01*
X151050000Y-71700000D02*
G75*
G03*
X150350000Y-71000000I-699999J1D01*
G01*
X150350000Y-73000000D02*
G75*
G03*
X151050000Y-72300000I1J699999D01*
G01*
X148250000Y-72300000D02*
G75*
G03*
X148950000Y-73000000I700000J0D01*
G01*
X148950000Y-71000000D02*
G75*
G03*
X148250000Y-71700000I0J-700000D01*
G01*
%TO.C,C6*%
X166838748Y-89535000D02*
X167361252Y-89535000D01*
X166838748Y-88065000D02*
X167361252Y-88065000D01*
%TO.C,C8*%
X158265000Y-83138748D02*
X158265000Y-83661252D01*
X159735000Y-83138748D02*
X159735000Y-83661252D01*
%TO.C,Q5*%
X161490000Y-69430000D02*
X161490000Y-67000000D01*
X161500000Y-69450000D02*
X162500000Y-69450000D01*
X163500000Y-69450000D02*
X164550000Y-69450000D01*
X164550000Y-69450000D02*
X164550000Y-67600000D01*
%TO.C,U6*%
X144165677Y-73093212D02*
X145084916Y-72173973D01*
X143599991Y-72527526D02*
X144165677Y-73093212D01*
X134973289Y-63900824D02*
X134266182Y-63193717D01*
X134266182Y-63193717D02*
X135185421Y-62274478D01*
D12*
X133258555Y-59216241D02*
X139799292Y-52675504D01*
D11*
X137909312Y-56880784D02*
X138061815Y-57033287D01*
X138418429Y-56371667D02*
X138570932Y-56524170D01*
X154489436Y-62769453D02*
X154913700Y-61213818D01*
X146286997Y-52587115D02*
X145579890Y-51880008D01*
X145579890Y-51880008D02*
X144589941Y-52869958D01*
%TO.C,D8*%
X159938748Y-53265000D02*
X160461252Y-53265000D01*
X159938748Y-54735000D02*
X160461252Y-54735000D01*
%TO.C,R21*%
X159820000Y-56332379D02*
X159820000Y-56667621D01*
X160580000Y-56332379D02*
X160580000Y-56667621D01*
%TO.C,C21*%
X208560000Y-97315835D02*
X208560000Y-97084165D01*
X207840000Y-97315835D02*
X207840000Y-97084165D01*
%TO.C,R15*%
X166274879Y-70440000D02*
X166610121Y-70440000D01*
X166274879Y-69680000D02*
X166610121Y-69680000D01*
%TO.C,R16*%
X164480000Y-79567621D02*
X164480000Y-79232379D01*
X163720000Y-79567621D02*
X163720000Y-79232379D01*
%TO.C,R8*%
X170380000Y-76507621D02*
X170380000Y-76172379D01*
X169620000Y-76507621D02*
X169620000Y-76172379D01*
%TO.C,R10*%
X161167621Y-88120000D02*
X160832379Y-88120000D01*
X161167621Y-88880000D02*
X160832379Y-88880000D01*
%TO.C,U3*%
X169100000Y-85420000D02*
X169100000Y-84620000D01*
X165980000Y-85420000D02*
X165980000Y-83620000D01*
X165980000Y-85420000D02*
X165980000Y-86220000D01*
X169100000Y-85420000D02*
X169100000Y-86220000D01*
%TO.C,Q1*%
X172500000Y-84040000D02*
X171850000Y-84040000D01*
X172500000Y-87160000D02*
X171850000Y-87160000D01*
X172500000Y-84040000D02*
X174175000Y-84040000D01*
X172500000Y-87160000D02*
X173150000Y-87160000D01*
%TO.C,R13*%
X168420000Y-67730121D02*
X168420000Y-67394879D01*
X167660000Y-67730121D02*
X167660000Y-67394879D01*
%TO.C,C2*%
X211470000Y-83624165D02*
X211470000Y-83855835D01*
X212190000Y-83624165D02*
X212190000Y-83855835D01*
%TO.C,R38*%
X113510000Y-84827064D02*
X113510000Y-83372936D01*
X111690000Y-84827064D02*
X111690000Y-83372936D01*
%TO.C,R34*%
X185055121Y-69900000D02*
X184719879Y-69900000D01*
X185055121Y-70660000D02*
X184719879Y-70660000D01*
%TO.C,R35*%
X200267621Y-79520000D02*
X199932379Y-79520000D01*
X200267621Y-80280000D02*
X199932379Y-80280000D01*
%TO.C,R5*%
X209782621Y-78275000D02*
X209447379Y-78275000D01*
X209782621Y-79035000D02*
X209447379Y-79035000D01*
%TO.C,R36*%
X206622379Y-76700000D02*
X206957621Y-76700000D01*
X206622379Y-75940000D02*
X206957621Y-75940000D01*
%TO.C,R30*%
X125077064Y-83195000D02*
X124622936Y-83195000D01*
X125077064Y-84665000D02*
X124622936Y-84665000D01*
%TO.C,C7*%
X163061252Y-81165000D02*
X162538748Y-81165000D01*
X163061252Y-82635000D02*
X162538748Y-82635000D01*
%TO.C,R29*%
X124132379Y-87480000D02*
X124467621Y-87480000D01*
X124132379Y-86720000D02*
X124467621Y-86720000D01*
%TO.C,R41*%
X206610000Y-98227064D02*
X206610000Y-96772936D01*
X204790000Y-98227064D02*
X204790000Y-96772936D01*
%TO.C,R24*%
X158420000Y-56232379D02*
X158420000Y-56567621D01*
X159180000Y-56232379D02*
X159180000Y-56567621D01*
%TO.C,C12*%
X165391252Y-76205000D02*
X164868748Y-76205000D01*
X165391252Y-77675000D02*
X164868748Y-77675000D01*
%TO.C,C11*%
X157340000Y-77684165D02*
X157340000Y-77915835D01*
X158060000Y-77684165D02*
X158060000Y-77915835D01*
%TO.C,Q2*%
X167270000Y-78690000D02*
X169700000Y-78690000D01*
X167250000Y-78700000D02*
X167250000Y-79700000D01*
X167250000Y-80700000D02*
X167250000Y-81750000D01*
X167250000Y-81750000D02*
X169100000Y-81750000D01*
%TO.C,C9*%
X162415835Y-89740000D02*
X162184165Y-89740000D01*
X162415835Y-90460000D02*
X162184165Y-90460000D01*
%TO.C,R2*%
X213520121Y-85800000D02*
X213184879Y-85800000D01*
X213520121Y-86560000D02*
X213184879Y-86560000D01*
%TO.C,U4*%
X162677500Y-87250000D02*
X163477500Y-87250000D01*
X162677500Y-84130000D02*
X164477500Y-84130000D01*
X162677500Y-84130000D02*
X161877500Y-84130000D01*
X162677500Y-87250000D02*
X161877500Y-87250000D01*
%TO.C,D10*%
X127886292Y-80646761D02*
X128255759Y-80277294D01*
X128925739Y-81686208D02*
X129295206Y-81316741D01*
%TO.C,R6*%
X206952621Y-78305000D02*
X206617379Y-78305000D01*
X206952621Y-79065000D02*
X206617379Y-79065000D01*
%TO.C,R4*%
X212602621Y-78305000D02*
X212267379Y-78305000D01*
X212602621Y-79065000D02*
X212267379Y-79065000D01*
%TO.C,D6*%
X164061252Y-56335000D02*
X163538748Y-56335000D01*
X164061252Y-54865000D02*
X163538748Y-54865000D01*
%TO.C,R3*%
X212210000Y-81315121D02*
X212210000Y-80979879D01*
X211450000Y-81315121D02*
X211450000Y-80979879D01*
%TO.C,Q7*%
X165402500Y-58817500D02*
X165402500Y-58167500D01*
X162282500Y-58817500D02*
X162282500Y-58167500D01*
X165402500Y-58817500D02*
X165402500Y-60492500D01*
X162282500Y-58817500D02*
X162282500Y-59467500D01*
%TO.C,R40*%
X214210000Y-98227064D02*
X214210000Y-96772936D01*
X212390000Y-98227064D02*
X212390000Y-96772936D01*
%TO.C,R26*%
X153325121Y-53470000D02*
X152989879Y-53470000D01*
X153325121Y-54230000D02*
X152989879Y-54230000D01*
%TO.C,C1*%
X213155000Y-82758748D02*
X213155000Y-83281252D01*
X214625000Y-82758748D02*
X214625000Y-83281252D01*
%TO.C,R12*%
X157080000Y-74067621D02*
X157080000Y-73732379D01*
X156320000Y-74067621D02*
X156320000Y-73732379D01*
%TO.C,R17*%
X149570000Y-100097621D02*
X149570000Y-99762379D01*
X148810000Y-100097621D02*
X148810000Y-99762379D01*
%TO.C,D9*%
X124586292Y-80656761D02*
X124955759Y-80287294D01*
X125625739Y-81696208D02*
X125995206Y-81326741D01*
%TO.C,C3*%
X202325000Y-83571252D02*
X202325000Y-83048748D01*
X200855000Y-83571252D02*
X200855000Y-83048748D01*
%TO.C,C14*%
X128331248Y-84685000D02*
X128853752Y-84685000D01*
X128331248Y-83215000D02*
X128853752Y-83215000D01*
%TO.C,C18*%
X109760000Y-83915835D02*
X109760000Y-83684165D01*
X109040000Y-83915835D02*
X109040000Y-83684165D01*
%TO.C,U1*%
X207030000Y-79790000D02*
X205080000Y-79790000D01*
X207030000Y-79790000D02*
X210480000Y-79790000D01*
X207030000Y-84910000D02*
X208980000Y-84910000D01*
X207030000Y-84910000D02*
X205080000Y-84910000D01*
%TO.C,R14*%
X166220000Y-67730121D02*
X166220000Y-67394879D01*
X165460000Y-67730121D02*
X165460000Y-67394879D01*
%TO.C,R39*%
X105810000Y-84827064D02*
X105810000Y-83372936D01*
X103990000Y-84827064D02*
X103990000Y-83372936D01*
%TO.C,D12*%
X169005000Y-75918748D02*
X169005000Y-76441252D01*
X167535000Y-75918748D02*
X167535000Y-76441252D01*
%TO.C,R22*%
X164520000Y-61932379D02*
X164520000Y-62267621D01*
X165280000Y-61932379D02*
X165280000Y-62267621D01*
%TO.C,J1*%
X162845000Y-43925000D02*
X162845000Y-41195000D01*
X153775000Y-50605000D02*
X162725000Y-50605000D01*
X153655000Y-41195000D02*
X162845000Y-41195000D01*
X153655000Y-47525000D02*
X153655000Y-46625000D01*
X153655000Y-43925000D02*
X153655000Y-41195000D01*
X162845000Y-47525000D02*
X162845000Y-46625000D01*
%TO.C,R20*%
X169050000Y-100177621D02*
X169050000Y-99842379D01*
X168290000Y-100177621D02*
X168290000Y-99842379D01*
%TO.C,D7*%
X156038748Y-53265000D02*
X156561252Y-53265000D01*
X156038748Y-54735000D02*
X156561252Y-54735000D01*
%TO.C,R37*%
X156280000Y-65767621D02*
X156280000Y-65432379D01*
X155520000Y-65767621D02*
X155520000Y-65432379D01*
%TO.C,R23*%
X157320000Y-56232379D02*
X157320000Y-56567621D01*
X158080000Y-56232379D02*
X158080000Y-56567621D01*
%TO.C,Q4*%
X154100000Y-76240000D02*
X153450000Y-76240000D01*
X154100000Y-79360000D02*
X153450000Y-79360000D01*
X154100000Y-76240000D02*
X155775000Y-76240000D01*
X154100000Y-79360000D02*
X154750000Y-79360000D01*
%TO.C,R11*%
X158680000Y-74067621D02*
X158680000Y-73732379D01*
X157920000Y-74067621D02*
X157920000Y-73732379D01*
%TO.C,Q6*%
X160850000Y-79330000D02*
X161500000Y-79330000D01*
X160850000Y-76210000D02*
X161500000Y-76210000D01*
X160850000Y-79330000D02*
X159175000Y-79330000D01*
X160850000Y-76210000D02*
X160200000Y-76210000D01*
%TO.C,D13*%
X198435000Y-83681252D02*
X198435000Y-83158748D01*
X199905000Y-83681252D02*
X199905000Y-83158748D01*
%TO.C,C13*%
X153215580Y-52600000D02*
X152934420Y-52600000D01*
X153215580Y-51580000D02*
X152934420Y-51580000D01*
%TO.C,R9*%
X163620121Y-88120000D02*
X163284879Y-88120000D01*
X163620121Y-88880000D02*
X163284879Y-88880000D01*
%TO.C,Q3*%
X164920000Y-75100000D02*
X162490000Y-75100000D01*
X164940000Y-75090000D02*
X164940000Y-74090000D01*
X164940000Y-73090000D02*
X164940000Y-72040000D01*
X164940000Y-72040000D02*
X163090000Y-72040000D01*
%TO.C,Q8*%
X122660000Y-84900000D02*
X122660000Y-84250000D01*
X119540000Y-84900000D02*
X119540000Y-84250000D01*
X122660000Y-84900000D02*
X122660000Y-86575000D01*
X119540000Y-84900000D02*
X119540000Y-85550000D01*
%TO.C,C4*%
X213515835Y-87540000D02*
X213284165Y-87540000D01*
X213515835Y-88260000D02*
X213284165Y-88260000D01*
%TO.C,C5*%
X176655000Y-85848752D02*
X176655000Y-85326248D01*
X175185000Y-85848752D02*
X175185000Y-85326248D01*
%TO.C,C10*%
X161235000Y-73661252D02*
X161235000Y-73138748D01*
X159765000Y-73661252D02*
X159765000Y-73138748D01*
%TO.C,R18*%
X156100000Y-100107621D02*
X156100000Y-99772379D01*
X155340000Y-100107621D02*
X155340000Y-99772379D01*
%TO.C,R7*%
X171780000Y-76507621D02*
X171780000Y-76172379D01*
X171020000Y-76507621D02*
X171020000Y-76172379D01*
%TO.C,C19*%
X107860000Y-83915835D02*
X107860000Y-83684165D01*
X107140000Y-83915835D02*
X107140000Y-83684165D01*
%TO.C,C20*%
X211060000Y-97415835D02*
X211060000Y-97184165D01*
X210340000Y-97415835D02*
X210340000Y-97184165D01*
%TO.C,C15*%
X131327500Y-78618748D02*
X131327500Y-79141252D01*
X132797500Y-78618748D02*
X132797500Y-79141252D01*
%TO.C,R1*%
X210720121Y-85800000D02*
X210384879Y-85800000D01*
X210720121Y-86560000D02*
X210384879Y-86560000D01*
%TO.C,D11*%
X127728043Y-77525010D02*
X128097510Y-77155543D01*
X128767490Y-78564457D02*
X129136957Y-78194990D01*
%TO.C,R19*%
X162550000Y-100160121D02*
X162550000Y-99824879D01*
X161790000Y-100160121D02*
X161790000Y-99824879D01*
%TO.C,R25*%
X162360000Y-53192379D02*
X162360000Y-53527621D01*
X163120000Y-53192379D02*
X163120000Y-53527621D01*
%TD*%
M02*
